{
	"asset":{
		"generator":"Khronos glTF Blender I/O v5.0.21",
		"version":"2.0"
	},
	"extensionsUsed":[
		"KHR_materials_specular"
	],
	"scene":0,
	"scenes":[
		{
			"name":"Scene",
			"nodes":[
				0
			]
		}
	],
	"nodes":[
		{
			"mesh":0,
			"name":"Moss",
			"rotation":[
				0.7071068286895752,
				0,
				0,
				0.7071068286895752
			]
		}
	],
	"materials":[
		{
			"doubleSided":true,
			"extensions":{
				"KHR_materials_specular":{
					"specularFactor":0
				}
			},
			"name":"mat_77_98_40",
			"pbrMetallicRoughness":{
				"baseColorFactor":[
					0.3019999861717224,
					0.3840000033378601,
					0.15700000524520874,
					1
				],
				"metallicFactor":0
			}
		},
		{
			"doubleSided":true,
			"extensions":{
				"KHR_materials_specular":{
					"specularFactor":0
				}
			},
			"name":"mat_90_115_46",
			"pbrMetallicRoughness":{
				"baseColorFactor":[
					0.3529999852180481,
					0.45100000500679016,
					0.18000000715255737,
					1
				],
				"metallicFactor":0
			}
		},
		{
			"doubleSided":true,
			"extensions":{
				"KHR_materials_specular":{
					"specularFactor":0
				}
			},
			"name":"mat_102_130_54",
			"pbrMetallicRoughness":{
				"baseColorFactor":[
					0.4000000059604645,
					0.5099999904632568,
					0.21199999749660492,
					1
				],
				"metallicFactor":0
			}
		}
	],
	"meshes":[
		{
			"name":"Moss",
			"primitives":[
				{
					"attributes":{
						"POSITION":0,
						"NORMAL":1
					},
					"indices":2,
					"material":0
				},
				{
					"attributes":{
						"POSITION":3,
						"NORMAL":4
					},
					"indices":5,
					"material":1
				},
				{
					"attributes":{
						"POSITION":6,
						"NORMAL":7
					},
					"indices":8,
					"material":2
				}
			]
		}
	],
	"accessors":[
		{
			"bufferView":0,
			"componentType":5126,
			"count":720,
			"max":[
				16,
				16,
				0
			],
			"min":[
				0,
				0,
				-5
			],
			"type":"VEC3"
		},
		{
			"bufferView":1,
			"componentType":5126,
			"count":720,
			"type":"VEC3"
		},
		{
			"bufferView":2,
			"componentType":5123,
			"count":1080,
			"type":"SCALAR"
		},
		{
			"bufferView":3,
			"componentType":5126,
			"count":1032,
			"max":[
				14,
				15,
				0
			],
			"min":[
				1,
				0,
				-5
			],
			"type":"VEC3"
		},
		{
			"bufferView":4,
			"componentType":5126,
			"count":1032,
			"type":"VEC3"
		},
		{
			"bufferView":5,
			"componentType":5123,
			"count":1548,
			"type":"SCALAR"
		},
		{
			"bufferView":6,
			"componentType":5126,
			"count":384,
			"max":[
				15,
				15,
				0
			],
			"min":[
				1,
				0,
				-5
			],
			"type":"VEC3"
		},
		{
			"bufferView":7,
			"componentType":5126,
			"count":384,
			"type":"VEC3"
		},
		{
			"bufferView":8,
			"componentType":5123,
			"count":576,
			"type":"SCALAR"
		}
	],
	"bufferViews":[
		{
			"buffer":0,
			"byteLength":8640,
			"byteOffset":0,
			"target":34962
		},
		{
			"buffer":0,
			"byteLength":8640,
			"byteOffset":8640,
			"target":34962
		},
		{
			"buffer":0,
			"byteLength":2160,
			"byteOffset":17280,
			"target":34963
		},
		{
			"buffer":0,
			"byteLength":12384,
			"byteOffset":19440,
			"target":34962
		},
		{
			"buffer":0,
			"byteLength":12384,
			"byteOffset":31824,
			"target":34962
		},
		{
			"buffer":0,
			"byteLength":3096,
			"byteOffset":44208,
			"target":34963
		},
		{
			"buffer":0,
			"byteLength":4608,
			"byteOffset":47304,
			"target":34962
		},
		{
			"buffer":0,
			"byteLength":4608,
			"byteOffset":51912,
			"target":34962
		},
		{
			"buffer":0,
			"byteLength":1152,
			"byteOffset":56520,
			"target":34963
		}
	],
	"buffers":[
		{
			"byteLength":57672,
			"uri":"Moss.bin"
		}
	]
}
