{
	"asset":{
		"generator":"Khronos glTF Blender I/O v5.0.21",
		"version":"2.0"
	},
	"extensionsUsed":[
		"KHR_materials_specular"
	],
	"scene":0,
	"scenes":[
		{
			"name":"Scene",
			"nodes":[
				0
			]
		}
	],
	"nodes":[
		{
			"mesh":0,
			"name":"STN_WALL_DARK_RBL",
			"rotation":[
				0.7071068286895752,
				0,
				0,
				0.7071068286895752
			]
		}
	],
	"materials":[
		{
			"doubleSided":true,
			"extensions":{
				"KHR_materials_specular":{
					"specularFactor":0
				}
			},
			"name":"mat_73_71_63",
			"pbrMetallicRoughness":{
				"baseColorFactor":[
					0.28600001335144043,
					0.27799999713897705,
					0.24699999392032623,
					1
				],
				"metallicFactor":0
			}
		},
		{
			"doubleSided":true,
			"extensions":{
				"KHR_materials_specular":{
					"specularFactor":0
				}
			},
			"name":"mat_127_122_109",
			"pbrMetallicRoughness":{
				"baseColorFactor":[
					0.49799999594688416,
					0.4779999852180481,
					0.4269999861717224,
					1
				],
				"metallicFactor":0
			}
		},
		{
			"doubleSided":true,
			"extensions":{
				"KHR_materials_specular":{
					"specularFactor":0
				}
			},
			"name":"mat_150_147_137",
			"pbrMetallicRoughness":{
				"baseColorFactor":[
					0.5879999995231628,
					0.5759999752044678,
					0.5370000004768372,
					1
				],
				"metallicFactor":0
			}
		},
		{
			"doubleSided":true,
			"extensions":{
				"KHR_materials_specular":{
					"specularFactor":0
				}
			},
			"name":"mat_152_148_137",
			"pbrMetallicRoughness":{
				"baseColorFactor":[
					0.5960000157356262,
					0.5799999833106995,
					0.5370000004768372,
					1
				],
				"metallicFactor":0
			}
		},
		{
			"doubleSided":true,
			"extensions":{
				"KHR_materials_specular":{
					"specularFactor":0
				}
			},
			"name":"mat_165_161_149",
			"pbrMetallicRoughness":{
				"baseColorFactor":[
					0.6470000147819519,
					0.6309999823570251,
					0.5839999914169312,
					1
				],
				"metallicFactor":0
			}
		},
		{
			"doubleSided":true,
			"extensions":{
				"KHR_materials_specular":{
					"specularFactor":0
				}
			},
			"name":"mat_43_43_40",
			"pbrMetallicRoughness":{
				"baseColorFactor":[
					0.16899999976158142,
					0.16899999976158142,
					0.15700000524520874,
					1
				],
				"metallicFactor":0
			}
		}
	],
	"meshes":[
		{
			"name":"STN_WALL_DARK_RBL",
			"primitives":[
				{
					"attributes":{
						"POSITION":0,
						"NORMAL":1
					},
					"indices":2,
					"material":0
				},
				{
					"attributes":{
						"POSITION":3,
						"NORMAL":4
					},
					"indices":5,
					"material":1
				},
				{
					"attributes":{
						"POSITION":6,
						"NORMAL":7
					},
					"indices":8,
					"material":2
				},
				{
					"attributes":{
						"POSITION":9,
						"NORMAL":10
					},
					"indices":11,
					"material":3
				},
				{
					"attributes":{
						"POSITION":12,
						"NORMAL":13
					},
					"indices":14,
					"material":4
				},
				{
					"attributes":{
						"POSITION":15,
						"NORMAL":16
					},
					"indices":17,
					"material":5
				}
			]
		}
	],
	"accessors":[
		{
			"bufferView":0,
			"componentType":5126,
			"count":1944,
			"max":[
				16,
				8,
				0
			],
			"min":[
				1,
				0,
				-4
			],
			"type":"VEC3"
		},
		{
			"bufferView":1,
			"componentType":5126,
			"count":1944,
			"type":"VEC3"
		},
		{
			"bufferView":2,
			"componentType":5123,
			"count":2916,
			"type":"SCALAR"
		},
		{
			"bufferView":3,
			"componentType":5126,
			"count":456,
			"max":[
				16,
				5,
				0
			],
			"min":[
				0,
				0,
				-4
			],
			"type":"VEC3"
		},
		{
			"bufferView":4,
			"componentType":5126,
			"count":456,
			"type":"VEC3"
		},
		{
			"bufferView":5,
			"componentType":5123,
			"count":684,
			"type":"SCALAR"
		},
		{
			"bufferView":6,
			"componentType":5126,
			"count":264,
			"max":[
				16,
				6,
				0
			],
			"min":[
				0,
				0,
				-4
			],
			"type":"VEC3"
		},
		{
			"bufferView":7,
			"componentType":5126,
			"count":264,
			"type":"VEC3"
		},
		{
			"bufferView":8,
			"componentType":5123,
			"count":396,
			"type":"SCALAR"
		},
		{
			"bufferView":9,
			"componentType":5126,
			"count":216,
			"max":[
				16,
				6,
				0
			],
			"min":[
				1,
				0,
				-4
			],
			"type":"VEC3"
		},
		{
			"bufferView":10,
			"componentType":5126,
			"count":216,
			"type":"VEC3"
		},
		{
			"bufferView":11,
			"componentType":5123,
			"count":324,
			"type":"SCALAR"
		},
		{
			"bufferView":12,
			"componentType":5126,
			"count":48,
			"max":[
				15,
				2,
				0
			],
			"min":[
				14,
				1,
				-4
			],
			"type":"VEC3"
		},
		{
			"bufferView":13,
			"componentType":5126,
			"count":48,
			"type":"VEC3"
		},
		{
			"bufferView":14,
			"componentType":5123,
			"count":72,
			"type":"SCALAR"
		},
		{
			"bufferView":15,
			"componentType":5126,
			"count":1656,
			"max":[
				15,
				8,
				-1
			],
			"min":[
				1,
				0,
				-3
			],
			"type":"VEC3"
		},
		{
			"bufferView":16,
			"componentType":5126,
			"count":1656,
			"type":"VEC3"
		},
		{
			"bufferView":17,
			"componentType":5123,
			"count":2484,
			"type":"SCALAR"
		}
	],
	"bufferViews":[
		{
			"buffer":0,
			"byteLength":23328,
			"byteOffset":0,
			"target":34962
		},
		{
			"buffer":0,
			"byteLength":23328,
			"byteOffset":23328,
			"target":34962
		},
		{
			"buffer":0,
			"byteLength":5832,
			"byteOffset":46656,
			"target":34963
		},
		{
			"buffer":0,
			"byteLength":5472,
			"byteOffset":52488,
			"target":34962
		},
		{
			"buffer":0,
			"byteLength":5472,
			"byteOffset":57960,
			"target":34962
		},
		{
			"buffer":0,
			"byteLength":1368,
			"byteOffset":63432,
			"target":34963
		},
		{
			"buffer":0,
			"byteLength":3168,
			"byteOffset":64800,
			"target":34962
		},
		{
			"buffer":0,
			"byteLength":3168,
			"byteOffset":67968,
			"target":34962
		},
		{
			"buffer":0,
			"byteLength":792,
			"byteOffset":71136,
			"target":34963
		},
		{
			"buffer":0,
			"byteLength":2592,
			"byteOffset":71928,
			"target":34962
		},
		{
			"buffer":0,
			"byteLength":2592,
			"byteOffset":74520,
			"target":34962
		},
		{
			"buffer":0,
			"byteLength":648,
			"byteOffset":77112,
			"target":34963
		},
		{
			"buffer":0,
			"byteLength":576,
			"byteOffset":77760,
			"target":34962
		},
		{
			"buffer":0,
			"byteLength":576,
			"byteOffset":78336,
			"target":34962
		},
		{
			"buffer":0,
			"byteLength":144,
			"byteOffset":78912,
			"target":34963
		},
		{
			"buffer":0,
			"byteLength":19872,
			"byteOffset":79056,
			"target":34962
		},
		{
			"buffer":0,
			"byteLength":19872,
			"byteOffset":98928,
			"target":34962
		},
		{
			"buffer":0,
			"byteLength":4968,
			"byteOffset":118800,
			"target":34963
		}
	],
	"buffers":[
		{
			"byteLength":123768,
			"uri":"STN_WALL_DARK_RBL.bin"
		}
	]
}
