{
	"asset":{
		"generator":"Khronos glTF Blender I/O v5.0.21",
		"version":"2.0"
	},
	"extensionsUsed":[
		"KHR_materials_specular"
	],
	"scene":0,
	"scenes":[
		{
			"name":"Scene",
			"nodes":[
				0
			]
		}
	],
	"nodes":[
		{
			"mesh":0,
			"name":"STN_PLR_LNGR_DARK",
			"rotation":[
				0.7071068286895752,
				0,
				0,
				0.7071068286895752
			]
		}
	],
	"materials":[
		{
			"doubleSided":true,
			"extensions":{
				"KHR_materials_specular":{
					"specularFactor":0
				}
			},
			"name":"mat_73_71_63",
			"pbrMetallicRoughness":{
				"baseColorFactor":[
					0.28600001335144043,
					0.27799999713897705,
					0.24699999392032623,
					1
				],
				"metallicFactor":0
			}
		},
		{
			"doubleSided":true,
			"extensions":{
				"KHR_materials_specular":{
					"specularFactor":0
				}
			},
			"name":"mat_156_154_148",
			"pbrMetallicRoughness":{
				"baseColorFactor":[
					0.6119999885559082,
					0.6039999723434448,
					0.5799999833106995,
					1
				],
				"metallicFactor":0
			}
		},
		{
			"doubleSided":true,
			"extensions":{
				"KHR_materials_specular":{
					"specularFactor":0
				}
			},
			"name":"mat_141_137_125",
			"pbrMetallicRoughness":{
				"baseColorFactor":[
					0.5529999732971191,
					0.5370000004768372,
					0.49000000953674316,
					1
				],
				"metallicFactor":0
			}
		},
		{
			"doubleSided":true,
			"extensions":{
				"KHR_materials_specular":{
					"specularFactor":0
				}
			},
			"name":"mat_43_43_40",
			"pbrMetallicRoughness":{
				"baseColorFactor":[
					0.16899999976158142,
					0.16899999976158142,
					0.15700000524520874,
					1
				],
				"metallicFactor":0
			}
		},
		{
			"doubleSided":true,
			"extensions":{
				"KHR_materials_specular":{
					"specularFactor":0
				}
			},
			"name":"mat_161_165_179",
			"pbrMetallicRoughness":{
				"baseColorFactor":[
					0.6309999823570251,
					0.6470000147819519,
					0.7020000219345093,
					1
				],
				"metallicFactor":0
			}
		}
	],
	"meshes":[
		{
			"name":"STN_PLR_LNGR_DARK",
			"primitives":[
				{
					"attributes":{
						"POSITION":0,
						"NORMAL":1
					},
					"indices":2,
					"material":0
				},
				{
					"attributes":{
						"POSITION":3,
						"NORMAL":4
					},
					"indices":5,
					"material":1
				},
				{
					"attributes":{
						"POSITION":6,
						"NORMAL":7
					},
					"indices":8,
					"material":2
				},
				{
					"attributes":{
						"POSITION":9,
						"NORMAL":10
					},
					"indices":11,
					"material":3
				},
				{
					"attributes":{
						"POSITION":12,
						"NORMAL":13
					},
					"indices":14,
					"material":4
				}
			]
		}
	],
	"accessors":[
		{
			"bufferView":0,
			"componentType":5126,
			"count":1968,
			"max":[
				6,
				16,
				0
			],
			"min":[
				0,
				0,
				-4
			],
			"type":"VEC3"
		},
		{
			"bufferView":1,
			"componentType":5126,
			"count":1968,
			"type":"VEC3"
		},
		{
			"bufferView":2,
			"componentType":5123,
			"count":2952,
			"type":"SCALAR"
		},
		{
			"bufferView":3,
			"componentType":5126,
			"count":1680,
			"max":[
				6,
				16,
				0
			],
			"min":[
				0,
				0,
				-4
			],
			"type":"VEC3"
		},
		{
			"bufferView":4,
			"componentType":5126,
			"count":1680,
			"type":"VEC3"
		},
		{
			"bufferView":5,
			"componentType":5123,
			"count":2520,
			"type":"SCALAR"
		},
		{
			"bufferView":6,
			"componentType":5126,
			"count":768,
			"max":[
				6,
				15,
				0
			],
			"min":[
				0,
				0,
				-4
			],
			"type":"VEC3"
		},
		{
			"bufferView":7,
			"componentType":5126,
			"count":768,
			"type":"VEC3"
		},
		{
			"bufferView":8,
			"componentType":5123,
			"count":1152,
			"type":"SCALAR"
		},
		{
			"bufferView":9,
			"componentType":5126,
			"count":2592,
			"max":[
				6,
				15,
				-1
			],
			"min":[
				1,
				0,
				-4
			],
			"type":"VEC3"
		},
		{
			"bufferView":10,
			"componentType":5126,
			"count":2592,
			"type":"VEC3"
		},
		{
			"bufferView":11,
			"componentType":5123,
			"count":3888,
			"type":"SCALAR"
		},
		{
			"bufferView":12,
			"componentType":5126,
			"count":120,
			"max":[
				3,
				15,
				-1
			],
			"min":[
				1,
				2,
				-3
			],
			"type":"VEC3"
		},
		{
			"bufferView":13,
			"componentType":5126,
			"count":120,
			"type":"VEC3"
		},
		{
			"bufferView":14,
			"componentType":5123,
			"count":180,
			"type":"SCALAR"
		}
	],
	"bufferViews":[
		{
			"buffer":0,
			"byteLength":23616,
			"byteOffset":0,
			"target":34962
		},
		{
			"buffer":0,
			"byteLength":23616,
			"byteOffset":23616,
			"target":34962
		},
		{
			"buffer":0,
			"byteLength":5904,
			"byteOffset":47232,
			"target":34963
		},
		{
			"buffer":0,
			"byteLength":20160,
			"byteOffset":53136,
			"target":34962
		},
		{
			"buffer":0,
			"byteLength":20160,
			"byteOffset":73296,
			"target":34962
		},
		{
			"buffer":0,
			"byteLength":5040,
			"byteOffset":93456,
			"target":34963
		},
		{
			"buffer":0,
			"byteLength":9216,
			"byteOffset":98496,
			"target":34962
		},
		{
			"buffer":0,
			"byteLength":9216,
			"byteOffset":107712,
			"target":34962
		},
		{
			"buffer":0,
			"byteLength":2304,
			"byteOffset":116928,
			"target":34963
		},
		{
			"buffer":0,
			"byteLength":31104,
			"byteOffset":119232,
			"target":34962
		},
		{
			"buffer":0,
			"byteLength":31104,
			"byteOffset":150336,
			"target":34962
		},
		{
			"buffer":0,
			"byteLength":7776,
			"byteOffset":181440,
			"target":34963
		},
		{
			"buffer":0,
			"byteLength":1440,
			"byteOffset":189216,
			"target":34962
		},
		{
			"buffer":0,
			"byteLength":1440,
			"byteOffset":190656,
			"target":34962
		},
		{
			"buffer":0,
			"byteLength":360,
			"byteOffset":192096,
			"target":34963
		}
	],
	"buffers":[
		{
			"byteLength":192456,
			"uri":"STN_PLR_LNGR_DARK.bin"
		}
	]
}
