{
	"asset":{
		"generator":"Khronos glTF Blender I/O v5.0.21",
		"version":"2.0"
	},
	"extensionsUsed":[
		"KHR_materials_specular"
	],
	"scene":0,
	"scenes":[
		{
			"name":"Scene",
			"nodes":[
				0
			]
		}
	],
	"nodes":[
		{
			"mesh":0,
			"name":"STN_WALL_DARK_MID",
			"rotation":[
				0.7071068286895752,
				0,
				0,
				0.7071068286895752
			]
		}
	],
	"materials":[
		{
			"doubleSided":true,
			"extensions":{
				"KHR_materials_specular":{
					"specularFactor":0
				}
			},
			"name":"mat_73_71_63",
			"pbrMetallicRoughness":{
				"baseColorFactor":[
					0.28600001335144043,
					0.27799999713897705,
					0.24699999392032623,
					1
				],
				"metallicFactor":0
			}
		},
		{
			"doubleSided":true,
			"extensions":{
				"KHR_materials_specular":{
					"specularFactor":0
				}
			},
			"name":"mat_127_122_109",
			"pbrMetallicRoughness":{
				"baseColorFactor":[
					0.49799999594688416,
					0.4779999852180481,
					0.4269999861717224,
					1
				],
				"metallicFactor":0
			}
		},
		{
			"doubleSided":true,
			"extensions":{
				"KHR_materials_specular":{
					"specularFactor":0
				}
			},
			"name":"mat_150_147_137",
			"pbrMetallicRoughness":{
				"baseColorFactor":[
					0.5879999995231628,
					0.5759999752044678,
					0.5370000004768372,
					1
				],
				"metallicFactor":0
			}
		},
		{
			"doubleSided":true,
			"extensions":{
				"KHR_materials_specular":{
					"specularFactor":0
				}
			},
			"name":"mat_152_148_137",
			"pbrMetallicRoughness":{
				"baseColorFactor":[
					0.5960000157356262,
					0.5799999833106995,
					0.5370000004768372,
					1
				],
				"metallicFactor":0
			}
		},
		{
			"doubleSided":true,
			"extensions":{
				"KHR_materials_specular":{
					"specularFactor":0
				}
			},
			"name":"mat_165_161_149",
			"pbrMetallicRoughness":{
				"baseColorFactor":[
					0.6470000147819519,
					0.6309999823570251,
					0.5839999914169312,
					1
				],
				"metallicFactor":0
			}
		},
		{
			"doubleSided":true,
			"extensions":{
				"KHR_materials_specular":{
					"specularFactor":0
				}
			},
			"name":"mat_242_227_168",
			"pbrMetallicRoughness":{
				"baseColorFactor":[
					0.9490000009536743,
					0.8899999856948853,
					0.6589999794960022,
					1
				],
				"metallicFactor":0
			}
		},
		{
			"doubleSided":true,
			"extensions":{
				"KHR_materials_specular":{
					"specularFactor":0
				}
			},
			"name":"mat_43_43_40",
			"pbrMetallicRoughness":{
				"baseColorFactor":[
					0.16899999976158142,
					0.16899999976158142,
					0.15700000524520874,
					1
				],
				"metallicFactor":0
			}
		}
	],
	"meshes":[
		{
			"name":"STN_WALL_DARK_MID",
			"primitives":[
				{
					"attributes":{
						"POSITION":0,
						"NORMAL":1
					},
					"indices":2,
					"material":0
				},
				{
					"attributes":{
						"POSITION":3,
						"NORMAL":4
					},
					"indices":5,
					"material":1
				},
				{
					"attributes":{
						"POSITION":6,
						"NORMAL":7
					},
					"indices":8,
					"material":2
				},
				{
					"attributes":{
						"POSITION":9,
						"NORMAL":10
					},
					"indices":11,
					"material":3
				},
				{
					"attributes":{
						"POSITION":12,
						"NORMAL":13
					},
					"indices":14,
					"material":4
				},
				{
					"attributes":{
						"POSITION":15,
						"NORMAL":16
					},
					"indices":17,
					"material":5
				},
				{
					"attributes":{
						"POSITION":18,
						"NORMAL":19
					},
					"indices":20,
					"material":6
				}
			]
		}
	],
	"accessors":[
		{
			"bufferView":0,
			"componentType":5126,
			"count":4800,
			"max":[
				16,
				16,
				0
			],
			"min":[
				0,
				0,
				-4
			],
			"type":"VEC3"
		},
		{
			"bufferView":1,
			"componentType":5126,
			"count":4800,
			"type":"VEC3"
		},
		{
			"bufferView":2,
			"componentType":5123,
			"count":7200,
			"type":"SCALAR"
		},
		{
			"bufferView":3,
			"componentType":5126,
			"count":1248,
			"max":[
				16,
				14,
				0
			],
			"min":[
				0,
				0,
				-4
			],
			"type":"VEC3"
		},
		{
			"bufferView":4,
			"componentType":5126,
			"count":1248,
			"type":"VEC3"
		},
		{
			"bufferView":5,
			"componentType":5123,
			"count":1872,
			"type":"SCALAR"
		},
		{
			"bufferView":6,
			"componentType":5126,
			"count":2232,
			"max":[
				16,
				16,
				0
			],
			"min":[
				0,
				0,
				-4
			],
			"type":"VEC3"
		},
		{
			"bufferView":7,
			"componentType":5126,
			"count":2232,
			"type":"VEC3"
		},
		{
			"bufferView":8,
			"componentType":5123,
			"count":3348,
			"type":"SCALAR"
		},
		{
			"bufferView":9,
			"componentType":5126,
			"count":1200,
			"max":[
				16,
				16,
				0
			],
			"min":[
				0,
				0,
				-4
			],
			"type":"VEC3"
		},
		{
			"bufferView":10,
			"componentType":5126,
			"count":1200,
			"type":"VEC3"
		},
		{
			"bufferView":11,
			"componentType":5123,
			"count":1800,
			"type":"SCALAR"
		},
		{
			"bufferView":12,
			"componentType":5126,
			"count":336,
			"max":[
				15,
				16,
				0
			],
			"min":[
				3,
				1,
				-4
			],
			"type":"VEC3"
		},
		{
			"bufferView":13,
			"componentType":5126,
			"count":336,
			"type":"VEC3"
		},
		{
			"bufferView":14,
			"componentType":5123,
			"count":504,
			"type":"SCALAR"
		},
		{
			"bufferView":15,
			"componentType":5126,
			"count":3864,
			"max":[
				15,
				15,
				-1
			],
			"min":[
				2,
				1,
				-3
			],
			"type":"VEC3"
		},
		{
			"bufferView":16,
			"componentType":5126,
			"count":3864,
			"type":"VEC3"
		},
		{
			"bufferView":17,
			"componentType":5123,
			"count":5796,
			"type":"SCALAR"
		},
		{
			"bufferView":18,
			"componentType":5126,
			"count":5808,
			"max":[
				16,
				16,
				-1
			],
			"min":[
				0,
				0,
				-3
			],
			"type":"VEC3"
		},
		{
			"bufferView":19,
			"componentType":5126,
			"count":5808,
			"type":"VEC3"
		},
		{
			"bufferView":20,
			"componentType":5123,
			"count":8712,
			"type":"SCALAR"
		}
	],
	"bufferViews":[
		{
			"buffer":0,
			"byteLength":57600,
			"byteOffset":0,
			"target":34962
		},
		{
			"buffer":0,
			"byteLength":57600,
			"byteOffset":57600,
			"target":34962
		},
		{
			"buffer":0,
			"byteLength":14400,
			"byteOffset":115200,
			"target":34963
		},
		{
			"buffer":0,
			"byteLength":14976,
			"byteOffset":129600,
			"target":34962
		},
		{
			"buffer":0,
			"byteLength":14976,
			"byteOffset":144576,
			"target":34962
		},
		{
			"buffer":0,
			"byteLength":3744,
			"byteOffset":159552,
			"target":34963
		},
		{
			"buffer":0,
			"byteLength":26784,
			"byteOffset":163296,
			"target":34962
		},
		{
			"buffer":0,
			"byteLength":26784,
			"byteOffset":190080,
			"target":34962
		},
		{
			"buffer":0,
			"byteLength":6696,
			"byteOffset":216864,
			"target":34963
		},
		{
			"buffer":0,
			"byteLength":14400,
			"byteOffset":223560,
			"target":34962
		},
		{
			"buffer":0,
			"byteLength":14400,
			"byteOffset":237960,
			"target":34962
		},
		{
			"buffer":0,
			"byteLength":3600,
			"byteOffset":252360,
			"target":34963
		},
		{
			"buffer":0,
			"byteLength":4032,
			"byteOffset":255960,
			"target":34962
		},
		{
			"buffer":0,
			"byteLength":4032,
			"byteOffset":259992,
			"target":34962
		},
		{
			"buffer":0,
			"byteLength":1008,
			"byteOffset":264024,
			"target":34963
		},
		{
			"buffer":0,
			"byteLength":46368,
			"byteOffset":265032,
			"target":34962
		},
		{
			"buffer":0,
			"byteLength":46368,
			"byteOffset":311400,
			"target":34962
		},
		{
			"buffer":0,
			"byteLength":11592,
			"byteOffset":357768,
			"target":34963
		},
		{
			"buffer":0,
			"byteLength":69696,
			"byteOffset":369360,
			"target":34962
		},
		{
			"buffer":0,
			"byteLength":69696,
			"byteOffset":439056,
			"target":34962
		},
		{
			"buffer":0,
			"byteLength":17424,
			"byteOffset":508752,
			"target":34963
		}
	],
	"buffers":[
		{
			"byteLength":526176,
			"uri":"STN_WALL_DARK_MID.bin"
		}
	]
}
