{
	"asset":{
		"generator":"Khronos glTF Blender I/O v5.0.21",
		"version":"2.0"
	},
	"extensionsUsed":[
		"KHR_materials_specular"
	],
	"scene":0,
	"scenes":[
		{
			"name":"Scene",
			"nodes":[
				0
			]
		}
	],
	"nodes":[
		{
			"mesh":0,
			"name":"STN_MOSS_HALF_3D_TOP",
			"rotation":[
				0.7071068286895752,
				0,
				0,
				0.7071068286895752
			]
		}
	],
	"materials":[
		{
			"doubleSided":true,
			"extensions":{
				"KHR_materials_specular":{
					"specularFactor":0
				}
			},
			"name":"mat_183_176_156",
			"pbrMetallicRoughness":{
				"baseColorFactor":[
					0.7179999947547913,
					0.6899999976158142,
					0.6119999885559082,
					1
				],
				"metallicFactor":0
			}
		},
		{
			"doubleSided":true,
			"extensions":{
				"KHR_materials_specular":{
					"specularFactor":0
				}
			},
			"name":"mat_141_137_125",
			"pbrMetallicRoughness":{
				"baseColorFactor":[
					0.5529999732971191,
					0.5370000004768372,
					0.49000000953674316,
					1
				],
				"metallicFactor":0
			}
		},
		{
			"doubleSided":true,
			"extensions":{
				"KHR_materials_specular":{
					"specularFactor":0
				}
			},
			"name":"mat_192_185_165",
			"pbrMetallicRoughness":{
				"baseColorFactor":[
					0.753000020980835,
					0.7250000238418579,
					0.6470000147819519,
					1
				],
				"metallicFactor":0
			}
		},
		{
			"doubleSided":true,
			"extensions":{
				"KHR_materials_specular":{
					"specularFactor":0
				}
			},
			"name":"mat_213_206_188",
			"pbrMetallicRoughness":{
				"baseColorFactor":[
					0.8349999785423279,
					0.8080000281333923,
					0.7369999885559082,
					1
				],
				"metallicFactor":0
			}
		},
		{
			"doubleSided":true,
			"extensions":{
				"KHR_materials_specular":{
					"specularFactor":0
				}
			},
			"name":"mat_156_154_148",
			"pbrMetallicRoughness":{
				"baseColorFactor":[
					0.6119999885559082,
					0.6039999723434448,
					0.5799999833106995,
					1
				],
				"metallicFactor":0
			}
		},
		{
			"doubleSided":true,
			"extensions":{
				"KHR_materials_specular":{
					"specularFactor":0
				}
			},
			"name":"mat_94_91_83",
			"pbrMetallicRoughness":{
				"baseColorFactor":[
					0.36899998784065247,
					0.3569999933242798,
					0.32499998807907104,
					1
				],
				"metallicFactor":0
			}
		},
		{
			"doubleSided":true,
			"extensions":{
				"KHR_materials_specular":{
					"specularFactor":0
				}
			},
			"name":"mat_242_227_168",
			"pbrMetallicRoughness":{
				"baseColorFactor":[
					0.9490000009536743,
					0.8899999856948853,
					0.6589999794960022,
					1
				],
				"metallicFactor":0
			}
		},
		{
			"doubleSided":true,
			"extensions":{
				"KHR_materials_specular":{
					"specularFactor":0
				}
			},
			"name":"mat_90_115_46",
			"pbrMetallicRoughness":{
				"baseColorFactor":[
					0.3529999852180481,
					0.45100000500679016,
					0.18000000715255737,
					1
				],
				"metallicFactor":0
			}
		},
		{
			"doubleSided":true,
			"extensions":{
				"KHR_materials_specular":{
					"specularFactor":0
				}
			},
			"name":"mat_102_130_54",
			"pbrMetallicRoughness":{
				"baseColorFactor":[
					0.4000000059604645,
					0.5099999904632568,
					0.21199999749660492,
					1
				],
				"metallicFactor":0
			}
		},
		{
			"doubleSided":true,
			"extensions":{
				"KHR_materials_specular":{
					"specularFactor":0
				}
			},
			"name":"mat_77_98_40",
			"pbrMetallicRoughness":{
				"baseColorFactor":[
					0.3019999861717224,
					0.3840000033378601,
					0.15700000524520874,
					1
				],
				"metallicFactor":0
			}
		}
	],
	"meshes":[
		{
			"name":"STN_MOSS_HALF_3D_TOP",
			"primitives":[
				{
					"attributes":{
						"POSITION":0,
						"NORMAL":1
					},
					"indices":2,
					"material":0
				},
				{
					"attributes":{
						"POSITION":3,
						"NORMAL":4
					},
					"indices":5,
					"material":1
				},
				{
					"attributes":{
						"POSITION":6,
						"NORMAL":7
					},
					"indices":8,
					"material":2
				},
				{
					"attributes":{
						"POSITION":9,
						"NORMAL":10
					},
					"indices":11,
					"material":3
				},
				{
					"attributes":{
						"POSITION":12,
						"NORMAL":13
					},
					"indices":14,
					"material":4
				},
				{
					"attributes":{
						"POSITION":15,
						"NORMAL":16
					},
					"indices":17,
					"material":5
				},
				{
					"attributes":{
						"POSITION":18,
						"NORMAL":19
					},
					"indices":20,
					"material":6
				},
				{
					"attributes":{
						"POSITION":21,
						"NORMAL":22
					},
					"indices":23,
					"material":7
				},
				{
					"attributes":{
						"POSITION":24,
						"NORMAL":25
					},
					"indices":26,
					"material":8
				},
				{
					"attributes":{
						"POSITION":27,
						"NORMAL":28
					},
					"indices":29,
					"material":9
				}
			]
		}
	],
	"accessors":[
		{
			"bufferView":0,
			"componentType":5126,
			"count":720,
			"max":[
				16,
				7,
				-1
			],
			"min":[
				0,
				0,
				-5
			],
			"type":"VEC3"
		},
		{
			"bufferView":1,
			"componentType":5126,
			"count":720,
			"type":"VEC3"
		},
		{
			"bufferView":2,
			"componentType":5123,
			"count":1080,
			"type":"SCALAR"
		},
		{
			"bufferView":3,
			"componentType":5126,
			"count":2184,
			"max":[
				16,
				9,
				-1
			],
			"min":[
				0,
				0,
				-5
			],
			"type":"VEC3"
		},
		{
			"bufferView":4,
			"componentType":5126,
			"count":2184,
			"type":"VEC3"
		},
		{
			"bufferView":5,
			"componentType":5123,
			"count":3276,
			"type":"SCALAR"
		},
		{
			"bufferView":6,
			"componentType":5126,
			"count":192,
			"max":[
				15,
				7,
				-1
			],
			"min":[
				4,
				1,
				-5
			],
			"type":"VEC3"
		},
		{
			"bufferView":7,
			"componentType":5126,
			"count":192,
			"type":"VEC3"
		},
		{
			"bufferView":8,
			"componentType":5123,
			"count":288,
			"type":"SCALAR"
		},
		{
			"bufferView":9,
			"componentType":5126,
			"count":648,
			"max":[
				16,
				9,
				-1
			],
			"min":[
				0,
				0,
				-5
			],
			"type":"VEC3"
		},
		{
			"bufferView":10,
			"componentType":5126,
			"count":648,
			"type":"VEC3"
		},
		{
			"bufferView":11,
			"componentType":5123,
			"count":972,
			"type":"SCALAR"
		},
		{
			"bufferView":12,
			"componentType":5126,
			"count":1152,
			"max":[
				16,
				9,
				-1
			],
			"min":[
				0,
				0,
				-5
			],
			"type":"VEC3"
		},
		{
			"bufferView":13,
			"componentType":5126,
			"count":1152,
			"type":"VEC3"
		},
		{
			"bufferView":14,
			"componentType":5123,
			"count":1728,
			"type":"SCALAR"
		},
		{
			"bufferView":15,
			"componentType":5126,
			"count":3264,
			"max":[
				16,
				9,
				-2
			],
			"min":[
				0,
				0,
				-4
			],
			"type":"VEC3"
		},
		{
			"bufferView":16,
			"componentType":5126,
			"count":3264,
			"type":"VEC3"
		},
		{
			"bufferView":17,
			"componentType":5123,
			"count":4896,
			"type":"SCALAR"
		},
		{
			"bufferView":18,
			"componentType":5126,
			"count":1368,
			"max":[
				15,
				8,
				-2
			],
			"min":[
				2,
				1,
				-4
			],
			"type":"VEC3"
		},
		{
			"bufferView":19,
			"componentType":5126,
			"count":1368,
			"type":"VEC3"
		},
		{
			"bufferView":20,
			"componentType":5123,
			"count":2052,
			"type":"SCALAR"
		},
		{
			"bufferView":21,
			"componentType":5126,
			"count":600,
			"max":[
				13,
				8,
				0
			],
			"min":[
				1,
				0,
				-5
			],
			"type":"VEC3"
		},
		{
			"bufferView":22,
			"componentType":5126,
			"count":600,
			"type":"VEC3"
		},
		{
			"bufferView":23,
			"componentType":5123,
			"count":900,
			"type":"SCALAR"
		},
		{
			"bufferView":24,
			"componentType":5126,
			"count":408,
			"max":[
				15,
				8,
				0
			],
			"min":[
				1,
				0,
				-5
			],
			"type":"VEC3"
		},
		{
			"bufferView":25,
			"componentType":5126,
			"count":408,
			"type":"VEC3"
		},
		{
			"bufferView":26,
			"componentType":5123,
			"count":612,
			"type":"SCALAR"
		},
		{
			"bufferView":27,
			"componentType":5126,
			"count":384,
			"max":[
				16,
				9,
				0
			],
			"min":[
				3,
				0,
				-5
			],
			"type":"VEC3"
		},
		{
			"bufferView":28,
			"componentType":5126,
			"count":384,
			"type":"VEC3"
		},
		{
			"bufferView":29,
			"componentType":5123,
			"count":576,
			"type":"SCALAR"
		}
	],
	"bufferViews":[
		{
			"buffer":0,
			"byteLength":8640,
			"byteOffset":0,
			"target":34962
		},
		{
			"buffer":0,
			"byteLength":8640,
			"byteOffset":8640,
			"target":34962
		},
		{
			"buffer":0,
			"byteLength":2160,
			"byteOffset":17280,
			"target":34963
		},
		{
			"buffer":0,
			"byteLength":26208,
			"byteOffset":19440,
			"target":34962
		},
		{
			"buffer":0,
			"byteLength":26208,
			"byteOffset":45648,
			"target":34962
		},
		{
			"buffer":0,
			"byteLength":6552,
			"byteOffset":71856,
			"target":34963
		},
		{
			"buffer":0,
			"byteLength":2304,
			"byteOffset":78408,
			"target":34962
		},
		{
			"buffer":0,
			"byteLength":2304,
			"byteOffset":80712,
			"target":34962
		},
		{
			"buffer":0,
			"byteLength":576,
			"byteOffset":83016,
			"target":34963
		},
		{
			"buffer":0,
			"byteLength":7776,
			"byteOffset":83592,
			"target":34962
		},
		{
			"buffer":0,
			"byteLength":7776,
			"byteOffset":91368,
			"target":34962
		},
		{
			"buffer":0,
			"byteLength":1944,
			"byteOffset":99144,
			"target":34963
		},
		{
			"buffer":0,
			"byteLength":13824,
			"byteOffset":101088,
			"target":34962
		},
		{
			"buffer":0,
			"byteLength":13824,
			"byteOffset":114912,
			"target":34962
		},
		{
			"buffer":0,
			"byteLength":3456,
			"byteOffset":128736,
			"target":34963
		},
		{
			"buffer":0,
			"byteLength":39168,
			"byteOffset":132192,
			"target":34962
		},
		{
			"buffer":0,
			"byteLength":39168,
			"byteOffset":171360,
			"target":34962
		},
		{
			"buffer":0,
			"byteLength":9792,
			"byteOffset":210528,
			"target":34963
		},
		{
			"buffer":0,
			"byteLength":16416,
			"byteOffset":220320,
			"target":34962
		},
		{
			"buffer":0,
			"byteLength":16416,
			"byteOffset":236736,
			"target":34962
		},
		{
			"buffer":0,
			"byteLength":4104,
			"byteOffset":253152,
			"target":34963
		},
		{
			"buffer":0,
			"byteLength":7200,
			"byteOffset":257256,
			"target":34962
		},
		{
			"buffer":0,
			"byteLength":7200,
			"byteOffset":264456,
			"target":34962
		},
		{
			"buffer":0,
			"byteLength":1800,
			"byteOffset":271656,
			"target":34963
		},
		{
			"buffer":0,
			"byteLength":4896,
			"byteOffset":273456,
			"target":34962
		},
		{
			"buffer":0,
			"byteLength":4896,
			"byteOffset":278352,
			"target":34962
		},
		{
			"buffer":0,
			"byteLength":1224,
			"byteOffset":283248,
			"target":34963
		},
		{
			"buffer":0,
			"byteLength":4608,
			"byteOffset":284472,
			"target":34962
		},
		{
			"buffer":0,
			"byteLength":4608,
			"byteOffset":289080,
			"target":34962
		},
		{
			"buffer":0,
			"byteLength":1152,
			"byteOffset":293688,
			"target":34963
		}
	],
	"buffers":[
		{
			"byteLength":294840,
			"uri":"STN_MOSS_HALF_3D_TOP.bin"
		}
	]
}
