{
	"asset":{
		"generator":"Khronos glTF Blender I/O v5.0.21",
		"version":"2.0"
	},
	"extensionsUsed":[
		"KHR_materials_specular"
	],
	"scene":0,
	"scenes":[
		{
			"name":"Scene",
			"nodes":[
				0
			]
		}
	],
	"nodes":[
		{
			"mesh":0,
			"name":"STN_PLR_LNGER",
			"rotation":[
				0.7071068286895752,
				0,
				0,
				0.7071068286895752
			]
		}
	],
	"materials":[
		{
			"doubleSided":true,
			"extensions":{
				"KHR_materials_specular":{
					"specularFactor":0
				}
			},
			"name":"mat_141_137_125",
			"pbrMetallicRoughness":{
				"baseColorFactor":[
					0.5529999732971191,
					0.5370000004768372,
					0.49000000953674316,
					1
				],
				"metallicFactor":0
			}
		},
		{
			"doubleSided":true,
			"extensions":{
				"KHR_materials_specular":{
					"specularFactor":0
				}
			},
			"name":"mat_213_206_188",
			"pbrMetallicRoughness":{
				"baseColorFactor":[
					0.8349999785423279,
					0.8080000281333923,
					0.7369999885559082,
					1
				],
				"metallicFactor":0
			}
		},
		{
			"doubleSided":true,
			"extensions":{
				"KHR_materials_specular":{
					"specularFactor":0
				}
			},
			"name":"mat_183_176_156",
			"pbrMetallicRoughness":{
				"baseColorFactor":[
					0.7179999947547913,
					0.6899999976158142,
					0.6119999885559082,
					1
				],
				"metallicFactor":0
			}
		},
		{
			"doubleSided":true,
			"extensions":{
				"KHR_materials_specular":{
					"specularFactor":0
				}
			},
			"name":"mat_156_154_148",
			"pbrMetallicRoughness":{
				"baseColorFactor":[
					0.6119999885559082,
					0.6039999723434448,
					0.5799999833106995,
					1
				],
				"metallicFactor":0
			}
		},
		{
			"doubleSided":true,
			"extensions":{
				"KHR_materials_specular":{
					"specularFactor":0
				}
			},
			"name":"mat_242_227_168",
			"pbrMetallicRoughness":{
				"baseColorFactor":[
					0.9490000009536743,
					0.8899999856948853,
					0.6589999794960022,
					1
				],
				"metallicFactor":0
			}
		},
		{
			"doubleSided":true,
			"extensions":{
				"KHR_materials_specular":{
					"specularFactor":0
				}
			},
			"name":"mat_94_91_83",
			"pbrMetallicRoughness":{
				"baseColorFactor":[
					0.36899998784065247,
					0.3569999933242798,
					0.32499998807907104,
					1
				],
				"metallicFactor":0
			}
		},
		{
			"doubleSided":true,
			"extensions":{
				"KHR_materials_specular":{
					"specularFactor":0
				}
			},
			"name":"mat_161_165_179",
			"pbrMetallicRoughness":{
				"baseColorFactor":[
					0.6309999823570251,
					0.6470000147819519,
					0.7020000219345093,
					1
				],
				"metallicFactor":0
			}
		},
		{
			"doubleSided":true,
			"extensions":{
				"KHR_materials_specular":{
					"specularFactor":0
				}
			},
			"name":"mat_192_185_165",
			"pbrMetallicRoughness":{
				"baseColorFactor":[
					0.753000020980835,
					0.7250000238418579,
					0.6470000147819519,
					1
				],
				"metallicFactor":0
			}
		}
	],
	"meshes":[
		{
			"name":"STN_PLR_LNGER",
			"primitives":[
				{
					"attributes":{
						"POSITION":0,
						"NORMAL":1
					},
					"indices":2,
					"material":0
				},
				{
					"attributes":{
						"POSITION":3,
						"NORMAL":4
					},
					"indices":5,
					"material":1
				},
				{
					"attributes":{
						"POSITION":6,
						"NORMAL":7
					},
					"indices":8,
					"material":2
				},
				{
					"attributes":{
						"POSITION":9,
						"NORMAL":10
					},
					"indices":11,
					"material":3
				},
				{
					"attributes":{
						"POSITION":12,
						"NORMAL":13
					},
					"indices":14,
					"material":4
				},
				{
					"attributes":{
						"POSITION":15,
						"NORMAL":16
					},
					"indices":17,
					"material":5
				},
				{
					"attributes":{
						"POSITION":18,
						"NORMAL":19
					},
					"indices":20,
					"material":6
				},
				{
					"attributes":{
						"POSITION":21,
						"NORMAL":22
					},
					"indices":23,
					"material":7
				}
			]
		}
	],
	"accessors":[
		{
			"bufferView":0,
			"componentType":5126,
			"count":1968,
			"max":[
				6,
				16,
				0
			],
			"min":[
				0,
				0,
				-4
			],
			"type":"VEC3"
		},
		{
			"bufferView":1,
			"componentType":5126,
			"count":1968,
			"type":"VEC3"
		},
		{
			"bufferView":2,
			"componentType":5123,
			"count":2952,
			"type":"SCALAR"
		},
		{
			"bufferView":3,
			"componentType":5126,
			"count":720,
			"max":[
				6,
				16,
				0
			],
			"min":[
				0,
				0,
				-4
			],
			"type":"VEC3"
		},
		{
			"bufferView":4,
			"componentType":5126,
			"count":720,
			"type":"VEC3"
		},
		{
			"bufferView":5,
			"componentType":5123,
			"count":1080,
			"type":"SCALAR"
		},
		{
			"bufferView":6,
			"componentType":5126,
			"count":672,
			"max":[
				6,
				15,
				0
			],
			"min":[
				0,
				0,
				-4
			],
			"type":"VEC3"
		},
		{
			"bufferView":7,
			"componentType":5126,
			"count":672,
			"type":"VEC3"
		},
		{
			"bufferView":8,
			"componentType":5123,
			"count":1008,
			"type":"SCALAR"
		},
		{
			"bufferView":9,
			"componentType":5126,
			"count":960,
			"max":[
				6,
				16,
				0
			],
			"min":[
				0,
				1,
				-4
			],
			"type":"VEC3"
		},
		{
			"bufferView":10,
			"componentType":5126,
			"count":960,
			"type":"VEC3"
		},
		{
			"bufferView":11,
			"componentType":5123,
			"count":1440,
			"type":"SCALAR"
		},
		{
			"bufferView":12,
			"componentType":5126,
			"count":768,
			"max":[
				5,
				15,
				-1
			],
			"min":[
				2,
				1,
				-3
			],
			"type":"VEC3"
		},
		{
			"bufferView":13,
			"componentType":5126,
			"count":768,
			"type":"VEC3"
		},
		{
			"bufferView":14,
			"componentType":5123,
			"count":1152,
			"type":"SCALAR"
		},
		{
			"bufferView":15,
			"componentType":5126,
			"count":1824,
			"max":[
				6,
				15,
				-1
			],
			"min":[
				1,
				0,
				-4
			],
			"type":"VEC3"
		},
		{
			"bufferView":16,
			"componentType":5126,
			"count":1824,
			"type":"VEC3"
		},
		{
			"bufferView":17,
			"componentType":5123,
			"count":2736,
			"type":"SCALAR"
		},
		{
			"bufferView":18,
			"componentType":5126,
			"count":120,
			"max":[
				3,
				15,
				-1
			],
			"min":[
				1,
				2,
				-3
			],
			"type":"VEC3"
		},
		{
			"bufferView":19,
			"componentType":5126,
			"count":120,
			"type":"VEC3"
		},
		{
			"bufferView":20,
			"componentType":5123,
			"count":180,
			"type":"SCALAR"
		},
		{
			"bufferView":21,
			"componentType":5126,
			"count":96,
			"max":[
				5,
				8,
				0
			],
			"min":[
				3,
				1,
				-4
			],
			"type":"VEC3"
		},
		{
			"bufferView":22,
			"componentType":5126,
			"count":96,
			"type":"VEC3"
		},
		{
			"bufferView":23,
			"componentType":5123,
			"count":144,
			"type":"SCALAR"
		}
	],
	"bufferViews":[
		{
			"buffer":0,
			"byteLength":23616,
			"byteOffset":0,
			"target":34962
		},
		{
			"buffer":0,
			"byteLength":23616,
			"byteOffset":23616,
			"target":34962
		},
		{
			"buffer":0,
			"byteLength":5904,
			"byteOffset":47232,
			"target":34963
		},
		{
			"buffer":0,
			"byteLength":8640,
			"byteOffset":53136,
			"target":34962
		},
		{
			"buffer":0,
			"byteLength":8640,
			"byteOffset":61776,
			"target":34962
		},
		{
			"buffer":0,
			"byteLength":2160,
			"byteOffset":70416,
			"target":34963
		},
		{
			"buffer":0,
			"byteLength":8064,
			"byteOffset":72576,
			"target":34962
		},
		{
			"buffer":0,
			"byteLength":8064,
			"byteOffset":80640,
			"target":34962
		},
		{
			"buffer":0,
			"byteLength":2016,
			"byteOffset":88704,
			"target":34963
		},
		{
			"buffer":0,
			"byteLength":11520,
			"byteOffset":90720,
			"target":34962
		},
		{
			"buffer":0,
			"byteLength":11520,
			"byteOffset":102240,
			"target":34962
		},
		{
			"buffer":0,
			"byteLength":2880,
			"byteOffset":113760,
			"target":34963
		},
		{
			"buffer":0,
			"byteLength":9216,
			"byteOffset":116640,
			"target":34962
		},
		{
			"buffer":0,
			"byteLength":9216,
			"byteOffset":125856,
			"target":34962
		},
		{
			"buffer":0,
			"byteLength":2304,
			"byteOffset":135072,
			"target":34963
		},
		{
			"buffer":0,
			"byteLength":21888,
			"byteOffset":137376,
			"target":34962
		},
		{
			"buffer":0,
			"byteLength":21888,
			"byteOffset":159264,
			"target":34962
		},
		{
			"buffer":0,
			"byteLength":5472,
			"byteOffset":181152,
			"target":34963
		},
		{
			"buffer":0,
			"byteLength":1440,
			"byteOffset":186624,
			"target":34962
		},
		{
			"buffer":0,
			"byteLength":1440,
			"byteOffset":188064,
			"target":34962
		},
		{
			"buffer":0,
			"byteLength":360,
			"byteOffset":189504,
			"target":34963
		},
		{
			"buffer":0,
			"byteLength":1152,
			"byteOffset":189864,
			"target":34962
		},
		{
			"buffer":0,
			"byteLength":1152,
			"byteOffset":191016,
			"target":34962
		},
		{
			"buffer":0,
			"byteLength":288,
			"byteOffset":192168,
			"target":34963
		}
	],
	"buffers":[
		{
			"byteLength":192456,
			"uri":"STN_PLR_LNGER.bin"
		}
	]
}
