{
	"asset":{
		"generator":"Khronos glTF Blender I/O v5.0.21",
		"version":"2.0"
	},
	"extensionsUsed":[
		"KHR_materials_specular"
	],
	"scene":0,
	"scenes":[
		{
			"name":"Scene",
			"nodes":[
				0
			]
		}
	],
	"nodes":[
		{
			"mesh":0,
			"name":"STN_WALL_RBL",
			"rotation":[
				0.7071068286895752,
				0,
				0,
				0.7071068286895752
			]
		}
	],
	"materials":[
		{
			"doubleSided":true,
			"extensions":{
				"KHR_materials_specular":{
					"specularFactor":0
				}
			},
			"name":"mat_141_137_125",
			"pbrMetallicRoughness":{
				"baseColorFactor":[
					0.5529999732971191,
					0.5370000004768372,
					0.49000000953674316,
					1
				],
				"metallicFactor":0
			}
		},
		{
			"doubleSided":true,
			"extensions":{
				"KHR_materials_specular":{
					"specularFactor":0
				}
			},
			"name":"mat_183_176_156",
			"pbrMetallicRoughness":{
				"baseColorFactor":[
					0.7179999947547913,
					0.6899999976158142,
					0.6119999885559082,
					1
				],
				"metallicFactor":0
			}
		},
		{
			"doubleSided":true,
			"extensions":{
				"KHR_materials_specular":{
					"specularFactor":0
				}
			},
			"name":"mat_156_154_148",
			"pbrMetallicRoughness":{
				"baseColorFactor":[
					0.6119999885559082,
					0.6039999723434448,
					0.5799999833106995,
					1
				],
				"metallicFactor":0
			}
		},
		{
			"doubleSided":true,
			"extensions":{
				"KHR_materials_specular":{
					"specularFactor":0
				}
			},
			"name":"mat_213_206_188",
			"pbrMetallicRoughness":{
				"baseColorFactor":[
					0.8349999785423279,
					0.8080000281333923,
					0.7369999885559082,
					1
				],
				"metallicFactor":0
			}
		},
		{
			"doubleSided":true,
			"extensions":{
				"KHR_materials_specular":{
					"specularFactor":0
				}
			},
			"name":"mat_94_91_83",
			"pbrMetallicRoughness":{
				"baseColorFactor":[
					0.36899998784065247,
					0.3569999933242798,
					0.32499998807907104,
					1
				],
				"metallicFactor":0
			}
		},
		{
			"doubleSided":true,
			"extensions":{
				"KHR_materials_specular":{
					"specularFactor":0
				}
			},
			"name":"mat_192_185_165",
			"pbrMetallicRoughness":{
				"baseColorFactor":[
					0.753000020980835,
					0.7250000238418579,
					0.6470000147819519,
					1
				],
				"metallicFactor":0
			}
		}
	],
	"meshes":[
		{
			"name":"STN_WALL_RBL",
			"primitives":[
				{
					"attributes":{
						"POSITION":0,
						"NORMAL":1
					},
					"indices":2,
					"material":0
				},
				{
					"attributes":{
						"POSITION":3,
						"NORMAL":4
					},
					"indices":5,
					"material":1
				},
				{
					"attributes":{
						"POSITION":6,
						"NORMAL":7
					},
					"indices":8,
					"material":2
				},
				{
					"attributes":{
						"POSITION":9,
						"NORMAL":10
					},
					"indices":11,
					"material":3
				},
				{
					"attributes":{
						"POSITION":12,
						"NORMAL":13
					},
					"indices":14,
					"material":4
				},
				{
					"attributes":{
						"POSITION":15,
						"NORMAL":16
					},
					"indices":17,
					"material":5
				}
			]
		}
	],
	"accessors":[
		{
			"bufferView":0,
			"componentType":5126,
			"count":912,
			"max":[
				14,
				8,
				0
			],
			"min":[
				1,
				0,
				-4
			],
			"type":"VEC3"
		},
		{
			"bufferView":1,
			"componentType":5126,
			"count":912,
			"type":"VEC3"
		},
		{
			"bufferView":2,
			"componentType":5123,
			"count":1368,
			"type":"SCALAR"
		},
		{
			"bufferView":3,
			"componentType":5126,
			"count":216,
			"max":[
				15,
				4,
				0
			],
			"min":[
				4,
				0,
				-4
			],
			"type":"VEC3"
		},
		{
			"bufferView":4,
			"componentType":5126,
			"count":216,
			"type":"VEC3"
		},
		{
			"bufferView":5,
			"componentType":5123,
			"count":324,
			"type":"SCALAR"
		},
		{
			"bufferView":6,
			"componentType":5126,
			"count":1080,
			"max":[
				16,
				8,
				0
			],
			"min":[
				0,
				0,
				-4
			],
			"type":"VEC3"
		},
		{
			"bufferView":7,
			"componentType":5126,
			"count":1080,
			"type":"VEC3"
		},
		{
			"bufferView":8,
			"componentType":5123,
			"count":1620,
			"type":"SCALAR"
		},
		{
			"bufferView":9,
			"componentType":5126,
			"count":168,
			"max":[
				8,
				8,
				0
			],
			"min":[
				1,
				0,
				-4
			],
			"type":"VEC3"
		},
		{
			"bufferView":10,
			"componentType":5126,
			"count":168,
			"type":"VEC3"
		},
		{
			"bufferView":11,
			"componentType":5123,
			"count":252,
			"type":"SCALAR"
		},
		{
			"bufferView":12,
			"componentType":5126,
			"count":1608,
			"max":[
				16,
				7,
				-1
			],
			"min":[
				1,
				0,
				-3
			],
			"type":"VEC3"
		},
		{
			"bufferView":13,
			"componentType":5126,
			"count":1608,
			"type":"VEC3"
		},
		{
			"bufferView":14,
			"componentType":5123,
			"count":2412,
			"type":"SCALAR"
		},
		{
			"bufferView":15,
			"componentType":5126,
			"count":48,
			"max":[
				15,
				7,
				-3
			],
			"min":[
				4,
				1,
				-4
			],
			"type":"VEC3"
		},
		{
			"bufferView":16,
			"componentType":5126,
			"count":48,
			"type":"VEC3"
		},
		{
			"bufferView":17,
			"componentType":5123,
			"count":72,
			"type":"SCALAR"
		}
	],
	"bufferViews":[
		{
			"buffer":0,
			"byteLength":10944,
			"byteOffset":0,
			"target":34962
		},
		{
			"buffer":0,
			"byteLength":10944,
			"byteOffset":10944,
			"target":34962
		},
		{
			"buffer":0,
			"byteLength":2736,
			"byteOffset":21888,
			"target":34963
		},
		{
			"buffer":0,
			"byteLength":2592,
			"byteOffset":24624,
			"target":34962
		},
		{
			"buffer":0,
			"byteLength":2592,
			"byteOffset":27216,
			"target":34962
		},
		{
			"buffer":0,
			"byteLength":648,
			"byteOffset":29808,
			"target":34963
		},
		{
			"buffer":0,
			"byteLength":12960,
			"byteOffset":30456,
			"target":34962
		},
		{
			"buffer":0,
			"byteLength":12960,
			"byteOffset":43416,
			"target":34962
		},
		{
			"buffer":0,
			"byteLength":3240,
			"byteOffset":56376,
			"target":34963
		},
		{
			"buffer":0,
			"byteLength":2016,
			"byteOffset":59616,
			"target":34962
		},
		{
			"buffer":0,
			"byteLength":2016,
			"byteOffset":61632,
			"target":34962
		},
		{
			"buffer":0,
			"byteLength":504,
			"byteOffset":63648,
			"target":34963
		},
		{
			"buffer":0,
			"byteLength":19296,
			"byteOffset":64152,
			"target":34962
		},
		{
			"buffer":0,
			"byteLength":19296,
			"byteOffset":83448,
			"target":34962
		},
		{
			"buffer":0,
			"byteLength":4824,
			"byteOffset":102744,
			"target":34963
		},
		{
			"buffer":0,
			"byteLength":576,
			"byteOffset":107568,
			"target":34962
		},
		{
			"buffer":0,
			"byteLength":576,
			"byteOffset":108144,
			"target":34962
		},
		{
			"buffer":0,
			"byteLength":144,
			"byteOffset":108720,
			"target":34963
		}
	],
	"buffers":[
		{
			"byteLength":108864,
			"uri":"STN_WALL_RBL.bin"
		}
	]
}
