{
	"asset":{
		"generator":"Khronos glTF Blender I/O v5.0.21",
		"version":"2.0"
	},
	"extensionsUsed":[
		"KHR_materials_specular"
	],
	"scene":0,
	"scenes":[
		{
			"name":"Scene",
			"nodes":[
				0
			]
		}
	],
	"nodes":[
		{
			"mesh":0,
			"name":"STN_WALL_DARK_BRKN",
			"rotation":[
				0.7071068286895752,
				0,
				0,
				0.7071068286895752
			]
		}
	],
	"materials":[
		{
			"doubleSided":true,
			"extensions":{
				"KHR_materials_specular":{
					"specularFactor":0
				}
			},
			"name":"mat_73_71_63",
			"pbrMetallicRoughness":{
				"baseColorFactor":[
					0.28600001335144043,
					0.27799999713897705,
					0.24699999392032623,
					1
				],
				"metallicFactor":0
			}
		},
		{
			"doubleSided":true,
			"extensions":{
				"KHR_materials_specular":{
					"specularFactor":0
				}
			},
			"name":"mat_127_122_109",
			"pbrMetallicRoughness":{
				"baseColorFactor":[
					0.49799999594688416,
					0.4779999852180481,
					0.4269999861717224,
					1
				],
				"metallicFactor":0
			}
		},
		{
			"doubleSided":true,
			"extensions":{
				"KHR_materials_specular":{
					"specularFactor":0
				}
			},
			"name":"mat_150_147_137",
			"pbrMetallicRoughness":{
				"baseColorFactor":[
					0.5879999995231628,
					0.5759999752044678,
					0.5370000004768372,
					1
				],
				"metallicFactor":0
			}
		},
		{
			"doubleSided":true,
			"extensions":{
				"KHR_materials_specular":{
					"specularFactor":0
				}
			},
			"name":"mat_152_148_137",
			"pbrMetallicRoughness":{
				"baseColorFactor":[
					0.5960000157356262,
					0.5799999833106995,
					0.5370000004768372,
					1
				],
				"metallicFactor":0
			}
		},
		{
			"doubleSided":true,
			"extensions":{
				"KHR_materials_specular":{
					"specularFactor":0
				}
			},
			"name":"mat_165_161_149",
			"pbrMetallicRoughness":{
				"baseColorFactor":[
					0.6470000147819519,
					0.6309999823570251,
					0.5839999914169312,
					1
				],
				"metallicFactor":0
			}
		},
		{
			"doubleSided":true,
			"extensions":{
				"KHR_materials_specular":{
					"specularFactor":0
				}
			},
			"name":"mat_43_43_40",
			"pbrMetallicRoughness":{
				"baseColorFactor":[
					0.16899999976158142,
					0.16899999976158142,
					0.15700000524520874,
					1
				],
				"metallicFactor":0
			}
		}
	],
	"meshes":[
		{
			"name":"STN_WALL_DARK_BRKN",
			"primitives":[
				{
					"attributes":{
						"POSITION":0,
						"NORMAL":1
					},
					"indices":2,
					"material":0
				},
				{
					"attributes":{
						"POSITION":3,
						"NORMAL":4
					},
					"indices":5,
					"material":1
				},
				{
					"attributes":{
						"POSITION":6,
						"NORMAL":7
					},
					"indices":8,
					"material":2
				},
				{
					"attributes":{
						"POSITION":9,
						"NORMAL":10
					},
					"indices":11,
					"material":3
				},
				{
					"attributes":{
						"POSITION":12,
						"NORMAL":13
					},
					"indices":14,
					"material":4
				},
				{
					"attributes":{
						"POSITION":15,
						"NORMAL":16
					},
					"indices":17,
					"material":5
				}
			]
		}
	],
	"accessors":[
		{
			"bufferView":0,
			"componentType":5126,
			"count":2136,
			"max":[
				14,
				13,
				0
			],
			"min":[
				0,
				0,
				-4
			],
			"type":"VEC3"
		},
		{
			"bufferView":1,
			"componentType":5126,
			"count":2136,
			"type":"VEC3"
		},
		{
			"bufferView":2,
			"componentType":5123,
			"count":3204,
			"type":"SCALAR"
		},
		{
			"bufferView":3,
			"componentType":5126,
			"count":792,
			"max":[
				16,
				11,
				0
			],
			"min":[
				0,
				0,
				-4
			],
			"type":"VEC3"
		},
		{
			"bufferView":4,
			"componentType":5126,
			"count":792,
			"type":"VEC3"
		},
		{
			"bufferView":5,
			"componentType":5123,
			"count":1188,
			"type":"SCALAR"
		},
		{
			"bufferView":6,
			"componentType":5126,
			"count":600,
			"max":[
				16,
				11,
				0
			],
			"min":[
				0,
				0,
				-4
			],
			"type":"VEC3"
		},
		{
			"bufferView":7,
			"componentType":5126,
			"count":600,
			"type":"VEC3"
		},
		{
			"bufferView":8,
			"componentType":5123,
			"count":900,
			"type":"SCALAR"
		},
		{
			"bufferView":9,
			"componentType":5126,
			"count":288,
			"max":[
				5,
				6,
				0
			],
			"min":[
				1,
				0,
				-4
			],
			"type":"VEC3"
		},
		{
			"bufferView":10,
			"componentType":5126,
			"count":288,
			"type":"VEC3"
		},
		{
			"bufferView":11,
			"componentType":5123,
			"count":432,
			"type":"SCALAR"
		},
		{
			"bufferView":12,
			"componentType":5126,
			"count":120,
			"max":[
				15,
				7,
				0
			],
			"min":[
				4,
				1,
				-4
			],
			"type":"VEC3"
		},
		{
			"bufferView":13,
			"componentType":5126,
			"count":120,
			"type":"VEC3"
		},
		{
			"bufferView":14,
			"componentType":5123,
			"count":180,
			"type":"SCALAR"
		},
		{
			"bufferView":15,
			"componentType":5126,
			"count":1512,
			"max":[
				15,
				12,
				-1
			],
			"min":[
				0,
				0,
				-3
			],
			"type":"VEC3"
		},
		{
			"bufferView":16,
			"componentType":5126,
			"count":1512,
			"type":"VEC3"
		},
		{
			"bufferView":17,
			"componentType":5123,
			"count":2268,
			"type":"SCALAR"
		}
	],
	"bufferViews":[
		{
			"buffer":0,
			"byteLength":25632,
			"byteOffset":0,
			"target":34962
		},
		{
			"buffer":0,
			"byteLength":25632,
			"byteOffset":25632,
			"target":34962
		},
		{
			"buffer":0,
			"byteLength":6408,
			"byteOffset":51264,
			"target":34963
		},
		{
			"buffer":0,
			"byteLength":9504,
			"byteOffset":57672,
			"target":34962
		},
		{
			"buffer":0,
			"byteLength":9504,
			"byteOffset":67176,
			"target":34962
		},
		{
			"buffer":0,
			"byteLength":2376,
			"byteOffset":76680,
			"target":34963
		},
		{
			"buffer":0,
			"byteLength":7200,
			"byteOffset":79056,
			"target":34962
		},
		{
			"buffer":0,
			"byteLength":7200,
			"byteOffset":86256,
			"target":34962
		},
		{
			"buffer":0,
			"byteLength":1800,
			"byteOffset":93456,
			"target":34963
		},
		{
			"buffer":0,
			"byteLength":3456,
			"byteOffset":95256,
			"target":34962
		},
		{
			"buffer":0,
			"byteLength":3456,
			"byteOffset":98712,
			"target":34962
		},
		{
			"buffer":0,
			"byteLength":864,
			"byteOffset":102168,
			"target":34963
		},
		{
			"buffer":0,
			"byteLength":1440,
			"byteOffset":103032,
			"target":34962
		},
		{
			"buffer":0,
			"byteLength":1440,
			"byteOffset":104472,
			"target":34962
		},
		{
			"buffer":0,
			"byteLength":360,
			"byteOffset":105912,
			"target":34963
		},
		{
			"buffer":0,
			"byteLength":18144,
			"byteOffset":106272,
			"target":34962
		},
		{
			"buffer":0,
			"byteLength":18144,
			"byteOffset":124416,
			"target":34962
		},
		{
			"buffer":0,
			"byteLength":4536,
			"byteOffset":142560,
			"target":34963
		}
	],
	"buffers":[
		{
			"byteLength":147096,
			"uri":"STN_WALL_DARK_BRKN.bin"
		}
	]
}
