{
	"asset":{
		"generator":"Khronos glTF Blender I/O v5.0.21",
		"version":"2.0"
	},
	"extensionsUsed":[
		"KHR_materials_specular"
	],
	"scene":0,
	"scenes":[
		{
			"name":"Scene",
			"nodes":[
				0
			]
		}
	],
	"nodes":[
		{
			"mesh":0,
			"name":"STN_WALL_BRKN",
			"rotation":[
				0.7071068286895752,
				0,
				0,
				0.7071068286895752
			]
		}
	],
	"materials":[
		{
			"doubleSided":true,
			"extensions":{
				"KHR_materials_specular":{
					"specularFactor":0
				}
			},
			"name":"mat_156_154_148",
			"pbrMetallicRoughness":{
				"baseColorFactor":[
					0.6119999885559082,
					0.6039999723434448,
					0.5799999833106995,
					1
				],
				"metallicFactor":0
			}
		},
		{
			"doubleSided":true,
			"extensions":{
				"KHR_materials_specular":{
					"specularFactor":0
				}
			},
			"name":"mat_213_206_188",
			"pbrMetallicRoughness":{
				"baseColorFactor":[
					0.8349999785423279,
					0.8080000281333923,
					0.7369999885559082,
					1
				],
				"metallicFactor":0
			}
		},
		{
			"doubleSided":true,
			"extensions":{
				"KHR_materials_specular":{
					"specularFactor":0
				}
			},
			"name":"mat_141_137_125",
			"pbrMetallicRoughness":{
				"baseColorFactor":[
					0.5529999732971191,
					0.5370000004768372,
					0.49000000953674316,
					1
				],
				"metallicFactor":0
			}
		},
		{
			"doubleSided":true,
			"extensions":{
				"KHR_materials_specular":{
					"specularFactor":0
				}
			},
			"name":"mat_183_176_156",
			"pbrMetallicRoughness":{
				"baseColorFactor":[
					0.7179999947547913,
					0.6899999976158142,
					0.6119999885559082,
					1
				],
				"metallicFactor":0
			}
		},
		{
			"doubleSided":true,
			"extensions":{
				"KHR_materials_specular":{
					"specularFactor":0
				}
			},
			"name":"mat_192_185_165",
			"pbrMetallicRoughness":{
				"baseColorFactor":[
					0.753000020980835,
					0.7250000238418579,
					0.6470000147819519,
					1
				],
				"metallicFactor":0
			}
		},
		{
			"doubleSided":true,
			"extensions":{
				"KHR_materials_specular":{
					"specularFactor":0
				}
			},
			"name":"mat_94_91_83",
			"pbrMetallicRoughness":{
				"baseColorFactor":[
					0.36899998784065247,
					0.3569999933242798,
					0.32499998807907104,
					1
				],
				"metallicFactor":0
			}
		},
		{
			"doubleSided":true,
			"extensions":{
				"KHR_materials_specular":{
					"specularFactor":0
				}
			},
			"name":"mat_242_227_168",
			"pbrMetallicRoughness":{
				"baseColorFactor":[
					0.9490000009536743,
					0.8899999856948853,
					0.6589999794960022,
					1
				],
				"metallicFactor":0
			}
		}
	],
	"meshes":[
		{
			"name":"STN_WALL_BRKN",
			"primitives":[
				{
					"attributes":{
						"POSITION":0,
						"NORMAL":1
					},
					"indices":2,
					"material":0
				},
				{
					"attributes":{
						"POSITION":3,
						"NORMAL":4
					},
					"indices":5,
					"material":1
				},
				{
					"attributes":{
						"POSITION":6,
						"NORMAL":7
					},
					"indices":8,
					"material":2
				},
				{
					"attributes":{
						"POSITION":9,
						"NORMAL":10
					},
					"indices":11,
					"material":3
				},
				{
					"attributes":{
						"POSITION":12,
						"NORMAL":13
					},
					"indices":14,
					"material":4
				},
				{
					"attributes":{
						"POSITION":15,
						"NORMAL":16
					},
					"indices":17,
					"material":5
				},
				{
					"attributes":{
						"POSITION":18,
						"NORMAL":19
					},
					"indices":20,
					"material":6
				}
			]
		}
	],
	"accessors":[
		{
			"bufferView":0,
			"componentType":5126,
			"count":1224,
			"max":[
				16,
				16,
				0
			],
			"min":[
				0,
				0,
				-4
			],
			"type":"VEC3"
		},
		{
			"bufferView":1,
			"componentType":5126,
			"count":1224,
			"type":"VEC3"
		},
		{
			"bufferView":2,
			"componentType":5123,
			"count":1836,
			"type":"SCALAR"
		},
		{
			"bufferView":3,
			"componentType":5126,
			"count":1416,
			"max":[
				16,
				15,
				0
			],
			"min":[
				0,
				0,
				-4
			],
			"type":"VEC3"
		},
		{
			"bufferView":4,
			"componentType":5126,
			"count":1416,
			"type":"VEC3"
		},
		{
			"bufferView":5,
			"componentType":5123,
			"count":2124,
			"type":"SCALAR"
		},
		{
			"bufferView":6,
			"componentType":5126,
			"count":2784,
			"max":[
				16,
				16,
				0
			],
			"min":[
				0,
				0,
				-4
			],
			"type":"VEC3"
		},
		{
			"bufferView":7,
			"componentType":5126,
			"count":2784,
			"type":"VEC3"
		},
		{
			"bufferView":8,
			"componentType":5123,
			"count":4176,
			"type":"SCALAR"
		},
		{
			"bufferView":9,
			"componentType":5126,
			"count":744,
			"max":[
				16,
				14,
				0
			],
			"min":[
				0,
				0,
				-4
			],
			"type":"VEC3"
		},
		{
			"bufferView":10,
			"componentType":5126,
			"count":744,
			"type":"VEC3"
		},
		{
			"bufferView":11,
			"componentType":5123,
			"count":1116,
			"type":"SCALAR"
		},
		{
			"bufferView":12,
			"componentType":5126,
			"count":192,
			"max":[
				15,
				15,
				0
			],
			"min":[
				4,
				1,
				-4
			],
			"type":"VEC3"
		},
		{
			"bufferView":13,
			"componentType":5126,
			"count":192,
			"type":"VEC3"
		},
		{
			"bufferView":14,
			"componentType":5123,
			"count":288,
			"type":"SCALAR"
		},
		{
			"bufferView":15,
			"componentType":5126,
			"count":3192,
			"max":[
				16,
				16,
				0
			],
			"min":[
				0,
				0,
				-3
			],
			"type":"VEC3"
		},
		{
			"bufferView":16,
			"componentType":5126,
			"count":3192,
			"type":"VEC3"
		},
		{
			"bufferView":17,
			"componentType":5123,
			"count":4788,
			"type":"SCALAR"
		},
		{
			"bufferView":18,
			"componentType":5126,
			"count":912,
			"max":[
				15,
				15,
				-1
			],
			"min":[
				2,
				1,
				-3
			],
			"type":"VEC3"
		},
		{
			"bufferView":19,
			"componentType":5126,
			"count":912,
			"type":"VEC3"
		},
		{
			"bufferView":20,
			"componentType":5123,
			"count":1368,
			"type":"SCALAR"
		}
	],
	"bufferViews":[
		{
			"buffer":0,
			"byteLength":14688,
			"byteOffset":0,
			"target":34962
		},
		{
			"buffer":0,
			"byteLength":14688,
			"byteOffset":14688,
			"target":34962
		},
		{
			"buffer":0,
			"byteLength":3672,
			"byteOffset":29376,
			"target":34963
		},
		{
			"buffer":0,
			"byteLength":16992,
			"byteOffset":33048,
			"target":34962
		},
		{
			"buffer":0,
			"byteLength":16992,
			"byteOffset":50040,
			"target":34962
		},
		{
			"buffer":0,
			"byteLength":4248,
			"byteOffset":67032,
			"target":34963
		},
		{
			"buffer":0,
			"byteLength":33408,
			"byteOffset":71280,
			"target":34962
		},
		{
			"buffer":0,
			"byteLength":33408,
			"byteOffset":104688,
			"target":34962
		},
		{
			"buffer":0,
			"byteLength":8352,
			"byteOffset":138096,
			"target":34963
		},
		{
			"buffer":0,
			"byteLength":8928,
			"byteOffset":146448,
			"target":34962
		},
		{
			"buffer":0,
			"byteLength":8928,
			"byteOffset":155376,
			"target":34962
		},
		{
			"buffer":0,
			"byteLength":2232,
			"byteOffset":164304,
			"target":34963
		},
		{
			"buffer":0,
			"byteLength":2304,
			"byteOffset":166536,
			"target":34962
		},
		{
			"buffer":0,
			"byteLength":2304,
			"byteOffset":168840,
			"target":34962
		},
		{
			"buffer":0,
			"byteLength":576,
			"byteOffset":171144,
			"target":34963
		},
		{
			"buffer":0,
			"byteLength":38304,
			"byteOffset":171720,
			"target":34962
		},
		{
			"buffer":0,
			"byteLength":38304,
			"byteOffset":210024,
			"target":34962
		},
		{
			"buffer":0,
			"byteLength":9576,
			"byteOffset":248328,
			"target":34963
		},
		{
			"buffer":0,
			"byteLength":10944,
			"byteOffset":257904,
			"target":34962
		},
		{
			"buffer":0,
			"byteLength":10944,
			"byteOffset":268848,
			"target":34962
		},
		{
			"buffer":0,
			"byteLength":2736,
			"byteOffset":279792,
			"target":34963
		}
	],
	"buffers":[
		{
			"byteLength":282528,
			"uri":"STN_WALL_BRKN.bin"
		}
	]
}
