{
	"asset":{
		"generator":"Khronos glTF Blender I/O v5.0.21",
		"version":"2.0"
	},
	"extensionsUsed":[
		"KHR_materials_specular"
	],
	"scene":0,
	"scenes":[
		{
			"name":"Scene",
			"nodes":[
				0
			]
		}
	],
	"nodes":[
		{
			"mesh":0,
			"name":"STN_FLR",
			"rotation":[
				0.7071068286895752,
				0,
				0,
				0.7071068286895752
			]
		}
	],
	"materials":[
		{
			"doubleSided":true,
			"extensions":{
				"KHR_materials_specular":{
					"specularFactor":0
				}
			},
			"name":"mat_141_137_125",
			"pbrMetallicRoughness":{
				"baseColorFactor":[
					0.5529999732971191,
					0.5370000004768372,
					0.49000000953674316,
					1
				],
				"metallicFactor":0
			}
		},
		{
			"doubleSided":true,
			"extensions":{
				"KHR_materials_specular":{
					"specularFactor":0
				}
			},
			"name":"mat_94_91_83",
			"pbrMetallicRoughness":{
				"baseColorFactor":[
					0.36899998784065247,
					0.3569999933242798,
					0.32499998807907104,
					1
				],
				"metallicFactor":0
			}
		},
		{
			"doubleSided":true,
			"extensions":{
				"KHR_materials_specular":{
					"specularFactor":0
				}
			},
			"name":"mat_183_176_156",
			"pbrMetallicRoughness":{
				"baseColorFactor":[
					0.7179999947547913,
					0.6899999976158142,
					0.6119999885559082,
					1
				],
				"metallicFactor":0
			}
		},
		{
			"doubleSided":true,
			"extensions":{
				"KHR_materials_specular":{
					"specularFactor":0
				}
			},
			"name":"mat_156_154_148",
			"pbrMetallicRoughness":{
				"baseColorFactor":[
					0.6119999885559082,
					0.6039999723434448,
					0.5799999833106995,
					1
				],
				"metallicFactor":0
			}
		},
		{
			"doubleSided":true,
			"extensions":{
				"KHR_materials_specular":{
					"specularFactor":0
				}
			},
			"name":"mat_213_206_188",
			"pbrMetallicRoughness":{
				"baseColorFactor":[
					0.8349999785423279,
					0.8080000281333923,
					0.7369999885559082,
					1
				],
				"metallicFactor":0
			}
		},
		{
			"doubleSided":true,
			"extensions":{
				"KHR_materials_specular":{
					"specularFactor":0
				}
			},
			"name":"mat_192_185_165",
			"pbrMetallicRoughness":{
				"baseColorFactor":[
					0.753000020980835,
					0.7250000238418579,
					0.6470000147819519,
					1
				],
				"metallicFactor":0
			}
		},
		{
			"doubleSided":true,
			"extensions":{
				"KHR_materials_specular":{
					"specularFactor":0
				}
			},
			"name":"mat_71_69_64",
			"pbrMetallicRoughness":{
				"baseColorFactor":[
					0.27799999713897705,
					0.2709999978542328,
					0.25099998712539673,
					1
				],
				"metallicFactor":0
			}
		}
	],
	"meshes":[
		{
			"name":"STN_FLR",
			"primitives":[
				{
					"attributes":{
						"POSITION":0,
						"NORMAL":1
					},
					"indices":2,
					"material":0
				},
				{
					"attributes":{
						"POSITION":3,
						"NORMAL":4
					},
					"indices":5,
					"material":1
				},
				{
					"attributes":{
						"POSITION":6,
						"NORMAL":7
					},
					"indices":8,
					"material":2
				},
				{
					"attributes":{
						"POSITION":9,
						"NORMAL":10
					},
					"indices":11,
					"material":3
				},
				{
					"attributes":{
						"POSITION":12,
						"NORMAL":13
					},
					"indices":14,
					"material":4
				},
				{
					"attributes":{
						"POSITION":15,
						"NORMAL":16
					},
					"indices":17,
					"material":5
				},
				{
					"attributes":{
						"POSITION":18,
						"NORMAL":19
					},
					"indices":20,
					"material":6
				}
			]
		}
	],
	"accessors":[
		{
			"bufferView":0,
			"componentType":5126,
			"count":1920,
			"max":[
				16,
				1,
				0
			],
			"min":[
				0,
				0,
				-16
			],
			"type":"VEC3"
		},
		{
			"bufferView":1,
			"componentType":5126,
			"count":1920,
			"type":"VEC3"
		},
		{
			"bufferView":2,
			"componentType":5123,
			"count":2880,
			"type":"SCALAR"
		},
		{
			"bufferView":3,
			"componentType":5126,
			"count":1848,
			"max":[
				16,
				1,
				0
			],
			"min":[
				0,
				0,
				-15
			],
			"type":"VEC3"
		},
		{
			"bufferView":4,
			"componentType":5126,
			"count":1848,
			"type":"VEC3"
		},
		{
			"bufferView":5,
			"componentType":5123,
			"count":2772,
			"type":"SCALAR"
		},
		{
			"bufferView":6,
			"componentType":5126,
			"count":624,
			"max":[
				16,
				1,
				-2
			],
			"min":[
				0,
				0,
				-16
			],
			"type":"VEC3"
		},
		{
			"bufferView":7,
			"componentType":5126,
			"count":624,
			"type":"VEC3"
		},
		{
			"bufferView":8,
			"componentType":5123,
			"count":936,
			"type":"SCALAR"
		},
		{
			"bufferView":9,
			"componentType":5126,
			"count":696,
			"max":[
				16,
				1,
				0
			],
			"min":[
				0,
				0,
				-16
			],
			"type":"VEC3"
		},
		{
			"bufferView":10,
			"componentType":5126,
			"count":696,
			"type":"VEC3"
		},
		{
			"bufferView":11,
			"componentType":5123,
			"count":1044,
			"type":"SCALAR"
		},
		{
			"bufferView":12,
			"componentType":5126,
			"count":432,
			"max":[
				16,
				1,
				0
			],
			"min":[
				0,
				0,
				-16
			],
			"type":"VEC3"
		},
		{
			"bufferView":13,
			"componentType":5126,
			"count":432,
			"type":"VEC3"
		},
		{
			"bufferView":14,
			"componentType":5123,
			"count":648,
			"type":"SCALAR"
		},
		{
			"bufferView":15,
			"componentType":5126,
			"count":168,
			"max":[
				15,
				1,
				-1
			],
			"min":[
				4,
				0,
				-15
			],
			"type":"VEC3"
		},
		{
			"bufferView":16,
			"componentType":5126,
			"count":168,
			"type":"VEC3"
		},
		{
			"bufferView":17,
			"componentType":5123,
			"count":252,
			"type":"SCALAR"
		},
		{
			"bufferView":18,
			"componentType":5126,
			"count":456,
			"max":[
				16,
				1,
				0
			],
			"min":[
				0,
				0,
				-16
			],
			"type":"VEC3"
		},
		{
			"bufferView":19,
			"componentType":5126,
			"count":456,
			"type":"VEC3"
		},
		{
			"bufferView":20,
			"componentType":5123,
			"count":684,
			"type":"SCALAR"
		}
	],
	"bufferViews":[
		{
			"buffer":0,
			"byteLength":23040,
			"byteOffset":0,
			"target":34962
		},
		{
			"buffer":0,
			"byteLength":23040,
			"byteOffset":23040,
			"target":34962
		},
		{
			"buffer":0,
			"byteLength":5760,
			"byteOffset":46080,
			"target":34963
		},
		{
			"buffer":0,
			"byteLength":22176,
			"byteOffset":51840,
			"target":34962
		},
		{
			"buffer":0,
			"byteLength":22176,
			"byteOffset":74016,
			"target":34962
		},
		{
			"buffer":0,
			"byteLength":5544,
			"byteOffset":96192,
			"target":34963
		},
		{
			"buffer":0,
			"byteLength":7488,
			"byteOffset":101736,
			"target":34962
		},
		{
			"buffer":0,
			"byteLength":7488,
			"byteOffset":109224,
			"target":34962
		},
		{
			"buffer":0,
			"byteLength":1872,
			"byteOffset":116712,
			"target":34963
		},
		{
			"buffer":0,
			"byteLength":8352,
			"byteOffset":118584,
			"target":34962
		},
		{
			"buffer":0,
			"byteLength":8352,
			"byteOffset":126936,
			"target":34962
		},
		{
			"buffer":0,
			"byteLength":2088,
			"byteOffset":135288,
			"target":34963
		},
		{
			"buffer":0,
			"byteLength":5184,
			"byteOffset":137376,
			"target":34962
		},
		{
			"buffer":0,
			"byteLength":5184,
			"byteOffset":142560,
			"target":34962
		},
		{
			"buffer":0,
			"byteLength":1296,
			"byteOffset":147744,
			"target":34963
		},
		{
			"buffer":0,
			"byteLength":2016,
			"byteOffset":149040,
			"target":34962
		},
		{
			"buffer":0,
			"byteLength":2016,
			"byteOffset":151056,
			"target":34962
		},
		{
			"buffer":0,
			"byteLength":504,
			"byteOffset":153072,
			"target":34963
		},
		{
			"buffer":0,
			"byteLength":5472,
			"byteOffset":153576,
			"target":34962
		},
		{
			"buffer":0,
			"byteLength":5472,
			"byteOffset":159048,
			"target":34962
		},
		{
			"buffer":0,
			"byteLength":1368,
			"byteOffset":164520,
			"target":34963
		}
	],
	"buffers":[
		{
			"byteLength":165888,
			"uri":"STN_FLR.bin"
		}
	]
}
