{
	"asset":{
		"generator":"Khronos glTF Blender I/O v5.0.21",
		"version":"2.0"
	},
	"extensionsUsed":[
		"KHR_materials_specular"
	],
	"scene":0,
	"scenes":[
		{
			"name":"Scene",
			"nodes":[
				0
			]
		}
	],
	"nodes":[
		{
			"mesh":0,
			"name":"STN_MOSS_HALF_3D",
			"rotation":[
				0.7071068286895752,
				0,
				0,
				0.7071068286895752
			]
		}
	],
	"materials":[
		{
			"doubleSided":true,
			"extensions":{
				"KHR_materials_specular":{
					"specularFactor":0
				}
			},
			"name":"mat_141_137_125",
			"pbrMetallicRoughness":{
				"baseColorFactor":[
					0.5529999732971191,
					0.5370000004768372,
					0.49000000953674316,
					1
				],
				"metallicFactor":0
			}
		},
		{
			"doubleSided":true,
			"extensions":{
				"KHR_materials_specular":{
					"specularFactor":0
				}
			},
			"name":"mat_183_176_156",
			"pbrMetallicRoughness":{
				"baseColorFactor":[
					0.7179999947547913,
					0.6899999976158142,
					0.6119999885559082,
					1
				],
				"metallicFactor":0
			}
		},
		{
			"doubleSided":true,
			"extensions":{
				"KHR_materials_specular":{
					"specularFactor":0
				}
			},
			"name":"mat_156_154_148",
			"pbrMetallicRoughness":{
				"baseColorFactor":[
					0.6119999885559082,
					0.6039999723434448,
					0.5799999833106995,
					1
				],
				"metallicFactor":0
			}
		},
		{
			"doubleSided":true,
			"extensions":{
				"KHR_materials_specular":{
					"specularFactor":0
				}
			},
			"name":"mat_242_227_168",
			"pbrMetallicRoughness":{
				"baseColorFactor":[
					0.9490000009536743,
					0.8899999856948853,
					0.6589999794960022,
					1
				],
				"metallicFactor":0
			}
		},
		{
			"doubleSided":true,
			"extensions":{
				"KHR_materials_specular":{
					"specularFactor":0
				}
			},
			"name":"mat_94_91_83",
			"pbrMetallicRoughness":{
				"baseColorFactor":[
					0.36899998784065247,
					0.3569999933242798,
					0.32499998807907104,
					1
				],
				"metallicFactor":0
			}
		},
		{
			"doubleSided":true,
			"extensions":{
				"KHR_materials_specular":{
					"specularFactor":0
				}
			},
			"name":"mat_213_206_188",
			"pbrMetallicRoughness":{
				"baseColorFactor":[
					0.8349999785423279,
					0.8080000281333923,
					0.7369999885559082,
					1
				],
				"metallicFactor":0
			}
		},
		{
			"doubleSided":true,
			"extensions":{
				"KHR_materials_specular":{
					"specularFactor":0
				}
			},
			"name":"mat_192_185_165",
			"pbrMetallicRoughness":{
				"baseColorFactor":[
					0.753000020980835,
					0.7250000238418579,
					0.6470000147819519,
					1
				],
				"metallicFactor":0
			}
		},
		{
			"doubleSided":true,
			"extensions":{
				"KHR_materials_specular":{
					"specularFactor":0
				}
			},
			"name":"mat_102_130_54",
			"pbrMetallicRoughness":{
				"baseColorFactor":[
					0.4000000059604645,
					0.5099999904632568,
					0.21199999749660492,
					1
				],
				"metallicFactor":0
			}
		},
		{
			"doubleSided":true,
			"extensions":{
				"KHR_materials_specular":{
					"specularFactor":0
				}
			},
			"name":"mat_90_115_46",
			"pbrMetallicRoughness":{
				"baseColorFactor":[
					0.3529999852180481,
					0.45100000500679016,
					0.18000000715255737,
					1
				],
				"metallicFactor":0
			}
		},
		{
			"doubleSided":true,
			"extensions":{
				"KHR_materials_specular":{
					"specularFactor":0
				}
			},
			"name":"mat_77_98_40",
			"pbrMetallicRoughness":{
				"baseColorFactor":[
					0.3019999861717224,
					0.3840000033378601,
					0.15700000524520874,
					1
				],
				"metallicFactor":0
			}
		}
	],
	"meshes":[
		{
			"name":"STN_MOSS_HALF_3D",
			"primitives":[
				{
					"attributes":{
						"POSITION":0,
						"NORMAL":1
					},
					"indices":2,
					"material":0
				},
				{
					"attributes":{
						"POSITION":3,
						"NORMAL":4
					},
					"indices":5,
					"material":1
				},
				{
					"attributes":{
						"POSITION":6,
						"NORMAL":7
					},
					"indices":8,
					"material":2
				},
				{
					"attributes":{
						"POSITION":9,
						"NORMAL":10
					},
					"indices":11,
					"material":3
				},
				{
					"attributes":{
						"POSITION":12,
						"NORMAL":13
					},
					"indices":14,
					"material":4
				},
				{
					"attributes":{
						"POSITION":15,
						"NORMAL":16
					},
					"indices":5,
					"material":5
				},
				{
					"attributes":{
						"POSITION":17,
						"NORMAL":18
					},
					"indices":19,
					"material":6
				},
				{
					"attributes":{
						"POSITION":20,
						"NORMAL":21
					},
					"indices":22,
					"material":7
				},
				{
					"attributes":{
						"POSITION":23,
						"NORMAL":24
					},
					"indices":25,
					"material":8
				},
				{
					"attributes":{
						"POSITION":26,
						"NORMAL":27
					},
					"indices":28,
					"material":9
				}
			]
		}
	],
	"accessors":[
		{
			"bufferView":0,
			"componentType":5126,
			"count":3360,
			"max":[
				16,
				9,
				-1
			],
			"min":[
				1,
				0,
				-16
			],
			"type":"VEC3"
		},
		{
			"bufferView":1,
			"componentType":5126,
			"count":3360,
			"type":"VEC3"
		},
		{
			"bufferView":2,
			"componentType":5123,
			"count":5040,
			"type":"SCALAR"
		},
		{
			"bufferView":3,
			"componentType":5126,
			"count":1008,
			"max":[
				16,
				8,
				-1
			],
			"min":[
				1,
				0,
				-15
			],
			"type":"VEC3"
		},
		{
			"bufferView":4,
			"componentType":5126,
			"count":1008,
			"type":"VEC3"
		},
		{
			"bufferView":5,
			"componentType":5123,
			"count":1512,
			"type":"SCALAR"
		},
		{
			"bufferView":6,
			"componentType":5126,
			"count":1704,
			"max":[
				16,
				9,
				-1
			],
			"min":[
				1,
				0,
				-16
			],
			"type":"VEC3"
		},
		{
			"bufferView":7,
			"componentType":5126,
			"count":1704,
			"type":"VEC3"
		},
		{
			"bufferView":8,
			"componentType":5123,
			"count":2556,
			"type":"SCALAR"
		},
		{
			"bufferView":9,
			"componentType":5126,
			"count":2904,
			"max":[
				15,
				7,
				-2
			],
			"min":[
				2,
				0,
				-15
			],
			"type":"VEC3"
		},
		{
			"bufferView":10,
			"componentType":5126,
			"count":2904,
			"type":"VEC3"
		},
		{
			"bufferView":11,
			"componentType":5123,
			"count":4356,
			"type":"SCALAR"
		},
		{
			"bufferView":12,
			"componentType":5126,
			"count":4488,
			"max":[
				16,
				9,
				-2
			],
			"min":[
				1,
				0,
				-16
			],
			"type":"VEC3"
		},
		{
			"bufferView":13,
			"componentType":5126,
			"count":4488,
			"type":"VEC3"
		},
		{
			"bufferView":14,
			"componentType":5123,
			"count":6732,
			"type":"SCALAR"
		},
		{
			"bufferView":15,
			"componentType":5126,
			"count":1008,
			"max":[
				16,
				9,
				-1
			],
			"min":[
				1,
				0,
				-16
			],
			"type":"VEC3"
		},
		{
			"bufferView":16,
			"componentType":5126,
			"count":1008,
			"type":"VEC3"
		},
		{
			"bufferView":17,
			"componentType":5126,
			"count":336,
			"max":[
				15,
				8,
				-1
			],
			"min":[
				1,
				1,
				-15
			],
			"type":"VEC3"
		},
		{
			"bufferView":18,
			"componentType":5126,
			"count":336,
			"type":"VEC3"
		},
		{
			"bufferView":19,
			"componentType":5123,
			"count":504,
			"type":"SCALAR"
		},
		{
			"bufferView":20,
			"componentType":5126,
			"count":480,
			"max":[
				15,
				7,
				0
			],
			"min":[
				0,
				0,
				-13
			],
			"type":"VEC3"
		},
		{
			"bufferView":21,
			"componentType":5126,
			"count":480,
			"type":"VEC3"
		},
		{
			"bufferView":22,
			"componentType":5123,
			"count":720,
			"type":"SCALAR"
		},
		{
			"bufferView":23,
			"componentType":5126,
			"count":1152,
			"max":[
				13,
				8,
				0
			],
			"min":[
				0,
				0,
				-15
			],
			"type":"VEC3"
		},
		{
			"bufferView":24,
			"componentType":5126,
			"count":1152,
			"type":"VEC3"
		},
		{
			"bufferView":25,
			"componentType":5123,
			"count":1728,
			"type":"SCALAR"
		},
		{
			"bufferView":26,
			"componentType":5126,
			"count":576,
			"max":[
				16,
				9,
				0
			],
			"min":[
				0,
				0,
				-16
			],
			"type":"VEC3"
		},
		{
			"bufferView":27,
			"componentType":5126,
			"count":576,
			"type":"VEC3"
		},
		{
			"bufferView":28,
			"componentType":5123,
			"count":864,
			"type":"SCALAR"
		}
	],
	"bufferViews":[
		{
			"buffer":0,
			"byteLength":40320,
			"byteOffset":0,
			"target":34962
		},
		{
			"buffer":0,
			"byteLength":40320,
			"byteOffset":40320,
			"target":34962
		},
		{
			"buffer":0,
			"byteLength":10080,
			"byteOffset":80640,
			"target":34963
		},
		{
			"buffer":0,
			"byteLength":12096,
			"byteOffset":90720,
			"target":34962
		},
		{
			"buffer":0,
			"byteLength":12096,
			"byteOffset":102816,
			"target":34962
		},
		{
			"buffer":0,
			"byteLength":3024,
			"byteOffset":114912,
			"target":34963
		},
		{
			"buffer":0,
			"byteLength":20448,
			"byteOffset":117936,
			"target":34962
		},
		{
			"buffer":0,
			"byteLength":20448,
			"byteOffset":138384,
			"target":34962
		},
		{
			"buffer":0,
			"byteLength":5112,
			"byteOffset":158832,
			"target":34963
		},
		{
			"buffer":0,
			"byteLength":34848,
			"byteOffset":163944,
			"target":34962
		},
		{
			"buffer":0,
			"byteLength":34848,
			"byteOffset":198792,
			"target":34962
		},
		{
			"buffer":0,
			"byteLength":8712,
			"byteOffset":233640,
			"target":34963
		},
		{
			"buffer":0,
			"byteLength":53856,
			"byteOffset":242352,
			"target":34962
		},
		{
			"buffer":0,
			"byteLength":53856,
			"byteOffset":296208,
			"target":34962
		},
		{
			"buffer":0,
			"byteLength":13464,
			"byteOffset":350064,
			"target":34963
		},
		{
			"buffer":0,
			"byteLength":12096,
			"byteOffset":363528,
			"target":34962
		},
		{
			"buffer":0,
			"byteLength":12096,
			"byteOffset":375624,
			"target":34962
		},
		{
			"buffer":0,
			"byteLength":4032,
			"byteOffset":387720,
			"target":34962
		},
		{
			"buffer":0,
			"byteLength":4032,
			"byteOffset":391752,
			"target":34962
		},
		{
			"buffer":0,
			"byteLength":1008,
			"byteOffset":395784,
			"target":34963
		},
		{
			"buffer":0,
			"byteLength":5760,
			"byteOffset":396792,
			"target":34962
		},
		{
			"buffer":0,
			"byteLength":5760,
			"byteOffset":402552,
			"target":34962
		},
		{
			"buffer":0,
			"byteLength":1440,
			"byteOffset":408312,
			"target":34963
		},
		{
			"buffer":0,
			"byteLength":13824,
			"byteOffset":409752,
			"target":34962
		},
		{
			"buffer":0,
			"byteLength":13824,
			"byteOffset":423576,
			"target":34962
		},
		{
			"buffer":0,
			"byteLength":3456,
			"byteOffset":437400,
			"target":34963
		},
		{
			"buffer":0,
			"byteLength":6912,
			"byteOffset":440856,
			"target":34962
		},
		{
			"buffer":0,
			"byteLength":6912,
			"byteOffset":447768,
			"target":34962
		},
		{
			"buffer":0,
			"byteLength":1728,
			"byteOffset":454680,
			"target":34963
		}
	],
	"buffers":[
		{
			"byteLength":456408,
			"uri":"STN_MOSS_HALF_3D.bin"
		}
	]
}
