{
	"asset":{
		"generator":"Khronos glTF Blender I/O v5.0.21",
		"version":"2.0"
	},
	"extensionsUsed":[
		"KHR_materials_specular"
	],
	"scene":0,
	"scenes":[
		{
			"name":"Scene",
			"nodes":[
				0
			]
		}
	],
	"nodes":[
		{
			"mesh":0,
			"name":"STN_MOSS_3D_TOP",
			"rotation":[
				0.7071068286895752,
				0,
				0,
				0.7071068286895752
			]
		}
	],
	"materials":[
		{
			"doubleSided":true,
			"extensions":{
				"KHR_materials_specular":{
					"specularFactor":0
				}
			},
			"name":"mat_156_154_148",
			"pbrMetallicRoughness":{
				"baseColorFactor":[
					0.6119999885559082,
					0.6039999723434448,
					0.5799999833106995,
					1
				],
				"metallicFactor":0
			}
		},
		{
			"doubleSided":true,
			"extensions":{
				"KHR_materials_specular":{
					"specularFactor":0
				}
			},
			"name":"mat_213_206_188",
			"pbrMetallicRoughness":{
				"baseColorFactor":[
					0.8349999785423279,
					0.8080000281333923,
					0.7369999885559082,
					1
				],
				"metallicFactor":0
			}
		},
		{
			"doubleSided":true,
			"extensions":{
				"KHR_materials_specular":{
					"specularFactor":0
				}
			},
			"name":"mat_141_137_125",
			"pbrMetallicRoughness":{
				"baseColorFactor":[
					0.5529999732971191,
					0.5370000004768372,
					0.49000000953674316,
					1
				],
				"metallicFactor":0
			}
		},
		{
			"doubleSided":true,
			"extensions":{
				"KHR_materials_specular":{
					"specularFactor":0
				}
			},
			"name":"mat_242_227_168",
			"pbrMetallicRoughness":{
				"baseColorFactor":[
					0.9490000009536743,
					0.8899999856948853,
					0.6589999794960022,
					1
				],
				"metallicFactor":0
			}
		},
		{
			"doubleSided":true,
			"extensions":{
				"KHR_materials_specular":{
					"specularFactor":0
				}
			},
			"name":"mat_94_91_83",
			"pbrMetallicRoughness":{
				"baseColorFactor":[
					0.36899998784065247,
					0.3569999933242798,
					0.32499998807907104,
					1
				],
				"metallicFactor":0
			}
		},
		{
			"doubleSided":true,
			"extensions":{
				"KHR_materials_specular":{
					"specularFactor":0
				}
			},
			"name":"mat_183_176_156",
			"pbrMetallicRoughness":{
				"baseColorFactor":[
					0.7179999947547913,
					0.6899999976158142,
					0.6119999885559082,
					1
				],
				"metallicFactor":0
			}
		},
		{
			"doubleSided":true,
			"extensions":{
				"KHR_materials_specular":{
					"specularFactor":0
				}
			},
			"name":"mat_192_185_165",
			"pbrMetallicRoughness":{
				"baseColorFactor":[
					0.753000020980835,
					0.7250000238418579,
					0.6470000147819519,
					1
				],
				"metallicFactor":0
			}
		},
		{
			"doubleSided":true,
			"extensions":{
				"KHR_materials_specular":{
					"specularFactor":0
				}
			},
			"name":"mat_77_98_40",
			"pbrMetallicRoughness":{
				"baseColorFactor":[
					0.3019999861717224,
					0.3840000033378601,
					0.15700000524520874,
					1
				],
				"metallicFactor":0
			}
		},
		{
			"doubleSided":true,
			"extensions":{
				"KHR_materials_specular":{
					"specularFactor":0
				}
			},
			"name":"mat_90_115_46",
			"pbrMetallicRoughness":{
				"baseColorFactor":[
					0.3529999852180481,
					0.45100000500679016,
					0.18000000715255737,
					1
				],
				"metallicFactor":0
			}
		},
		{
			"doubleSided":true,
			"extensions":{
				"KHR_materials_specular":{
					"specularFactor":0
				}
			},
			"name":"mat_102_130_54",
			"pbrMetallicRoughness":{
				"baseColorFactor":[
					0.4000000059604645,
					0.5099999904632568,
					0.21199999749660492,
					1
				],
				"metallicFactor":0
			}
		}
	],
	"meshes":[
		{
			"name":"STN_MOSS_3D_TOP",
			"primitives":[
				{
					"attributes":{
						"POSITION":0,
						"NORMAL":1
					},
					"indices":2,
					"material":0
				},
				{
					"attributes":{
						"POSITION":3,
						"NORMAL":4
					},
					"indices":5,
					"material":1
				},
				{
					"attributes":{
						"POSITION":6,
						"NORMAL":7
					},
					"indices":8,
					"material":2
				},
				{
					"attributes":{
						"POSITION":9,
						"NORMAL":10
					},
					"indices":11,
					"material":3
				},
				{
					"attributes":{
						"POSITION":12,
						"NORMAL":13
					},
					"indices":14,
					"material":4
				},
				{
					"attributes":{
						"POSITION":15,
						"NORMAL":16
					},
					"indices":17,
					"material":5
				},
				{
					"attributes":{
						"POSITION":18,
						"NORMAL":19
					},
					"indices":20,
					"material":6
				},
				{
					"attributes":{
						"POSITION":21,
						"NORMAL":22
					},
					"indices":23,
					"material":7
				},
				{
					"attributes":{
						"POSITION":24,
						"NORMAL":25
					},
					"indices":26,
					"material":8
				},
				{
					"attributes":{
						"POSITION":27,
						"NORMAL":28
					},
					"indices":29,
					"material":9
				}
			]
		}
	],
	"accessors":[
		{
			"bufferView":0,
			"componentType":5126,
			"count":1944,
			"max":[
				16,
				16,
				-1
			],
			"min":[
				0,
				0,
				-5
			],
			"type":"VEC3"
		},
		{
			"bufferView":1,
			"componentType":5126,
			"count":1944,
			"type":"VEC3"
		},
		{
			"bufferView":2,
			"componentType":5123,
			"count":2916,
			"type":"SCALAR"
		},
		{
			"bufferView":3,
			"componentType":5126,
			"count":960,
			"max":[
				16,
				16,
				-1
			],
			"min":[
				0,
				0,
				-5
			],
			"type":"VEC3"
		},
		{
			"bufferView":4,
			"componentType":5126,
			"count":960,
			"type":"VEC3"
		},
		{
			"bufferView":5,
			"componentType":5123,
			"count":1440,
			"type":"SCALAR"
		},
		{
			"bufferView":6,
			"componentType":5126,
			"count":4320,
			"max":[
				16,
				16,
				-1
			],
			"min":[
				0,
				0,
				-5
			],
			"type":"VEC3"
		},
		{
			"bufferView":7,
			"componentType":5126,
			"count":4320,
			"type":"VEC3"
		},
		{
			"bufferView":8,
			"componentType":5123,
			"count":6480,
			"type":"SCALAR"
		},
		{
			"bufferView":9,
			"componentType":5126,
			"count":3456,
			"max":[
				15,
				15,
				-2
			],
			"min":[
				2,
				1,
				-4
			],
			"type":"VEC3"
		},
		{
			"bufferView":10,
			"componentType":5126,
			"count":3456,
			"type":"VEC3"
		},
		{
			"bufferView":11,
			"componentType":5123,
			"count":5184,
			"type":"SCALAR"
		},
		{
			"bufferView":12,
			"componentType":5126,
			"count":5472,
			"max":[
				16,
				16,
				-2
			],
			"min":[
				0,
				0,
				-4
			],
			"type":"VEC3"
		},
		{
			"bufferView":13,
			"componentType":5126,
			"count":5472,
			"type":"VEC3"
		},
		{
			"bufferView":14,
			"componentType":5123,
			"count":8208,
			"type":"SCALAR"
		},
		{
			"bufferView":15,
			"componentType":5126,
			"count":1248,
			"max":[
				16,
				14,
				-1
			],
			"min":[
				0,
				0,
				-5
			],
			"type":"VEC3"
		},
		{
			"bufferView":16,
			"componentType":5126,
			"count":1248,
			"type":"VEC3"
		},
		{
			"bufferView":17,
			"componentType":5123,
			"count":1872,
			"type":"SCALAR"
		},
		{
			"bufferView":18,
			"componentType":5126,
			"count":288,
			"max":[
				15,
				11,
				-1
			],
			"min":[
				4,
				1,
				-5
			],
			"type":"VEC3"
		},
		{
			"bufferView":19,
			"componentType":5126,
			"count":288,
			"type":"VEC3"
		},
		{
			"bufferView":20,
			"componentType":5123,
			"count":432,
			"type":"SCALAR"
		},
		{
			"bufferView":21,
			"componentType":5126,
			"count":744,
			"max":[
				16,
				16,
				0
			],
			"min":[
				0,
				0,
				-5
			],
			"type":"VEC3"
		},
		{
			"bufferView":22,
			"componentType":5126,
			"count":744,
			"type":"VEC3"
		},
		{
			"bufferView":23,
			"componentType":5123,
			"count":1116,
			"type":"SCALAR"
		},
		{
			"bufferView":24,
			"componentType":5126,
			"count":1416,
			"max":[
				14,
				15,
				0
			],
			"min":[
				1,
				0,
				-5
			],
			"type":"VEC3"
		},
		{
			"bufferView":25,
			"componentType":5126,
			"count":1416,
			"type":"VEC3"
		},
		{
			"bufferView":26,
			"componentType":5123,
			"count":2124,
			"type":"SCALAR"
		},
		{
			"bufferView":27,
			"componentType":5126,
			"count":600,
			"max":[
				15,
				15,
				0
			],
			"min":[
				1,
				0,
				-5
			],
			"type":"VEC3"
		},
		{
			"bufferView":28,
			"componentType":5126,
			"count":600,
			"type":"VEC3"
		},
		{
			"bufferView":29,
			"componentType":5123,
			"count":900,
			"type":"SCALAR"
		}
	],
	"bufferViews":[
		{
			"buffer":0,
			"byteLength":23328,
			"byteOffset":0,
			"target":34962
		},
		{
			"buffer":0,
			"byteLength":23328,
			"byteOffset":23328,
			"target":34962
		},
		{
			"buffer":0,
			"byteLength":5832,
			"byteOffset":46656,
			"target":34963
		},
		{
			"buffer":0,
			"byteLength":11520,
			"byteOffset":52488,
			"target":34962
		},
		{
			"buffer":0,
			"byteLength":11520,
			"byteOffset":64008,
			"target":34962
		},
		{
			"buffer":0,
			"byteLength":2880,
			"byteOffset":75528,
			"target":34963
		},
		{
			"buffer":0,
			"byteLength":51840,
			"byteOffset":78408,
			"target":34962
		},
		{
			"buffer":0,
			"byteLength":51840,
			"byteOffset":130248,
			"target":34962
		},
		{
			"buffer":0,
			"byteLength":12960,
			"byteOffset":182088,
			"target":34963
		},
		{
			"buffer":0,
			"byteLength":41472,
			"byteOffset":195048,
			"target":34962
		},
		{
			"buffer":0,
			"byteLength":41472,
			"byteOffset":236520,
			"target":34962
		},
		{
			"buffer":0,
			"byteLength":10368,
			"byteOffset":277992,
			"target":34963
		},
		{
			"buffer":0,
			"byteLength":65664,
			"byteOffset":288360,
			"target":34962
		},
		{
			"buffer":0,
			"byteLength":65664,
			"byteOffset":354024,
			"target":34962
		},
		{
			"buffer":0,
			"byteLength":16416,
			"byteOffset":419688,
			"target":34963
		},
		{
			"buffer":0,
			"byteLength":14976,
			"byteOffset":436104,
			"target":34962
		},
		{
			"buffer":0,
			"byteLength":14976,
			"byteOffset":451080,
			"target":34962
		},
		{
			"buffer":0,
			"byteLength":3744,
			"byteOffset":466056,
			"target":34963
		},
		{
			"buffer":0,
			"byteLength":3456,
			"byteOffset":469800,
			"target":34962
		},
		{
			"buffer":0,
			"byteLength":3456,
			"byteOffset":473256,
			"target":34962
		},
		{
			"buffer":0,
			"byteLength":864,
			"byteOffset":476712,
			"target":34963
		},
		{
			"buffer":0,
			"byteLength":8928,
			"byteOffset":477576,
			"target":34962
		},
		{
			"buffer":0,
			"byteLength":8928,
			"byteOffset":486504,
			"target":34962
		},
		{
			"buffer":0,
			"byteLength":2232,
			"byteOffset":495432,
			"target":34963
		},
		{
			"buffer":0,
			"byteLength":16992,
			"byteOffset":497664,
			"target":34962
		},
		{
			"buffer":0,
			"byteLength":16992,
			"byteOffset":514656,
			"target":34962
		},
		{
			"buffer":0,
			"byteLength":4248,
			"byteOffset":531648,
			"target":34963
		},
		{
			"buffer":0,
			"byteLength":7200,
			"byteOffset":535896,
			"target":34962
		},
		{
			"buffer":0,
			"byteLength":7200,
			"byteOffset":543096,
			"target":34962
		},
		{
			"buffer":0,
			"byteLength":1800,
			"byteOffset":550296,
			"target":34963
		}
	],
	"buffers":[
		{
			"byteLength":552096,
			"uri":"STN_MOSS_3D_TOP.bin"
		}
	]
}
