{
	"asset":{
		"generator":"Khronos glTF Blender I/O v5.0.21",
		"version":"2.0"
	},
	"extensionsUsed":[
		"KHR_materials_specular"
	],
	"scene":0,
	"scenes":[
		{
			"name":"Scene",
			"nodes":[
				0
			]
		}
	],
	"nodes":[
		{
			"mesh":0,
			"name":"STN_WALL",
			"rotation":[
				0.7071068286895752,
				0,
				0,
				0.7071068286895752
			]
		}
	],
	"materials":[
		{
			"doubleSided":true,
			"extensions":{
				"KHR_materials_specular":{
					"specularFactor":0
				}
			},
			"name":"mat_141_137_125",
			"pbrMetallicRoughness":{
				"baseColorFactor":[
					0.5529999732971191,
					0.5370000004768372,
					0.49000000953674316,
					1
				],
				"metallicFactor":0
			}
		},
		{
			"doubleSided":true,
			"extensions":{
				"KHR_materials_specular":{
					"specularFactor":0
				}
			},
			"name":"mat_183_176_156",
			"pbrMetallicRoughness":{
				"baseColorFactor":[
					0.7179999947547913,
					0.6899999976158142,
					0.6119999885559082,
					1
				],
				"metallicFactor":0
			}
		},
		{
			"doubleSided":true,
			"extensions":{
				"KHR_materials_specular":{
					"specularFactor":0
				}
			},
			"name":"mat_156_154_148",
			"pbrMetallicRoughness":{
				"baseColorFactor":[
					0.6119999885559082,
					0.6039999723434448,
					0.5799999833106995,
					1
				],
				"metallicFactor":0
			}
		},
		{
			"doubleSided":true,
			"extensions":{
				"KHR_materials_specular":{
					"specularFactor":0
				}
			},
			"name":"mat_213_206_188",
			"pbrMetallicRoughness":{
				"baseColorFactor":[
					0.8349999785423279,
					0.8080000281333923,
					0.7369999885559082,
					1
				],
				"metallicFactor":0
			}
		},
		{
			"doubleSided":true,
			"extensions":{
				"KHR_materials_specular":{
					"specularFactor":0
				}
			},
			"name":"mat_192_185_165",
			"pbrMetallicRoughness":{
				"baseColorFactor":[
					0.753000020980835,
					0.7250000238418579,
					0.6470000147819519,
					1
				],
				"metallicFactor":0
			}
		},
		{
			"doubleSided":true,
			"extensions":{
				"KHR_materials_specular":{
					"specularFactor":0
				}
			},
			"name":"mat_242_227_168",
			"pbrMetallicRoughness":{
				"baseColorFactor":[
					0.9490000009536743,
					0.8899999856948853,
					0.6589999794960022,
					1
				],
				"metallicFactor":0
			}
		},
		{
			"doubleSided":true,
			"extensions":{
				"KHR_materials_specular":{
					"specularFactor":0
				}
			},
			"name":"mat_94_91_83",
			"pbrMetallicRoughness":{
				"baseColorFactor":[
					0.36899998784065247,
					0.3569999933242798,
					0.32499998807907104,
					1
				],
				"metallicFactor":0
			}
		}
	],
	"meshes":[
		{
			"name":"STN_WALL",
			"primitives":[
				{
					"attributes":{
						"POSITION":0,
						"NORMAL":1
					},
					"indices":2,
					"material":0
				},
				{
					"attributes":{
						"POSITION":3,
						"NORMAL":4
					},
					"indices":5,
					"material":1
				},
				{
					"attributes":{
						"POSITION":6,
						"NORMAL":7
					},
					"indices":8,
					"material":2
				},
				{
					"attributes":{
						"POSITION":9,
						"NORMAL":10
					},
					"indices":11,
					"material":3
				},
				{
					"attributes":{
						"POSITION":12,
						"NORMAL":13
					},
					"indices":14,
					"material":4
				},
				{
					"attributes":{
						"POSITION":15,
						"NORMAL":16
					},
					"indices":17,
					"material":5
				},
				{
					"attributes":{
						"POSITION":18,
						"NORMAL":19
					},
					"indices":20,
					"material":6
				}
			]
		}
	],
	"accessors":[
		{
			"bufferView":0,
			"componentType":5126,
			"count":4296,
			"max":[
				16,
				16,
				0
			],
			"min":[
				0,
				0,
				-4
			],
			"type":"VEC3"
		},
		{
			"bufferView":1,
			"componentType":5126,
			"count":4296,
			"type":"VEC3"
		},
		{
			"bufferView":2,
			"componentType":5123,
			"count":6444,
			"type":"SCALAR"
		},
		{
			"bufferView":3,
			"componentType":5126,
			"count":1248,
			"max":[
				16,
				14,
				0
			],
			"min":[
				0,
				0,
				-4
			],
			"type":"VEC3"
		},
		{
			"bufferView":4,
			"componentType":5126,
			"count":1248,
			"type":"VEC3"
		},
		{
			"bufferView":5,
			"componentType":5123,
			"count":1872,
			"type":"SCALAR"
		},
		{
			"bufferView":6,
			"componentType":5126,
			"count":2064,
			"max":[
				16,
				16,
				0
			],
			"min":[
				0,
				0,
				-4
			],
			"type":"VEC3"
		},
		{
			"bufferView":7,
			"componentType":5126,
			"count":2064,
			"type":"VEC3"
		},
		{
			"bufferView":8,
			"componentType":5123,
			"count":3096,
			"type":"SCALAR"
		},
		{
			"bufferView":9,
			"componentType":5126,
			"count":984,
			"max":[
				16,
				16,
				0
			],
			"min":[
				0,
				0,
				-4
			],
			"type":"VEC3"
		},
		{
			"bufferView":10,
			"componentType":5126,
			"count":984,
			"type":"VEC3"
		},
		{
			"bufferView":11,
			"componentType":5123,
			"count":1476,
			"type":"SCALAR"
		},
		{
			"bufferView":12,
			"componentType":5126,
			"count":312,
			"max":[
				15,
				15,
				0
			],
			"min":[
				4,
				1,
				-4
			],
			"type":"VEC3"
		},
		{
			"bufferView":13,
			"componentType":5126,
			"count":312,
			"type":"VEC3"
		},
		{
			"bufferView":14,
			"componentType":5123,
			"count":468,
			"type":"SCALAR"
		},
		{
			"bufferView":15,
			"componentType":5126,
			"count":3864,
			"max":[
				15,
				15,
				-1
			],
			"min":[
				2,
				1,
				-3
			],
			"type":"VEC3"
		},
		{
			"bufferView":16,
			"componentType":5126,
			"count":3864,
			"type":"VEC3"
		},
		{
			"bufferView":17,
			"componentType":5123,
			"count":5796,
			"type":"SCALAR"
		},
		{
			"bufferView":18,
			"componentType":5126,
			"count":5640,
			"max":[
				16,
				16,
				-1
			],
			"min":[
				0,
				0,
				-3
			],
			"type":"VEC3"
		},
		{
			"bufferView":19,
			"componentType":5126,
			"count":5640,
			"type":"VEC3"
		},
		{
			"bufferView":20,
			"componentType":5123,
			"count":8460,
			"type":"SCALAR"
		}
	],
	"bufferViews":[
		{
			"buffer":0,
			"byteLength":51552,
			"byteOffset":0,
			"target":34962
		},
		{
			"buffer":0,
			"byteLength":51552,
			"byteOffset":51552,
			"target":34962
		},
		{
			"buffer":0,
			"byteLength":12888,
			"byteOffset":103104,
			"target":34963
		},
		{
			"buffer":0,
			"byteLength":14976,
			"byteOffset":115992,
			"target":34962
		},
		{
			"buffer":0,
			"byteLength":14976,
			"byteOffset":130968,
			"target":34962
		},
		{
			"buffer":0,
			"byteLength":3744,
			"byteOffset":145944,
			"target":34963
		},
		{
			"buffer":0,
			"byteLength":24768,
			"byteOffset":149688,
			"target":34962
		},
		{
			"buffer":0,
			"byteLength":24768,
			"byteOffset":174456,
			"target":34962
		},
		{
			"buffer":0,
			"byteLength":6192,
			"byteOffset":199224,
			"target":34963
		},
		{
			"buffer":0,
			"byteLength":11808,
			"byteOffset":205416,
			"target":34962
		},
		{
			"buffer":0,
			"byteLength":11808,
			"byteOffset":217224,
			"target":34962
		},
		{
			"buffer":0,
			"byteLength":2952,
			"byteOffset":229032,
			"target":34963
		},
		{
			"buffer":0,
			"byteLength":3744,
			"byteOffset":231984,
			"target":34962
		},
		{
			"buffer":0,
			"byteLength":3744,
			"byteOffset":235728,
			"target":34962
		},
		{
			"buffer":0,
			"byteLength":936,
			"byteOffset":239472,
			"target":34963
		},
		{
			"buffer":0,
			"byteLength":46368,
			"byteOffset":240408,
			"target":34962
		},
		{
			"buffer":0,
			"byteLength":46368,
			"byteOffset":286776,
			"target":34962
		},
		{
			"buffer":0,
			"byteLength":11592,
			"byteOffset":333144,
			"target":34963
		},
		{
			"buffer":0,
			"byteLength":67680,
			"byteOffset":344736,
			"target":34962
		},
		{
			"buffer":0,
			"byteLength":67680,
			"byteOffset":412416,
			"target":34962
		},
		{
			"buffer":0,
			"byteLength":16920,
			"byteOffset":480096,
			"target":34963
		}
	],
	"buffers":[
		{
			"byteLength":497016,
			"uri":"STN_WALL.bin"
		}
	]
}
