{
	"asset":{
		"generator":"Khronos glTF Blender I/O v5.0.21",
		"version":"2.0"
	},
	"extensionsUsed":[
		"KHR_materials_specular"
	],
	"scene":0,
	"scenes":[
		{
			"name":"Scene",
			"nodes":[
				0
			]
		}
	],
	"nodes":[
		{
			"mesh":0,
			"name":"STN_TREE_GRND",
			"rotation":[
				0.7071068286895752,
				0,
				0,
				0.7071068286895752
			]
		}
	],
	"materials":[
		{
			"doubleSided":true,
			"extensions":{
				"KHR_materials_specular":{
					"specularFactor":0
				}
			},
			"name":"mat_213_206_188",
			"pbrMetallicRoughness":{
				"baseColorFactor":[
					0.8349999785423279,
					0.8080000281333923,
					0.7369999885559082,
					1
				],
				"metallicFactor":0
			}
		},
		{
			"doubleSided":true,
			"extensions":{
				"KHR_materials_specular":{
					"specularFactor":0
				}
			},
			"name":"mat_121_118_109",
			"pbrMetallicRoughness":{
				"baseColorFactor":[
					0.4749999940395355,
					0.46299999952316284,
					0.4269999861717224,
					1
				],
				"metallicFactor":0
			}
		},
		{
			"doubleSided":true,
			"extensions":{
				"KHR_materials_specular":{
					"specularFactor":0
				}
			},
			"name":"mat_183_176_156",
			"pbrMetallicRoughness":{
				"baseColorFactor":[
					0.7179999947547913,
					0.6899999976158142,
					0.6119999885559082,
					1
				],
				"metallicFactor":0
			}
		},
		{
			"doubleSided":true,
			"extensions":{
				"KHR_materials_specular":{
					"specularFactor":0
				}
			},
			"name":"mat_141_137_125",
			"pbrMetallicRoughness":{
				"baseColorFactor":[
					0.5529999732971191,
					0.5370000004768372,
					0.49000000953674316,
					1
				],
				"metallicFactor":0
			}
		}
	],
	"meshes":[
		{
			"name":"STN_TREE_GRND",
			"primitives":[
				{
					"attributes":{
						"POSITION":0,
						"NORMAL":1
					},
					"indices":2,
					"material":0
				},
				{
					"attributes":{
						"POSITION":3,
						"NORMAL":4
					},
					"indices":5,
					"material":1
				},
				{
					"attributes":{
						"POSITION":6,
						"NORMAL":7
					},
					"indices":8,
					"material":2
				},
				{
					"attributes":{
						"POSITION":9,
						"NORMAL":10
					},
					"indices":11,
					"material":3
				}
			]
		}
	],
	"accessors":[
		{
			"bufferView":0,
			"componentType":5126,
			"count":2400,
			"max":[
				16,
				12,
				0
			],
			"min":[
				1,
				9,
				-16
			],
			"type":"VEC3"
		},
		{
			"bufferView":1,
			"componentType":5126,
			"count":2400,
			"type":"VEC3"
		},
		{
			"bufferView":2,
			"componentType":5123,
			"count":3600,
			"type":"SCALAR"
		},
		{
			"bufferView":3,
			"componentType":5126,
			"count":1608,
			"max":[
				16,
				12,
				0
			],
			"min":[
				0,
				9,
				-16
			],
			"type":"VEC3"
		},
		{
			"bufferView":4,
			"componentType":5126,
			"count":1608,
			"type":"VEC3"
		},
		{
			"bufferView":5,
			"componentType":5123,
			"count":2412,
			"type":"SCALAR"
		},
		{
			"bufferView":6,
			"componentType":5126,
			"count":4080,
			"max":[
				16,
				12,
				0
			],
			"min":[
				0,
				9,
				-16
			],
			"type":"VEC3"
		},
		{
			"bufferView":7,
			"componentType":5126,
			"count":4080,
			"type":"VEC3"
		},
		{
			"bufferView":8,
			"componentType":5123,
			"count":6120,
			"type":"SCALAR"
		},
		{
			"bufferView":9,
			"componentType":5126,
			"count":1416,
			"max":[
				15,
				12,
				0
			],
			"min":[
				1,
				9,
				-16
			],
			"type":"VEC3"
		},
		{
			"bufferView":10,
			"componentType":5126,
			"count":1416,
			"type":"VEC3"
		},
		{
			"bufferView":11,
			"componentType":5123,
			"count":2124,
			"type":"SCALAR"
		}
	],
	"bufferViews":[
		{
			"buffer":0,
			"byteLength":28800,
			"byteOffset":0,
			"target":34962
		},
		{
			"buffer":0,
			"byteLength":28800,
			"byteOffset":28800,
			"target":34962
		},
		{
			"buffer":0,
			"byteLength":7200,
			"byteOffset":57600,
			"target":34963
		},
		{
			"buffer":0,
			"byteLength":19296,
			"byteOffset":64800,
			"target":34962
		},
		{
			"buffer":0,
			"byteLength":19296,
			"byteOffset":84096,
			"target":34962
		},
		{
			"buffer":0,
			"byteLength":4824,
			"byteOffset":103392,
			"target":34963
		},
		{
			"buffer":0,
			"byteLength":48960,
			"byteOffset":108216,
			"target":34962
		},
		{
			"buffer":0,
			"byteLength":48960,
			"byteOffset":157176,
			"target":34962
		},
		{
			"buffer":0,
			"byteLength":12240,
			"byteOffset":206136,
			"target":34963
		},
		{
			"buffer":0,
			"byteLength":16992,
			"byteOffset":218376,
			"target":34962
		},
		{
			"buffer":0,
			"byteLength":16992,
			"byteOffset":235368,
			"target":34962
		},
		{
			"buffer":0,
			"byteLength":4248,
			"byteOffset":252360,
			"target":34963
		}
	],
	"buffers":[
		{
			"byteLength":256608,
			"uri":"STN_TREE_GRND.bin"
		}
	]
}
