{
	"asset":{
		"generator":"Khronos glTF Blender I/O v5.0.21",
		"version":"2.0"
	},
	"extensionsUsed":[
		"KHR_materials_specular"
	],
	"scene":0,
	"scenes":[
		{
			"name":"Scene",
			"nodes":[
				0
			]
		}
	],
	"nodes":[
		{
			"mesh":0,
			"name":"STN_CNR",
			"rotation":[
				0.7071068286895752,
				0,
				0,
				0.7071068286895752
			]
		}
	],
	"materials":[
		{
			"doubleSided":true,
			"extensions":{
				"KHR_materials_specular":{
					"specularFactor":0
				}
			},
			"name":"mat_141_137_125",
			"pbrMetallicRoughness":{
				"baseColorFactor":[
					0.5529999732971191,
					0.5370000004768372,
					0.49000000953674316,
					1
				],
				"metallicFactor":0
			}
		},
		{
			"doubleSided":true,
			"extensions":{
				"KHR_materials_specular":{
					"specularFactor":0
				}
			},
			"name":"mat_183_176_156",
			"pbrMetallicRoughness":{
				"baseColorFactor":[
					0.7179999947547913,
					0.6899999976158142,
					0.6119999885559082,
					1
				],
				"metallicFactor":0
			}
		},
		{
			"doubleSided":true,
			"extensions":{
				"KHR_materials_specular":{
					"specularFactor":0
				}
			},
			"name":"mat_156_154_148",
			"pbrMetallicRoughness":{
				"baseColorFactor":[
					0.6119999885559082,
					0.6039999723434448,
					0.5799999833106995,
					1
				],
				"metallicFactor":0
			}
		},
		{
			"doubleSided":true,
			"extensions":{
				"KHR_materials_specular":{
					"specularFactor":0
				}
			},
			"name":"mat_213_206_188",
			"pbrMetallicRoughness":{
				"baseColorFactor":[
					0.8349999785423279,
					0.8080000281333923,
					0.7369999885559082,
					1
				],
				"metallicFactor":0
			}
		},
		{
			"doubleSided":true,
			"extensions":{
				"KHR_materials_specular":{
					"specularFactor":0
				}
			},
			"name":"mat_192_185_165",
			"pbrMetallicRoughness":{
				"baseColorFactor":[
					0.753000020980835,
					0.7250000238418579,
					0.6470000147819519,
					1
				],
				"metallicFactor":0
			}
		},
		{
			"doubleSided":true,
			"extensions":{
				"KHR_materials_specular":{
					"specularFactor":0
				}
			},
			"name":"mat_242_227_168",
			"pbrMetallicRoughness":{
				"baseColorFactor":[
					0.9490000009536743,
					0.8899999856948853,
					0.6589999794960022,
					1
				],
				"metallicFactor":0
			}
		},
		{
			"doubleSided":true,
			"extensions":{
				"KHR_materials_specular":{
					"specularFactor":0
				}
			},
			"name":"mat_94_91_83",
			"pbrMetallicRoughness":{
				"baseColorFactor":[
					0.36899998784065247,
					0.3569999933242798,
					0.32499998807907104,
					1
				],
				"metallicFactor":0
			}
		},
		{
			"doubleSided":true,
			"extensions":{
				"KHR_materials_specular":{
					"specularFactor":0
				}
			},
			"name":"mat_227_197_193",
			"pbrMetallicRoughness":{
				"baseColorFactor":[
					0.8899999856948853,
					0.7730000019073486,
					0.7570000290870667,
					1
				],
				"metallicFactor":0
			}
		},
		{
			"doubleSided":true,
			"extensions":{
				"KHR_materials_specular":{
					"specularFactor":0
				}
			},
			"name":"mat_161_165_179",
			"pbrMetallicRoughness":{
				"baseColorFactor":[
					0.6309999823570251,
					0.6470000147819519,
					0.7020000219345093,
					1
				],
				"metallicFactor":0
			}
		}
	],
	"meshes":[
		{
			"name":"STN_CNR",
			"primitives":[
				{
					"attributes":{
						"POSITION":0,
						"NORMAL":1
					},
					"indices":2,
					"material":0
				},
				{
					"attributes":{
						"POSITION":3,
						"NORMAL":4
					},
					"indices":5,
					"material":1
				},
				{
					"attributes":{
						"POSITION":6,
						"NORMAL":7
					},
					"indices":8,
					"material":2
				},
				{
					"attributes":{
						"POSITION":9,
						"NORMAL":10
					},
					"indices":11,
					"material":3
				},
				{
					"attributes":{
						"POSITION":12,
						"NORMAL":13
					},
					"indices":14,
					"material":4
				},
				{
					"attributes":{
						"POSITION":15,
						"NORMAL":16
					},
					"indices":17,
					"material":5
				},
				{
					"attributes":{
						"POSITION":18,
						"NORMAL":19
					},
					"indices":20,
					"material":6
				},
				{
					"attributes":{
						"POSITION":21,
						"NORMAL":22
					},
					"indices":23,
					"material":7
				},
				{
					"attributes":{
						"POSITION":24,
						"NORMAL":25
					},
					"indices":26,
					"material":8
				}
			]
		}
	],
	"accessors":[
		{
			"bufferView":0,
			"componentType":5126,
			"count":8064,
			"max":[
				16,
				16,
				0
			],
			"min":[
				0,
				0,
				-16
			],
			"type":"VEC3"
		},
		{
			"bufferView":1,
			"componentType":5126,
			"count":8064,
			"type":"VEC3"
		},
		{
			"bufferView":2,
			"componentType":5123,
			"count":12096,
			"type":"SCALAR"
		},
		{
			"bufferView":3,
			"componentType":5126,
			"count":1944,
			"max":[
				16,
				16,
				0
			],
			"min":[
				0,
				0,
				-16
			],
			"type":"VEC3"
		},
		{
			"bufferView":4,
			"componentType":5126,
			"count":1944,
			"type":"VEC3"
		},
		{
			"bufferView":5,
			"componentType":5123,
			"count":2916,
			"type":"SCALAR"
		},
		{
			"bufferView":6,
			"componentType":5126,
			"count":3096,
			"max":[
				16,
				16,
				0
			],
			"min":[
				0,
				0,
				-16
			],
			"type":"VEC3"
		},
		{
			"bufferView":7,
			"componentType":5126,
			"count":3096,
			"type":"VEC3"
		},
		{
			"bufferView":8,
			"componentType":5123,
			"count":4644,
			"type":"SCALAR"
		},
		{
			"bufferView":9,
			"componentType":5126,
			"count":2208,
			"max":[
				16,
				16,
				0
			],
			"min":[
				0,
				0,
				-16
			],
			"type":"VEC3"
		},
		{
			"bufferView":10,
			"componentType":5126,
			"count":2208,
			"type":"VEC3"
		},
		{
			"bufferView":11,
			"componentType":5123,
			"count":3312,
			"type":"SCALAR"
		},
		{
			"bufferView":12,
			"componentType":5126,
			"count":336,
			"max":[
				15,
				15,
				0
			],
			"min":[
				4,
				1,
				-4
			],
			"type":"VEC3"
		},
		{
			"bufferView":13,
			"componentType":5126,
			"count":336,
			"type":"VEC3"
		},
		{
			"bufferView":14,
			"componentType":5123,
			"count":504,
			"type":"SCALAR"
		},
		{
			"bufferView":15,
			"componentType":5126,
			"count":3768,
			"max":[
				15,
				15,
				-1
			],
			"min":[
				2,
				1,
				-3
			],
			"type":"VEC3"
		},
		{
			"bufferView":16,
			"componentType":5126,
			"count":3768,
			"type":"VEC3"
		},
		{
			"bufferView":17,
			"componentType":5123,
			"count":5652,
			"type":"SCALAR"
		},
		{
			"bufferView":18,
			"componentType":5126,
			"count":11592,
			"max":[
				16,
				16,
				-1
			],
			"min":[
				1,
				0,
				-16
			],
			"type":"VEC3"
		},
		{
			"bufferView":19,
			"componentType":5126,
			"count":11592,
			"type":"VEC3"
		},
		{
			"bufferView":20,
			"componentType":5123,
			"count":17388,
			"type":"SCALAR"
		},
		{
			"bufferView":21,
			"componentType":5126,
			"count":1680,
			"max":[
				3,
				15,
				-4
			],
			"min":[
				1,
				1,
				-15
			],
			"type":"VEC3"
		},
		{
			"bufferView":22,
			"componentType":5126,
			"count":1680,
			"type":"VEC3"
		},
		{
			"bufferView":23,
			"componentType":5123,
			"count":2520,
			"type":"SCALAR"
		},
		{
			"bufferView":24,
			"componentType":5126,
			"count":120,
			"max":[
				3,
				15,
				-1
			],
			"min":[
				1,
				2,
				-3
			],
			"type":"VEC3"
		},
		{
			"bufferView":25,
			"componentType":5126,
			"count":120,
			"type":"VEC3"
		},
		{
			"bufferView":26,
			"componentType":5123,
			"count":180,
			"type":"SCALAR"
		}
	],
	"bufferViews":[
		{
			"buffer":0,
			"byteLength":96768,
			"byteOffset":0,
			"target":34962
		},
		{
			"buffer":0,
			"byteLength":96768,
			"byteOffset":96768,
			"target":34962
		},
		{
			"buffer":0,
			"byteLength":24192,
			"byteOffset":193536,
			"target":34963
		},
		{
			"buffer":0,
			"byteLength":23328,
			"byteOffset":217728,
			"target":34962
		},
		{
			"buffer":0,
			"byteLength":23328,
			"byteOffset":241056,
			"target":34962
		},
		{
			"buffer":0,
			"byteLength":5832,
			"byteOffset":264384,
			"target":34963
		},
		{
			"buffer":0,
			"byteLength":37152,
			"byteOffset":270216,
			"target":34962
		},
		{
			"buffer":0,
			"byteLength":37152,
			"byteOffset":307368,
			"target":34962
		},
		{
			"buffer":0,
			"byteLength":9288,
			"byteOffset":344520,
			"target":34963
		},
		{
			"buffer":0,
			"byteLength":26496,
			"byteOffset":353808,
			"target":34962
		},
		{
			"buffer":0,
			"byteLength":26496,
			"byteOffset":380304,
			"target":34962
		},
		{
			"buffer":0,
			"byteLength":6624,
			"byteOffset":406800,
			"target":34963
		},
		{
			"buffer":0,
			"byteLength":4032,
			"byteOffset":413424,
			"target":34962
		},
		{
			"buffer":0,
			"byteLength":4032,
			"byteOffset":417456,
			"target":34962
		},
		{
			"buffer":0,
			"byteLength":1008,
			"byteOffset":421488,
			"target":34963
		},
		{
			"buffer":0,
			"byteLength":45216,
			"byteOffset":422496,
			"target":34962
		},
		{
			"buffer":0,
			"byteLength":45216,
			"byteOffset":467712,
			"target":34962
		},
		{
			"buffer":0,
			"byteLength":11304,
			"byteOffset":512928,
			"target":34963
		},
		{
			"buffer":0,
			"byteLength":139104,
			"byteOffset":524232,
			"target":34962
		},
		{
			"buffer":0,
			"byteLength":139104,
			"byteOffset":663336,
			"target":34962
		},
		{
			"buffer":0,
			"byteLength":34776,
			"byteOffset":802440,
			"target":34963
		},
		{
			"buffer":0,
			"byteLength":20160,
			"byteOffset":837216,
			"target":34962
		},
		{
			"buffer":0,
			"byteLength":20160,
			"byteOffset":857376,
			"target":34962
		},
		{
			"buffer":0,
			"byteLength":5040,
			"byteOffset":877536,
			"target":34963
		},
		{
			"buffer":0,
			"byteLength":1440,
			"byteOffset":882576,
			"target":34962
		},
		{
			"buffer":0,
			"byteLength":1440,
			"byteOffset":884016,
			"target":34962
		},
		{
			"buffer":0,
			"byteLength":360,
			"byteOffset":885456,
			"target":34963
		}
	],
	"buffers":[
		{
			"byteLength":885816,
			"uri":"STN_CNR.bin"
		}
	]
}
