{
	"asset":{
		"generator":"Khronos glTF Blender I/O v5.0.21",
		"version":"2.0"
	},
	"extensionsUsed":[
		"KHR_materials_specular"
	],
	"scene":0,
	"scenes":[
		{
			"name":"Scene",
			"nodes":[
				0
			]
		}
	],
	"nodes":[
		{
			"mesh":0,
			"name":"STN_WALL_DARK_sBRKN",
			"rotation":[
				0.7071068286895752,
				0,
				0,
				0.7071068286895752
			]
		}
	],
	"materials":[
		{
			"doubleSided":true,
			"extensions":{
				"KHR_materials_specular":{
					"specularFactor":0
				}
			},
			"name":"mat_73_71_63",
			"pbrMetallicRoughness":{
				"baseColorFactor":[
					0.28600001335144043,
					0.27799999713897705,
					0.24699999392032623,
					1
				],
				"metallicFactor":0
			}
		},
		{
			"doubleSided":true,
			"extensions":{
				"KHR_materials_specular":{
					"specularFactor":0
				}
			},
			"name":"mat_127_122_109",
			"pbrMetallicRoughness":{
				"baseColorFactor":[
					0.49799999594688416,
					0.4779999852180481,
					0.4269999861717224,
					1
				],
				"metallicFactor":0
			}
		},
		{
			"doubleSided":true,
			"extensions":{
				"KHR_materials_specular":{
					"specularFactor":0
				}
			},
			"name":"mat_150_147_137",
			"pbrMetallicRoughness":{
				"baseColorFactor":[
					0.5879999995231628,
					0.5759999752044678,
					0.5370000004768372,
					1
				],
				"metallicFactor":0
			}
		},
		{
			"doubleSided":true,
			"extensions":{
				"KHR_materials_specular":{
					"specularFactor":0
				}
			},
			"name":"mat_152_148_137",
			"pbrMetallicRoughness":{
				"baseColorFactor":[
					0.5960000157356262,
					0.5799999833106995,
					0.5370000004768372,
					1
				],
				"metallicFactor":0
			}
		},
		{
			"doubleSided":true,
			"extensions":{
				"KHR_materials_specular":{
					"specularFactor":0
				}
			},
			"name":"mat_165_161_149",
			"pbrMetallicRoughness":{
				"baseColorFactor":[
					0.6470000147819519,
					0.6309999823570251,
					0.5839999914169312,
					1
				],
				"metallicFactor":0
			}
		},
		{
			"doubleSided":true,
			"extensions":{
				"KHR_materials_specular":{
					"specularFactor":0
				}
			},
			"name":"mat_43_43_40",
			"pbrMetallicRoughness":{
				"baseColorFactor":[
					0.16899999976158142,
					0.16899999976158142,
					0.15700000524520874,
					1
				],
				"metallicFactor":0
			}
		}
	],
	"meshes":[
		{
			"name":"STN_WALL_DARK_sBRKN",
			"primitives":[
				{
					"attributes":{
						"POSITION":0,
						"NORMAL":1
					},
					"indices":2,
					"material":0
				},
				{
					"attributes":{
						"POSITION":3,
						"NORMAL":4
					},
					"indices":5,
					"material":1
				},
				{
					"attributes":{
						"POSITION":6,
						"NORMAL":7
					},
					"indices":8,
					"material":2
				},
				{
					"attributes":{
						"POSITION":9,
						"NORMAL":10
					},
					"indices":11,
					"material":3
				},
				{
					"attributes":{
						"POSITION":12,
						"NORMAL":13
					},
					"indices":14,
					"material":4
				},
				{
					"attributes":{
						"POSITION":15,
						"NORMAL":16
					},
					"indices":17,
					"material":5
				}
			]
		}
	],
	"accessors":[
		{
			"bufferView":0,
			"componentType":5126,
			"count":3264,
			"max":[
				14,
				15,
				0
			],
			"min":[
				0,
				0,
				-4
			],
			"type":"VEC3"
		},
		{
			"bufferView":1,
			"componentType":5126,
			"count":3264,
			"type":"VEC3"
		},
		{
			"bufferView":2,
			"componentType":5123,
			"count":4896,
			"type":"SCALAR"
		},
		{
			"bufferView":3,
			"componentType":5126,
			"count":1080,
			"max":[
				16,
				14,
				0
			],
			"min":[
				0,
				0,
				-4
			],
			"type":"VEC3"
		},
		{
			"bufferView":4,
			"componentType":5126,
			"count":1080,
			"type":"VEC3"
		},
		{
			"bufferView":5,
			"componentType":5123,
			"count":1620,
			"type":"SCALAR"
		},
		{
			"bufferView":6,
			"componentType":5126,
			"count":768,
			"max":[
				16,
				15,
				0
			],
			"min":[
				0,
				0,
				-4
			],
			"type":"VEC3"
		},
		{
			"bufferView":7,
			"componentType":5126,
			"count":768,
			"type":"VEC3"
		},
		{
			"bufferView":8,
			"componentType":5123,
			"count":1152,
			"type":"SCALAR"
		},
		{
			"bufferView":9,
			"componentType":5126,
			"count":552,
			"max":[
				5,
				15,
				0
			],
			"min":[
				0,
				0,
				-4
			],
			"type":"VEC3"
		},
		{
			"bufferView":10,
			"componentType":5126,
			"count":552,
			"type":"VEC3"
		},
		{
			"bufferView":11,
			"componentType":5123,
			"count":828,
			"type":"SCALAR"
		},
		{
			"bufferView":12,
			"componentType":5126,
			"count":120,
			"max":[
				15,
				7,
				0
			],
			"min":[
				4,
				1,
				-4
			],
			"type":"VEC3"
		},
		{
			"bufferView":13,
			"componentType":5126,
			"count":120,
			"type":"VEC3"
		},
		{
			"bufferView":14,
			"componentType":5123,
			"count":180,
			"type":"SCALAR"
		},
		{
			"bufferView":15,
			"componentType":5126,
			"count":1992,
			"max":[
				15,
				15,
				-1
			],
			"min":[
				0,
				0,
				-3
			],
			"type":"VEC3"
		},
		{
			"bufferView":16,
			"componentType":5126,
			"count":1992,
			"type":"VEC3"
		},
		{
			"bufferView":17,
			"componentType":5123,
			"count":2988,
			"type":"SCALAR"
		}
	],
	"bufferViews":[
		{
			"buffer":0,
			"byteLength":39168,
			"byteOffset":0,
			"target":34962
		},
		{
			"buffer":0,
			"byteLength":39168,
			"byteOffset":39168,
			"target":34962
		},
		{
			"buffer":0,
			"byteLength":9792,
			"byteOffset":78336,
			"target":34963
		},
		{
			"buffer":0,
			"byteLength":12960,
			"byteOffset":88128,
			"target":34962
		},
		{
			"buffer":0,
			"byteLength":12960,
			"byteOffset":101088,
			"target":34962
		},
		{
			"buffer":0,
			"byteLength":3240,
			"byteOffset":114048,
			"target":34963
		},
		{
			"buffer":0,
			"byteLength":9216,
			"byteOffset":117288,
			"target":34962
		},
		{
			"buffer":0,
			"byteLength":9216,
			"byteOffset":126504,
			"target":34962
		},
		{
			"buffer":0,
			"byteLength":2304,
			"byteOffset":135720,
			"target":34963
		},
		{
			"buffer":0,
			"byteLength":6624,
			"byteOffset":138024,
			"target":34962
		},
		{
			"buffer":0,
			"byteLength":6624,
			"byteOffset":144648,
			"target":34962
		},
		{
			"buffer":0,
			"byteLength":1656,
			"byteOffset":151272,
			"target":34963
		},
		{
			"buffer":0,
			"byteLength":1440,
			"byteOffset":152928,
			"target":34962
		},
		{
			"buffer":0,
			"byteLength":1440,
			"byteOffset":154368,
			"target":34962
		},
		{
			"buffer":0,
			"byteLength":360,
			"byteOffset":155808,
			"target":34963
		},
		{
			"buffer":0,
			"byteLength":23904,
			"byteOffset":156168,
			"target":34962
		},
		{
			"buffer":0,
			"byteLength":23904,
			"byteOffset":180072,
			"target":34962
		},
		{
			"buffer":0,
			"byteLength":5976,
			"byteOffset":203976,
			"target":34963
		}
	],
	"buffers":[
		{
			"byteLength":209952,
			"uri":"STN_WALL_DARK_sBRKN.bin"
		}
	]
}
