{
	"asset":{
		"generator":"Khronos glTF Blender I/O v5.0.21",
		"version":"2.0"
	},
	"extensionsUsed":[
		"KHR_materials_specular"
	],
	"scene":0,
	"scenes":[
		{
			"name":"Scene",
			"nodes":[
				0
			]
		}
	],
	"nodes":[
		{
			"mesh":0,
			"name":"STN_PLR",
			"rotation":[
				0.7071068286895752,
				0,
				0,
				0.7071068286895752
			]
		}
	],
	"materials":[
		{
			"doubleSided":true,
			"extensions":{
				"KHR_materials_specular":{
					"specularFactor":0
				}
			},
			"name":"mat_141_137_125",
			"pbrMetallicRoughness":{
				"baseColorFactor":[
					0.5529999732971191,
					0.5370000004768372,
					0.49000000953674316,
					1
				],
				"metallicFactor":0
			}
		},
		{
			"doubleSided":true,
			"extensions":{
				"KHR_materials_specular":{
					"specularFactor":0
				}
			},
			"name":"mat_183_176_156",
			"pbrMetallicRoughness":{
				"baseColorFactor":[
					0.7179999947547913,
					0.6899999976158142,
					0.6119999885559082,
					1
				],
				"metallicFactor":0
			}
		},
		{
			"doubleSided":true,
			"extensions":{
				"KHR_materials_specular":{
					"specularFactor":0
				}
			},
			"name":"mat_213_206_188",
			"pbrMetallicRoughness":{
				"baseColorFactor":[
					0.8349999785423279,
					0.8080000281333923,
					0.7369999885559082,
					1
				],
				"metallicFactor":0
			}
		},
		{
			"doubleSided":true,
			"extensions":{
				"KHR_materials_specular":{
					"specularFactor":0
				}
			},
			"name":"mat_94_91_83",
			"pbrMetallicRoughness":{
				"baseColorFactor":[
					0.36899998784065247,
					0.3569999933242798,
					0.32499998807907104,
					1
				],
				"metallicFactor":0
			}
		},
		{
			"doubleSided":true,
			"extensions":{
				"KHR_materials_specular":{
					"specularFactor":0
				}
			},
			"name":"mat_161_165_179",
			"pbrMetallicRoughness":{
				"baseColorFactor":[
					0.6309999823570251,
					0.6470000147819519,
					0.7020000219345093,
					1
				],
				"metallicFactor":0
			}
		}
	],
	"meshes":[
		{
			"name":"STN_PLR",
			"primitives":[
				{
					"attributes":{
						"POSITION":0,
						"NORMAL":1
					},
					"indices":2,
					"material":0
				},
				{
					"attributes":{
						"POSITION":3,
						"NORMAL":4
					},
					"indices":5,
					"material":1
				},
				{
					"attributes":{
						"POSITION":6,
						"NORMAL":7
					},
					"indices":8,
					"material":2
				},
				{
					"attributes":{
						"POSITION":9,
						"NORMAL":10
					},
					"indices":11,
					"material":3
				},
				{
					"attributes":{
						"POSITION":12,
						"NORMAL":13
					},
					"indices":14,
					"material":4
				}
			]
		}
	],
	"accessors":[
		{
			"bufferView":0,
			"componentType":5126,
			"count":2760,
			"max":[
				4,
				16,
				0
			],
			"min":[
				0,
				0,
				-4
			],
			"type":"VEC3"
		},
		{
			"bufferView":1,
			"componentType":5126,
			"count":2760,
			"type":"VEC3"
		},
		{
			"bufferView":2,
			"componentType":5123,
			"count":4140,
			"type":"SCALAR"
		},
		{
			"bufferView":3,
			"componentType":5126,
			"count":864,
			"max":[
				4,
				15,
				0
			],
			"min":[
				0,
				0,
				-4
			],
			"type":"VEC3"
		},
		{
			"bufferView":4,
			"componentType":5126,
			"count":864,
			"type":"VEC3"
		},
		{
			"bufferView":5,
			"componentType":5123,
			"count":1296,
			"type":"SCALAR"
		},
		{
			"bufferView":6,
			"componentType":5126,
			"count":600,
			"max":[
				4,
				16,
				0
			],
			"min":[
				0,
				1,
				-4
			],
			"type":"VEC3"
		},
		{
			"bufferView":7,
			"componentType":5126,
			"count":600,
			"type":"VEC3"
		},
		{
			"bufferView":8,
			"componentType":5123,
			"count":900,
			"type":"SCALAR"
		},
		{
			"bufferView":9,
			"componentType":5126,
			"count":768,
			"max":[
				4,
				16,
				-1
			],
			"min":[
				1,
				0,
				-4
			],
			"type":"VEC3"
		},
		{
			"bufferView":10,
			"componentType":5126,
			"count":768,
			"type":"VEC3"
		},
		{
			"bufferView":11,
			"componentType":5123,
			"count":1152,
			"type":"SCALAR"
		},
		{
			"bufferView":12,
			"componentType":5126,
			"count":120,
			"max":[
				3,
				15,
				-1
			],
			"min":[
				1,
				2,
				-3
			],
			"type":"VEC3"
		},
		{
			"bufferView":13,
			"componentType":5126,
			"count":120,
			"type":"VEC3"
		},
		{
			"bufferView":14,
			"componentType":5123,
			"count":180,
			"type":"SCALAR"
		}
	],
	"bufferViews":[
		{
			"buffer":0,
			"byteLength":33120,
			"byteOffset":0,
			"target":34962
		},
		{
			"buffer":0,
			"byteLength":33120,
			"byteOffset":33120,
			"target":34962
		},
		{
			"buffer":0,
			"byteLength":8280,
			"byteOffset":66240,
			"target":34963
		},
		{
			"buffer":0,
			"byteLength":10368,
			"byteOffset":74520,
			"target":34962
		},
		{
			"buffer":0,
			"byteLength":10368,
			"byteOffset":84888,
			"target":34962
		},
		{
			"buffer":0,
			"byteLength":2592,
			"byteOffset":95256,
			"target":34963
		},
		{
			"buffer":0,
			"byteLength":7200,
			"byteOffset":97848,
			"target":34962
		},
		{
			"buffer":0,
			"byteLength":7200,
			"byteOffset":105048,
			"target":34962
		},
		{
			"buffer":0,
			"byteLength":1800,
			"byteOffset":112248,
			"target":34963
		},
		{
			"buffer":0,
			"byteLength":9216,
			"byteOffset":114048,
			"target":34962
		},
		{
			"buffer":0,
			"byteLength":9216,
			"byteOffset":123264,
			"target":34962
		},
		{
			"buffer":0,
			"byteLength":2304,
			"byteOffset":132480,
			"target":34963
		},
		{
			"buffer":0,
			"byteLength":1440,
			"byteOffset":134784,
			"target":34962
		},
		{
			"buffer":0,
			"byteLength":1440,
			"byteOffset":136224,
			"target":34962
		},
		{
			"buffer":0,
			"byteLength":360,
			"byteOffset":137664,
			"target":34963
		}
	],
	"buffers":[
		{
			"byteLength":138024,
			"uri":"STN_PLR.bin"
		}
	]
}
