{
	"asset":{
		"generator":"Khronos glTF Blender I/O v5.0.21",
		"version":"2.0"
	},
	"extensionsUsed":[
		"KHR_materials_specular"
	],
	"scene":0,
	"scenes":[
		{
			"name":"Scene",
			"nodes":[
				0
			]
		}
	],
	"nodes":[
		{
			"mesh":0,
			"name":"Stone_Wall_INV",
			"rotation":[
				0.7071068286895752,
				0,
				0,
				0.7071068286895752
			]
		}
	],
	"materials":[
		{
			"doubleSided":true,
			"extensions":{
				"KHR_materials_specular":{
					"specularFactor":0
				}
			},
			"name":"mat_183_176_156",
			"pbrMetallicRoughness":{
				"baseColorFactor":[
					0.7179999947547913,
					0.6899999976158142,
					0.6119999885559082,
					1
				],
				"metallicFactor":0
			}
		},
		{
			"doubleSided":true,
			"extensions":{
				"KHR_materials_specular":{
					"specularFactor":0
				}
			},
			"name":"mat_141_137_125",
			"pbrMetallicRoughness":{
				"baseColorFactor":[
					0.5529999732971191,
					0.5370000004768372,
					0.49000000953674316,
					1
				],
				"metallicFactor":0
			}
		},
		{
			"doubleSided":true,
			"extensions":{
				"KHR_materials_specular":{
					"specularFactor":0
				}
			},
			"name":"mat_156_154_148",
			"pbrMetallicRoughness":{
				"baseColorFactor":[
					0.6119999885559082,
					0.6039999723434448,
					0.5799999833106995,
					1
				],
				"metallicFactor":0
			}
		},
		{
			"doubleSided":true,
			"extensions":{
				"KHR_materials_specular":{
					"specularFactor":0
				}
			},
			"name":"mat_213_206_188",
			"pbrMetallicRoughness":{
				"baseColorFactor":[
					0.8349999785423279,
					0.8080000281333923,
					0.7369999885559082,
					1
				],
				"metallicFactor":0
			}
		},
		{
			"doubleSided":true,
			"extensions":{
				"KHR_materials_specular":{
					"specularFactor":0
				}
			},
			"name":"mat_192_185_165",
			"pbrMetallicRoughness":{
				"baseColorFactor":[
					0.753000020980835,
					0.7250000238418579,
					0.6470000147819519,
					1
				],
				"metallicFactor":0
			}
		},
		{
			"doubleSided":true,
			"extensions":{
				"KHR_materials_specular":{
					"specularFactor":0
				}
			},
			"name":"mat_94_91_83",
			"pbrMetallicRoughness":{
				"baseColorFactor":[
					0.36899998784065247,
					0.3569999933242798,
					0.32499998807907104,
					1
				],
				"metallicFactor":0
			}
		},
		{
			"doubleSided":true,
			"extensions":{
				"KHR_materials_specular":{
					"specularFactor":0
				}
			},
			"name":"mat_242_227_168",
			"pbrMetallicRoughness":{
				"baseColorFactor":[
					0.9490000009536743,
					0.8899999856948853,
					0.6589999794960022,
					1
				],
				"metallicFactor":0
			}
		}
	],
	"meshes":[
		{
			"name":"Stone_Wall_INV",
			"primitives":[
				{
					"attributes":{
						"POSITION":0,
						"NORMAL":1
					},
					"indices":2,
					"material":0
				},
				{
					"attributes":{
						"POSITION":3,
						"NORMAL":4
					},
					"indices":5,
					"material":1
				},
				{
					"attributes":{
						"POSITION":6,
						"NORMAL":7
					},
					"indices":8,
					"material":2
				},
				{
					"attributes":{
						"POSITION":9,
						"NORMAL":10
					},
					"indices":11,
					"material":3
				},
				{
					"attributes":{
						"POSITION":12,
						"NORMAL":13
					},
					"indices":14,
					"material":4
				},
				{
					"attributes":{
						"POSITION":15,
						"NORMAL":16
					},
					"indices":17,
					"material":5
				},
				{
					"attributes":{
						"POSITION":18,
						"NORMAL":19
					},
					"indices":20,
					"material":6
				}
			]
		}
	],
	"accessors":[
		{
			"bufferView":0,
			"componentType":5126,
			"count":1248,
			"max":[
				16,
				14,
				-12
			],
			"min":[
				0,
				0,
				-16
			],
			"type":"VEC3"
		},
		{
			"bufferView":1,
			"componentType":5126,
			"count":1248,
			"type":"VEC3"
		},
		{
			"bufferView":2,
			"componentType":5123,
			"count":1872,
			"type":"SCALAR"
		},
		{
			"bufferView":3,
			"componentType":5126,
			"count":4368,
			"max":[
				16,
				16,
				-12
			],
			"min":[
				0,
				0,
				-16
			],
			"type":"VEC3"
		},
		{
			"bufferView":4,
			"componentType":5126,
			"count":4368,
			"type":"VEC3"
		},
		{
			"bufferView":5,
			"componentType":5123,
			"count":6552,
			"type":"SCALAR"
		},
		{
			"bufferView":6,
			"componentType":5126,
			"count":2136,
			"max":[
				16,
				16,
				-12
			],
			"min":[
				0,
				0,
				-16
			],
			"type":"VEC3"
		},
		{
			"bufferView":7,
			"componentType":5126,
			"count":2136,
			"type":"VEC3"
		},
		{
			"bufferView":8,
			"componentType":5123,
			"count":3204,
			"type":"SCALAR"
		},
		{
			"bufferView":9,
			"componentType":5126,
			"count":1080,
			"max":[
				16,
				16,
				-12
			],
			"min":[
				0,
				0,
				-16
			],
			"type":"VEC3"
		},
		{
			"bufferView":10,
			"componentType":5126,
			"count":1080,
			"type":"VEC3"
		},
		{
			"bufferView":11,
			"componentType":5123,
			"count":1620,
			"type":"SCALAR"
		},
		{
			"bufferView":12,
			"componentType":5126,
			"count":336,
			"max":[
				15,
				15,
				-12
			],
			"min":[
				4,
				1,
				-16
			],
			"type":"VEC3"
		},
		{
			"bufferView":13,
			"componentType":5126,
			"count":336,
			"type":"VEC3"
		},
		{
			"bufferView":14,
			"componentType":5123,
			"count":504,
			"type":"SCALAR"
		},
		{
			"bufferView":15,
			"componentType":5126,
			"count":5808,
			"max":[
				16,
				16,
				-13
			],
			"min":[
				0,
				0,
				-15
			],
			"type":"VEC3"
		},
		{
			"bufferView":16,
			"componentType":5126,
			"count":5808,
			"type":"VEC3"
		},
		{
			"bufferView":17,
			"componentType":5123,
			"count":8712,
			"type":"SCALAR"
		},
		{
			"bufferView":18,
			"componentType":5126,
			"count":4080,
			"max":[
				15,
				15,
				-13
			],
			"min":[
				2,
				1,
				-15
			],
			"type":"VEC3"
		},
		{
			"bufferView":19,
			"componentType":5126,
			"count":4080,
			"type":"VEC3"
		},
		{
			"bufferView":20,
			"componentType":5123,
			"count":6120,
			"type":"SCALAR"
		}
	],
	"bufferViews":[
		{
			"buffer":0,
			"byteLength":14976,
			"byteOffset":0,
			"target":34962
		},
		{
			"buffer":0,
			"byteLength":14976,
			"byteOffset":14976,
			"target":34962
		},
		{
			"buffer":0,
			"byteLength":3744,
			"byteOffset":29952,
			"target":34963
		},
		{
			"buffer":0,
			"byteLength":52416,
			"byteOffset":33696,
			"target":34962
		},
		{
			"buffer":0,
			"byteLength":52416,
			"byteOffset":86112,
			"target":34962
		},
		{
			"buffer":0,
			"byteLength":13104,
			"byteOffset":138528,
			"target":34963
		},
		{
			"buffer":0,
			"byteLength":25632,
			"byteOffset":151632,
			"target":34962
		},
		{
			"buffer":0,
			"byteLength":25632,
			"byteOffset":177264,
			"target":34962
		},
		{
			"buffer":0,
			"byteLength":6408,
			"byteOffset":202896,
			"target":34963
		},
		{
			"buffer":0,
			"byteLength":12960,
			"byteOffset":209304,
			"target":34962
		},
		{
			"buffer":0,
			"byteLength":12960,
			"byteOffset":222264,
			"target":34962
		},
		{
			"buffer":0,
			"byteLength":3240,
			"byteOffset":235224,
			"target":34963
		},
		{
			"buffer":0,
			"byteLength":4032,
			"byteOffset":238464,
			"target":34962
		},
		{
			"buffer":0,
			"byteLength":4032,
			"byteOffset":242496,
			"target":34962
		},
		{
			"buffer":0,
			"byteLength":1008,
			"byteOffset":246528,
			"target":34963
		},
		{
			"buffer":0,
			"byteLength":69696,
			"byteOffset":247536,
			"target":34962
		},
		{
			"buffer":0,
			"byteLength":69696,
			"byteOffset":317232,
			"target":34962
		},
		{
			"buffer":0,
			"byteLength":17424,
			"byteOffset":386928,
			"target":34963
		},
		{
			"buffer":0,
			"byteLength":48960,
			"byteOffset":404352,
			"target":34962
		},
		{
			"buffer":0,
			"byteLength":48960,
			"byteOffset":453312,
			"target":34962
		},
		{
			"buffer":0,
			"byteLength":12240,
			"byteOffset":502272,
			"target":34963
		}
	],
	"buffers":[
		{
			"byteLength":514512,
			"uri":"Stone_Wall_INV.bin"
		}
	]
}
