{
	"asset":{
		"generator":"Khronos glTF Blender I/O v5.0.21",
		"version":"2.0"
	},
	"extensionsUsed":[
		"KHR_materials_specular"
	],
	"scene":0,
	"scenes":[
		{
			"name":"Scene",
			"nodes":[
				0
			]
		}
	],
	"nodes":[
		{
			"mesh":0,
			"name":"CHIMNEY",
			"rotation":[
				0.7071068286895752,
				0,
				0,
				0.7071068286895752
			]
		}
	],
	"materials":[
		{
			"doubleSided":true,
			"extensions":{
				"KHR_materials_specular":{
					"specularFactor":0
				}
			},
			"name":"mat_73_71_63",
			"pbrMetallicRoughness":{
				"baseColorFactor":[
					0.28600001335144043,
					0.27799999713897705,
					0.24699999392032623,
					1
				],
				"metallicFactor":0
			}
		},
		{
			"doubleSided":true,
			"extensions":{
				"KHR_materials_specular":{
					"specularFactor":0
				}
			},
			"name":"mat_150_147_137",
			"pbrMetallicRoughness":{
				"baseColorFactor":[
					0.5879999995231628,
					0.5759999752044678,
					0.5370000004768372,
					1
				],
				"metallicFactor":0
			}
		},
		{
			"doubleSided":true,
			"extensions":{
				"KHR_materials_specular":{
					"specularFactor":0
				}
			},
			"name":"mat_127_122_109",
			"pbrMetallicRoughness":{
				"baseColorFactor":[
					0.49799999594688416,
					0.4779999852180481,
					0.4269999861717224,
					1
				],
				"metallicFactor":0
			}
		},
		{
			"doubleSided":true,
			"extensions":{
				"KHR_materials_specular":{
					"specularFactor":0
				}
			},
			"name":"mat_152_148_137",
			"pbrMetallicRoughness":{
				"baseColorFactor":[
					0.5960000157356262,
					0.5799999833106995,
					0.5370000004768372,
					1
				],
				"metallicFactor":0
			}
		},
		{
			"doubleSided":true,
			"extensions":{
				"KHR_materials_specular":{
					"specularFactor":0
				}
			},
			"name":"mat_43_43_40",
			"pbrMetallicRoughness":{
				"baseColorFactor":[
					0.16899999976158142,
					0.16899999976158142,
					0.15700000524520874,
					1
				],
				"metallicFactor":0
			}
		},
		{
			"doubleSided":true,
			"extensions":{
				"KHR_materials_specular":{
					"specularFactor":0
				}
			},
			"name":"mat_242_227_168",
			"pbrMetallicRoughness":{
				"baseColorFactor":[
					0.9490000009536743,
					0.8899999856948853,
					0.6589999794960022,
					1
				],
				"metallicFactor":0
			}
		}
	],
	"meshes":[
		{
			"name":"CHIMNEY",
			"primitives":[
				{
					"attributes":{
						"POSITION":0,
						"NORMAL":1
					},
					"indices":2,
					"material":0
				},
				{
					"attributes":{
						"POSITION":3,
						"NORMAL":4
					},
					"indices":5,
					"material":1
				},
				{
					"attributes":{
						"POSITION":6,
						"NORMAL":7
					},
					"indices":8,
					"material":2
				},
				{
					"attributes":{
						"POSITION":9,
						"NORMAL":10
					},
					"indices":11,
					"material":3
				},
				{
					"attributes":{
						"POSITION":12,
						"NORMAL":13
					},
					"indices":14,
					"material":4
				},
				{
					"attributes":{
						"POSITION":15,
						"NORMAL":16
					},
					"indices":17,
					"material":5
				}
			]
		}
	],
	"accessors":[
		{
			"bufferView":0,
			"componentType":5126,
			"count":8424,
			"max":[
				15,
				16,
				-2
			],
			"min":[
				1,
				0,
				-14
			],
			"type":"VEC3"
		},
		{
			"bufferView":1,
			"componentType":5126,
			"count":8424,
			"type":"VEC3"
		},
		{
			"bufferView":2,
			"componentType":5123,
			"count":12636,
			"type":"SCALAR"
		},
		{
			"bufferView":3,
			"componentType":5126,
			"count":3216,
			"max":[
				15,
				16,
				-2
			],
			"min":[
				1,
				0,
				-14
			],
			"type":"VEC3"
		},
		{
			"bufferView":4,
			"componentType":5126,
			"count":3216,
			"type":"VEC3"
		},
		{
			"bufferView":5,
			"componentType":5123,
			"count":4824,
			"type":"SCALAR"
		},
		{
			"bufferView":6,
			"componentType":5126,
			"count":3048,
			"max":[
				15,
				14,
				-2
			],
			"min":[
				1,
				0,
				-14
			],
			"type":"VEC3"
		},
		{
			"bufferView":7,
			"componentType":5126,
			"count":3048,
			"type":"VEC3"
		},
		{
			"bufferView":8,
			"componentType":5123,
			"count":4572,
			"type":"SCALAR"
		},
		{
			"bufferView":9,
			"componentType":5126,
			"count":2352,
			"max":[
				15,
				15,
				-2
			],
			"min":[
				1,
				0,
				-14
			],
			"type":"VEC3"
		},
		{
			"bufferView":10,
			"componentType":5126,
			"count":2352,
			"type":"VEC3"
		},
		{
			"bufferView":11,
			"componentType":5123,
			"count":3528,
			"type":"SCALAR"
		},
		{
			"bufferView":12,
			"componentType":5126,
			"count":7776,
			"max":[
				15,
				15,
				-3
			],
			"min":[
				1,
				0,
				-13
			],
			"type":"VEC3"
		},
		{
			"bufferView":13,
			"componentType":5126,
			"count":7776,
			"type":"VEC3"
		},
		{
			"bufferView":14,
			"componentType":5123,
			"count":11664,
			"type":"SCALAR"
		},
		{
			"bufferView":15,
			"componentType":5126,
			"count":2160,
			"max":[
				13,
				15,
				-3
			],
			"min":[
				3,
				4,
				-13
			],
			"type":"VEC3"
		},
		{
			"bufferView":16,
			"componentType":5126,
			"count":2160,
			"type":"VEC3"
		},
		{
			"bufferView":17,
			"componentType":5123,
			"count":3240,
			"type":"SCALAR"
		}
	],
	"bufferViews":[
		{
			"buffer":0,
			"byteLength":101088,
			"byteOffset":0,
			"target":34962
		},
		{
			"buffer":0,
			"byteLength":101088,
			"byteOffset":101088,
			"target":34962
		},
		{
			"buffer":0,
			"byteLength":25272,
			"byteOffset":202176,
			"target":34963
		},
		{
			"buffer":0,
			"byteLength":38592,
			"byteOffset":227448,
			"target":34962
		},
		{
			"buffer":0,
			"byteLength":38592,
			"byteOffset":266040,
			"target":34962
		},
		{
			"buffer":0,
			"byteLength":9648,
			"byteOffset":304632,
			"target":34963
		},
		{
			"buffer":0,
			"byteLength":36576,
			"byteOffset":314280,
			"target":34962
		},
		{
			"buffer":0,
			"byteLength":36576,
			"byteOffset":350856,
			"target":34962
		},
		{
			"buffer":0,
			"byteLength":9144,
			"byteOffset":387432,
			"target":34963
		},
		{
			"buffer":0,
			"byteLength":28224,
			"byteOffset":396576,
			"target":34962
		},
		{
			"buffer":0,
			"byteLength":28224,
			"byteOffset":424800,
			"target":34962
		},
		{
			"buffer":0,
			"byteLength":7056,
			"byteOffset":453024,
			"target":34963
		},
		{
			"buffer":0,
			"byteLength":93312,
			"byteOffset":460080,
			"target":34962
		},
		{
			"buffer":0,
			"byteLength":93312,
			"byteOffset":553392,
			"target":34962
		},
		{
			"buffer":0,
			"byteLength":23328,
			"byteOffset":646704,
			"target":34963
		},
		{
			"buffer":0,
			"byteLength":25920,
			"byteOffset":670032,
			"target":34962
		},
		{
			"buffer":0,
			"byteLength":25920,
			"byteOffset":695952,
			"target":34962
		},
		{
			"buffer":0,
			"byteLength":6480,
			"byteOffset":721872,
			"target":34963
		}
	],
	"buffers":[
		{
			"byteLength":728352,
			"uri":"CHIMNEY.bin"
		}
	]
}
