{
	"asset":{
		"generator":"Khronos glTF Blender I/O v5.0.21",
		"version":"2.0"
	},
	"extensionsUsed":[
		"KHR_materials_specular"
	],
	"scene":0,
	"scenes":[
		{
			"name":"Scene",
			"nodes":[
				0
			]
		}
	],
	"nodes":[
		{
			"mesh":0,
			"name":"VILL_H_RD_W_L",
			"rotation":[
				0.7071068286895752,
				0,
				0,
				0.7071068286895752
			]
		}
	],
	"materials":[
		{
			"doubleSided":true,
			"extensions":{
				"KHR_materials_specular":{
					"specularFactor":0
				}
			},
			"name":"mat_109_58_37",
			"pbrMetallicRoughness":{
				"baseColorFactor":[
					0.4269999861717224,
					0.22699999809265137,
					0.14499999582767487,
					1
				],
				"metallicFactor":0
			}
		},
		{
			"doubleSided":true,
			"extensions":{
				"KHR_materials_specular":{
					"specularFactor":0
				}
			},
			"name":"mat_178_141_108",
			"pbrMetallicRoughness":{
				"baseColorFactor":[
					0.6980000138282776,
					0.5529999732971191,
					0.42399999499320984,
					1
				],
				"metallicFactor":0
			}
		},
		{
			"doubleSided":true,
			"extensions":{
				"KHR_materials_specular":{
					"specularFactor":0
				}
			},
			"name":"mat_77_41_26",
			"pbrMetallicRoughness":{
				"baseColorFactor":[
					0.3019999861717224,
					0.16099999845027924,
					0.10199999809265137,
					1
				],
				"metallicFactor":0
			}
		},
		{
			"doubleSided":true,
			"extensions":{
				"KHR_materials_specular":{
					"specularFactor":0
				}
			},
			"name":"mat_152_122_95",
			"pbrMetallicRoughness":{
				"baseColorFactor":[
					0.5960000157356262,
					0.4779999852180481,
					0.37299999594688416,
					1
				],
				"metallicFactor":0
			}
		},
		{
			"doubleSided":true,
			"extensions":{
				"KHR_materials_specular":{
					"specularFactor":0
				}
			},
			"name":"mat_195_154_118",
			"pbrMetallicRoughness":{
				"baseColorFactor":[
					0.7649999856948853,
					0.6039999723434448,
					0.46299999952316284,
					1
				],
				"metallicFactor":0
			}
		},
		{
			"doubleSided":true,
			"extensions":{
				"KHR_materials_specular":{
					"specularFactor":0
				}
			},
			"name":"mat_57_31_20",
			"pbrMetallicRoughness":{
				"baseColorFactor":[
					0.2240000069141388,
					0.12200000137090683,
					0.07800000160932541,
					1
				],
				"metallicFactor":0
			}
		}
	],
	"meshes":[
		{
			"name":"VILL_H_RD_W_L",
			"primitives":[
				{
					"attributes":{
						"POSITION":0,
						"NORMAL":1
					},
					"indices":2,
					"material":0
				},
				{
					"attributes":{
						"POSITION":3,
						"NORMAL":4
					},
					"indices":5,
					"material":1
				},
				{
					"attributes":{
						"POSITION":6,
						"NORMAL":7
					},
					"indices":8,
					"material":2
				},
				{
					"attributes":{
						"POSITION":9,
						"NORMAL":10
					},
					"indices":11,
					"material":3
				},
				{
					"attributes":{
						"POSITION":12,
						"NORMAL":13
					},
					"indices":14,
					"material":4
				},
				{
					"attributes":{
						"POSITION":15,
						"NORMAL":16
					},
					"indices":17,
					"material":5
				}
			]
		}
	],
	"accessors":[
		{
			"bufferView":0,
			"componentType":5126,
			"count":288,
			"max":[
				16,
				7,
				-1
			],
			"min":[
				6,
				0,
				-5
			],
			"type":"VEC3"
		},
		{
			"bufferView":1,
			"componentType":5126,
			"count":288,
			"type":"VEC3"
		},
		{
			"bufferView":2,
			"componentType":5123,
			"count":432,
			"type":"SCALAR"
		},
		{
			"bufferView":3,
			"componentType":5126,
			"count":1968,
			"max":[
				16,
				9,
				-2
			],
			"min":[
				5,
				0,
				-4
			],
			"type":"VEC3"
		},
		{
			"bufferView":4,
			"componentType":5126,
			"count":1968,
			"type":"VEC3"
		},
		{
			"bufferView":5,
			"componentType":5123,
			"count":2952,
			"type":"SCALAR"
		},
		{
			"bufferView":6,
			"componentType":5126,
			"count":480,
			"max":[
				16,
				9,
				-1
			],
			"min":[
				5,
				0,
				-5
			],
			"type":"VEC3"
		},
		{
			"bufferView":7,
			"componentType":5126,
			"count":480,
			"type":"VEC3"
		},
		{
			"bufferView":8,
			"componentType":5123,
			"count":720,
			"type":"SCALAR"
		},
		{
			"bufferView":9,
			"componentType":5126,
			"count":432,
			"max":[
				15,
				9,
				-2
			],
			"min":[
				7,
				0,
				-4
			],
			"type":"VEC3"
		},
		{
			"bufferView":10,
			"componentType":5126,
			"count":432,
			"type":"VEC3"
		},
		{
			"bufferView":11,
			"componentType":5123,
			"count":648,
			"type":"SCALAR"
		},
		{
			"bufferView":12,
			"componentType":5126,
			"count":768,
			"max":[
				15,
				8,
				-2
			],
			"min":[
				7,
				0,
				-4
			],
			"type":"VEC3"
		},
		{
			"bufferView":13,
			"componentType":5126,
			"count":768,
			"type":"VEC3"
		},
		{
			"bufferView":14,
			"componentType":5123,
			"count":1152,
			"type":"SCALAR"
		},
		{
			"bufferView":15,
			"componentType":5126,
			"count":144,
			"max":[
				16,
				5,
				-1
			],
			"min":[
				11,
				0,
				-5
			],
			"type":"VEC3"
		},
		{
			"bufferView":16,
			"componentType":5126,
			"count":144,
			"type":"VEC3"
		},
		{
			"bufferView":17,
			"componentType":5123,
			"count":216,
			"type":"SCALAR"
		}
	],
	"bufferViews":[
		{
			"buffer":0,
			"byteLength":3456,
			"byteOffset":0,
			"target":34962
		},
		{
			"buffer":0,
			"byteLength":3456,
			"byteOffset":3456,
			"target":34962
		},
		{
			"buffer":0,
			"byteLength":864,
			"byteOffset":6912,
			"target":34963
		},
		{
			"buffer":0,
			"byteLength":23616,
			"byteOffset":7776,
			"target":34962
		},
		{
			"buffer":0,
			"byteLength":23616,
			"byteOffset":31392,
			"target":34962
		},
		{
			"buffer":0,
			"byteLength":5904,
			"byteOffset":55008,
			"target":34963
		},
		{
			"buffer":0,
			"byteLength":5760,
			"byteOffset":60912,
			"target":34962
		},
		{
			"buffer":0,
			"byteLength":5760,
			"byteOffset":66672,
			"target":34962
		},
		{
			"buffer":0,
			"byteLength":1440,
			"byteOffset":72432,
			"target":34963
		},
		{
			"buffer":0,
			"byteLength":5184,
			"byteOffset":73872,
			"target":34962
		},
		{
			"buffer":0,
			"byteLength":5184,
			"byteOffset":79056,
			"target":34962
		},
		{
			"buffer":0,
			"byteLength":1296,
			"byteOffset":84240,
			"target":34963
		},
		{
			"buffer":0,
			"byteLength":9216,
			"byteOffset":85536,
			"target":34962
		},
		{
			"buffer":0,
			"byteLength":9216,
			"byteOffset":94752,
			"target":34962
		},
		{
			"buffer":0,
			"byteLength":2304,
			"byteOffset":103968,
			"target":34963
		},
		{
			"buffer":0,
			"byteLength":1728,
			"byteOffset":106272,
			"target":34962
		},
		{
			"buffer":0,
			"byteLength":1728,
			"byteOffset":108000,
			"target":34962
		},
		{
			"buffer":0,
			"byteLength":432,
			"byteOffset":109728,
			"target":34963
		}
	],
	"buffers":[
		{
			"byteLength":110160,
			"uri":"VILL_H_RD_W_L.bin"
		}
	]
}
