{
	"asset":{
		"generator":"Khronos glTF Blender I/O v5.0.21",
		"version":"2.0"
	},
	"extensionsUsed":[
		"KHR_materials_specular"
	],
	"scene":0,
	"scenes":[
		{
			"name":"Scene",
			"nodes":[
				0
			]
		}
	],
	"nodes":[
		{
			"mesh":0,
			"name":"VILL_H_RF_W_R2",
			"rotation":[
				0.7071068286895752,
				0,
				0,
				0.7071068286895752
			]
		}
	],
	"materials":[
		{
			"doubleSided":true,
			"extensions":{
				"KHR_materials_specular":{
					"specularFactor":0
				}
			},
			"name":"mat_109_58_37",
			"pbrMetallicRoughness":{
				"baseColorFactor":[
					0.4269999861717224,
					0.22699999809265137,
					0.14499999582767487,
					1
				],
				"metallicFactor":0
			}
		},
		{
			"doubleSided":true,
			"extensions":{
				"KHR_materials_specular":{
					"specularFactor":0
				}
			},
			"name":"mat_77_41_26",
			"pbrMetallicRoughness":{
				"baseColorFactor":[
					0.3019999861717224,
					0.16099999845027924,
					0.10199999809265137,
					1
				],
				"metallicFactor":0
			}
		},
		{
			"doubleSided":true,
			"extensions":{
				"KHR_materials_specular":{
					"specularFactor":0
				}
			},
			"name":"mat_57_31_20",
			"pbrMetallicRoughness":{
				"baseColorFactor":[
					0.2240000069141388,
					0.12200000137090683,
					0.07800000160932541,
					1
				],
				"metallicFactor":0
			}
		},
		{
			"doubleSided":true,
			"extensions":{
				"KHR_materials_specular":{
					"specularFactor":0
				}
			},
			"name":"mat_152_122_95",
			"pbrMetallicRoughness":{
				"baseColorFactor":[
					0.5960000157356262,
					0.4779999852180481,
					0.37299999594688416,
					1
				],
				"metallicFactor":0
			}
		},
		{
			"doubleSided":true,
			"extensions":{
				"KHR_materials_specular":{
					"specularFactor":0
				}
			},
			"name":"mat_178_141_108",
			"pbrMetallicRoughness":{
				"baseColorFactor":[
					0.6980000138282776,
					0.5529999732971191,
					0.42399999499320984,
					1
				],
				"metallicFactor":0
			}
		},
		{
			"doubleSided":true,
			"extensions":{
				"KHR_materials_specular":{
					"specularFactor":0
				}
			},
			"name":"mat_195_154_118",
			"pbrMetallicRoughness":{
				"baseColorFactor":[
					0.7649999856948853,
					0.6039999723434448,
					0.46299999952316284,
					1
				],
				"metallicFactor":0
			}
		}
	],
	"meshes":[
		{
			"name":"VILL_H_RF_W_R2",
			"primitives":[
				{
					"attributes":{
						"POSITION":0,
						"NORMAL":1
					},
					"indices":2,
					"material":0
				},
				{
					"attributes":{
						"POSITION":3,
						"NORMAL":4
					},
					"indices":5,
					"material":1
				},
				{
					"attributes":{
						"POSITION":6,
						"NORMAL":7
					},
					"indices":8,
					"material":2
				},
				{
					"attributes":{
						"POSITION":9,
						"NORMAL":10
					},
					"indices":11,
					"material":3
				},
				{
					"attributes":{
						"POSITION":12,
						"NORMAL":13
					},
					"indices":14,
					"material":4
				},
				{
					"attributes":{
						"POSITION":15,
						"NORMAL":16
					},
					"indices":17,
					"material":5
				}
			]
		}
	],
	"accessors":[
		{
			"bufferView":0,
			"componentType":5126,
			"count":552,
			"max":[
				14,
				15,
				-1
			],
			"min":[
				0,
				0,
				-5
			],
			"type":"VEC3"
		},
		{
			"bufferView":1,
			"componentType":5126,
			"count":552,
			"type":"VEC3"
		},
		{
			"bufferView":2,
			"componentType":5123,
			"count":828,
			"type":"SCALAR"
		},
		{
			"bufferView":3,
			"componentType":5126,
			"count":864,
			"max":[
				16,
				13,
				-1
			],
			"min":[
				0,
				0,
				-5
			],
			"type":"VEC3"
		},
		{
			"bufferView":4,
			"componentType":5126,
			"count":864,
			"type":"VEC3"
		},
		{
			"bufferView":5,
			"componentType":5123,
			"count":1296,
			"type":"SCALAR"
		},
		{
			"bufferView":6,
			"componentType":5126,
			"count":480,
			"max":[
				12,
				14,
				-1
			],
			"min":[
				0,
				0,
				-5
			],
			"type":"VEC3"
		},
		{
			"bufferView":7,
			"componentType":5126,
			"count":480,
			"type":"VEC3"
		},
		{
			"bufferView":8,
			"componentType":5123,
			"count":720,
			"type":"SCALAR"
		},
		{
			"bufferView":9,
			"componentType":5126,
			"count":1104,
			"max":[
				15,
				14,
				-2
			],
			"min":[
				0,
				0,
				-4
			],
			"type":"VEC3"
		},
		{
			"bufferView":10,
			"componentType":5126,
			"count":1104,
			"type":"VEC3"
		},
		{
			"bufferView":11,
			"componentType":5123,
			"count":1656,
			"type":"SCALAR"
		},
		{
			"bufferView":12,
			"componentType":5126,
			"count":4368,
			"max":[
				16,
				14,
				-2
			],
			"min":[
				0,
				0,
				-4
			],
			"type":"VEC3"
		},
		{
			"bufferView":13,
			"componentType":5126,
			"count":4368,
			"type":"VEC3"
		},
		{
			"bufferView":14,
			"componentType":5123,
			"count":6552,
			"type":"SCALAR"
		},
		{
			"bufferView":15,
			"componentType":5126,
			"count":1680,
			"max":[
				16,
				13,
				-2
			],
			"min":[
				0,
				0,
				-4
			],
			"type":"VEC3"
		},
		{
			"bufferView":16,
			"componentType":5126,
			"count":1680,
			"type":"VEC3"
		},
		{
			"bufferView":17,
			"componentType":5123,
			"count":2520,
			"type":"SCALAR"
		}
	],
	"bufferViews":[
		{
			"buffer":0,
			"byteLength":6624,
			"byteOffset":0,
			"target":34962
		},
		{
			"buffer":0,
			"byteLength":6624,
			"byteOffset":6624,
			"target":34962
		},
		{
			"buffer":0,
			"byteLength":1656,
			"byteOffset":13248,
			"target":34963
		},
		{
			"buffer":0,
			"byteLength":10368,
			"byteOffset":14904,
			"target":34962
		},
		{
			"buffer":0,
			"byteLength":10368,
			"byteOffset":25272,
			"target":34962
		},
		{
			"buffer":0,
			"byteLength":2592,
			"byteOffset":35640,
			"target":34963
		},
		{
			"buffer":0,
			"byteLength":5760,
			"byteOffset":38232,
			"target":34962
		},
		{
			"buffer":0,
			"byteLength":5760,
			"byteOffset":43992,
			"target":34962
		},
		{
			"buffer":0,
			"byteLength":1440,
			"byteOffset":49752,
			"target":34963
		},
		{
			"buffer":0,
			"byteLength":13248,
			"byteOffset":51192,
			"target":34962
		},
		{
			"buffer":0,
			"byteLength":13248,
			"byteOffset":64440,
			"target":34962
		},
		{
			"buffer":0,
			"byteLength":3312,
			"byteOffset":77688,
			"target":34963
		},
		{
			"buffer":0,
			"byteLength":52416,
			"byteOffset":81000,
			"target":34962
		},
		{
			"buffer":0,
			"byteLength":52416,
			"byteOffset":133416,
			"target":34962
		},
		{
			"buffer":0,
			"byteLength":13104,
			"byteOffset":185832,
			"target":34963
		},
		{
			"buffer":0,
			"byteLength":20160,
			"byteOffset":198936,
			"target":34962
		},
		{
			"buffer":0,
			"byteLength":20160,
			"byteOffset":219096,
			"target":34962
		},
		{
			"buffer":0,
			"byteLength":5040,
			"byteOffset":239256,
			"target":34963
		}
	],
	"buffers":[
		{
			"byteLength":244296,
			"uri":"VILL_H_RF_W_R2.bin"
		}
	]
}
