{
	"asset":{
		"generator":"Khronos glTF Blender I/O v5.0.21",
		"version":"2.0"
	},
	"extensionsUsed":[
		"KHR_materials_specular"
	],
	"scene":0,
	"scenes":[
		{
			"name":"Scene",
			"nodes":[
				0
			]
		}
	],
	"nodes":[
		{
			"mesh":0,
			"name":"VILL_H_W_INV",
			"rotation":[
				0.7071068286895752,
				0,
				0,
				0.7071068286895752
			]
		}
	],
	"materials":[
		{
			"doubleSided":true,
			"extensions":{
				"KHR_materials_specular":{
					"specularFactor":0
				}
			},
			"name":"mat_178_141_108",
			"pbrMetallicRoughness":{
				"baseColorFactor":[
					0.6980000138282776,
					0.5529999732971191,
					0.42399999499320984,
					1
				],
				"metallicFactor":0
			}
		},
		{
			"doubleSided":true,
			"extensions":{
				"KHR_materials_specular":{
					"specularFactor":0
				}
			},
			"name":"mat_195_154_118",
			"pbrMetallicRoughness":{
				"baseColorFactor":[
					0.7649999856948853,
					0.6039999723434448,
					0.46299999952316284,
					1
				],
				"metallicFactor":0
			}
		},
		{
			"doubleSided":true,
			"extensions":{
				"KHR_materials_specular":{
					"specularFactor":0
				}
			},
			"name":"mat_152_122_95",
			"pbrMetallicRoughness":{
				"baseColorFactor":[
					0.5960000157356262,
					0.4779999852180481,
					0.37299999594688416,
					1
				],
				"metallicFactor":0
			}
		},
		{
			"doubleSided":true,
			"extensions":{
				"KHR_materials_specular":{
					"specularFactor":0
				}
			},
			"name":"mat_77_41_26",
			"pbrMetallicRoughness":{
				"baseColorFactor":[
					0.3019999861717224,
					0.16099999845027924,
					0.10199999809265137,
					1
				],
				"metallicFactor":0
			}
		},
		{
			"doubleSided":true,
			"extensions":{
				"KHR_materials_specular":{
					"specularFactor":0
				}
			},
			"name":"mat_109_58_37",
			"pbrMetallicRoughness":{
				"baseColorFactor":[
					0.4269999861717224,
					0.22699999809265137,
					0.14499999582767487,
					1
				],
				"metallicFactor":0
			}
		},
		{
			"doubleSided":true,
			"extensions":{
				"KHR_materials_specular":{
					"specularFactor":0
				}
			},
			"name":"mat_57_31_20",
			"pbrMetallicRoughness":{
				"baseColorFactor":[
					0.2240000069141388,
					0.12200000137090683,
					0.07800000160932541,
					1
				],
				"metallicFactor":0
			}
		}
	],
	"meshes":[
		{
			"name":"VILL_H_W_INV",
			"primitives":[
				{
					"attributes":{
						"POSITION":0,
						"NORMAL":1
					},
					"indices":2,
					"material":0
				},
				{
					"attributes":{
						"POSITION":3,
						"NORMAL":4
					},
					"indices":5,
					"material":1
				},
				{
					"attributes":{
						"POSITION":6,
						"NORMAL":7
					},
					"indices":8,
					"material":2
				},
				{
					"attributes":{
						"POSITION":9,
						"NORMAL":10
					},
					"indices":11,
					"material":3
				},
				{
					"attributes":{
						"POSITION":12,
						"NORMAL":13
					},
					"indices":14,
					"material":4
				},
				{
					"attributes":{
						"POSITION":15,
						"NORMAL":16
					},
					"indices":17,
					"material":5
				}
			]
		}
	],
	"accessors":[
		{
			"bufferView":0,
			"componentType":5126,
			"count":7584,
			"max":[
				16,
				16,
				-2
			],
			"min":[
				0,
				0,
				-4
			],
			"type":"VEC3"
		},
		{
			"bufferView":1,
			"componentType":5126,
			"count":7584,
			"type":"VEC3"
		},
		{
			"bufferView":2,
			"componentType":5123,
			"count":11376,
			"type":"SCALAR"
		},
		{
			"bufferView":3,
			"componentType":5126,
			"count":2784,
			"max":[
				16,
				16,
				-2
			],
			"min":[
				1,
				0,
				-4
			],
			"type":"VEC3"
		},
		{
			"bufferView":4,
			"componentType":5126,
			"count":2784,
			"type":"VEC3"
		},
		{
			"bufferView":5,
			"componentType":5123,
			"count":4176,
			"type":"SCALAR"
		},
		{
			"bufferView":6,
			"componentType":5126,
			"count":1920,
			"max":[
				16,
				16,
				-2
			],
			"min":[
				0,
				0,
				-4
			],
			"type":"VEC3"
		},
		{
			"bufferView":7,
			"componentType":5126,
			"count":1920,
			"type":"VEC3"
		},
		{
			"bufferView":8,
			"componentType":5123,
			"count":2880,
			"type":"SCALAR"
		},
		{
			"bufferView":9,
			"componentType":5126,
			"count":2112,
			"max":[
				16,
				16,
				-1
			],
			"min":[
				0,
				0,
				-5
			],
			"type":"VEC3"
		},
		{
			"bufferView":10,
			"componentType":5126,
			"count":2112,
			"type":"VEC3"
		},
		{
			"bufferView":11,
			"componentType":5123,
			"count":3168,
			"type":"SCALAR"
		},
		{
			"bufferView":12,
			"componentType":5126,
			"count":1728,
			"max":[
				16,
				16,
				-1
			],
			"min":[
				0,
				0,
				-5
			],
			"type":"VEC3"
		},
		{
			"bufferView":13,
			"componentType":5126,
			"count":1728,
			"type":"VEC3"
		},
		{
			"bufferView":14,
			"componentType":5123,
			"count":2592,
			"type":"SCALAR"
		},
		{
			"bufferView":15,
			"componentType":5126,
			"count":912,
			"max":[
				16,
				16,
				-1
			],
			"min":[
				0,
				0,
				-5
			],
			"type":"VEC3"
		},
		{
			"bufferView":16,
			"componentType":5126,
			"count":912,
			"type":"VEC3"
		},
		{
			"bufferView":17,
			"componentType":5123,
			"count":1368,
			"type":"SCALAR"
		}
	],
	"bufferViews":[
		{
			"buffer":0,
			"byteLength":91008,
			"byteOffset":0,
			"target":34962
		},
		{
			"buffer":0,
			"byteLength":91008,
			"byteOffset":91008,
			"target":34962
		},
		{
			"buffer":0,
			"byteLength":22752,
			"byteOffset":182016,
			"target":34963
		},
		{
			"buffer":0,
			"byteLength":33408,
			"byteOffset":204768,
			"target":34962
		},
		{
			"buffer":0,
			"byteLength":33408,
			"byteOffset":238176,
			"target":34962
		},
		{
			"buffer":0,
			"byteLength":8352,
			"byteOffset":271584,
			"target":34963
		},
		{
			"buffer":0,
			"byteLength":23040,
			"byteOffset":279936,
			"target":34962
		},
		{
			"buffer":0,
			"byteLength":23040,
			"byteOffset":302976,
			"target":34962
		},
		{
			"buffer":0,
			"byteLength":5760,
			"byteOffset":326016,
			"target":34963
		},
		{
			"buffer":0,
			"byteLength":25344,
			"byteOffset":331776,
			"target":34962
		},
		{
			"buffer":0,
			"byteLength":25344,
			"byteOffset":357120,
			"target":34962
		},
		{
			"buffer":0,
			"byteLength":6336,
			"byteOffset":382464,
			"target":34963
		},
		{
			"buffer":0,
			"byteLength":20736,
			"byteOffset":388800,
			"target":34962
		},
		{
			"buffer":0,
			"byteLength":20736,
			"byteOffset":409536,
			"target":34962
		},
		{
			"buffer":0,
			"byteLength":5184,
			"byteOffset":430272,
			"target":34963
		},
		{
			"buffer":0,
			"byteLength":10944,
			"byteOffset":435456,
			"target":34962
		},
		{
			"buffer":0,
			"byteLength":10944,
			"byteOffset":446400,
			"target":34962
		},
		{
			"buffer":0,
			"byteLength":2736,
			"byteOffset":457344,
			"target":34963
		}
	],
	"buffers":[
		{
			"byteLength":460080,
			"uri":"VILL_H_W_INV.bin"
		}
	]
}
