{
	"asset":{
		"generator":"Khronos glTF Blender I/O v5.0.21",
		"version":"2.0"
	},
	"extensionsUsed":[
		"KHR_materials_specular"
	],
	"scene":0,
	"scenes":[
		{
			"name":"Scene",
			"nodes":[
				0
			]
		}
	],
	"nodes":[
		{
			"mesh":0,
			"name":"VILL_H_CNR_R",
			"rotation":[
				0.7071068286895752,
				0,
				0,
				0.7071068286895752
			]
		}
	],
	"materials":[
		{
			"doubleSided":true,
			"extensions":{
				"KHR_materials_specular":{
					"specularFactor":0
				}
			},
			"name":"mat_178_141_108",
			"pbrMetallicRoughness":{
				"baseColorFactor":[
					0.6980000138282776,
					0.5529999732971191,
					0.42399999499320984,
					1
				],
				"metallicFactor":0
			}
		},
		{
			"doubleSided":true,
			"extensions":{
				"KHR_materials_specular":{
					"specularFactor":0
				}
			},
			"name":"mat_77_41_26",
			"pbrMetallicRoughness":{
				"baseColorFactor":[
					0.3019999861717224,
					0.16099999845027924,
					0.10199999809265137,
					1
				],
				"metallicFactor":0
			}
		},
		{
			"doubleSided":true,
			"extensions":{
				"KHR_materials_specular":{
					"specularFactor":0
				}
			},
			"name":"mat_109_58_37",
			"pbrMetallicRoughness":{
				"baseColorFactor":[
					0.4269999861717224,
					0.22699999809265137,
					0.14499999582767487,
					1
				],
				"metallicFactor":0
			}
		},
		{
			"doubleSided":true,
			"extensions":{
				"KHR_materials_specular":{
					"specularFactor":0
				}
			},
			"name":"mat_152_122_95",
			"pbrMetallicRoughness":{
				"baseColorFactor":[
					0.5960000157356262,
					0.4779999852180481,
					0.37299999594688416,
					1
				],
				"metallicFactor":0
			}
		},
		{
			"doubleSided":true,
			"extensions":{
				"KHR_materials_specular":{
					"specularFactor":0
				}
			},
			"name":"mat_195_154_118",
			"pbrMetallicRoughness":{
				"baseColorFactor":[
					0.7649999856948853,
					0.6039999723434448,
					0.46299999952316284,
					1
				],
				"metallicFactor":0
			}
		},
		{
			"doubleSided":true,
			"extensions":{
				"KHR_materials_specular":{
					"specularFactor":0
				}
			},
			"name":"mat_57_31_20",
			"pbrMetallicRoughness":{
				"baseColorFactor":[
					0.2240000069141388,
					0.12200000137090683,
					0.07800000160932541,
					1
				],
				"metallicFactor":0
			}
		}
	],
	"meshes":[
		{
			"name":"VILL_H_CNR_R",
			"primitives":[
				{
					"attributes":{
						"POSITION":0,
						"NORMAL":1
					},
					"indices":2,
					"material":0
				},
				{
					"attributes":{
						"POSITION":3,
						"NORMAL":4
					},
					"indices":5,
					"material":1
				},
				{
					"attributes":{
						"POSITION":6,
						"NORMAL":7
					},
					"indices":8,
					"material":2
				},
				{
					"attributes":{
						"POSITION":9,
						"NORMAL":10
					},
					"indices":11,
					"material":3
				},
				{
					"attributes":{
						"POSITION":12,
						"NORMAL":13
					},
					"indices":14,
					"material":4
				},
				{
					"attributes":{
						"POSITION":15,
						"NORMAL":16
					},
					"indices":17,
					"material":5
				}
			]
		}
	],
	"accessors":[
		{
			"bufferView":0,
			"componentType":5126,
			"count":5040,
			"max":[
				11,
				16,
				-2
			],
			"min":[
				0,
				1,
				-4
			],
			"type":"VEC3"
		},
		{
			"bufferView":1,
			"componentType":5126,
			"count":5040,
			"type":"VEC3"
		},
		{
			"bufferView":2,
			"componentType":5123,
			"count":7560,
			"type":"SCALAR"
		},
		{
			"bufferView":3,
			"componentType":5126,
			"count":1008,
			"max":[
				11,
				16,
				-1
			],
			"min":[
				0,
				3,
				-5
			],
			"type":"VEC3"
		},
		{
			"bufferView":4,
			"componentType":5126,
			"count":1008,
			"type":"VEC3"
		},
		{
			"bufferView":5,
			"componentType":5123,
			"count":1512,
			"type":"SCALAR"
		},
		{
			"bufferView":6,
			"componentType":5126,
			"count":912,
			"max":[
				11,
				16,
				-1
			],
			"min":[
				0,
				1,
				-5
			],
			"type":"VEC3"
		},
		{
			"bufferView":7,
			"componentType":5126,
			"count":912,
			"type":"VEC3"
		},
		{
			"bufferView":8,
			"componentType":5123,
			"count":1368,
			"type":"SCALAR"
		},
		{
			"bufferView":9,
			"componentType":5126,
			"count":1200,
			"max":[
				11,
				16,
				-2
			],
			"min":[
				0,
				1,
				-4
			],
			"type":"VEC3"
		},
		{
			"bufferView":10,
			"componentType":5126,
			"count":1200,
			"type":"VEC3"
		},
		{
			"bufferView":11,
			"componentType":5123,
			"count":1800,
			"type":"SCALAR"
		},
		{
			"bufferView":12,
			"componentType":5126,
			"count":1680,
			"max":[
				11,
				16,
				-2
			],
			"min":[
				1,
				1,
				-4
			],
			"type":"VEC3"
		},
		{
			"bufferView":13,
			"componentType":5126,
			"count":1680,
			"type":"VEC3"
		},
		{
			"bufferView":14,
			"componentType":5123,
			"count":2520,
			"type":"SCALAR"
		},
		{
			"bufferView":15,
			"componentType":5126,
			"count":576,
			"max":[
				10,
				16,
				-1
			],
			"min":[
				0,
				2,
				-5
			],
			"type":"VEC3"
		},
		{
			"bufferView":16,
			"componentType":5126,
			"count":576,
			"type":"VEC3"
		},
		{
			"bufferView":17,
			"componentType":5123,
			"count":864,
			"type":"SCALAR"
		}
	],
	"bufferViews":[
		{
			"buffer":0,
			"byteLength":60480,
			"byteOffset":0,
			"target":34962
		},
		{
			"buffer":0,
			"byteLength":60480,
			"byteOffset":60480,
			"target":34962
		},
		{
			"buffer":0,
			"byteLength":15120,
			"byteOffset":120960,
			"target":34963
		},
		{
			"buffer":0,
			"byteLength":12096,
			"byteOffset":136080,
			"target":34962
		},
		{
			"buffer":0,
			"byteLength":12096,
			"byteOffset":148176,
			"target":34962
		},
		{
			"buffer":0,
			"byteLength":3024,
			"byteOffset":160272,
			"target":34963
		},
		{
			"buffer":0,
			"byteLength":10944,
			"byteOffset":163296,
			"target":34962
		},
		{
			"buffer":0,
			"byteLength":10944,
			"byteOffset":174240,
			"target":34962
		},
		{
			"buffer":0,
			"byteLength":2736,
			"byteOffset":185184,
			"target":34963
		},
		{
			"buffer":0,
			"byteLength":14400,
			"byteOffset":187920,
			"target":34962
		},
		{
			"buffer":0,
			"byteLength":14400,
			"byteOffset":202320,
			"target":34962
		},
		{
			"buffer":0,
			"byteLength":3600,
			"byteOffset":216720,
			"target":34963
		},
		{
			"buffer":0,
			"byteLength":20160,
			"byteOffset":220320,
			"target":34962
		},
		{
			"buffer":0,
			"byteLength":20160,
			"byteOffset":240480,
			"target":34962
		},
		{
			"buffer":0,
			"byteLength":5040,
			"byteOffset":260640,
			"target":34963
		},
		{
			"buffer":0,
			"byteLength":6912,
			"byteOffset":265680,
			"target":34962
		},
		{
			"buffer":0,
			"byteLength":6912,
			"byteOffset":272592,
			"target":34962
		},
		{
			"buffer":0,
			"byteLength":1728,
			"byteOffset":279504,
			"target":34963
		}
	],
	"buffers":[
		{
			"byteLength":281232,
			"uri":"VILL_H_CNR_R.bin"
		}
	]
}
