{
	"asset":{
		"generator":"Khronos glTF Blender I/O v5.0.21",
		"version":"2.0"
	},
	"extensionsUsed":[
		"KHR_materials_specular"
	],
	"scene":0,
	"scenes":[
		{
			"name":"Scene",
			"nodes":[
				0
			]
		}
	],
	"nodes":[
		{
			"mesh":0,
			"name":"VILL_H_W_V2",
			"rotation":[
				0.7071068286895752,
				0,
				0,
				0.7071068286895752
			]
		}
	],
	"materials":[
		{
			"doubleSided":true,
			"extensions":{
				"KHR_materials_specular":{
					"specularFactor":0
				}
			},
			"name":"mat_195_154_118",
			"pbrMetallicRoughness":{
				"baseColorFactor":[
					0.7649999856948853,
					0.6039999723434448,
					0.46299999952316284,
					1
				],
				"metallicFactor":0
			}
		},
		{
			"doubleSided":true,
			"extensions":{
				"KHR_materials_specular":{
					"specularFactor":0
				}
			},
			"name":"mat_178_141_108",
			"pbrMetallicRoughness":{
				"baseColorFactor":[
					0.6980000138282776,
					0.5529999732971191,
					0.42399999499320984,
					1
				],
				"metallicFactor":0
			}
		},
		{
			"doubleSided":true,
			"extensions":{
				"KHR_materials_specular":{
					"specularFactor":0
				}
			},
			"name":"mat_152_122_95",
			"pbrMetallicRoughness":{
				"baseColorFactor":[
					0.5960000157356262,
					0.4779999852180481,
					0.37299999594688416,
					1
				],
				"metallicFactor":0
			}
		},
		{
			"doubleSided":true,
			"extensions":{
				"KHR_materials_specular":{
					"specularFactor":0
				}
			},
			"name":"mat_77_41_26",
			"pbrMetallicRoughness":{
				"baseColorFactor":[
					0.3019999861717224,
					0.16099999845027924,
					0.10199999809265137,
					1
				],
				"metallicFactor":0
			}
		},
		{
			"doubleSided":true,
			"extensions":{
				"KHR_materials_specular":{
					"specularFactor":0
				}
			},
			"name":"mat_109_58_37",
			"pbrMetallicRoughness":{
				"baseColorFactor":[
					0.4269999861717224,
					0.22699999809265137,
					0.14499999582767487,
					1
				],
				"metallicFactor":0
			}
		},
		{
			"doubleSided":true,
			"extensions":{
				"KHR_materials_specular":{
					"specularFactor":0
				}
			},
			"name":"mat_57_31_20",
			"pbrMetallicRoughness":{
				"baseColorFactor":[
					0.2240000069141388,
					0.12200000137090683,
					0.07800000160932541,
					1
				],
				"metallicFactor":0
			}
		}
	],
	"meshes":[
		{
			"name":"VILL_H_W_V2",
			"primitives":[
				{
					"attributes":{
						"POSITION":0,
						"NORMAL":1
					},
					"indices":2,
					"material":0
				},
				{
					"attributes":{
						"POSITION":3,
						"NORMAL":4
					},
					"indices":5,
					"material":1
				},
				{
					"attributes":{
						"POSITION":6,
						"NORMAL":7
					},
					"indices":8,
					"material":2
				},
				{
					"attributes":{
						"POSITION":9,
						"NORMAL":10
					},
					"indices":11,
					"material":3
				},
				{
					"attributes":{
						"POSITION":12,
						"NORMAL":13
					},
					"indices":14,
					"material":4
				},
				{
					"attributes":{
						"POSITION":15,
						"NORMAL":16
					},
					"indices":17,
					"material":5
				}
			]
		}
	],
	"accessors":[
		{
			"bufferView":0,
			"componentType":5126,
			"count":2640,
			"max":[
				15,
				16,
				-2
			],
			"min":[
				1,
				0,
				-4
			],
			"type":"VEC3"
		},
		{
			"bufferView":1,
			"componentType":5126,
			"count":2640,
			"type":"VEC3"
		},
		{
			"bufferView":2,
			"componentType":5123,
			"count":3960,
			"type":"SCALAR"
		},
		{
			"bufferView":3,
			"componentType":5126,
			"count":6384,
			"max":[
				15,
				16,
				-2
			],
			"min":[
				1,
				0,
				-4
			],
			"type":"VEC3"
		},
		{
			"bufferView":4,
			"componentType":5126,
			"count":6384,
			"type":"VEC3"
		},
		{
			"bufferView":5,
			"componentType":5123,
			"count":9576,
			"type":"SCALAR"
		},
		{
			"bufferView":6,
			"componentType":5126,
			"count":1728,
			"max":[
				15,
				16,
				-2
			],
			"min":[
				1,
				0,
				-4
			],
			"type":"VEC3"
		},
		{
			"bufferView":7,
			"componentType":5126,
			"count":1728,
			"type":"VEC3"
		},
		{
			"bufferView":8,
			"componentType":5123,
			"count":2592,
			"type":"SCALAR"
		},
		{
			"bufferView":9,
			"componentType":5126,
			"count":3384,
			"max":[
				16,
				16,
				-1
			],
			"min":[
				0,
				0,
				-5
			],
			"type":"VEC3"
		},
		{
			"bufferView":10,
			"componentType":5126,
			"count":3384,
			"type":"VEC3"
		},
		{
			"bufferView":11,
			"componentType":5123,
			"count":5076,
			"type":"SCALAR"
		},
		{
			"bufferView":12,
			"componentType":5126,
			"count":2664,
			"max":[
				16,
				16,
				-1
			],
			"min":[
				0,
				0,
				-5
			],
			"type":"VEC3"
		},
		{
			"bufferView":13,
			"componentType":5126,
			"count":2664,
			"type":"VEC3"
		},
		{
			"bufferView":14,
			"componentType":5123,
			"count":3996,
			"type":"SCALAR"
		},
		{
			"bufferView":15,
			"componentType":5126,
			"count":1344,
			"max":[
				16,
				16,
				-1
			],
			"min":[
				0,
				0,
				-5
			],
			"type":"VEC3"
		},
		{
			"bufferView":16,
			"componentType":5126,
			"count":1344,
			"type":"VEC3"
		},
		{
			"bufferView":17,
			"componentType":5123,
			"count":2016,
			"type":"SCALAR"
		}
	],
	"bufferViews":[
		{
			"buffer":0,
			"byteLength":31680,
			"byteOffset":0,
			"target":34962
		},
		{
			"buffer":0,
			"byteLength":31680,
			"byteOffset":31680,
			"target":34962
		},
		{
			"buffer":0,
			"byteLength":7920,
			"byteOffset":63360,
			"target":34963
		},
		{
			"buffer":0,
			"byteLength":76608,
			"byteOffset":71280,
			"target":34962
		},
		{
			"buffer":0,
			"byteLength":76608,
			"byteOffset":147888,
			"target":34962
		},
		{
			"buffer":0,
			"byteLength":19152,
			"byteOffset":224496,
			"target":34963
		},
		{
			"buffer":0,
			"byteLength":20736,
			"byteOffset":243648,
			"target":34962
		},
		{
			"buffer":0,
			"byteLength":20736,
			"byteOffset":264384,
			"target":34962
		},
		{
			"buffer":0,
			"byteLength":5184,
			"byteOffset":285120,
			"target":34963
		},
		{
			"buffer":0,
			"byteLength":40608,
			"byteOffset":290304,
			"target":34962
		},
		{
			"buffer":0,
			"byteLength":40608,
			"byteOffset":330912,
			"target":34962
		},
		{
			"buffer":0,
			"byteLength":10152,
			"byteOffset":371520,
			"target":34963
		},
		{
			"buffer":0,
			"byteLength":31968,
			"byteOffset":381672,
			"target":34962
		},
		{
			"buffer":0,
			"byteLength":31968,
			"byteOffset":413640,
			"target":34962
		},
		{
			"buffer":0,
			"byteLength":7992,
			"byteOffset":445608,
			"target":34963
		},
		{
			"buffer":0,
			"byteLength":16128,
			"byteOffset":453600,
			"target":34962
		},
		{
			"buffer":0,
			"byteLength":16128,
			"byteOffset":469728,
			"target":34962
		},
		{
			"buffer":0,
			"byteLength":4032,
			"byteOffset":485856,
			"target":34963
		}
	],
	"buffers":[
		{
			"byteLength":489888,
			"uri":"VILL_H_W_V2.bin"
		}
	]
}
