{
	"asset":{
		"generator":"Khronos glTF Blender I/O v5.0.21",
		"version":"2.0"
	},
	"extensionsUsed":[
		"KHR_materials_specular"
	],
	"scene":0,
	"scenes":[
		{
			"name":"Scene",
			"nodes":[
				0
			]
		}
	],
	"nodes":[
		{
			"mesh":0,
			"name":"Banner",
			"rotation":[
				0.7071068286895752,
				0,
				0,
				0.7071068286895752
			]
		}
	],
	"materials":[
		{
			"doubleSided":true,
			"extensions":{
				"KHR_materials_specular":{
					"specularFactor":0
				}
			},
			"name":"mat_106_106_128",
			"pbrMetallicRoughness":{
				"baseColorFactor":[
					0.41600000858306885,
					0.41600000858306885,
					0.5019999742507935,
					1
				],
				"metallicFactor":0
			}
		},
		{
			"doubleSided":true,
			"extensions":{
				"KHR_materials_specular":{
					"specularFactor":0
				}
			},
			"name":"mat_25_24_36",
			"pbrMetallicRoughness":{
				"baseColorFactor":[
					0.09799999743700027,
					0.09399999678134918,
					0.14100000262260437,
					1
				],
				"metallicFactor":0
			}
		},
		{
			"doubleSided":true,
			"extensions":{
				"KHR_materials_specular":{
					"specularFactor":0
				}
			},
			"name":"mat_180_111_77",
			"pbrMetallicRoughness":{
				"baseColorFactor":[
					0.7059999704360962,
					0.4350000023841858,
					0.3019999861717224,
					1
				],
				"metallicFactor":0
			}
		},
		{
			"doubleSided":true,
			"extensions":{
				"KHR_materials_specular":{
					"specularFactor":0
				}
			},
			"name":"mat_159_98_68",
			"pbrMetallicRoughness":{
				"baseColorFactor":[
					0.6240000128746033,
					0.3840000033378601,
					0.2669999897480011,
					1
				],
				"metallicFactor":0
			}
		},
		{
			"doubleSided":true,
			"extensions":{
				"KHR_materials_specular":{
					"specularFactor":0
				}
			},
			"name":"mat_179_107_71",
			"pbrMetallicRoughness":{
				"baseColorFactor":[
					0.7020000219345093,
					0.41999998688697815,
					0.27799999713897705,
					1
				],
				"metallicFactor":0
			}
		}
	],
	"meshes":[
		{
			"name":"Banner",
			"primitives":[
				{
					"attributes":{
						"POSITION":0,
						"NORMAL":1
					},
					"indices":2,
					"material":0
				},
				{
					"attributes":{
						"POSITION":3,
						"NORMAL":4
					},
					"indices":5,
					"material":1
				},
				{
					"attributes":{
						"POSITION":6,
						"NORMAL":7
					},
					"indices":8,
					"material":2
				},
				{
					"attributes":{
						"POSITION":9,
						"NORMAL":10
					},
					"indices":11,
					"material":3
				},
				{
					"attributes":{
						"POSITION":12,
						"NORMAL":13
					},
					"indices":14,
					"material":4
				}
			]
		}
	],
	"accessors":[
		{
			"bufferView":0,
			"componentType":5126,
			"count":480,
			"max":[
				23,
				40,
				-1
			],
			"min":[
				8,
				35,
				-5
			],
			"type":"VEC3"
		},
		{
			"bufferView":1,
			"componentType":5126,
			"count":480,
			"type":"VEC3"
		},
		{
			"bufferView":2,
			"componentType":5123,
			"count":720,
			"type":"SCALAR"
		},
		{
			"bufferView":3,
			"componentType":5126,
			"count":5520,
			"max":[
				23,
				35,
				-2
			],
			"min":[
				8,
				14,
				-3
			],
			"type":"VEC3"
		},
		{
			"bufferView":4,
			"componentType":5126,
			"count":5520,
			"type":"VEC3"
		},
		{
			"bufferView":5,
			"componentType":5123,
			"count":8280,
			"type":"SCALAR"
		},
		{
			"bufferView":6,
			"componentType":5126,
			"count":7128,
			"max":[
				22,
				33,
				-1
			],
			"min":[
				9,
				16,
				-4
			],
			"type":"VEC3"
		},
		{
			"bufferView":7,
			"componentType":5126,
			"count":7128,
			"type":"VEC3"
		},
		{
			"bufferView":8,
			"componentType":5123,
			"count":10692,
			"type":"SCALAR"
		},
		{
			"bufferView":9,
			"componentType":5126,
			"count":1056,
			"max":[
				22,
				34,
				-1
			],
			"min":[
				9,
				15,
				-4
			],
			"type":"VEC3"
		},
		{
			"bufferView":10,
			"componentType":5126,
			"count":1056,
			"type":"VEC3"
		},
		{
			"bufferView":11,
			"componentType":5123,
			"count":1584,
			"type":"SCALAR"
		},
		{
			"bufferView":12,
			"componentType":5126,
			"count":360,
			"max":[
				22,
				32,
				-1
			],
			"min":[
				9,
				17,
				-4
			],
			"type":"VEC3"
		},
		{
			"bufferView":13,
			"componentType":5126,
			"count":360,
			"type":"VEC3"
		},
		{
			"bufferView":14,
			"componentType":5123,
			"count":540,
			"type":"SCALAR"
		}
	],
	"bufferViews":[
		{
			"buffer":0,
			"byteLength":5760,
			"byteOffset":0,
			"target":34962
		},
		{
			"buffer":0,
			"byteLength":5760,
			"byteOffset":5760,
			"target":34962
		},
		{
			"buffer":0,
			"byteLength":1440,
			"byteOffset":11520,
			"target":34963
		},
		{
			"buffer":0,
			"byteLength":66240,
			"byteOffset":12960,
			"target":34962
		},
		{
			"buffer":0,
			"byteLength":66240,
			"byteOffset":79200,
			"target":34962
		},
		{
			"buffer":0,
			"byteLength":16560,
			"byteOffset":145440,
			"target":34963
		},
		{
			"buffer":0,
			"byteLength":85536,
			"byteOffset":162000,
			"target":34962
		},
		{
			"buffer":0,
			"byteLength":85536,
			"byteOffset":247536,
			"target":34962
		},
		{
			"buffer":0,
			"byteLength":21384,
			"byteOffset":333072,
			"target":34963
		},
		{
			"buffer":0,
			"byteLength":12672,
			"byteOffset":354456,
			"target":34962
		},
		{
			"buffer":0,
			"byteLength":12672,
			"byteOffset":367128,
			"target":34962
		},
		{
			"buffer":0,
			"byteLength":3168,
			"byteOffset":379800,
			"target":34963
		},
		{
			"buffer":0,
			"byteLength":4320,
			"byteOffset":382968,
			"target":34962
		},
		{
			"buffer":0,
			"byteLength":4320,
			"byteOffset":387288,
			"target":34962
		},
		{
			"buffer":0,
			"byteLength":1080,
			"byteOffset":391608,
			"target":34963
		}
	],
	"buffers":[
		{
			"byteLength":392688,
			"uri":"Banner.bin"
		}
	]
}
