{
	"asset":{
		"generator":"Khronos glTF Blender I/O v5.0.21",
		"version":"2.0"
	},
	"extensionsUsed":[
		"KHR_materials_specular"
	],
	"scene":0,
	"scenes":[
		{
			"name":"Scene",
			"nodes":[
				0
			]
		}
	],
	"nodes":[
		{
			"mesh":0,
			"name":"Barrel",
			"rotation":[
				0.7071068286895752,
				0,
				0,
				0.7071068286895752
			]
		}
	],
	"materials":[
		{
			"doubleSided":true,
			"extensions":{
				"KHR_materials_specular":{
					"specularFactor":0
				}
			},
			"name":"mat_77_41_26",
			"pbrMetallicRoughness":{
				"baseColorFactor":[
					0.3019999861717224,
					0.16099999845027924,
					0.10199999809265137,
					1
				],
				"metallicFactor":0
			}
		},
		{
			"doubleSided":true,
			"extensions":{
				"KHR_materials_specular":{
					"specularFactor":0
				}
			},
			"name":"mat_107_57_36",
			"pbrMetallicRoughness":{
				"baseColorFactor":[
					0.41999998688697815,
					0.2240000069141388,
					0.14100000262260437,
					1
				],
				"metallicFactor":0
			}
		},
		{
			"doubleSided":true,
			"extensions":{
				"KHR_materials_specular":{
					"specularFactor":0
				}
			},
			"name":"mat_59_36_27",
			"pbrMetallicRoughness":{
				"baseColorFactor":[
					0.23100000619888306,
					0.14100000262260437,
					0.10599999874830246,
					1
				],
				"metallicFactor":0
			}
		},
		{
			"doubleSided":true,
			"extensions":{
				"KHR_materials_specular":{
					"specularFactor":0
				}
			},
			"name":"mat_74_48_36",
			"pbrMetallicRoughness":{
				"baseColorFactor":[
					0.28999999165534973,
					0.18799999356269836,
					0.14100000262260437,
					1
				],
				"metallicFactor":0
			}
		},
		{
			"doubleSided":true,
			"extensions":{
				"KHR_materials_specular":{
					"specularFactor":0
				}
			},
			"name":"mat_93_48_29",
			"pbrMetallicRoughness":{
				"baseColorFactor":[
					0.36500000953674316,
					0.18799999356269836,
					0.11400000005960464,
					1
				],
				"metallicFactor":0
			}
		},
		{
			"doubleSided":true,
			"extensions":{
				"KHR_materials_specular":{
					"specularFactor":0
				}
			},
			"name":"mat_91_46_27",
			"pbrMetallicRoughness":{
				"baseColorFactor":[
					0.3569999933242798,
					0.18000000715255737,
					0.10599999874830246,
					1
				],
				"metallicFactor":0
			}
		},
		{
			"doubleSided":true,
			"extensions":{
				"KHR_materials_specular":{
					"specularFactor":0
				}
			},
			"name":"mat_106_106_109",
			"pbrMetallicRoughness":{
				"baseColorFactor":[
					0.41600000858306885,
					0.41600000858306885,
					0.4269999861717224,
					1
				],
				"metallicFactor":0
			}
		},
		{
			"doubleSided":true,
			"extensions":{
				"KHR_materials_specular":{
					"specularFactor":0
				}
			},
			"name":"mat_115_115_118",
			"pbrMetallicRoughness":{
				"baseColorFactor":[
					0.45100000500679016,
					0.45100000500679016,
					0.46299999952316284,
					1
				],
				"metallicFactor":0
			}
		},
		{
			"doubleSided":true,
			"extensions":{
				"KHR_materials_specular":{
					"specularFactor":0
				}
			},
			"name":"mat_101_101_107",
			"pbrMetallicRoughness":{
				"baseColorFactor":[
					0.3959999978542328,
					0.3959999978542328,
					0.41999998688697815,
					1
				],
				"metallicFactor":0
			}
		},
		{
			"doubleSided":true,
			"extensions":{
				"KHR_materials_specular":{
					"specularFactor":0
				}
			},
			"name":"mat_71_37_22",
			"pbrMetallicRoughness":{
				"baseColorFactor":[
					0.27799999713897705,
					0.14499999582767487,
					0.0860000029206276,
					1
				],
				"metallicFactor":0
			}
		},
		{
			"doubleSided":true,
			"extensions":{
				"KHR_materials_specular":{
					"specularFactor":0
				}
			},
			"name":"mat_97_51_32",
			"pbrMetallicRoughness":{
				"baseColorFactor":[
					0.3799999952316284,
					0.20000000298023224,
					0.125,
					1
				],
				"metallicFactor":0
			}
		}
	],
	"meshes":[
		{
			"name":"Barrel",
			"primitives":[
				{
					"attributes":{
						"POSITION":0,
						"NORMAL":1
					},
					"indices":2,
					"material":0
				},
				{
					"attributes":{
						"POSITION":3,
						"NORMAL":4
					},
					"indices":5,
					"material":1
				},
				{
					"attributes":{
						"POSITION":6,
						"NORMAL":7
					},
					"indices":8,
					"material":2
				},
				{
					"attributes":{
						"POSITION":9,
						"NORMAL":10
					},
					"indices":8,
					"material":3
				},
				{
					"attributes":{
						"POSITION":11,
						"NORMAL":12
					},
					"indices":13,
					"material":4
				},
				{
					"attributes":{
						"POSITION":14,
						"NORMAL":15
					},
					"indices":16,
					"material":5
				},
				{
					"attributes":{
						"POSITION":17,
						"NORMAL":18
					},
					"indices":19,
					"material":6
				},
				{
					"attributes":{
						"POSITION":20,
						"NORMAL":21
					},
					"indices":22,
					"material":7
				},
				{
					"attributes":{
						"POSITION":23,
						"NORMAL":24
					},
					"indices":25,
					"material":8
				},
				{
					"attributes":{
						"POSITION":26,
						"NORMAL":27
					},
					"indices":28,
					"material":9
				},
				{
					"attributes":{
						"POSITION":29,
						"NORMAL":30
					},
					"indices":31,
					"material":10
				}
			]
		}
	],
	"accessors":[
		{
			"bufferView":0,
			"componentType":5126,
			"count":40368,
			"max":[
				23,
				19,
				-9
			],
			"min":[
				9,
				1,
				-23
			],
			"type":"VEC3"
		},
		{
			"bufferView":1,
			"componentType":5126,
			"count":40368,
			"type":"VEC3"
		},
		{
			"bufferView":2,
			"componentType":5123,
			"count":60552,
			"type":"SCALAR"
		},
		{
			"bufferView":3,
			"componentType":5126,
			"count":1128,
			"max":[
				23,
				18,
				-9
			],
			"min":[
				9,
				2,
				-23
			],
			"type":"VEC3"
		},
		{
			"bufferView":4,
			"componentType":5126,
			"count":1128,
			"type":"VEC3"
		},
		{
			"bufferView":5,
			"componentType":5123,
			"count":1692,
			"type":"SCALAR"
		},
		{
			"bufferView":6,
			"componentType":5126,
			"count":1560,
			"max":[
				21,
				18,
				-10
			],
			"min":[
				11,
				2,
				-22
			],
			"type":"VEC3"
		},
		{
			"bufferView":7,
			"componentType":5126,
			"count":1560,
			"type":"VEC3"
		},
		{
			"bufferView":8,
			"componentType":5123,
			"count":2340,
			"type":"SCALAR"
		},
		{
			"bufferView":9,
			"componentType":5126,
			"count":1560,
			"max":[
				23,
				18,
				-9
			],
			"min":[
				9,
				2,
				-23
			],
			"type":"VEC3"
		},
		{
			"bufferView":10,
			"componentType":5126,
			"count":1560,
			"type":"VEC3"
		},
		{
			"bufferView":11,
			"componentType":5126,
			"count":984,
			"max":[
				23,
				18,
				-9
			],
			"min":[
				9,
				2,
				-23
			],
			"type":"VEC3"
		},
		{
			"bufferView":12,
			"componentType":5126,
			"count":984,
			"type":"VEC3"
		},
		{
			"bufferView":13,
			"componentType":5123,
			"count":1476,
			"type":"SCALAR"
		},
		{
			"bufferView":14,
			"componentType":5126,
			"count":216,
			"max":[
				16,
				14,
				-9
			],
			"min":[
				9,
				2,
				-22
			],
			"type":"VEC3"
		},
		{
			"bufferView":15,
			"componentType":5126,
			"count":216,
			"type":"VEC3"
		},
		{
			"bufferView":16,
			"componentType":5123,
			"count":324,
			"type":"SCALAR"
		},
		{
			"bufferView":17,
			"componentType":5126,
			"count":3696,
			"max":[
				23,
				20,
				-9
			],
			"min":[
				9,
				0,
				-23
			],
			"type":"VEC3"
		},
		{
			"bufferView":18,
			"componentType":5126,
			"count":3696,
			"type":"VEC3"
		},
		{
			"bufferView":19,
			"componentType":5123,
			"count":5544,
			"type":"SCALAR"
		},
		{
			"bufferView":20,
			"componentType":5126,
			"count":14088,
			"max":[
				23,
				20,
				-9
			],
			"min":[
				9,
				0,
				-23
			],
			"type":"VEC3"
		},
		{
			"bufferView":21,
			"componentType":5126,
			"count":14088,
			"type":"VEC3"
		},
		{
			"bufferView":22,
			"componentType":5123,
			"count":21132,
			"type":"SCALAR"
		},
		{
			"bufferView":23,
			"componentType":5126,
			"count":288,
			"max":[
				23,
				19,
				-9
			],
			"min":[
				9,
				1,
				-23
			],
			"type":"VEC3"
		},
		{
			"bufferView":24,
			"componentType":5126,
			"count":288,
			"type":"VEC3"
		},
		{
			"bufferView":25,
			"componentType":5123,
			"count":432,
			"type":"SCALAR"
		},
		{
			"bufferView":26,
			"componentType":5126,
			"count":1200,
			"max":[
				21,
				19,
				-11
			],
			"min":[
				11,
				1,
				-21
			],
			"type":"VEC3"
		},
		{
			"bufferView":27,
			"componentType":5126,
			"count":1200,
			"type":"VEC3"
		},
		{
			"bufferView":28,
			"componentType":5123,
			"count":1800,
			"type":"SCALAR"
		},
		{
			"bufferView":29,
			"componentType":5126,
			"count":960,
			"max":[
				20,
				19,
				-12
			],
			"min":[
				11,
				1,
				-20
			],
			"type":"VEC3"
		},
		{
			"bufferView":30,
			"componentType":5126,
			"count":960,
			"type":"VEC3"
		},
		{
			"bufferView":31,
			"componentType":5123,
			"count":1440,
			"type":"SCALAR"
		}
	],
	"bufferViews":[
		{
			"buffer":0,
			"byteLength":484416,
			"byteOffset":0,
			"target":34962
		},
		{
			"buffer":0,
			"byteLength":484416,
			"byteOffset":484416,
			"target":34962
		},
		{
			"buffer":0,
			"byteLength":121104,
			"byteOffset":968832,
			"target":34963
		},
		{
			"buffer":0,
			"byteLength":13536,
			"byteOffset":1089936,
			"target":34962
		},
		{
			"buffer":0,
			"byteLength":13536,
			"byteOffset":1103472,
			"target":34962
		},
		{
			"buffer":0,
			"byteLength":3384,
			"byteOffset":1117008,
			"target":34963
		},
		{
			"buffer":0,
			"byteLength":18720,
			"byteOffset":1120392,
			"target":34962
		},
		{
			"buffer":0,
			"byteLength":18720,
			"byteOffset":1139112,
			"target":34962
		},
		{
			"buffer":0,
			"byteLength":4680,
			"byteOffset":1157832,
			"target":34963
		},
		{
			"buffer":0,
			"byteLength":18720,
			"byteOffset":1162512,
			"target":34962
		},
		{
			"buffer":0,
			"byteLength":18720,
			"byteOffset":1181232,
			"target":34962
		},
		{
			"buffer":0,
			"byteLength":11808,
			"byteOffset":1199952,
			"target":34962
		},
		{
			"buffer":0,
			"byteLength":11808,
			"byteOffset":1211760,
			"target":34962
		},
		{
			"buffer":0,
			"byteLength":2952,
			"byteOffset":1223568,
			"target":34963
		},
		{
			"buffer":0,
			"byteLength":2592,
			"byteOffset":1226520,
			"target":34962
		},
		{
			"buffer":0,
			"byteLength":2592,
			"byteOffset":1229112,
			"target":34962
		},
		{
			"buffer":0,
			"byteLength":648,
			"byteOffset":1231704,
			"target":34963
		},
		{
			"buffer":0,
			"byteLength":44352,
			"byteOffset":1232352,
			"target":34962
		},
		{
			"buffer":0,
			"byteLength":44352,
			"byteOffset":1276704,
			"target":34962
		},
		{
			"buffer":0,
			"byteLength":11088,
			"byteOffset":1321056,
			"target":34963
		},
		{
			"buffer":0,
			"byteLength":169056,
			"byteOffset":1332144,
			"target":34962
		},
		{
			"buffer":0,
			"byteLength":169056,
			"byteOffset":1501200,
			"target":34962
		},
		{
			"buffer":0,
			"byteLength":42264,
			"byteOffset":1670256,
			"target":34963
		},
		{
			"buffer":0,
			"byteLength":3456,
			"byteOffset":1712520,
			"target":34962
		},
		{
			"buffer":0,
			"byteLength":3456,
			"byteOffset":1715976,
			"target":34962
		},
		{
			"buffer":0,
			"byteLength":864,
			"byteOffset":1719432,
			"target":34963
		},
		{
			"buffer":0,
			"byteLength":14400,
			"byteOffset":1720296,
			"target":34962
		},
		{
			"buffer":0,
			"byteLength":14400,
			"byteOffset":1734696,
			"target":34962
		},
		{
			"buffer":0,
			"byteLength":3600,
			"byteOffset":1749096,
			"target":34963
		},
		{
			"buffer":0,
			"byteLength":11520,
			"byteOffset":1752696,
			"target":34962
		},
		{
			"buffer":0,
			"byteLength":11520,
			"byteOffset":1764216,
			"target":34962
		},
		{
			"buffer":0,
			"byteLength":2880,
			"byteOffset":1775736,
			"target":34963
		}
	],
	"buffers":[
		{
			"byteLength":1778616,
			"uri":"Barrel.bin"
		}
	]
}
