{
	"asset":{
		"generator":"Khronos glTF Blender I/O v5.0.21",
		"version":"2.0"
	},
	"extensionsUsed":[
		"KHR_materials_specular"
	],
	"scene":0,
	"scenes":[
		{
			"name":"Scene",
			"nodes":[
				0
			]
		}
	],
	"nodes":[
		{
			"mesh":0,
			"name":"Blacksmith_Sign",
			"rotation":[
				0.7071068286895752,
				0,
				0,
				0.7071068286895752
			]
		}
	],
	"materials":[
		{
			"doubleSided":true,
			"extensions":{
				"KHR_materials_specular":{
					"specularFactor":0
				}
			},
			"name":"mat_25_24_36",
			"pbrMetallicRoughness":{
				"baseColorFactor":[
					0.09799999743700027,
					0.09399999678134918,
					0.14100000262260437,
					1
				],
				"metallicFactor":0
			}
		},
		{
			"doubleSided":true,
			"extensions":{
				"KHR_materials_specular":{
					"specularFactor":0
				}
			},
			"name":"mat_140_95_77",
			"pbrMetallicRoughness":{
				"baseColorFactor":[
					0.5490000247955322,
					0.37299999594688416,
					0.3019999861717224,
					1
				],
				"metallicFactor":0
			}
		},
		{
			"doubleSided":true,
			"extensions":{
				"KHR_materials_specular":{
					"specularFactor":0
				}
			},
			"name":"mat_179_32_42",
			"pbrMetallicRoughness":{
				"baseColorFactor":[
					0.7020000219345093,
					0.125,
					0.16500000655651093,
					1
				],
				"metallicFactor":0
			}
		},
		{
			"doubleSided":true,
			"extensions":{
				"KHR_materials_specular":{
					"specularFactor":0
				}
			},
			"name":"mat_70_39_27",
			"pbrMetallicRoughness":{
				"baseColorFactor":[
					0.2750000059604645,
					0.15299999713897705,
					0.10599999874830246,
					1
				],
				"metallicFactor":0
			}
		},
		{
			"doubleSided":true,
			"extensions":{
				"KHR_materials_specular":{
					"specularFactor":0
				}
			},
			"name":"mat_190_156_1",
			"pbrMetallicRoughness":{
				"baseColorFactor":[
					0.7450000047683716,
					0.6119999885559082,
					0.004000000189989805,
					1
				],
				"metallicFactor":0
			}
		},
		{
			"doubleSided":true,
			"extensions":{
				"KHR_materials_specular":{
					"specularFactor":0
				}
			},
			"name":"mat_190_64_15",
			"pbrMetallicRoughness":{
				"baseColorFactor":[
					0.7450000047683716,
					0.25099998712539673,
					0.05900000035762787,
					1
				],
				"metallicFactor":0
			}
		},
		{
			"doubleSided":true,
			"extensions":{
				"KHR_materials_specular":{
					"specularFactor":0
				}
			},
			"name":"mat_50_32_25",
			"pbrMetallicRoughness":{
				"baseColorFactor":[
					0.19599999487400055,
					0.125,
					0.09799999743700027,
					1
				],
				"metallicFactor":0
			}
		},
		{
			"doubleSided":true,
			"extensions":{
				"KHR_materials_specular":{
					"specularFactor":0
				}
			},
			"name":"mat_156_19_28",
			"pbrMetallicRoughness":{
				"baseColorFactor":[
					0.6119999885559082,
					0.07500000298023224,
					0.10999999940395355,
					1
				],
				"metallicFactor":0
			}
		},
		{
			"doubleSided":true,
			"extensions":{
				"KHR_materials_specular":{
					"specularFactor":0
				}
			},
			"name":"mat_184_184_184",
			"pbrMetallicRoughness":{
				"baseColorFactor":[
					0.722000002861023,
					0.722000002861023,
					0.722000002861023,
					1
				],
				"metallicFactor":0
			}
		}
	],
	"meshes":[
		{
			"name":"Blacksmith_Sign",
			"primitives":[
				{
					"attributes":{
						"POSITION":0,
						"NORMAL":1
					},
					"indices":2,
					"material":0
				},
				{
					"attributes":{
						"POSITION":3,
						"NORMAL":4
					},
					"indices":5,
					"material":1
				},
				{
					"attributes":{
						"POSITION":6,
						"NORMAL":7
					},
					"indices":8,
					"material":2
				},
				{
					"attributes":{
						"POSITION":9,
						"NORMAL":10
					},
					"indices":11,
					"material":3
				},
				{
					"attributes":{
						"POSITION":12,
						"NORMAL":13
					},
					"indices":14,
					"material":4
				},
				{
					"attributes":{
						"POSITION":15,
						"NORMAL":16
					},
					"indices":17,
					"material":5
				},
				{
					"attributes":{
						"POSITION":18,
						"NORMAL":19
					},
					"indices":20,
					"material":6
				},
				{
					"attributes":{
						"POSITION":21,
						"NORMAL":22
					},
					"indices":23,
					"material":7
				},
				{
					"attributes":{
						"POSITION":24,
						"NORMAL":25
					},
					"indices":26,
					"material":8
				}
			]
		}
	],
	"accessors":[
		{
			"bufferView":0,
			"componentType":5126,
			"count":1968,
			"max":[
				4,
				28,
				-1
			],
			"min":[
				3,
				0,
				-16
			],
			"type":"VEC3"
		},
		{
			"bufferView":1,
			"componentType":5126,
			"count":1968,
			"type":"VEC3"
		},
		{
			"bufferView":2,
			"componentType":5123,
			"count":2952,
			"type":"SCALAR"
		},
		{
			"bufferView":3,
			"componentType":5126,
			"count":6456,
			"max":[
				5,
				27,
				-2
			],
			"min":[
				3,
				2,
				-15
			],
			"type":"VEC3"
		},
		{
			"bufferView":4,
			"componentType":5126,
			"count":6456,
			"type":"VEC3"
		},
		{
			"bufferView":5,
			"componentType":5123,
			"count":9684,
			"type":"SCALAR"
		},
		{
			"bufferView":6,
			"componentType":5126,
			"count":7008,
			"max":[
				5,
				24,
				-3
			],
			"min":[
				2,
				4,
				-14
			],
			"type":"VEC3"
		},
		{
			"bufferView":7,
			"componentType":5126,
			"count":7008,
			"type":"VEC3"
		},
		{
			"bufferView":8,
			"componentType":5123,
			"count":10512,
			"type":"SCALAR"
		},
		{
			"bufferView":9,
			"componentType":5126,
			"count":960,
			"max":[
				4,
				34,
				0
			],
			"min":[
				2,
				32,
				-24
			],
			"type":"VEC3"
		},
		{
			"bufferView":10,
			"componentType":5126,
			"count":960,
			"type":"VEC3"
		},
		{
			"bufferView":11,
			"componentType":5123,
			"count":1440,
			"type":"SCALAR"
		},
		{
			"bufferView":12,
			"componentType":5126,
			"count":3456,
			"max":[
				5,
				27,
				-2
			],
			"min":[
				2,
				2,
				-15
			],
			"type":"VEC3"
		},
		{
			"bufferView":13,
			"componentType":5126,
			"count":3456,
			"type":"VEC3"
		},
		{
			"bufferView":14,
			"componentType":5123,
			"count":5184,
			"type":"SCALAR"
		},
		{
			"bufferView":15,
			"componentType":5126,
			"count":1080,
			"max":[
				5,
				23,
				-3
			],
			"min":[
				2,
				4,
				-14
			],
			"type":"VEC3"
		},
		{
			"bufferView":16,
			"componentType":5126,
			"count":1080,
			"type":"VEC3"
		},
		{
			"bufferView":17,
			"componentType":5123,
			"count":1620,
			"type":"SCALAR"
		},
		{
			"bufferView":18,
			"componentType":5126,
			"count":1344,
			"max":[
				4,
				34,
				0
			],
			"min":[
				2,
				32,
				-24
			],
			"type":"VEC3"
		},
		{
			"bufferView":19,
			"componentType":5126,
			"count":1344,
			"type":"VEC3"
		},
		{
			"bufferView":20,
			"componentType":5123,
			"count":2016,
			"type":"SCALAR"
		},
		{
			"bufferView":21,
			"componentType":5126,
			"count":1320,
			"max":[
				5,
				25,
				-3
			],
			"min":[
				2,
				5,
				-14
			],
			"type":"VEC3"
		},
		{
			"bufferView":22,
			"componentType":5126,
			"count":1320,
			"type":"VEC3"
		},
		{
			"bufferView":23,
			"componentType":5123,
			"count":1980,
			"type":"SCALAR"
		},
		{
			"bufferView":24,
			"componentType":5126,
			"count":384,
			"max":[
				5,
				32,
				-1
			],
			"min":[
				1,
				28,
				-16
			],
			"type":"VEC3"
		},
		{
			"bufferView":25,
			"componentType":5126,
			"count":384,
			"type":"VEC3"
		},
		{
			"bufferView":26,
			"componentType":5123,
			"count":576,
			"type":"SCALAR"
		}
	],
	"bufferViews":[
		{
			"buffer":0,
			"byteLength":23616,
			"byteOffset":0,
			"target":34962
		},
		{
			"buffer":0,
			"byteLength":23616,
			"byteOffset":23616,
			"target":34962
		},
		{
			"buffer":0,
			"byteLength":5904,
			"byteOffset":47232,
			"target":34963
		},
		{
			"buffer":0,
			"byteLength":77472,
			"byteOffset":53136,
			"target":34962
		},
		{
			"buffer":0,
			"byteLength":77472,
			"byteOffset":130608,
			"target":34962
		},
		{
			"buffer":0,
			"byteLength":19368,
			"byteOffset":208080,
			"target":34963
		},
		{
			"buffer":0,
			"byteLength":84096,
			"byteOffset":227448,
			"target":34962
		},
		{
			"buffer":0,
			"byteLength":84096,
			"byteOffset":311544,
			"target":34962
		},
		{
			"buffer":0,
			"byteLength":21024,
			"byteOffset":395640,
			"target":34963
		},
		{
			"buffer":0,
			"byteLength":11520,
			"byteOffset":416664,
			"target":34962
		},
		{
			"buffer":0,
			"byteLength":11520,
			"byteOffset":428184,
			"target":34962
		},
		{
			"buffer":0,
			"byteLength":2880,
			"byteOffset":439704,
			"target":34963
		},
		{
			"buffer":0,
			"byteLength":41472,
			"byteOffset":442584,
			"target":34962
		},
		{
			"buffer":0,
			"byteLength":41472,
			"byteOffset":484056,
			"target":34962
		},
		{
			"buffer":0,
			"byteLength":10368,
			"byteOffset":525528,
			"target":34963
		},
		{
			"buffer":0,
			"byteLength":12960,
			"byteOffset":535896,
			"target":34962
		},
		{
			"buffer":0,
			"byteLength":12960,
			"byteOffset":548856,
			"target":34962
		},
		{
			"buffer":0,
			"byteLength":3240,
			"byteOffset":561816,
			"target":34963
		},
		{
			"buffer":0,
			"byteLength":16128,
			"byteOffset":565056,
			"target":34962
		},
		{
			"buffer":0,
			"byteLength":16128,
			"byteOffset":581184,
			"target":34962
		},
		{
			"buffer":0,
			"byteLength":4032,
			"byteOffset":597312,
			"target":34963
		},
		{
			"buffer":0,
			"byteLength":15840,
			"byteOffset":601344,
			"target":34962
		},
		{
			"buffer":0,
			"byteLength":15840,
			"byteOffset":617184,
			"target":34962
		},
		{
			"buffer":0,
			"byteLength":3960,
			"byteOffset":633024,
			"target":34963
		},
		{
			"buffer":0,
			"byteLength":4608,
			"byteOffset":636984,
			"target":34962
		},
		{
			"buffer":0,
			"byteLength":4608,
			"byteOffset":641592,
			"target":34962
		},
		{
			"buffer":0,
			"byteLength":1152,
			"byteOffset":646200,
			"target":34963
		}
	],
	"buffers":[
		{
			"byteLength":647352,
			"uri":"Blacksmith_Sign.bin"
		}
	]
}
