{
	"asset":{
		"generator":"Khronos glTF Blender I/O v5.0.21",
		"version":"2.0"
	},
	"extensionsUsed":[
		"KHR_materials_specular"
	],
	"scene":0,
	"scenes":[
		{
			"name":"Scene",
			"nodes":[
				0
			]
		}
	],
	"nodes":[
		{
			"mesh":0,
			"name":"book_open",
			"rotation":[
				0.7071068286895752,
				0,
				0,
				0.7071068286895752
			]
		}
	],
	"materials":[
		{
			"doubleSided":true,
			"extensions":{
				"KHR_materials_specular":{
					"specularFactor":0
				}
			},
			"name":"mat_188_188_188",
			"pbrMetallicRoughness":{
				"baseColorFactor":[
					0.7369999885559082,
					0.7369999885559082,
					0.7369999885559082,
					1
				],
				"metallicFactor":0
			}
		},
		{
			"doubleSided":true,
			"extensions":{
				"KHR_materials_specular":{
					"specularFactor":0
				}
			},
			"name":"mat_143_86_59",
			"pbrMetallicRoughness":{
				"baseColorFactor":[
					0.5609999895095825,
					0.3370000123977661,
					0.23100000619888306,
					1
				],
				"metallicFactor":0
			}
		},
		{
			"doubleSided":true,
			"extensions":{
				"KHR_materials_specular":{
					"specularFactor":0
				}
			},
			"name":"mat_171_171_171",
			"pbrMetallicRoughness":{
				"baseColorFactor":[
					0.6710000038146973,
					0.6710000038146973,
					0.6710000038146973,
					1
				],
				"metallicFactor":0
			}
		},
		{
			"doubleSided":true,
			"extensions":{
				"KHR_materials_specular":{
					"specularFactor":0
				}
			},
			"name":"mat_75_52_48",
			"pbrMetallicRoughness":{
				"baseColorFactor":[
					0.2939999997615814,
					0.20399999618530273,
					0.18799999356269836,
					1
				],
				"metallicFactor":0
			}
		},
		{
			"doubleSided":true,
			"extensions":{
				"KHR_materials_specular":{
					"specularFactor":0
				}
			},
			"name":"mat_102_57_49",
			"pbrMetallicRoughness":{
				"baseColorFactor":[
					0.4000000059604645,
					0.2240000069141388,
					0.19200000166893005,
					1
				],
				"metallicFactor":0
			}
		},
		{
			"doubleSided":true,
			"extensions":{
				"KHR_materials_specular":{
					"specularFactor":0
				}
			},
			"name":"mat_150_150_150",
			"pbrMetallicRoughness":{
				"baseColorFactor":[
					0.5879999995231628,
					0.5879999995231628,
					0.5879999995231628,
					1
				],
				"metallicFactor":0
			}
		},
		{
			"doubleSided":true,
			"extensions":{
				"KHR_materials_specular":{
					"specularFactor":0
				}
			},
			"name":"mat_73_49_45",
			"pbrMetallicRoughness":{
				"baseColorFactor":[
					0.28600001335144043,
					0.19200000166893005,
					0.17599999904632568,
					1
				],
				"metallicFactor":0
			}
		},
		{
			"doubleSided":true,
			"extensions":{
				"KHR_materials_specular":{
					"specularFactor":0
				}
			},
			"name":"mat_100_49_40",
			"pbrMetallicRoughness":{
				"baseColorFactor":[
					0.3919999897480011,
					0.19200000166893005,
					0.15700000524520874,
					1
				],
				"metallicFactor":0
			}
		},
		{
			"doubleSided":true,
			"extensions":{
				"KHR_materials_specular":{
					"specularFactor":0
				}
			},
			"name":"mat_34_32_52",
			"pbrMetallicRoughness":{
				"baseColorFactor":[
					0.13300000131130219,
					0.125,
					0.20399999618530273,
					1
				],
				"metallicFactor":0
			}
		},
		{
			"doubleSided":true,
			"extensions":{
				"KHR_materials_specular":{
					"specularFactor":0
				}
			},
			"name":"mat_199_138_32",
			"pbrMetallicRoughness":{
				"baseColorFactor":[
					0.7799999713897705,
					0.5410000085830688,
					0.125,
					1
				],
				"metallicFactor":0
			}
		},
		{
			"doubleSided":true,
			"extensions":{
				"KHR_materials_specular":{
					"specularFactor":0
				}
			},
			"name":"mat_211_216_222",
			"pbrMetallicRoughness":{
				"baseColorFactor":[
					0.8270000219345093,
					0.847000002861023,
					0.8709999918937683,
					1
				],
				"metallicFactor":0
			}
		},
		{
			"doubleSided":true,
			"extensions":{
				"KHR_materials_specular":{
					"specularFactor":0
				}
			},
			"name":"mat_25_24_36",
			"pbrMetallicRoughness":{
				"baseColorFactor":[
					0.09799999743700027,
					0.09399999678134918,
					0.14100000262260437,
					1
				],
				"metallicFactor":0
			}
		}
	],
	"meshes":[
		{
			"name":"book_open",
			"primitives":[
				{
					"attributes":{
						"POSITION":0,
						"NORMAL":1
					},
					"indices":2,
					"material":0
				},
				{
					"attributes":{
						"POSITION":3,
						"NORMAL":4
					},
					"indices":5,
					"material":1
				},
				{
					"attributes":{
						"POSITION":6,
						"NORMAL":7
					},
					"indices":8,
					"material":2
				},
				{
					"attributes":{
						"POSITION":9,
						"NORMAL":10
					},
					"indices":11,
					"material":3
				},
				{
					"attributes":{
						"POSITION":12,
						"NORMAL":13
					},
					"indices":14,
					"material":4
				},
				{
					"attributes":{
						"POSITION":15,
						"NORMAL":16
					},
					"indices":17,
					"material":5
				},
				{
					"attributes":{
						"POSITION":18,
						"NORMAL":19
					},
					"indices":20,
					"material":6
				},
				{
					"attributes":{
						"POSITION":21,
						"NORMAL":22
					},
					"indices":23,
					"material":7
				},
				{
					"attributes":{
						"POSITION":24,
						"NORMAL":25
					},
					"indices":26,
					"material":8
				},
				{
					"attributes":{
						"POSITION":27,
						"NORMAL":28
					},
					"indices":29,
					"material":9
				},
				{
					"attributes":{
						"POSITION":30,
						"NORMAL":31
					},
					"indices":32,
					"material":10
				},
				{
					"attributes":{
						"POSITION":33,
						"NORMAL":34
					},
					"indices":35,
					"material":11
				}
			]
		}
	],
	"accessors":[
		{
			"bufferView":0,
			"componentType":5126,
			"count":22200,
			"max":[
				23,
				14,
				-4
			],
			"min":[
				0,
				1,
				-20
			],
			"type":"VEC3"
		},
		{
			"bufferView":1,
			"componentType":5126,
			"count":22200,
			"type":"VEC3"
		},
		{
			"bufferView":2,
			"componentType":5123,
			"count":33300,
			"type":"SCALAR"
		},
		{
			"bufferView":3,
			"componentType":5126,
			"count":83832,
			"max":[
				23,
				14,
				-4
			],
			"min":[
				0,
				0,
				-20
			],
			"type":"VEC3"
		},
		{
			"bufferView":4,
			"componentType":5126,
			"count":83832,
			"type":"VEC3"
		},
		{
			"bufferView":5,
			"componentType":5125,
			"count":125748,
			"type":"SCALAR"
		},
		{
			"bufferView":6,
			"componentType":5126,
			"count":6888,
			"max":[
				23,
				14,
				-4
			],
			"min":[
				0,
				1,
				-20
			],
			"type":"VEC3"
		},
		{
			"bufferView":7,
			"componentType":5126,
			"count":6888,
			"type":"VEC3"
		},
		{
			"bufferView":8,
			"componentType":5123,
			"count":10332,
			"type":"SCALAR"
		},
		{
			"bufferView":9,
			"componentType":5126,
			"count":23616,
			"max":[
				22,
				13,
				-4
			],
			"min":[
				1,
				0,
				-20
			],
			"type":"VEC3"
		},
		{
			"bufferView":10,
			"componentType":5126,
			"count":23616,
			"type":"VEC3"
		},
		{
			"bufferView":11,
			"componentType":5123,
			"count":35424,
			"type":"SCALAR"
		},
		{
			"bufferView":12,
			"componentType":5126,
			"count":17856,
			"max":[
				23,
				14,
				-4
			],
			"min":[
				0,
				0,
				-20
			],
			"type":"VEC3"
		},
		{
			"bufferView":13,
			"componentType":5126,
			"count":17856,
			"type":"VEC3"
		},
		{
			"bufferView":14,
			"componentType":5123,
			"count":26784,
			"type":"SCALAR"
		},
		{
			"bufferView":15,
			"componentType":5126,
			"count":89256,
			"max":[
				23,
				13,
				-4
			],
			"min":[
				1,
				2,
				-20
			],
			"type":"VEC3"
		},
		{
			"bufferView":16,
			"componentType":5126,
			"count":89256,
			"type":"VEC3"
		},
		{
			"bufferView":17,
			"componentType":5125,
			"count":133884,
			"type":"SCALAR"
		},
		{
			"bufferView":18,
			"componentType":5126,
			"count":7488,
			"max":[
				23,
				14,
				-5
			],
			"min":[
				0,
				0,
				-19
			],
			"type":"VEC3"
		},
		{
			"bufferView":19,
			"componentType":5126,
			"count":7488,
			"type":"VEC3"
		},
		{
			"bufferView":20,
			"componentType":5123,
			"count":11232,
			"type":"SCALAR"
		},
		{
			"bufferView":21,
			"componentType":5126,
			"count":23040,
			"max":[
				23,
				14,
				-4
			],
			"min":[
				0,
				0,
				-20
			],
			"type":"VEC3"
		},
		{
			"bufferView":22,
			"componentType":5126,
			"count":23040,
			"type":"VEC3"
		},
		{
			"bufferView":23,
			"componentType":5123,
			"count":34560,
			"type":"SCALAR"
		},
		{
			"bufferView":24,
			"componentType":5126,
			"count":6912,
			"max":[
				20,
				11,
				-10
			],
			"min":[
				3,
				0,
				-14
			],
			"type":"VEC3"
		},
		{
			"bufferView":25,
			"componentType":5126,
			"count":6912,
			"type":"VEC3"
		},
		{
			"bufferView":26,
			"componentType":5123,
			"count":10368,
			"type":"SCALAR"
		},
		{
			"bufferView":27,
			"componentType":5126,
			"count":13728,
			"max":[
				21,
				12,
				-8
			],
			"min":[
				2,
				0,
				-16
			],
			"type":"VEC3"
		},
		{
			"bufferView":28,
			"componentType":5126,
			"count":13728,
			"type":"VEC3"
		},
		{
			"bufferView":29,
			"componentType":5123,
			"count":20592,
			"type":"SCALAR"
		},
		{
			"bufferView":30,
			"componentType":5126,
			"count":25800,
			"max":[
				23,
				14,
				-5
			],
			"min":[
				0,
				1,
				-20
			],
			"type":"VEC3"
		},
		{
			"bufferView":31,
			"componentType":5126,
			"count":25800,
			"type":"VEC3"
		},
		{
			"bufferView":32,
			"componentType":5123,
			"count":38700,
			"type":"SCALAR"
		},
		{
			"bufferView":33,
			"componentType":5126,
			"count":12336,
			"max":[
				21,
				12,
				-8
			],
			"min":[
				2,
				3,
				-15
			],
			"type":"VEC3"
		},
		{
			"bufferView":34,
			"componentType":5126,
			"count":12336,
			"type":"VEC3"
		},
		{
			"bufferView":35,
			"componentType":5123,
			"count":18504,
			"type":"SCALAR"
		}
	],
	"bufferViews":[
		{
			"buffer":0,
			"byteLength":266400,
			"byteOffset":0,
			"target":34962
		},
		{
			"buffer":0,
			"byteLength":266400,
			"byteOffset":266400,
			"target":34962
		},
		{
			"buffer":0,
			"byteLength":66600,
			"byteOffset":532800,
			"target":34963
		},
		{
			"buffer":0,
			"byteLength":1005984,
			"byteOffset":599400,
			"target":34962
		},
		{
			"buffer":0,
			"byteLength":1005984,
			"byteOffset":1605384,
			"target":34962
		},
		{
			"buffer":0,
			"byteLength":502992,
			"byteOffset":2611368,
			"target":34963
		},
		{
			"buffer":0,
			"byteLength":82656,
			"byteOffset":3114360,
			"target":34962
		},
		{
			"buffer":0,
			"byteLength":82656,
			"byteOffset":3197016,
			"target":34962
		},
		{
			"buffer":0,
			"byteLength":20664,
			"byteOffset":3279672,
			"target":34963
		},
		{
			"buffer":0,
			"byteLength":283392,
			"byteOffset":3300336,
			"target":34962
		},
		{
			"buffer":0,
			"byteLength":283392,
			"byteOffset":3583728,
			"target":34962
		},
		{
			"buffer":0,
			"byteLength":70848,
			"byteOffset":3867120,
			"target":34963
		},
		{
			"buffer":0,
			"byteLength":214272,
			"byteOffset":3937968,
			"target":34962
		},
		{
			"buffer":0,
			"byteLength":214272,
			"byteOffset":4152240,
			"target":34962
		},
		{
			"buffer":0,
			"byteLength":53568,
			"byteOffset":4366512,
			"target":34963
		},
		{
			"buffer":0,
			"byteLength":1071072,
			"byteOffset":4420080,
			"target":34962
		},
		{
			"buffer":0,
			"byteLength":1071072,
			"byteOffset":5491152,
			"target":34962
		},
		{
			"buffer":0,
			"byteLength":535536,
			"byteOffset":6562224,
			"target":34963
		},
		{
			"buffer":0,
			"byteLength":89856,
			"byteOffset":7097760,
			"target":34962
		},
		{
			"buffer":0,
			"byteLength":89856,
			"byteOffset":7187616,
			"target":34962
		},
		{
			"buffer":0,
			"byteLength":22464,
			"byteOffset":7277472,
			"target":34963
		},
		{
			"buffer":0,
			"byteLength":276480,
			"byteOffset":7299936,
			"target":34962
		},
		{
			"buffer":0,
			"byteLength":276480,
			"byteOffset":7576416,
			"target":34962
		},
		{
			"buffer":0,
			"byteLength":69120,
			"byteOffset":7852896,
			"target":34963
		},
		{
			"buffer":0,
			"byteLength":82944,
			"byteOffset":7922016,
			"target":34962
		},
		{
			"buffer":0,
			"byteLength":82944,
			"byteOffset":8004960,
			"target":34962
		},
		{
			"buffer":0,
			"byteLength":20736,
			"byteOffset":8087904,
			"target":34963
		},
		{
			"buffer":0,
			"byteLength":164736,
			"byteOffset":8108640,
			"target":34962
		},
		{
			"buffer":0,
			"byteLength":164736,
			"byteOffset":8273376,
			"target":34962
		},
		{
			"buffer":0,
			"byteLength":41184,
			"byteOffset":8438112,
			"target":34963
		},
		{
			"buffer":0,
			"byteLength":309600,
			"byteOffset":8479296,
			"target":34962
		},
		{
			"buffer":0,
			"byteLength":309600,
			"byteOffset":8788896,
			"target":34962
		},
		{
			"buffer":0,
			"byteLength":77400,
			"byteOffset":9098496,
			"target":34963
		},
		{
			"buffer":0,
			"byteLength":148032,
			"byteOffset":9175896,
			"target":34962
		},
		{
			"buffer":0,
			"byteLength":148032,
			"byteOffset":9323928,
			"target":34962
		},
		{
			"buffer":0,
			"byteLength":37008,
			"byteOffset":9471960,
			"target":34963
		}
	],
	"buffers":[
		{
			"byteLength":9508968,
			"uri":"book_open.bin"
		}
	]
}
