{
	"asset":{
		"generator":"Khronos glTF Blender I/O v5.0.21",
		"version":"2.0"
	},
	"extensionsUsed":[
		"KHR_materials_specular"
	],
	"scene":0,
	"scenes":[
		{
			"name":"Scene",
			"nodes":[
				0
			]
		}
	],
	"nodes":[
		{
			"mesh":0,
			"name":"corpse_skeleton",
			"rotation":[
				0.7071068286895752,
				0,
				0,
				0.7071068286895752
			]
		}
	],
	"materials":[
		{
			"doubleSided":true,
			"extensions":{
				"KHR_materials_specular":{
					"specularFactor":0
				}
			},
			"name":"mat_205_205_200",
			"pbrMetallicRoughness":{
				"baseColorFactor":[
					0.8040000200271606,
					0.8040000200271606,
					0.7839999794960022,
					1
				],
				"metallicFactor":0
			}
		},
		{
			"doubleSided":true,
			"extensions":{
				"KHR_materials_specular":{
					"specularFactor":0
				}
			},
			"name":"mat_161_165_179",
			"pbrMetallicRoughness":{
				"baseColorFactor":[
					0.6309999823570251,
					0.6470000147819519,
					0.7020000219345093,
					1
				],
				"metallicFactor":0
			}
		},
		{
			"doubleSided":true,
			"extensions":{
				"KHR_materials_specular":{
					"specularFactor":0
				}
			},
			"name":"mat_93_110_68",
			"pbrMetallicRoughness":{
				"baseColorFactor":[
					0.36500000953674316,
					0.4309999942779541,
					0.2669999897480011,
					1
				],
				"metallicFactor":0
			}
		},
		{
			"doubleSided":true,
			"extensions":{
				"KHR_materials_specular":{
					"specularFactor":0
				}
			},
			"name":"mat_131_131_131",
			"pbrMetallicRoughness":{
				"baseColorFactor":[
					0.5139999985694885,
					0.5139999985694885,
					0.5139999985694885,
					1
				],
				"metallicFactor":0
			}
		}
	],
	"meshes":[
		{
			"name":"corpse_skeleton",
			"primitives":[
				{
					"attributes":{
						"POSITION":0,
						"NORMAL":1
					},
					"indices":2,
					"material":0
				},
				{
					"attributes":{
						"POSITION":3,
						"NORMAL":4
					},
					"indices":5,
					"material":1
				},
				{
					"attributes":{
						"POSITION":6,
						"NORMAL":7
					},
					"indices":8,
					"material":2
				},
				{
					"attributes":{
						"POSITION":9,
						"NORMAL":10
					},
					"indices":11,
					"material":3
				}
			]
		}
	],
	"accessors":[
		{
			"bufferView":0,
			"componentType":5126,
			"count":792,
			"max":[
				11,
				10,
				-3
			],
			"min":[
				1,
				0,
				-13
			],
			"type":"VEC3"
		},
		{
			"bufferView":1,
			"componentType":5126,
			"count":792,
			"type":"VEC3"
		},
		{
			"bufferView":2,
			"componentType":5123,
			"count":1188,
			"type":"SCALAR"
		},
		{
			"bufferView":3,
			"componentType":5126,
			"count":2904,
			"max":[
				11,
				11,
				-2
			],
			"min":[
				1,
				0,
				-13
			],
			"type":"VEC3"
		},
		{
			"bufferView":4,
			"componentType":5126,
			"count":2904,
			"type":"VEC3"
		},
		{
			"bufferView":5,
			"componentType":5123,
			"count":4356,
			"type":"SCALAR"
		},
		{
			"bufferView":6,
			"componentType":5126,
			"count":600,
			"max":[
				11,
				10,
				-2
			],
			"min":[
				1,
				0,
				-13
			],
			"type":"VEC3"
		},
		{
			"bufferView":7,
			"componentType":5126,
			"count":600,
			"type":"VEC3"
		},
		{
			"bufferView":8,
			"componentType":5123,
			"count":900,
			"type":"SCALAR"
		},
		{
			"bufferView":9,
			"componentType":5126,
			"count":912,
			"max":[
				11,
				11,
				-2
			],
			"min":[
				3,
				0,
				-13
			],
			"type":"VEC3"
		},
		{
			"bufferView":10,
			"componentType":5126,
			"count":912,
			"type":"VEC3"
		},
		{
			"bufferView":11,
			"componentType":5123,
			"count":1368,
			"type":"SCALAR"
		}
	],
	"bufferViews":[
		{
			"buffer":0,
			"byteLength":9504,
			"byteOffset":0,
			"target":34962
		},
		{
			"buffer":0,
			"byteLength":9504,
			"byteOffset":9504,
			"target":34962
		},
		{
			"buffer":0,
			"byteLength":2376,
			"byteOffset":19008,
			"target":34963
		},
		{
			"buffer":0,
			"byteLength":34848,
			"byteOffset":21384,
			"target":34962
		},
		{
			"buffer":0,
			"byteLength":34848,
			"byteOffset":56232,
			"target":34962
		},
		{
			"buffer":0,
			"byteLength":8712,
			"byteOffset":91080,
			"target":34963
		},
		{
			"buffer":0,
			"byteLength":7200,
			"byteOffset":99792,
			"target":34962
		},
		{
			"buffer":0,
			"byteLength":7200,
			"byteOffset":106992,
			"target":34962
		},
		{
			"buffer":0,
			"byteLength":1800,
			"byteOffset":114192,
			"target":34963
		},
		{
			"buffer":0,
			"byteLength":10944,
			"byteOffset":115992,
			"target":34962
		},
		{
			"buffer":0,
			"byteLength":10944,
			"byteOffset":126936,
			"target":34962
		},
		{
			"buffer":0,
			"byteLength":2736,
			"byteOffset":137880,
			"target":34963
		}
	],
	"buffers":[
		{
			"byteLength":140616,
			"uri":"corpse_skeleton.bin"
		}
	]
}
