{
	"asset":{
		"generator":"Khronos glTF Blender I/O v5.0.21",
		"version":"2.0"
	},
	"extensionsUsed":[
		"KHR_materials_specular"
	],
	"scene":0,
	"scenes":[
		{
			"name":"Scene",
			"nodes":[
				0
			]
		}
	],
	"nodes":[
		{
			"mesh":0,
			"name":"Crate",
			"rotation":[
				0.7071068286895752,
				0,
				0,
				0.7071068286895752
			]
		}
	],
	"materials":[
		{
			"doubleSided":true,
			"extensions":{
				"KHR_materials_specular":{
					"specularFactor":0
				}
			},
			"name":"mat_77_41_26",
			"pbrMetallicRoughness":{
				"baseColorFactor":[
					0.3019999861717224,
					0.16099999845027924,
					0.10199999809265137,
					1
				],
				"metallicFactor":0
			}
		},
		{
			"doubleSided":true,
			"extensions":{
				"KHR_materials_specular":{
					"specularFactor":0
				}
			},
			"name":"mat_123_72_51",
			"pbrMetallicRoughness":{
				"baseColorFactor":[
					0.4819999933242798,
					0.28200000524520874,
					0.20000000298023224,
					1
				],
				"metallicFactor":0
			}
		},
		{
			"doubleSided":true,
			"extensions":{
				"KHR_materials_specular":{
					"specularFactor":0
				}
			},
			"name":"mat_137_74_48",
			"pbrMetallicRoughness":{
				"baseColorFactor":[
					0.5370000004768372,
					0.28999999165534973,
					0.18799999356269836,
					1
				],
				"metallicFactor":0
			}
		},
		{
			"doubleSided":true,
			"extensions":{
				"KHR_materials_specular":{
					"specularFactor":0
				}
			},
			"name":"mat_114_70_49",
			"pbrMetallicRoughness":{
				"baseColorFactor":[
					0.44699999690055847,
					0.2750000059604645,
					0.19200000166893005,
					1
				],
				"metallicFactor":0
			}
		},
		{
			"doubleSided":true,
			"extensions":{
				"KHR_materials_specular":{
					"specularFactor":0
				}
			},
			"name":"mat_86_45_27",
			"pbrMetallicRoughness":{
				"baseColorFactor":[
					0.3370000123977661,
					0.17599999904632568,
					0.10599999874830246,
					1
				],
				"metallicFactor":0
			}
		},
		{
			"doubleSided":true,
			"extensions":{
				"KHR_materials_specular":{
					"specularFactor":0
				}
			},
			"name":"mat_61_32_20",
			"pbrMetallicRoughness":{
				"baseColorFactor":[
					0.23899999260902405,
					0.125,
					0.07800000160932541,
					1
				],
				"metallicFactor":0
			}
		},
		{
			"doubleSided":true,
			"extensions":{
				"KHR_materials_specular":{
					"specularFactor":0
				}
			},
			"name":"mat_129_78_57",
			"pbrMetallicRoughness":{
				"baseColorFactor":[
					0.5059999823570251,
					0.3059999942779541,
					0.2240000069141388,
					1
				],
				"metallicFactor":0
			}
		},
		{
			"doubleSided":true,
			"extensions":{
				"KHR_materials_specular":{
					"specularFactor":0
				}
			},
			"name":"mat_140_92_72",
			"pbrMetallicRoughness":{
				"baseColorFactor":[
					0.5490000247955322,
					0.3610000014305115,
					0.28200000524520874,
					1
				],
				"metallicFactor":0
			}
		},
		{
			"doubleSided":true,
			"extensions":{
				"KHR_materials_specular":{
					"specularFactor":0
				}
			},
			"name":"mat_80_56_46",
			"pbrMetallicRoughness":{
				"baseColorFactor":[
					0.3140000104904175,
					0.2199999988079071,
					0.18000000715255737,
					1
				],
				"metallicFactor":0
			}
		},
		{
			"doubleSided":true,
			"extensions":{
				"KHR_materials_specular":{
					"specularFactor":0
				}
			},
			"name":"mat_110_76_62",
			"pbrMetallicRoughness":{
				"baseColorFactor":[
					0.4309999942779541,
					0.2980000078678131,
					0.24300000071525574,
					1
				],
				"metallicFactor":0
			}
		},
		{
			"doubleSided":true,
			"extensions":{
				"KHR_materials_specular":{
					"specularFactor":0
				}
			},
			"name":"mat_86_62_52",
			"pbrMetallicRoughness":{
				"baseColorFactor":[
					0.3370000123977661,
					0.24300000071525574,
					0.20399999618530273,
					1
				],
				"metallicFactor":0
			}
		},
		{
			"doubleSided":true,
			"extensions":{
				"KHR_materials_specular":{
					"specularFactor":0
				}
			},
			"name":"mat_98_70_58",
			"pbrMetallicRoughness":{
				"baseColorFactor":[
					0.3840000033378601,
					0.2750000059604645,
					0.22699999809265137,
					1
				],
				"metallicFactor":0
			}
		},
		{
			"doubleSided":true,
			"extensions":{
				"KHR_materials_specular":{
					"specularFactor":0
				}
			},
			"name":"mat_88_59_46",
			"pbrMetallicRoughness":{
				"baseColorFactor":[
					0.3449999988079071,
					0.23100000619888306,
					0.18000000715255737,
					1
				],
				"metallicFactor":0
			}
		}
	],
	"meshes":[
		{
			"name":"Crate",
			"primitives":[
				{
					"attributes":{
						"POSITION":0,
						"NORMAL":1
					},
					"indices":2,
					"material":0
				},
				{
					"attributes":{
						"POSITION":3,
						"NORMAL":4
					},
					"indices":5,
					"material":1
				},
				{
					"attributes":{
						"POSITION":6,
						"NORMAL":7
					},
					"indices":8,
					"material":2
				},
				{
					"attributes":{
						"POSITION":9,
						"NORMAL":10
					},
					"indices":11,
					"material":3
				},
				{
					"attributes":{
						"POSITION":12,
						"NORMAL":13
					},
					"indices":14,
					"material":4
				},
				{
					"attributes":{
						"POSITION":15,
						"NORMAL":16
					},
					"indices":17,
					"material":5
				},
				{
					"attributes":{
						"POSITION":18,
						"NORMAL":19
					},
					"indices":20,
					"material":6
				},
				{
					"attributes":{
						"POSITION":21,
						"NORMAL":22
					},
					"indices":23,
					"material":7
				},
				{
					"attributes":{
						"POSITION":24,
						"NORMAL":25
					},
					"indices":26,
					"material":8
				},
				{
					"attributes":{
						"POSITION":27,
						"NORMAL":28
					},
					"indices":29,
					"material":9
				},
				{
					"attributes":{
						"POSITION":30,
						"NORMAL":31
					},
					"indices":32,
					"material":10
				},
				{
					"attributes":{
						"POSITION":33,
						"NORMAL":34
					},
					"indices":35,
					"material":11
				},
				{
					"attributes":{
						"POSITION":36,
						"NORMAL":37
					},
					"indices":38,
					"material":12
				}
			]
		}
	],
	"accessors":[
		{
			"bufferView":0,
			"componentType":5126,
			"count":76584,
			"max":[
				24,
				17,
				-8
			],
			"min":[
				8,
				1,
				-24
			],
			"type":"VEC3"
		},
		{
			"bufferView":1,
			"componentType":5126,
			"count":76584,
			"type":"VEC3"
		},
		{
			"bufferView":2,
			"componentType":5125,
			"count":114876,
			"type":"SCALAR"
		},
		{
			"bufferView":3,
			"componentType":5126,
			"count":5472,
			"max":[
				25,
				18,
				-7
			],
			"min":[
				7,
				0,
				-25
			],
			"type":"VEC3"
		},
		{
			"bufferView":4,
			"componentType":5126,
			"count":5472,
			"type":"VEC3"
		},
		{
			"bufferView":5,
			"componentType":5123,
			"count":8208,
			"type":"SCALAR"
		},
		{
			"bufferView":6,
			"componentType":5126,
			"count":4416,
			"max":[
				25,
				18,
				-7
			],
			"min":[
				7,
				0,
				-25
			],
			"type":"VEC3"
		},
		{
			"bufferView":7,
			"componentType":5126,
			"count":4416,
			"type":"VEC3"
		},
		{
			"bufferView":8,
			"componentType":5123,
			"count":6624,
			"type":"SCALAR"
		},
		{
			"bufferView":9,
			"componentType":5126,
			"count":6360,
			"max":[
				25,
				18,
				-7
			],
			"min":[
				7,
				0,
				-25
			],
			"type":"VEC3"
		},
		{
			"bufferView":10,
			"componentType":5126,
			"count":6360,
			"type":"VEC3"
		},
		{
			"bufferView":11,
			"componentType":5123,
			"count":9540,
			"type":"SCALAR"
		},
		{
			"bufferView":12,
			"componentType":5126,
			"count":2232,
			"max":[
				24,
				17,
				-8
			],
			"min":[
				8,
				1,
				-24
			],
			"type":"VEC3"
		},
		{
			"bufferView":13,
			"componentType":5126,
			"count":2232,
			"type":"VEC3"
		},
		{
			"bufferView":14,
			"componentType":5123,
			"count":3348,
			"type":"SCALAR"
		},
		{
			"bufferView":15,
			"componentType":5126,
			"count":4032,
			"max":[
				24,
				17,
				-8
			],
			"min":[
				8,
				1,
				-24
			],
			"type":"VEC3"
		},
		{
			"bufferView":16,
			"componentType":5126,
			"count":4032,
			"type":"VEC3"
		},
		{
			"bufferView":17,
			"componentType":5123,
			"count":6048,
			"type":"SCALAR"
		},
		{
			"bufferView":18,
			"componentType":5126,
			"count":3912,
			"max":[
				25,
				18,
				-7
			],
			"min":[
				7,
				0,
				-25
			],
			"type":"VEC3"
		},
		{
			"bufferView":19,
			"componentType":5126,
			"count":3912,
			"type":"VEC3"
		},
		{
			"bufferView":20,
			"componentType":5123,
			"count":5868,
			"type":"SCALAR"
		},
		{
			"bufferView":21,
			"componentType":5126,
			"count":672,
			"max":[
				25,
				18,
				-7
			],
			"min":[
				7,
				0,
				-25
			],
			"type":"VEC3"
		},
		{
			"bufferView":22,
			"componentType":5126,
			"count":672,
			"type":"VEC3"
		},
		{
			"bufferView":23,
			"componentType":5123,
			"count":1008,
			"type":"SCALAR"
		},
		{
			"bufferView":24,
			"componentType":5126,
			"count":144,
			"max":[
				23,
				16,
				-9
			],
			"min":[
				9,
				1,
				-23
			],
			"type":"VEC3"
		},
		{
			"bufferView":25,
			"componentType":5126,
			"count":144,
			"type":"VEC3"
		},
		{
			"bufferView":26,
			"componentType":5123,
			"count":216,
			"type":"SCALAR"
		},
		{
			"bufferView":27,
			"componentType":5126,
			"count":3432,
			"max":[
				23,
				16,
				-9
			],
			"min":[
				9,
				1,
				-23
			],
			"type":"VEC3"
		},
		{
			"bufferView":28,
			"componentType":5126,
			"count":3432,
			"type":"VEC3"
		},
		{
			"bufferView":29,
			"componentType":5123,
			"count":5148,
			"type":"SCALAR"
		},
		{
			"bufferView":30,
			"componentType":5126,
			"count":240,
			"max":[
				23,
				16,
				-9
			],
			"min":[
				9,
				1,
				-23
			],
			"type":"VEC3"
		},
		{
			"bufferView":31,
			"componentType":5126,
			"count":240,
			"type":"VEC3"
		},
		{
			"bufferView":32,
			"componentType":5123,
			"count":360,
			"type":"SCALAR"
		},
		{
			"bufferView":33,
			"componentType":5126,
			"count":2304,
			"max":[
				23,
				16,
				-9
			],
			"min":[
				9,
				1,
				-23
			],
			"type":"VEC3"
		},
		{
			"bufferView":34,
			"componentType":5126,
			"count":2304,
			"type":"VEC3"
		},
		{
			"bufferView":35,
			"componentType":5123,
			"count":3456,
			"type":"SCALAR"
		},
		{
			"bufferView":36,
			"componentType":5126,
			"count":984,
			"max":[
				23,
				16,
				-9
			],
			"min":[
				9,
				1,
				-23
			],
			"type":"VEC3"
		},
		{
			"bufferView":37,
			"componentType":5126,
			"count":984,
			"type":"VEC3"
		},
		{
			"bufferView":38,
			"componentType":5123,
			"count":1476,
			"type":"SCALAR"
		}
	],
	"bufferViews":[
		{
			"buffer":0,
			"byteLength":919008,
			"byteOffset":0,
			"target":34962
		},
		{
			"buffer":0,
			"byteLength":919008,
			"byteOffset":919008,
			"target":34962
		},
		{
			"buffer":0,
			"byteLength":459504,
			"byteOffset":1838016,
			"target":34963
		},
		{
			"buffer":0,
			"byteLength":65664,
			"byteOffset":2297520,
			"target":34962
		},
		{
			"buffer":0,
			"byteLength":65664,
			"byteOffset":2363184,
			"target":34962
		},
		{
			"buffer":0,
			"byteLength":16416,
			"byteOffset":2428848,
			"target":34963
		},
		{
			"buffer":0,
			"byteLength":52992,
			"byteOffset":2445264,
			"target":34962
		},
		{
			"buffer":0,
			"byteLength":52992,
			"byteOffset":2498256,
			"target":34962
		},
		{
			"buffer":0,
			"byteLength":13248,
			"byteOffset":2551248,
			"target":34963
		},
		{
			"buffer":0,
			"byteLength":76320,
			"byteOffset":2564496,
			"target":34962
		},
		{
			"buffer":0,
			"byteLength":76320,
			"byteOffset":2640816,
			"target":34962
		},
		{
			"buffer":0,
			"byteLength":19080,
			"byteOffset":2717136,
			"target":34963
		},
		{
			"buffer":0,
			"byteLength":26784,
			"byteOffset":2736216,
			"target":34962
		},
		{
			"buffer":0,
			"byteLength":26784,
			"byteOffset":2763000,
			"target":34962
		},
		{
			"buffer":0,
			"byteLength":6696,
			"byteOffset":2789784,
			"target":34963
		},
		{
			"buffer":0,
			"byteLength":48384,
			"byteOffset":2796480,
			"target":34962
		},
		{
			"buffer":0,
			"byteLength":48384,
			"byteOffset":2844864,
			"target":34962
		},
		{
			"buffer":0,
			"byteLength":12096,
			"byteOffset":2893248,
			"target":34963
		},
		{
			"buffer":0,
			"byteLength":46944,
			"byteOffset":2905344,
			"target":34962
		},
		{
			"buffer":0,
			"byteLength":46944,
			"byteOffset":2952288,
			"target":34962
		},
		{
			"buffer":0,
			"byteLength":11736,
			"byteOffset":2999232,
			"target":34963
		},
		{
			"buffer":0,
			"byteLength":8064,
			"byteOffset":3010968,
			"target":34962
		},
		{
			"buffer":0,
			"byteLength":8064,
			"byteOffset":3019032,
			"target":34962
		},
		{
			"buffer":0,
			"byteLength":2016,
			"byteOffset":3027096,
			"target":34963
		},
		{
			"buffer":0,
			"byteLength":1728,
			"byteOffset":3029112,
			"target":34962
		},
		{
			"buffer":0,
			"byteLength":1728,
			"byteOffset":3030840,
			"target":34962
		},
		{
			"buffer":0,
			"byteLength":432,
			"byteOffset":3032568,
			"target":34963
		},
		{
			"buffer":0,
			"byteLength":41184,
			"byteOffset":3033000,
			"target":34962
		},
		{
			"buffer":0,
			"byteLength":41184,
			"byteOffset":3074184,
			"target":34962
		},
		{
			"buffer":0,
			"byteLength":10296,
			"byteOffset":3115368,
			"target":34963
		},
		{
			"buffer":0,
			"byteLength":2880,
			"byteOffset":3125664,
			"target":34962
		},
		{
			"buffer":0,
			"byteLength":2880,
			"byteOffset":3128544,
			"target":34962
		},
		{
			"buffer":0,
			"byteLength":720,
			"byteOffset":3131424,
			"target":34963
		},
		{
			"buffer":0,
			"byteLength":27648,
			"byteOffset":3132144,
			"target":34962
		},
		{
			"buffer":0,
			"byteLength":27648,
			"byteOffset":3159792,
			"target":34962
		},
		{
			"buffer":0,
			"byteLength":6912,
			"byteOffset":3187440,
			"target":34963
		},
		{
			"buffer":0,
			"byteLength":11808,
			"byteOffset":3194352,
			"target":34962
		},
		{
			"buffer":0,
			"byteLength":11808,
			"byteOffset":3206160,
			"target":34962
		},
		{
			"buffer":0,
			"byteLength":2952,
			"byteOffset":3217968,
			"target":34963
		}
	],
	"buffers":[
		{
			"byteLength":3220920,
			"uri":"Crate.bin"
		}
	]
}
