{
	"asset":{
		"generator":"Khronos glTF Blender I/O v5.0.21",
		"version":"2.0"
	},
	"extensionsUsed":[
		"KHR_materials_specular"
	],
	"scene":0,
	"scenes":[
		{
			"name":"Scene",
			"nodes":[
				0
			]
		}
	],
	"nodes":[
		{
			"mesh":0,
			"name":"Door_Reg",
			"rotation":[
				0.7071068286895752,
				0,
				0,
				0.7071068286895752
			]
		}
	],
	"materials":[
		{
			"doubleSided":true,
			"extensions":{
				"KHR_materials_specular":{
					"specularFactor":0
				}
			},
			"name":"mat_109_58_37",
			"pbrMetallicRoughness":{
				"baseColorFactor":[
					0.4269999861717224,
					0.22699999809265137,
					0.14499999582767487,
					1
				],
				"metallicFactor":0
			}
		},
		{
			"doubleSided":true,
			"extensions":{
				"KHR_materials_specular":{
					"specularFactor":0
				}
			},
			"name":"mat_77_41_26",
			"pbrMetallicRoughness":{
				"baseColorFactor":[
					0.3019999861717224,
					0.16099999845027924,
					0.10199999809265137,
					1
				],
				"metallicFactor":0
			}
		},
		{
			"doubleSided":true,
			"extensions":{
				"KHR_materials_specular":{
					"specularFactor":0
				}
			},
			"name":"mat_57_31_20",
			"pbrMetallicRoughness":{
				"baseColorFactor":[
					0.2240000069141388,
					0.12200000137090683,
					0.07800000160932541,
					1
				],
				"metallicFactor":0
			}
		},
		{
			"doubleSided":true,
			"extensions":{
				"KHR_materials_specular":{
					"specularFactor":0
				}
			},
			"name":"mat_91_43_23",
			"pbrMetallicRoughness":{
				"baseColorFactor":[
					0.3569999933242798,
					0.16899999976158142,
					0.09000000357627869,
					1
				],
				"metallicFactor":0
			}
		},
		{
			"doubleSided":true,
			"extensions":{
				"KHR_materials_specular":{
					"specularFactor":0
				}
			},
			"name":"mat_102_55_35",
			"pbrMetallicRoughness":{
				"baseColorFactor":[
					0.4000000059604645,
					0.2160000056028366,
					0.13699999451637268,
					1
				],
				"metallicFactor":0
			}
		},
		{
			"doubleSided":true,
			"extensions":{
				"KHR_materials_specular":{
					"specularFactor":0
				}
			},
			"name":"mat_122_66_43",
			"pbrMetallicRoughness":{
				"baseColorFactor":[
					0.4779999852180481,
					0.2590000033378601,
					0.16899999976158142,
					1
				],
				"metallicFactor":0
			}
		},
		{
			"doubleSided":true,
			"extensions":{
				"KHR_materials_specular":{
					"specularFactor":0
				}
			},
			"name":"mat_56_56_81",
			"pbrMetallicRoughness":{
				"baseColorFactor":[
					0.2199999988079071,
					0.2199999988079071,
					0.3179999887943268,
					1
				],
				"metallicFactor":0
			}
		}
	],
	"meshes":[
		{
			"name":"Door_Reg",
			"primitives":[
				{
					"attributes":{
						"POSITION":0,
						"NORMAL":1
					},
					"indices":2,
					"material":0
				},
				{
					"attributes":{
						"POSITION":3,
						"NORMAL":4
					},
					"indices":5,
					"material":1
				},
				{
					"attributes":{
						"POSITION":6,
						"NORMAL":7
					},
					"indices":8,
					"material":2
				},
				{
					"attributes":{
						"POSITION":9,
						"NORMAL":10
					},
					"indices":11,
					"material":3
				},
				{
					"attributes":{
						"POSITION":12,
						"NORMAL":13
					},
					"indices":14,
					"material":4
				},
				{
					"attributes":{
						"POSITION":15,
						"NORMAL":16
					},
					"indices":17,
					"material":5
				},
				{
					"attributes":{
						"POSITION":18,
						"NORMAL":19
					},
					"indices":20,
					"material":6
				}
			]
		}
	],
	"accessors":[
		{
			"bufferView":0,
			"componentType":5126,
			"count":18432,
			"max":[
				21,
				29,
				-4
			],
			"min":[
				1,
				0,
				-7
			],
			"type":"VEC3"
		},
		{
			"bufferView":1,
			"componentType":5126,
			"count":18432,
			"type":"VEC3"
		},
		{
			"bufferView":2,
			"componentType":5123,
			"count":27648,
			"type":"SCALAR"
		},
		{
			"bufferView":3,
			"componentType":5126,
			"count":29952,
			"max":[
				21,
				29,
				-4
			],
			"min":[
				1,
				0,
				-12
			],
			"type":"VEC3"
		},
		{
			"bufferView":4,
			"componentType":5126,
			"count":29952,
			"type":"VEC3"
		},
		{
			"bufferView":5,
			"componentType":5123,
			"count":44928,
			"type":"SCALAR"
		},
		{
			"bufferView":6,
			"componentType":5126,
			"count":6336,
			"max":[
				21,
				29,
				-4
			],
			"min":[
				1,
				0,
				-7
			],
			"type":"VEC3"
		},
		{
			"bufferView":7,
			"componentType":5126,
			"count":6336,
			"type":"VEC3"
		},
		{
			"bufferView":8,
			"componentType":5123,
			"count":9504,
			"type":"SCALAR"
		},
		{
			"bufferView":9,
			"componentType":5126,
			"count":20256,
			"max":[
				19,
				27,
				-5
			],
			"min":[
				3,
				0,
				-12
			],
			"type":"VEC3"
		},
		{
			"bufferView":10,
			"componentType":5126,
			"count":20256,
			"type":"VEC3"
		},
		{
			"bufferView":11,
			"componentType":5123,
			"count":30384,
			"type":"SCALAR"
		},
		{
			"bufferView":12,
			"componentType":5126,
			"count":2592,
			"max":[
				17,
				27,
				-5
			],
			"min":[
				3,
				2,
				-12
			],
			"type":"VEC3"
		},
		{
			"bufferView":13,
			"componentType":5126,
			"count":2592,
			"type":"VEC3"
		},
		{
			"bufferView":14,
			"componentType":5123,
			"count":3888,
			"type":"SCALAR"
		},
		{
			"bufferView":15,
			"componentType":5126,
			"count":6240,
			"max":[
				19,
				27,
				-5
			],
			"min":[
				3,
				1,
				-12
			],
			"type":"VEC3"
		},
		{
			"bufferView":16,
			"componentType":5126,
			"count":6240,
			"type":"VEC3"
		},
		{
			"bufferView":17,
			"componentType":5123,
			"count":9360,
			"type":"SCALAR"
		},
		{
			"bufferView":18,
			"componentType":5126,
			"count":864,
			"max":[
				19,
				14,
				-4
			],
			"min":[
				13,
				9,
				-12
			],
			"type":"VEC3"
		},
		{
			"bufferView":19,
			"componentType":5126,
			"count":864,
			"type":"VEC3"
		},
		{
			"bufferView":20,
			"componentType":5123,
			"count":1296,
			"type":"SCALAR"
		}
	],
	"bufferViews":[
		{
			"buffer":0,
			"byteLength":221184,
			"byteOffset":0,
			"target":34962
		},
		{
			"buffer":0,
			"byteLength":221184,
			"byteOffset":221184,
			"target":34962
		},
		{
			"buffer":0,
			"byteLength":55296,
			"byteOffset":442368,
			"target":34963
		},
		{
			"buffer":0,
			"byteLength":359424,
			"byteOffset":497664,
			"target":34962
		},
		{
			"buffer":0,
			"byteLength":359424,
			"byteOffset":857088,
			"target":34962
		},
		{
			"buffer":0,
			"byteLength":89856,
			"byteOffset":1216512,
			"target":34963
		},
		{
			"buffer":0,
			"byteLength":76032,
			"byteOffset":1306368,
			"target":34962
		},
		{
			"buffer":0,
			"byteLength":76032,
			"byteOffset":1382400,
			"target":34962
		},
		{
			"buffer":0,
			"byteLength":19008,
			"byteOffset":1458432,
			"target":34963
		},
		{
			"buffer":0,
			"byteLength":243072,
			"byteOffset":1477440,
			"target":34962
		},
		{
			"buffer":0,
			"byteLength":243072,
			"byteOffset":1720512,
			"target":34962
		},
		{
			"buffer":0,
			"byteLength":60768,
			"byteOffset":1963584,
			"target":34963
		},
		{
			"buffer":0,
			"byteLength":31104,
			"byteOffset":2024352,
			"target":34962
		},
		{
			"buffer":0,
			"byteLength":31104,
			"byteOffset":2055456,
			"target":34962
		},
		{
			"buffer":0,
			"byteLength":7776,
			"byteOffset":2086560,
			"target":34963
		},
		{
			"buffer":0,
			"byteLength":74880,
			"byteOffset":2094336,
			"target":34962
		},
		{
			"buffer":0,
			"byteLength":74880,
			"byteOffset":2169216,
			"target":34962
		},
		{
			"buffer":0,
			"byteLength":18720,
			"byteOffset":2244096,
			"target":34963
		},
		{
			"buffer":0,
			"byteLength":10368,
			"byteOffset":2262816,
			"target":34962
		},
		{
			"buffer":0,
			"byteLength":10368,
			"byteOffset":2273184,
			"target":34962
		},
		{
			"buffer":0,
			"byteLength":2592,
			"byteOffset":2283552,
			"target":34963
		}
	],
	"buffers":[
		{
			"byteLength":2286144,
			"uri":"Door_Reg.bin"
		}
	]
}
