{
	"asset":{
		"generator":"Khronos glTF Blender I/O v5.0.21",
		"version":"2.0"
	},
	"extensionsUsed":[
		"KHR_materials_specular"
	],
	"scene":0,
	"scenes":[
		{
			"name":"Scene",
			"nodes":[
				0
			]
		}
	],
	"nodes":[
		{
			"mesh":0,
			"name":"Draw_Gate",
			"rotation":[
				0.7071068286895752,
				0,
				0,
				0.7071068286895752
			]
		}
	],
	"materials":[
		{
			"doubleSided":true,
			"extensions":{
				"KHR_materials_specular":{
					"specularFactor":0
				}
			},
			"name":"mat_106_106_128",
			"pbrMetallicRoughness":{
				"baseColorFactor":[
					0.41600000858306885,
					0.41600000858306885,
					0.5019999742507935,
					1
				],
				"metallicFactor":0
			}
		},
		{
			"doubleSided":true,
			"extensions":{
				"KHR_materials_specular":{
					"specularFactor":0
				}
			},
			"name":"mat_45_25_16",
			"pbrMetallicRoughness":{
				"baseColorFactor":[
					0.17599999904632568,
					0.09799999743700027,
					0.06300000101327896,
					1
				],
				"metallicFactor":0
			}
		},
		{
			"doubleSided":true,
			"extensions":{
				"KHR_materials_specular":{
					"specularFactor":0
				}
			},
			"name":"mat_77_41_26",
			"pbrMetallicRoughness":{
				"baseColorFactor":[
					0.3019999861717224,
					0.16099999845027924,
					0.10199999809265137,
					1
				],
				"metallicFactor":0
			}
		},
		{
			"doubleSided":true,
			"extensions":{
				"KHR_materials_specular":{
					"specularFactor":0
				}
			},
			"name":"mat_161_165_179",
			"pbrMetallicRoughness":{
				"baseColorFactor":[
					0.6309999823570251,
					0.6470000147819519,
					0.7020000219345093,
					1
				],
				"metallicFactor":0
			}
		},
		{
			"doubleSided":true,
			"extensions":{
				"KHR_materials_specular":{
					"specularFactor":0
				}
			},
			"name":"mat_58_57_77",
			"pbrMetallicRoughness":{
				"baseColorFactor":[
					0.22699999809265137,
					0.2240000069141388,
					0.3019999861717224,
					1
				],
				"metallicFactor":0
			}
		},
		{
			"doubleSided":true,
			"extensions":{
				"KHR_materials_specular":{
					"specularFactor":0
				}
			},
			"name":"mat_91_43_23",
			"pbrMetallicRoughness":{
				"baseColorFactor":[
					0.3569999933242798,
					0.16899999976158142,
					0.09000000357627869,
					1
				],
				"metallicFactor":0
			}
		},
		{
			"doubleSided":true,
			"extensions":{
				"KHR_materials_specular":{
					"specularFactor":0
				}
			},
			"name":"mat_102_55_35",
			"pbrMetallicRoughness":{
				"baseColorFactor":[
					0.4000000059604645,
					0.2160000056028366,
					0.13699999451637268,
					1
				],
				"metallicFactor":0
			}
		},
		{
			"doubleSided":true,
			"extensions":{
				"KHR_materials_specular":{
					"specularFactor":0
				}
			},
			"name":"mat_122_66_43",
			"pbrMetallicRoughness":{
				"baseColorFactor":[
					0.4779999852180481,
					0.2590000033378601,
					0.16899999976158142,
					1
				],
				"metallicFactor":0
			}
		},
		{
			"doubleSided":true,
			"extensions":{
				"KHR_materials_specular":{
					"specularFactor":0
				}
			},
			"name":"mat_25_24_36",
			"pbrMetallicRoughness":{
				"baseColorFactor":[
					0.09799999743700027,
					0.09399999678134918,
					0.14100000262260437,
					1
				],
				"metallicFactor":0
			}
		},
		{
			"doubleSided":true,
			"extensions":{
				"KHR_materials_specular":{
					"specularFactor":0
				}
			},
			"name":"mat_42_22_13",
			"pbrMetallicRoughness":{
				"baseColorFactor":[
					0.16500000655651093,
					0.0860000029206276,
					0.050999999046325684,
					1
				],
				"metallicFactor":0
			}
		},
		{
			"doubleSided":true,
			"extensions":{
				"KHR_materials_specular":{
					"specularFactor":0
				}
			},
			"name":"mat_250_199_66",
			"pbrMetallicRoughness":{
				"baseColorFactor":[
					0.9800000190734863,
					0.7799999713897705,
					0.2590000033378601,
					1
				],
				"metallicFactor":0
			}
		}
	],
	"meshes":[
		{
			"name":"Draw_Gate",
			"primitives":[
				{
					"attributes":{
						"POSITION":0,
						"NORMAL":1
					},
					"indices":2,
					"material":0
				},
				{
					"attributes":{
						"POSITION":3,
						"NORMAL":4
					},
					"indices":5,
					"material":1
				},
				{
					"attributes":{
						"POSITION":6,
						"NORMAL":7
					},
					"indices":8,
					"material":2
				},
				{
					"attributes":{
						"POSITION":9,
						"NORMAL":10
					},
					"indices":11,
					"material":3
				},
				{
					"attributes":{
						"POSITION":12,
						"NORMAL":13
					},
					"indices":14,
					"material":4
				},
				{
					"attributes":{
						"POSITION":15,
						"NORMAL":16
					},
					"indices":17,
					"material":5
				},
				{
					"attributes":{
						"POSITION":18,
						"NORMAL":19
					},
					"indices":20,
					"material":6
				},
				{
					"attributes":{
						"POSITION":21,
						"NORMAL":22
					},
					"indices":23,
					"material":7
				},
				{
					"attributes":{
						"POSITION":24,
						"NORMAL":25
					},
					"indices":26,
					"material":8
				},
				{
					"attributes":{
						"POSITION":27,
						"NORMAL":28
					},
					"indices":29,
					"material":9
				},
				{
					"attributes":{
						"POSITION":30,
						"NORMAL":31
					},
					"indices":32,
					"material":10
				}
			]
		}
	],
	"accessors":[
		{
			"bufferView":0,
			"componentType":5126,
			"count":9216,
			"max":[
				31,
				13,
				-3
			],
			"min":[
				1,
				0,
				-14
			],
			"type":"VEC3"
		},
		{
			"bufferView":1,
			"componentType":5126,
			"count":9216,
			"type":"VEC3"
		},
		{
			"bufferView":2,
			"componentType":5123,
			"count":13824,
			"type":"SCALAR"
		},
		{
			"bufferView":3,
			"componentType":5126,
			"count":21360,
			"max":[
				30,
				12,
				-4
			],
			"min":[
				3,
				0,
				-13
			],
			"type":"VEC3"
		},
		{
			"bufferView":4,
			"componentType":5126,
			"count":21360,
			"type":"VEC3"
		},
		{
			"bufferView":5,
			"componentType":5123,
			"count":32040,
			"type":"SCALAR"
		},
		{
			"bufferView":6,
			"componentType":5126,
			"count":16464,
			"max":[
				30,
				12,
				-5
			],
			"min":[
				3,
				0,
				-12
			],
			"type":"VEC3"
		},
		{
			"bufferView":7,
			"componentType":5126,
			"count":16464,
			"type":"VEC3"
		},
		{
			"bufferView":8,
			"componentType":5123,
			"count":24696,
			"type":"SCALAR"
		},
		{
			"bufferView":9,
			"componentType":5126,
			"count":13584,
			"max":[
				31,
				13,
				-3
			],
			"min":[
				1,
				0,
				-8
			],
			"type":"VEC3"
		},
		{
			"bufferView":10,
			"componentType":5126,
			"count":13584,
			"type":"VEC3"
		},
		{
			"bufferView":11,
			"componentType":5123,
			"count":20376,
			"type":"SCALAR"
		},
		{
			"bufferView":12,
			"componentType":5126,
			"count":3072,
			"max":[
				31,
				12,
				-3
			],
			"min":[
				1,
				0,
				-8
			],
			"type":"VEC3"
		},
		{
			"bufferView":13,
			"componentType":5126,
			"count":3072,
			"type":"VEC3"
		},
		{
			"bufferView":14,
			"componentType":5123,
			"count":4608,
			"type":"SCALAR"
		},
		{
			"bufferView":15,
			"componentType":5126,
			"count":10608,
			"max":[
				28,
				11,
				-5
			],
			"min":[
				4,
				0,
				-12
			],
			"type":"VEC3"
		},
		{
			"bufferView":16,
			"componentType":5126,
			"count":10608,
			"type":"VEC3"
		},
		{
			"bufferView":17,
			"componentType":5123,
			"count":15912,
			"type":"SCALAR"
		},
		{
			"bufferView":18,
			"componentType":5126,
			"count":2208,
			"max":[
				26,
				11,
				-5
			],
			"min":[
				4,
				0,
				-12
			],
			"type":"VEC3"
		},
		{
			"bufferView":19,
			"componentType":5126,
			"count":2208,
			"type":"VEC3"
		},
		{
			"bufferView":20,
			"componentType":5123,
			"count":3312,
			"type":"SCALAR"
		},
		{
			"bufferView":21,
			"componentType":5126,
			"count":2640,
			"max":[
				28,
				11,
				-5
			],
			"min":[
				4,
				0,
				-12
			],
			"type":"VEC3"
		},
		{
			"bufferView":22,
			"componentType":5126,
			"count":2640,
			"type":"VEC3"
		},
		{
			"bufferView":23,
			"componentType":5123,
			"count":3960,
			"type":"SCALAR"
		},
		{
			"bufferView":24,
			"componentType":5126,
			"count":2688,
			"max":[
				26,
				12,
				-4
			],
			"min":[
				6,
				3,
				-13
			],
			"type":"VEC3"
		},
		{
			"bufferView":25,
			"componentType":5126,
			"count":2688,
			"type":"VEC3"
		},
		{
			"bufferView":26,
			"componentType":5123,
			"count":4032,
			"type":"SCALAR"
		},
		{
			"bufferView":27,
			"componentType":5126,
			"count":240,
			"max":[
				27,
				12,
				-5
			],
			"min":[
				5,
				11,
				-6
			],
			"type":"VEC3"
		},
		{
			"bufferView":28,
			"componentType":5126,
			"count":240,
			"type":"VEC3"
		},
		{
			"bufferView":29,
			"componentType":5123,
			"count":360,
			"type":"SCALAR"
		},
		{
			"bufferView":30,
			"componentType":5126,
			"count":1536,
			"max":[
				28,
				11,
				-4
			],
			"min":[
				4,
				1,
				-13
			],
			"type":"VEC3"
		},
		{
			"bufferView":31,
			"componentType":5126,
			"count":1536,
			"type":"VEC3"
		},
		{
			"bufferView":32,
			"componentType":5123,
			"count":2304,
			"type":"SCALAR"
		}
	],
	"bufferViews":[
		{
			"buffer":0,
			"byteLength":110592,
			"byteOffset":0,
			"target":34962
		},
		{
			"buffer":0,
			"byteLength":110592,
			"byteOffset":110592,
			"target":34962
		},
		{
			"buffer":0,
			"byteLength":27648,
			"byteOffset":221184,
			"target":34963
		},
		{
			"buffer":0,
			"byteLength":256320,
			"byteOffset":248832,
			"target":34962
		},
		{
			"buffer":0,
			"byteLength":256320,
			"byteOffset":505152,
			"target":34962
		},
		{
			"buffer":0,
			"byteLength":64080,
			"byteOffset":761472,
			"target":34963
		},
		{
			"buffer":0,
			"byteLength":197568,
			"byteOffset":825552,
			"target":34962
		},
		{
			"buffer":0,
			"byteLength":197568,
			"byteOffset":1023120,
			"target":34962
		},
		{
			"buffer":0,
			"byteLength":49392,
			"byteOffset":1220688,
			"target":34963
		},
		{
			"buffer":0,
			"byteLength":163008,
			"byteOffset":1270080,
			"target":34962
		},
		{
			"buffer":0,
			"byteLength":163008,
			"byteOffset":1433088,
			"target":34962
		},
		{
			"buffer":0,
			"byteLength":40752,
			"byteOffset":1596096,
			"target":34963
		},
		{
			"buffer":0,
			"byteLength":36864,
			"byteOffset":1636848,
			"target":34962
		},
		{
			"buffer":0,
			"byteLength":36864,
			"byteOffset":1673712,
			"target":34962
		},
		{
			"buffer":0,
			"byteLength":9216,
			"byteOffset":1710576,
			"target":34963
		},
		{
			"buffer":0,
			"byteLength":127296,
			"byteOffset":1719792,
			"target":34962
		},
		{
			"buffer":0,
			"byteLength":127296,
			"byteOffset":1847088,
			"target":34962
		},
		{
			"buffer":0,
			"byteLength":31824,
			"byteOffset":1974384,
			"target":34963
		},
		{
			"buffer":0,
			"byteLength":26496,
			"byteOffset":2006208,
			"target":34962
		},
		{
			"buffer":0,
			"byteLength":26496,
			"byteOffset":2032704,
			"target":34962
		},
		{
			"buffer":0,
			"byteLength":6624,
			"byteOffset":2059200,
			"target":34963
		},
		{
			"buffer":0,
			"byteLength":31680,
			"byteOffset":2065824,
			"target":34962
		},
		{
			"buffer":0,
			"byteLength":31680,
			"byteOffset":2097504,
			"target":34962
		},
		{
			"buffer":0,
			"byteLength":7920,
			"byteOffset":2129184,
			"target":34963
		},
		{
			"buffer":0,
			"byteLength":32256,
			"byteOffset":2137104,
			"target":34962
		},
		{
			"buffer":0,
			"byteLength":32256,
			"byteOffset":2169360,
			"target":34962
		},
		{
			"buffer":0,
			"byteLength":8064,
			"byteOffset":2201616,
			"target":34963
		},
		{
			"buffer":0,
			"byteLength":2880,
			"byteOffset":2209680,
			"target":34962
		},
		{
			"buffer":0,
			"byteLength":2880,
			"byteOffset":2212560,
			"target":34962
		},
		{
			"buffer":0,
			"byteLength":720,
			"byteOffset":2215440,
			"target":34963
		},
		{
			"buffer":0,
			"byteLength":18432,
			"byteOffset":2216160,
			"target":34962
		},
		{
			"buffer":0,
			"byteLength":18432,
			"byteOffset":2234592,
			"target":34962
		},
		{
			"buffer":0,
			"byteLength":4608,
			"byteOffset":2253024,
			"target":34963
		}
	],
	"buffers":[
		{
			"byteLength":2257632,
			"uri":"Draw_Gate.bin"
		}
	]
}
