{
	"asset":{
		"generator":"Khronos glTF Blender I/O v5.0.21",
		"version":"2.0"
	},
	"extensionsUsed":[
		"KHR_materials_specular"
	],
	"scene":0,
	"scenes":[
		{
			"name":"Scene",
			"nodes":[
				0
			]
		}
	],
	"nodes":[
		{
			"mesh":0,
			"name":"Fire_Blue",
			"rotation":[
				0.7071068286895752,
				0,
				0,
				0.7071068286895752
			]
		}
	],
	"materials":[
		{
			"doubleSided":true,
			"extensions":{
				"KHR_materials_specular":{
					"specularFactor":0
				}
			},
			"name":"mat_121_228_232",
			"pbrMetallicRoughness":{
				"baseColorFactor":[
					0.4749999940395355,
					0.8939999938011169,
					0.9100000262260437,
					1
				],
				"metallicFactor":0
			}
		},
		{
			"doubleSided":true,
			"extensions":{
				"KHR_materials_specular":{
					"specularFactor":0
				}
			},
			"name":"mat_55_154_234",
			"pbrMetallicRoughness":{
				"baseColorFactor":[
					0.2160000056028366,
					0.6039999723434448,
					0.9179999828338623,
					1
				],
				"metallicFactor":0
			}
		},
		{
			"doubleSided":true,
			"extensions":{
				"KHR_materials_specular":{
					"specularFactor":0
				}
			},
			"name":"mat_31_92_255",
			"pbrMetallicRoughness":{
				"baseColorFactor":[
					0.12200000137090683,
					0.3610000014305115,
					1,
					1
				],
				"metallicFactor":0
			}
		}
	],
	"meshes":[
		{
			"name":"Fire_Blue",
			"primitives":[
				{
					"attributes":{
						"POSITION":0,
						"NORMAL":1
					},
					"indices":2,
					"material":0
				},
				{
					"attributes":{
						"POSITION":3,
						"NORMAL":4
					},
					"indices":5,
					"material":1
				},
				{
					"attributes":{
						"POSITION":6,
						"NORMAL":7
					},
					"indices":8,
					"material":2
				}
			]
		}
	],
	"accessors":[
		{
			"bufferView":0,
			"componentType":5126,
			"count":9024,
			"max":[
				20,
				4,
				-3
			],
			"min":[
				5,
				0,
				-19
			],
			"type":"VEC3"
		},
		{
			"bufferView":1,
			"componentType":5126,
			"count":9024,
			"type":"VEC3"
		},
		{
			"bufferView":2,
			"componentType":5123,
			"count":13536,
			"type":"SCALAR"
		},
		{
			"bufferView":3,
			"componentType":5126,
			"count":24096,
			"max":[
				21,
				18,
				-4
			],
			"min":[
				5,
				1,
				-19
			],
			"type":"VEC3"
		},
		{
			"bufferView":4,
			"componentType":5126,
			"count":24096,
			"type":"VEC3"
		},
		{
			"bufferView":5,
			"componentType":5123,
			"count":36144,
			"type":"SCALAR"
		},
		{
			"bufferView":6,
			"componentType":5126,
			"count":25824,
			"max":[
				21,
				26,
				-3
			],
			"min":[
				7,
				4,
				-18
			],
			"type":"VEC3"
		},
		{
			"bufferView":7,
			"componentType":5126,
			"count":25824,
			"type":"VEC3"
		},
		{
			"bufferView":8,
			"componentType":5123,
			"count":38736,
			"type":"SCALAR"
		}
	],
	"bufferViews":[
		{
			"buffer":0,
			"byteLength":108288,
			"byteOffset":0,
			"target":34962
		},
		{
			"buffer":0,
			"byteLength":108288,
			"byteOffset":108288,
			"target":34962
		},
		{
			"buffer":0,
			"byteLength":27072,
			"byteOffset":216576,
			"target":34963
		},
		{
			"buffer":0,
			"byteLength":289152,
			"byteOffset":243648,
			"target":34962
		},
		{
			"buffer":0,
			"byteLength":289152,
			"byteOffset":532800,
			"target":34962
		},
		{
			"buffer":0,
			"byteLength":72288,
			"byteOffset":821952,
			"target":34963
		},
		{
			"buffer":0,
			"byteLength":309888,
			"byteOffset":894240,
			"target":34962
		},
		{
			"buffer":0,
			"byteLength":309888,
			"byteOffset":1204128,
			"target":34962
		},
		{
			"buffer":0,
			"byteLength":77472,
			"byteOffset":1514016,
			"target":34963
		}
	],
	"buffers":[
		{
			"byteLength":1591488,
			"uri":"Fire_Blue.bin"
		}
	]
}
