{
	"asset":{
		"generator":"Khronos glTF Blender I/O v5.0.21",
		"version":"2.0"
	},
	"extensionsUsed":[
		"KHR_materials_specular"
	],
	"scene":0,
	"scenes":[
		{
			"name":"Scene",
			"nodes":[
				0
			]
		}
	],
	"nodes":[
		{
			"mesh":0,
			"name":"Flower_Red",
			"rotation":[
				0.7071068286895752,
				0,
				0,
				0.7071068286895752
			]
		}
	],
	"materials":[
		{
			"doubleSided":true,
			"extensions":{
				"KHR_materials_specular":{
					"specularFactor":0
				}
			},
			"name":"mat_109_141_52",
			"pbrMetallicRoughness":{
				"baseColorFactor":[
					0.4269999861717224,
					0.5529999732971191,
					0.20399999618530273,
					1
				],
				"metallicFactor":0
			}
		},
		{
			"doubleSided":true,
			"extensions":{
				"KHR_materials_specular":{
					"specularFactor":0
				}
			},
			"name":"mat_90_115_46",
			"pbrMetallicRoughness":{
				"baseColorFactor":[
					0.3529999852180481,
					0.45100000500679016,
					0.18000000715255737,
					1
				],
				"metallicFactor":0
			}
		},
		{
			"doubleSided":true,
			"extensions":{
				"KHR_materials_specular":{
					"specularFactor":0
				}
			},
			"name":"mat_191_39_49",
			"pbrMetallicRoughness":{
				"baseColorFactor":[
					0.7490000128746033,
					0.15299999713897705,
					0.19200000166893005,
					1
				],
				"metallicFactor":0
			}
		},
		{
			"doubleSided":true,
			"extensions":{
				"KHR_materials_specular":{
					"specularFactor":0
				}
			},
			"name":"mat_255_228_130",
			"pbrMetallicRoughness":{
				"baseColorFactor":[
					1,
					0.8939999938011169,
					0.5099999904632568,
					1
				],
				"metallicFactor":0
			}
		},
		{
			"doubleSided":true,
			"extensions":{
				"KHR_materials_specular":{
					"specularFactor":0
				}
			},
			"name":"mat_219_195_109",
			"pbrMetallicRoughness":{
				"baseColorFactor":[
					0.859000027179718,
					0.7649999856948853,
					0.4269999861717224,
					1
				],
				"metallicFactor":0
			}
		},
		{
			"doubleSided":true,
			"extensions":{
				"KHR_materials_specular":{
					"specularFactor":0
				}
			},
			"name":"mat_166_33_42",
			"pbrMetallicRoughness":{
				"baseColorFactor":[
					0.6510000228881836,
					0.1289999932050705,
					0.16500000655651093,
					1
				],
				"metallicFactor":0
			}
		}
	],
	"meshes":[
		{
			"name":"Flower_Red",
			"primitives":[
				{
					"attributes":{
						"POSITION":0,
						"NORMAL":1
					},
					"indices":2,
					"material":0
				},
				{
					"attributes":{
						"POSITION":3,
						"NORMAL":4
					},
					"indices":5,
					"material":1
				},
				{
					"attributes":{
						"POSITION":6,
						"NORMAL":7
					},
					"indices":8,
					"material":2
				},
				{
					"attributes":{
						"POSITION":9,
						"NORMAL":10
					},
					"indices":11,
					"material":3
				},
				{
					"attributes":{
						"POSITION":12,
						"NORMAL":13
					},
					"indices":11,
					"material":4
				},
				{
					"attributes":{
						"POSITION":14,
						"NORMAL":15
					},
					"indices":2,
					"material":5
				}
			]
		}
	],
	"accessors":[
		{
			"bufferView":0,
			"componentType":5126,
			"count":336,
			"max":[
				6,
				8,
				-2
			],
			"min":[
				2,
				0,
				-8
			],
			"type":"VEC3"
		},
		{
			"bufferView":1,
			"componentType":5126,
			"count":336,
			"type":"VEC3"
		},
		{
			"bufferView":2,
			"componentType":5123,
			"count":504,
			"type":"SCALAR"
		},
		{
			"bufferView":3,
			"componentType":5126,
			"count":672,
			"max":[
				6,
				8,
				-2
			],
			"min":[
				2,
				0,
				-8
			],
			"type":"VEC3"
		},
		{
			"bufferView":4,
			"componentType":5126,
			"count":672,
			"type":"VEC3"
		},
		{
			"bufferView":5,
			"componentType":5123,
			"count":1008,
			"type":"SCALAR"
		},
		{
			"bufferView":6,
			"componentType":5126,
			"count":720,
			"max":[
				8,
				11,
				-2
			],
			"min":[
				2,
				8,
				-8
			],
			"type":"VEC3"
		},
		{
			"bufferView":7,
			"componentType":5126,
			"count":720,
			"type":"VEC3"
		},
		{
			"bufferView":8,
			"componentType":5123,
			"count":1080,
			"type":"SCALAR"
		},
		{
			"bufferView":9,
			"componentType":5126,
			"count":144,
			"max":[
				7,
				10,
				-3
			],
			"min":[
				3,
				8,
				-7
			],
			"type":"VEC3"
		},
		{
			"bufferView":10,
			"componentType":5126,
			"count":144,
			"type":"VEC3"
		},
		{
			"bufferView":11,
			"componentType":5123,
			"count":216,
			"type":"SCALAR"
		},
		{
			"bufferView":12,
			"componentType":5126,
			"count":144,
			"max":[
				7,
				10,
				-3
			],
			"min":[
				3,
				8,
				-7
			],
			"type":"VEC3"
		},
		{
			"bufferView":13,
			"componentType":5126,
			"count":144,
			"type":"VEC3"
		},
		{
			"bufferView":14,
			"componentType":5126,
			"count":336,
			"max":[
				8,
				11,
				-2
			],
			"min":[
				2,
				8,
				-8
			],
			"type":"VEC3"
		},
		{
			"bufferView":15,
			"componentType":5126,
			"count":336,
			"type":"VEC3"
		}
	],
	"bufferViews":[
		{
			"buffer":0,
			"byteLength":4032,
			"byteOffset":0,
			"target":34962
		},
		{
			"buffer":0,
			"byteLength":4032,
			"byteOffset":4032,
			"target":34962
		},
		{
			"buffer":0,
			"byteLength":1008,
			"byteOffset":8064,
			"target":34963
		},
		{
			"buffer":0,
			"byteLength":8064,
			"byteOffset":9072,
			"target":34962
		},
		{
			"buffer":0,
			"byteLength":8064,
			"byteOffset":17136,
			"target":34962
		},
		{
			"buffer":0,
			"byteLength":2016,
			"byteOffset":25200,
			"target":34963
		},
		{
			"buffer":0,
			"byteLength":8640,
			"byteOffset":27216,
			"target":34962
		},
		{
			"buffer":0,
			"byteLength":8640,
			"byteOffset":35856,
			"target":34962
		},
		{
			"buffer":0,
			"byteLength":2160,
			"byteOffset":44496,
			"target":34963
		},
		{
			"buffer":0,
			"byteLength":1728,
			"byteOffset":46656,
			"target":34962
		},
		{
			"buffer":0,
			"byteLength":1728,
			"byteOffset":48384,
			"target":34962
		},
		{
			"buffer":0,
			"byteLength":432,
			"byteOffset":50112,
			"target":34963
		},
		{
			"buffer":0,
			"byteLength":1728,
			"byteOffset":50544,
			"target":34962
		},
		{
			"buffer":0,
			"byteLength":1728,
			"byteOffset":52272,
			"target":34962
		},
		{
			"buffer":0,
			"byteLength":4032,
			"byteOffset":54000,
			"target":34962
		},
		{
			"buffer":0,
			"byteLength":4032,
			"byteOffset":58032,
			"target":34962
		}
	],
	"buffers":[
		{
			"byteLength":62064,
			"uri":"Flower_Red.bin"
		}
	]
}
