{
	"asset":{
		"generator":"Khronos glTF Blender I/O v5.0.21",
		"version":"2.0"
	},
	"extensionsUsed":[
		"KHR_materials_specular"
	],
	"scene":0,
	"scenes":[
		{
			"name":"Scene",
			"nodes":[
				0
			]
		}
	],
	"nodes":[
		{
			"mesh":0,
			"name":"Gravestone_3Weathered",
			"rotation":[
				0.7071068286895752,
				0,
				0,
				0.7071068286895752
			]
		}
	],
	"materials":[
		{
			"doubleSided":true,
			"extensions":{
				"KHR_materials_specular":{
					"specularFactor":0
				}
			},
			"name":"mat_91_91_91",
			"pbrMetallicRoughness":{
				"baseColorFactor":[
					0.3569999933242798,
					0.3569999933242798,
					0.3569999933242798,
					1
				],
				"metallicFactor":0
			}
		},
		{
			"doubleSided":true,
			"extensions":{
				"KHR_materials_specular":{
					"specularFactor":0
				}
			},
			"name":"mat_74_74_74",
			"pbrMetallicRoughness":{
				"baseColorFactor":[
					0.28999999165534973,
					0.28999999165534973,
					0.28999999165534973,
					1
				],
				"metallicFactor":0
			}
		},
		{
			"doubleSided":true,
			"extensions":{
				"KHR_materials_specular":{
					"specularFactor":0
				}
			},
			"name":"mat_49_74_47",
			"pbrMetallicRoughness":{
				"baseColorFactor":[
					0.19200000166893005,
					0.28999999165534973,
					0.18400000035762787,
					1
				],
				"metallicFactor":0
			}
		},
		{
			"doubleSided":true,
			"extensions":{
				"KHR_materials_specular":{
					"specularFactor":0
				}
			},
			"name":"mat_47_47_47",
			"pbrMetallicRoughness":{
				"baseColorFactor":[
					0.18400000035762787,
					0.18400000035762787,
					0.18400000035762787,
					1
				],
				"metallicFactor":0
			}
		},
		{
			"doubleSided":true,
			"extensions":{
				"KHR_materials_specular":{
					"specularFactor":0
				}
			},
			"name":"mat_42_62_39",
			"pbrMetallicRoughness":{
				"baseColorFactor":[
					0.16500000655651093,
					0.24300000071525574,
					0.15299999713897705,
					1
				],
				"metallicFactor":0
			}
		}
	],
	"meshes":[
		{
			"name":"Gravestone_3Weathered",
			"primitives":[
				{
					"attributes":{
						"POSITION":0,
						"NORMAL":1
					},
					"indices":2,
					"material":0
				},
				{
					"attributes":{
						"POSITION":3,
						"NORMAL":4
					},
					"indices":5,
					"material":1
				},
				{
					"attributes":{
						"POSITION":6,
						"NORMAL":7
					},
					"indices":8,
					"material":2
				},
				{
					"attributes":{
						"POSITION":9,
						"NORMAL":10
					},
					"indices":11,
					"material":3
				},
				{
					"attributes":{
						"POSITION":12,
						"NORMAL":13
					},
					"indices":14,
					"material":4
				}
			]
		}
	],
	"accessors":[
		{
			"bufferView":0,
			"componentType":5126,
			"count":40824,
			"max":[
				23,
				31,
				-8
			],
			"min":[
				0,
				0,
				-16
			],
			"type":"VEC3"
		},
		{
			"bufferView":1,
			"componentType":5126,
			"count":40824,
			"type":"VEC3"
		},
		{
			"bufferView":2,
			"componentType":5123,
			"count":61236,
			"type":"SCALAR"
		},
		{
			"bufferView":3,
			"componentType":5126,
			"count":4752,
			"max":[
				23,
				31,
				-8
			],
			"min":[
				0,
				0,
				-16
			],
			"type":"VEC3"
		},
		{
			"bufferView":4,
			"componentType":5126,
			"count":4752,
			"type":"VEC3"
		},
		{
			"bufferView":5,
			"componentType":5123,
			"count":7128,
			"type":"SCALAR"
		},
		{
			"bufferView":6,
			"componentType":5126,
			"count":2880,
			"max":[
				22,
				32,
				-7
			],
			"min":[
				1,
				0,
				-20
			],
			"type":"VEC3"
		},
		{
			"bufferView":7,
			"componentType":5126,
			"count":2880,
			"type":"VEC3"
		},
		{
			"bufferView":8,
			"componentType":5123,
			"count":4320,
			"type":"SCALAR"
		},
		{
			"bufferView":9,
			"componentType":5126,
			"count":1152,
			"max":[
				17,
				22,
				-10
			],
			"min":[
				5,
				11,
				-12
			],
			"type":"VEC3"
		},
		{
			"bufferView":10,
			"componentType":5126,
			"count":1152,
			"type":"VEC3"
		},
		{
			"bufferView":11,
			"componentType":5123,
			"count":1728,
			"type":"SCALAR"
		},
		{
			"bufferView":12,
			"componentType":5126,
			"count":5688,
			"max":[
				23,
				32,
				-7
			],
			"min":[
				0,
				0,
				-18
			],
			"type":"VEC3"
		},
		{
			"bufferView":13,
			"componentType":5126,
			"count":5688,
			"type":"VEC3"
		},
		{
			"bufferView":14,
			"componentType":5123,
			"count":8532,
			"type":"SCALAR"
		}
	],
	"bufferViews":[
		{
			"buffer":0,
			"byteLength":489888,
			"byteOffset":0,
			"target":34962
		},
		{
			"buffer":0,
			"byteLength":489888,
			"byteOffset":489888,
			"target":34962
		},
		{
			"buffer":0,
			"byteLength":122472,
			"byteOffset":979776,
			"target":34963
		},
		{
			"buffer":0,
			"byteLength":57024,
			"byteOffset":1102248,
			"target":34962
		},
		{
			"buffer":0,
			"byteLength":57024,
			"byteOffset":1159272,
			"target":34962
		},
		{
			"buffer":0,
			"byteLength":14256,
			"byteOffset":1216296,
			"target":34963
		},
		{
			"buffer":0,
			"byteLength":34560,
			"byteOffset":1230552,
			"target":34962
		},
		{
			"buffer":0,
			"byteLength":34560,
			"byteOffset":1265112,
			"target":34962
		},
		{
			"buffer":0,
			"byteLength":8640,
			"byteOffset":1299672,
			"target":34963
		},
		{
			"buffer":0,
			"byteLength":13824,
			"byteOffset":1308312,
			"target":34962
		},
		{
			"buffer":0,
			"byteLength":13824,
			"byteOffset":1322136,
			"target":34962
		},
		{
			"buffer":0,
			"byteLength":3456,
			"byteOffset":1335960,
			"target":34963
		},
		{
			"buffer":0,
			"byteLength":68256,
			"byteOffset":1339416,
			"target":34962
		},
		{
			"buffer":0,
			"byteLength":68256,
			"byteOffset":1407672,
			"target":34962
		},
		{
			"buffer":0,
			"byteLength":17064,
			"byteOffset":1475928,
			"target":34963
		}
	],
	"buffers":[
		{
			"byteLength":1492992,
			"uri":"Gravestone_3Weathered.bin"
		}
	]
}
