{
	"asset":{
		"generator":"Khronos glTF Blender I/O v5.0.21",
		"version":"2.0"
	},
	"extensionsUsed":[
		"KHR_materials_specular"
	],
	"scene":0,
	"scenes":[
		{
			"name":"Scene",
			"nodes":[
				0
			]
		}
	],
	"nodes":[
		{
			"mesh":0,
			"name":"Gravestone_2Weathered",
			"rotation":[
				0.7071068286895752,
				0,
				0,
				0.7071068286895752
			]
		}
	],
	"materials":[
		{
			"doubleSided":true,
			"extensions":{
				"KHR_materials_specular":{
					"specularFactor":0
				}
			},
			"name":"mat_91_91_91",
			"pbrMetallicRoughness":{
				"baseColorFactor":[
					0.3569999933242798,
					0.3569999933242798,
					0.3569999933242798,
					1
				],
				"metallicFactor":0
			}
		},
		{
			"doubleSided":true,
			"extensions":{
				"KHR_materials_specular":{
					"specularFactor":0
				}
			},
			"name":"mat_42_62_39",
			"pbrMetallicRoughness":{
				"baseColorFactor":[
					0.16500000655651093,
					0.24300000071525574,
					0.15299999713897705,
					1
				],
				"metallicFactor":0
			}
		},
		{
			"doubleSided":true,
			"extensions":{
				"KHR_materials_specular":{
					"specularFactor":0
				}
			},
			"name":"mat_74_74_74",
			"pbrMetallicRoughness":{
				"baseColorFactor":[
					0.28999999165534973,
					0.28999999165534973,
					0.28999999165534973,
					1
				],
				"metallicFactor":0
			}
		},
		{
			"doubleSided":true,
			"extensions":{
				"KHR_materials_specular":{
					"specularFactor":0
				}
			},
			"name":"mat_49_74_47",
			"pbrMetallicRoughness":{
				"baseColorFactor":[
					0.19200000166893005,
					0.28999999165534973,
					0.18400000035762787,
					1
				],
				"metallicFactor":0
			}
		}
	],
	"meshes":[
		{
			"name":"Gravestone_2Weathered",
			"primitives":[
				{
					"attributes":{
						"POSITION":0,
						"NORMAL":1
					},
					"indices":2,
					"material":0
				},
				{
					"attributes":{
						"POSITION":3,
						"NORMAL":4
					},
					"indices":5,
					"material":1
				},
				{
					"attributes":{
						"POSITION":6,
						"NORMAL":7
					},
					"indices":8,
					"material":2
				},
				{
					"attributes":{
						"POSITION":9,
						"NORMAL":10
					},
					"indices":11,
					"material":3
				}
			]
		}
	],
	"accessors":[
		{
			"bufferView":0,
			"componentType":5126,
			"count":25992,
			"max":[
				24,
				33,
				-8
			],
			"min":[
				0,
				0,
				-16
			],
			"type":"VEC3"
		},
		{
			"bufferView":1,
			"componentType":5126,
			"count":25992,
			"type":"VEC3"
		},
		{
			"bufferView":2,
			"componentType":5123,
			"count":38988,
			"type":"SCALAR"
		},
		{
			"bufferView":3,
			"componentType":5126,
			"count":2400,
			"max":[
				23,
				34,
				-7
			],
			"min":[
				2,
				0,
				-17
			],
			"type":"VEC3"
		},
		{
			"bufferView":4,
			"componentType":5126,
			"count":2400,
			"type":"VEC3"
		},
		{
			"bufferView":5,
			"componentType":5123,
			"count":3600,
			"type":"SCALAR"
		},
		{
			"bufferView":6,
			"componentType":5126,
			"count":3096,
			"max":[
				23,
				32,
				-8
			],
			"min":[
				0,
				0,
				-16
			],
			"type":"VEC3"
		},
		{
			"bufferView":7,
			"componentType":5126,
			"count":3096,
			"type":"VEC3"
		},
		{
			"bufferView":8,
			"componentType":5123,
			"count":4644,
			"type":"SCALAR"
		},
		{
			"bufferView":9,
			"componentType":5126,
			"count":6144,
			"max":[
				24,
				34,
				-7
			],
			"min":[
				0,
				0,
				-17
			],
			"type":"VEC3"
		},
		{
			"bufferView":10,
			"componentType":5126,
			"count":6144,
			"type":"VEC3"
		},
		{
			"bufferView":11,
			"componentType":5123,
			"count":9216,
			"type":"SCALAR"
		}
	],
	"bufferViews":[
		{
			"buffer":0,
			"byteLength":311904,
			"byteOffset":0,
			"target":34962
		},
		{
			"buffer":0,
			"byteLength":311904,
			"byteOffset":311904,
			"target":34962
		},
		{
			"buffer":0,
			"byteLength":77976,
			"byteOffset":623808,
			"target":34963
		},
		{
			"buffer":0,
			"byteLength":28800,
			"byteOffset":701784,
			"target":34962
		},
		{
			"buffer":0,
			"byteLength":28800,
			"byteOffset":730584,
			"target":34962
		},
		{
			"buffer":0,
			"byteLength":7200,
			"byteOffset":759384,
			"target":34963
		},
		{
			"buffer":0,
			"byteLength":37152,
			"byteOffset":766584,
			"target":34962
		},
		{
			"buffer":0,
			"byteLength":37152,
			"byteOffset":803736,
			"target":34962
		},
		{
			"buffer":0,
			"byteLength":9288,
			"byteOffset":840888,
			"target":34963
		},
		{
			"buffer":0,
			"byteLength":73728,
			"byteOffset":850176,
			"target":34962
		},
		{
			"buffer":0,
			"byteLength":73728,
			"byteOffset":923904,
			"target":34962
		},
		{
			"buffer":0,
			"byteLength":18432,
			"byteOffset":997632,
			"target":34963
		}
	],
	"buffers":[
		{
			"byteLength":1016064,
			"uri":"Gravestone_2Weathered.bin"
		}
	]
}
