{
	"asset":{
		"generator":"Khronos glTF Blender I/O v5.0.21",
		"version":"2.0"
	},
	"extensionsUsed":[
		"KHR_materials_specular"
	],
	"scene":0,
	"scenes":[
		{
			"name":"Scene",
			"nodes":[
				0
			]
		}
	],
	"nodes":[
		{
			"mesh":0,
			"name":"Gravestone_3",
			"rotation":[
				0.7071068286895752,
				0,
				0,
				0.7071068286895752
			]
		}
	],
	"materials":[
		{
			"doubleSided":true,
			"extensions":{
				"KHR_materials_specular":{
					"specularFactor":0
				}
			},
			"name":"mat_91_91_91",
			"pbrMetallicRoughness":{
				"baseColorFactor":[
					0.3569999933242798,
					0.3569999933242798,
					0.3569999933242798,
					1
				],
				"metallicFactor":0
			}
		},
		{
			"doubleSided":true,
			"extensions":{
				"KHR_materials_specular":{
					"specularFactor":0
				}
			},
			"name":"mat_74_74_74",
			"pbrMetallicRoughness":{
				"baseColorFactor":[
					0.28999999165534973,
					0.28999999165534973,
					0.28999999165534973,
					1
				],
				"metallicFactor":0
			}
		}
	],
	"meshes":[
		{
			"name":"Gravestone_3",
			"primitives":[
				{
					"attributes":{
						"POSITION":0,
						"NORMAL":1
					},
					"indices":2,
					"material":0
				},
				{
					"attributes":{
						"POSITION":3,
						"NORMAL":4
					},
					"indices":5,
					"material":1
				}
			]
		}
	],
	"accessors":[
		{
			"bufferView":0,
			"componentType":5126,
			"count":46536,
			"max":[
				23,
				31,
				-8
			],
			"min":[
				0,
				0,
				-16
			],
			"type":"VEC3"
		},
		{
			"bufferView":1,
			"componentType":5126,
			"count":46536,
			"type":"VEC3"
		},
		{
			"bufferView":2,
			"componentType":5123,
			"count":69804,
			"type":"SCALAR"
		},
		{
			"bufferView":3,
			"componentType":5126,
			"count":7008,
			"max":[
				23,
				31,
				-8
			],
			"min":[
				0,
				0,
				-16
			],
			"type":"VEC3"
		},
		{
			"bufferView":4,
			"componentType":5126,
			"count":7008,
			"type":"VEC3"
		},
		{
			"bufferView":5,
			"componentType":5123,
			"count":10512,
			"type":"SCALAR"
		}
	],
	"bufferViews":[
		{
			"buffer":0,
			"byteLength":558432,
			"byteOffset":0,
			"target":34962
		},
		{
			"buffer":0,
			"byteLength":558432,
			"byteOffset":558432,
			"target":34962
		},
		{
			"buffer":0,
			"byteLength":139608,
			"byteOffset":1116864,
			"target":34963
		},
		{
			"buffer":0,
			"byteLength":84096,
			"byteOffset":1256472,
			"target":34962
		},
		{
			"buffer":0,
			"byteLength":84096,
			"byteOffset":1340568,
			"target":34962
		},
		{
			"buffer":0,
			"byteLength":21024,
			"byteOffset":1424664,
			"target":34963
		}
	],
	"buffers":[
		{
			"byteLength":1445688,
			"uri":"Gravestone_3.bin"
		}
	]
}
