{
	"asset":{
		"generator":"Khronos glTF Blender I/O v5.0.21",
		"version":"2.0"
	},
	"extensionsUsed":[
		"KHR_materials_specular"
	],
	"scene":0,
	"scenes":[
		{
			"name":"Scene",
			"nodes":[
				0
			]
		}
	],
	"nodes":[
		{
			"mesh":0,
			"name":"Gravestone_2",
			"rotation":[
				0.7071068286895752,
				0,
				0,
				0.7071068286895752
			]
		}
	],
	"materials":[
		{
			"doubleSided":true,
			"extensions":{
				"KHR_materials_specular":{
					"specularFactor":0
				}
			},
			"name":"mat_91_91_91",
			"pbrMetallicRoughness":{
				"baseColorFactor":[
					0.3569999933242798,
					0.3569999933242798,
					0.3569999933242798,
					1
				],
				"metallicFactor":0
			}
		},
		{
			"doubleSided":true,
			"extensions":{
				"KHR_materials_specular":{
					"specularFactor":0
				}
			},
			"name":"mat_42_62_39",
			"pbrMetallicRoughness":{
				"baseColorFactor":[
					0.16500000655651093,
					0.24300000071525574,
					0.15299999713897705,
					1
				],
				"metallicFactor":0
			}
		},
		{
			"doubleSided":true,
			"extensions":{
				"KHR_materials_specular":{
					"specularFactor":0
				}
			},
			"name":"mat_74_74_74",
			"pbrMetallicRoughness":{
				"baseColorFactor":[
					0.28999999165534973,
					0.28999999165534973,
					0.28999999165534973,
					1
				],
				"metallicFactor":0
			}
		},
		{
			"doubleSided":true,
			"extensions":{
				"KHR_materials_specular":{
					"specularFactor":0
				}
			},
			"name":"mat_47_47_47",
			"pbrMetallicRoughness":{
				"baseColorFactor":[
					0.18400000035762787,
					0.18400000035762787,
					0.18400000035762787,
					1
				],
				"metallicFactor":0
			}
		},
		{
			"doubleSided":true,
			"extensions":{
				"KHR_materials_specular":{
					"specularFactor":0
				}
			},
			"name":"mat_49_74_47",
			"pbrMetallicRoughness":{
				"baseColorFactor":[
					0.19200000166893005,
					0.28999999165534973,
					0.18400000035762787,
					1
				],
				"metallicFactor":0
			}
		}
	],
	"meshes":[
		{
			"name":"Gravestone_2",
			"primitives":[
				{
					"attributes":{
						"POSITION":0,
						"NORMAL":1
					},
					"indices":2,
					"material":0
				},
				{
					"attributes":{
						"POSITION":3,
						"NORMAL":4
					},
					"indices":5,
					"material":1
				},
				{
					"attributes":{
						"POSITION":6,
						"NORMAL":7
					},
					"indices":8,
					"material":2
				},
				{
					"attributes":{
						"POSITION":9,
						"NORMAL":10
					},
					"indices":11,
					"material":3
				},
				{
					"attributes":{
						"POSITION":12,
						"NORMAL":13
					},
					"indices":14,
					"material":4
				}
			]
		}
	],
	"accessors":[
		{
			"bufferView":0,
			"componentType":5126,
			"count":21744,
			"max":[
				24,
				33,
				-8
			],
			"min":[
				0,
				0,
				-16
			],
			"type":"VEC3"
		},
		{
			"bufferView":1,
			"componentType":5126,
			"count":21744,
			"type":"VEC3"
		},
		{
			"bufferView":2,
			"componentType":5123,
			"count":32616,
			"type":"SCALAR"
		},
		{
			"bufferView":3,
			"componentType":5126,
			"count":2352,
			"max":[
				23,
				34,
				-7
			],
			"min":[
				3,
				1,
				-16
			],
			"type":"VEC3"
		},
		{
			"bufferView":4,
			"componentType":5126,
			"count":2352,
			"type":"VEC3"
		},
		{
			"bufferView":5,
			"componentType":5123,
			"count":3528,
			"type":"SCALAR"
		},
		{
			"bufferView":6,
			"componentType":5126,
			"count":2424,
			"max":[
				23,
				33,
				-8
			],
			"min":[
				0,
				0,
				-16
			],
			"type":"VEC3"
		},
		{
			"bufferView":7,
			"componentType":5126,
			"count":2424,
			"type":"VEC3"
		},
		{
			"bufferView":8,
			"componentType":5123,
			"count":3636,
			"type":"SCALAR"
		},
		{
			"bufferView":9,
			"componentType":5126,
			"count":336,
			"max":[
				15,
				21,
				-9
			],
			"min":[
				9,
				14,
				-12
			],
			"type":"VEC3"
		},
		{
			"bufferView":10,
			"componentType":5126,
			"count":336,
			"type":"VEC3"
		},
		{
			"bufferView":11,
			"componentType":5123,
			"count":504,
			"type":"SCALAR"
		},
		{
			"bufferView":12,
			"componentType":5126,
			"count":6072,
			"max":[
				24,
				34,
				-7
			],
			"min":[
				0,
				0,
				-17
			],
			"type":"VEC3"
		},
		{
			"bufferView":13,
			"componentType":5126,
			"count":6072,
			"type":"VEC3"
		},
		{
			"bufferView":14,
			"componentType":5123,
			"count":9108,
			"type":"SCALAR"
		}
	],
	"bufferViews":[
		{
			"buffer":0,
			"byteLength":260928,
			"byteOffset":0,
			"target":34962
		},
		{
			"buffer":0,
			"byteLength":260928,
			"byteOffset":260928,
			"target":34962
		},
		{
			"buffer":0,
			"byteLength":65232,
			"byteOffset":521856,
			"target":34963
		},
		{
			"buffer":0,
			"byteLength":28224,
			"byteOffset":587088,
			"target":34962
		},
		{
			"buffer":0,
			"byteLength":28224,
			"byteOffset":615312,
			"target":34962
		},
		{
			"buffer":0,
			"byteLength":7056,
			"byteOffset":643536,
			"target":34963
		},
		{
			"buffer":0,
			"byteLength":29088,
			"byteOffset":650592,
			"target":34962
		},
		{
			"buffer":0,
			"byteLength":29088,
			"byteOffset":679680,
			"target":34962
		},
		{
			"buffer":0,
			"byteLength":7272,
			"byteOffset":708768,
			"target":34963
		},
		{
			"buffer":0,
			"byteLength":4032,
			"byteOffset":716040,
			"target":34962
		},
		{
			"buffer":0,
			"byteLength":4032,
			"byteOffset":720072,
			"target":34962
		},
		{
			"buffer":0,
			"byteLength":1008,
			"byteOffset":724104,
			"target":34963
		},
		{
			"buffer":0,
			"byteLength":72864,
			"byteOffset":725112,
			"target":34962
		},
		{
			"buffer":0,
			"byteLength":72864,
			"byteOffset":797976,
			"target":34962
		},
		{
			"buffer":0,
			"byteLength":18216,
			"byteOffset":870840,
			"target":34963
		}
	],
	"buffers":[
		{
			"byteLength":889056,
			"uri":"Gravestone_2.bin"
		}
	]
}
