{
	"asset":{
		"generator":"Khronos glTF Blender I/O v5.0.21",
		"version":"2.0"
	},
	"extensionsUsed":[
		"KHR_materials_specular"
	],
	"scene":0,
	"scenes":[
		{
			"name":"Scene",
			"nodes":[
				0
			]
		}
	],
	"nodes":[
		{
			"mesh":0,
			"name":"Gravestone_1Weathered",
			"rotation":[
				0.7071068286895752,
				0,
				0,
				0.7071068286895752
			]
		}
	],
	"materials":[
		{
			"doubleSided":true,
			"extensions":{
				"KHR_materials_specular":{
					"specularFactor":0
				}
			},
			"name":"mat_91_91_91",
			"pbrMetallicRoughness":{
				"baseColorFactor":[
					0.3569999933242798,
					0.3569999933242798,
					0.3569999933242798,
					1
				],
				"metallicFactor":0
			}
		},
		{
			"doubleSided":true,
			"extensions":{
				"KHR_materials_specular":{
					"specularFactor":0
				}
			},
			"name":"mat_49_74_47",
			"pbrMetallicRoughness":{
				"baseColorFactor":[
					0.19200000166893005,
					0.28999999165534973,
					0.18400000035762787,
					1
				],
				"metallicFactor":0
			}
		},
		{
			"doubleSided":true,
			"extensions":{
				"KHR_materials_specular":{
					"specularFactor":0
				}
			},
			"name":"mat_74_74_74",
			"pbrMetallicRoughness":{
				"baseColorFactor":[
					0.28999999165534973,
					0.28999999165534973,
					0.28999999165534973,
					1
				],
				"metallicFactor":0
			}
		},
		{
			"doubleSided":true,
			"extensions":{
				"KHR_materials_specular":{
					"specularFactor":0
				}
			},
			"name":"mat_47_47_47",
			"pbrMetallicRoughness":{
				"baseColorFactor":[
					0.18400000035762787,
					0.18400000035762787,
					0.18400000035762787,
					1
				],
				"metallicFactor":0
			}
		}
	],
	"meshes":[
		{
			"name":"Gravestone_1Weathered",
			"primitives":[
				{
					"attributes":{
						"POSITION":0,
						"NORMAL":1
					},
					"indices":2,
					"material":0
				},
				{
					"attributes":{
						"POSITION":3,
						"NORMAL":4
					},
					"indices":5,
					"material":1
				},
				{
					"attributes":{
						"POSITION":6,
						"NORMAL":7
					},
					"indices":8,
					"material":2
				},
				{
					"attributes":{
						"POSITION":9,
						"NORMAL":10
					},
					"indices":11,
					"material":3
				}
			]
		}
	],
	"accessors":[
		{
			"bufferView":0,
			"componentType":5126,
			"count":26160,
			"max":[
				23,
				23,
				-8
			],
			"min":[
				1,
				0,
				-16
			],
			"type":"VEC3"
		},
		{
			"bufferView":1,
			"componentType":5126,
			"count":26160,
			"type":"VEC3"
		},
		{
			"bufferView":2,
			"componentType":5123,
			"count":39240,
			"type":"SCALAR"
		},
		{
			"bufferView":3,
			"componentType":5126,
			"count":3360,
			"max":[
				20,
				23,
				-9
			],
			"min":[
				4,
				1,
				-15
			],
			"type":"VEC3"
		},
		{
			"bufferView":4,
			"componentType":5126,
			"count":3360,
			"type":"VEC3"
		},
		{
			"bufferView":5,
			"componentType":5123,
			"count":5040,
			"type":"SCALAR"
		},
		{
			"bufferView":6,
			"componentType":5126,
			"count":2544,
			"max":[
				23,
				23,
				-8
			],
			"min":[
				2,
				0,
				-16
			],
			"type":"VEC3"
		},
		{
			"bufferView":7,
			"componentType":5126,
			"count":2544,
			"type":"VEC3"
		},
		{
			"bufferView":8,
			"componentType":5123,
			"count":3816,
			"type":"SCALAR"
		},
		{
			"bufferView":9,
			"componentType":5126,
			"count":1104,
			"max":[
				19,
				18,
				-10
			],
			"min":[
				5,
				8,
				-12
			],
			"type":"VEC3"
		},
		{
			"bufferView":10,
			"componentType":5126,
			"count":1104,
			"type":"VEC3"
		},
		{
			"bufferView":11,
			"componentType":5123,
			"count":1656,
			"type":"SCALAR"
		}
	],
	"bufferViews":[
		{
			"buffer":0,
			"byteLength":313920,
			"byteOffset":0,
			"target":34962
		},
		{
			"buffer":0,
			"byteLength":313920,
			"byteOffset":313920,
			"target":34962
		},
		{
			"buffer":0,
			"byteLength":78480,
			"byteOffset":627840,
			"target":34963
		},
		{
			"buffer":0,
			"byteLength":40320,
			"byteOffset":706320,
			"target":34962
		},
		{
			"buffer":0,
			"byteLength":40320,
			"byteOffset":746640,
			"target":34962
		},
		{
			"buffer":0,
			"byteLength":10080,
			"byteOffset":786960,
			"target":34963
		},
		{
			"buffer":0,
			"byteLength":30528,
			"byteOffset":797040,
			"target":34962
		},
		{
			"buffer":0,
			"byteLength":30528,
			"byteOffset":827568,
			"target":34962
		},
		{
			"buffer":0,
			"byteLength":7632,
			"byteOffset":858096,
			"target":34963
		},
		{
			"buffer":0,
			"byteLength":13248,
			"byteOffset":865728,
			"target":34962
		},
		{
			"buffer":0,
			"byteLength":13248,
			"byteOffset":878976,
			"target":34962
		},
		{
			"buffer":0,
			"byteLength":3312,
			"byteOffset":892224,
			"target":34963
		}
	],
	"buffers":[
		{
			"byteLength":895536,
			"uri":"Gravestone_1Weathered.bin"
		}
	]
}
