{
	"asset":{
		"generator":"Khronos glTF Blender I/O v5.0.21",
		"version":"2.0"
	},
	"extensionsUsed":[
		"KHR_materials_specular"
	],
	"scene":0,
	"scenes":[
		{
			"name":"Scene",
			"nodes":[
				0
			]
		}
	],
	"nodes":[
		{
			"mesh":0,
			"name":"Gravestone_1",
			"rotation":[
				0.7071068286895752,
				0,
				0,
				0.7071068286895752
			]
		}
	],
	"materials":[
		{
			"doubleSided":true,
			"extensions":{
				"KHR_materials_specular":{
					"specularFactor":0
				}
			},
			"name":"mat_91_91_91",
			"pbrMetallicRoughness":{
				"baseColorFactor":[
					0.3569999933242798,
					0.3569999933242798,
					0.3569999933242798,
					1
				],
				"metallicFactor":0
			}
		},
		{
			"doubleSided":true,
			"extensions":{
				"KHR_materials_specular":{
					"specularFactor":0
				}
			},
			"name":"mat_74_74_74",
			"pbrMetallicRoughness":{
				"baseColorFactor":[
					0.28999999165534973,
					0.28999999165534973,
					0.28999999165534973,
					1
				],
				"metallicFactor":0
			}
		}
	],
	"meshes":[
		{
			"name":"Gravestone_1",
			"primitives":[
				{
					"attributes":{
						"POSITION":0,
						"NORMAL":1
					},
					"indices":2,
					"material":0
				},
				{
					"attributes":{
						"POSITION":3,
						"NORMAL":4
					},
					"indices":5,
					"material":1
				}
			]
		}
	],
	"accessors":[
		{
			"bufferView":0,
			"componentType":5126,
			"count":33120,
			"max":[
				23,
				23,
				-8
			],
			"min":[
				1,
				0,
				-16
			],
			"type":"VEC3"
		},
		{
			"bufferView":1,
			"componentType":5126,
			"count":33120,
			"type":"VEC3"
		},
		{
			"bufferView":2,
			"componentType":5123,
			"count":49680,
			"type":"SCALAR"
		},
		{
			"bufferView":3,
			"componentType":5126,
			"count":4032,
			"max":[
				23,
				23,
				-8
			],
			"min":[
				2,
				0,
				-16
			],
			"type":"VEC3"
		},
		{
			"bufferView":4,
			"componentType":5126,
			"count":4032,
			"type":"VEC3"
		},
		{
			"bufferView":5,
			"componentType":5123,
			"count":6048,
			"type":"SCALAR"
		}
	],
	"bufferViews":[
		{
			"buffer":0,
			"byteLength":397440,
			"byteOffset":0,
			"target":34962
		},
		{
			"buffer":0,
			"byteLength":397440,
			"byteOffset":397440,
			"target":34962
		},
		{
			"buffer":0,
			"byteLength":99360,
			"byteOffset":794880,
			"target":34963
		},
		{
			"buffer":0,
			"byteLength":48384,
			"byteOffset":894240,
			"target":34962
		},
		{
			"buffer":0,
			"byteLength":48384,
			"byteOffset":942624,
			"target":34962
		},
		{
			"buffer":0,
			"byteLength":12096,
			"byteOffset":991008,
			"target":34963
		}
	],
	"buffers":[
		{
			"byteLength":1003104,
			"uri":"Gravestone_1.bin"
		}
	]
}
