{
	"asset":{
		"generator":"Khronos glTF Blender I/O v5.0.21",
		"version":"2.0"
	},
	"extensionsUsed":[
		"KHR_materials_specular"
	],
	"scene":0,
	"scenes":[
		{
			"name":"Scene",
			"nodes":[
				0
			]
		}
	],
	"nodes":[
		{
			"mesh":0,
			"name":"Market_Stall_2x_L",
			"rotation":[
				0.7071068286895752,
				0,
				0,
				0.7071068286895752
			]
		}
	],
	"materials":[
		{
			"doubleSided":true,
			"extensions":{
				"KHR_materials_specular":{
					"specularFactor":0
				}
			},
			"name":"mat_77_41_26",
			"pbrMetallicRoughness":{
				"baseColorFactor":[
					0.3019999861717224,
					0.16099999845027924,
					0.10199999809265137,
					1
				],
				"metallicFactor":0
			}
		},
		{
			"doubleSided":true,
			"extensions":{
				"KHR_materials_specular":{
					"specularFactor":0
				}
			},
			"name":"mat_98_53_34",
			"pbrMetallicRoughness":{
				"baseColorFactor":[
					0.3840000033378601,
					0.20800000429153442,
					0.13300000131130219,
					1
				],
				"metallicFactor":0
			}
		},
		{
			"doubleSided":true,
			"extensions":{
				"KHR_materials_specular":{
					"specularFactor":0
				}
			},
			"name":"mat_230_44_47",
			"pbrMetallicRoughness":{
				"baseColorFactor":[
					0.9020000100135803,
					0.17299999296665192,
					0.18400000035762787,
					1
				],
				"metallicFactor":0
			}
		},
		{
			"doubleSided":true,
			"extensions":{
				"KHR_materials_specular":{
					"specularFactor":0
				}
			},
			"name":"mat_199_243_248",
			"pbrMetallicRoughness":{
				"baseColorFactor":[
					0.7799999713897705,
					0.953000009059906,
					0.9729999899864197,
					1
				],
				"metallicFactor":0
			}
		}
	],
	"meshes":[
		{
			"name":"Market_Stall_2x_L",
			"primitives":[
				{
					"attributes":{
						"POSITION":0,
						"NORMAL":1
					},
					"indices":2,
					"material":0
				},
				{
					"attributes":{
						"POSITION":3,
						"NORMAL":4
					},
					"indices":5,
					"material":1
				},
				{
					"attributes":{
						"POSITION":6,
						"NORMAL":7
					},
					"indices":8,
					"material":2
				},
				{
					"attributes":{
						"POSITION":9,
						"NORMAL":10
					},
					"indices":11,
					"material":3
				}
			]
		}
	],
	"accessors":[
		{
			"bufferView":0,
			"componentType":5126,
			"count":37728,
			"max":[
				26,
				23,
				-6
			],
			"min":[
				5,
				0,
				-24
			],
			"type":"VEC3"
		},
		{
			"bufferView":1,
			"componentType":5126,
			"count":37728,
			"type":"VEC3"
		},
		{
			"bufferView":2,
			"componentType":5123,
			"count":56592,
			"type":"SCALAR"
		},
		{
			"bufferView":3,
			"componentType":5126,
			"count":5928,
			"max":[
				25,
				22,
				-6
			],
			"min":[
				5,
				0,
				-24
			],
			"type":"VEC3"
		},
		{
			"bufferView":4,
			"componentType":5126,
			"count":5928,
			"type":"VEC3"
		},
		{
			"bufferView":5,
			"componentType":5123,
			"count":8892,
			"type":"SCALAR"
		},
		{
			"bufferView":6,
			"componentType":5126,
			"count":40128,
			"max":[
				29,
				24,
				-3
			],
			"min":[
				3,
				13,
				-28
			],
			"type":"VEC3"
		},
		{
			"bufferView":7,
			"componentType":5126,
			"count":40128,
			"type":"VEC3"
		},
		{
			"bufferView":8,
			"componentType":5123,
			"count":60192,
			"type":"SCALAR"
		},
		{
			"bufferView":9,
			"componentType":5126,
			"count":64008,
			"max":[
				29,
				24,
				-4
			],
			"min":[
				3,
				16,
				-28
			],
			"type":"VEC3"
		},
		{
			"bufferView":10,
			"componentType":5126,
			"count":64008,
			"type":"VEC3"
		},
		{
			"bufferView":11,
			"componentType":5123,
			"count":96012,
			"type":"SCALAR"
		}
	],
	"bufferViews":[
		{
			"buffer":0,
			"byteLength":452736,
			"byteOffset":0,
			"target":34962
		},
		{
			"buffer":0,
			"byteLength":452736,
			"byteOffset":452736,
			"target":34962
		},
		{
			"buffer":0,
			"byteLength":113184,
			"byteOffset":905472,
			"target":34963
		},
		{
			"buffer":0,
			"byteLength":71136,
			"byteOffset":1018656,
			"target":34962
		},
		{
			"buffer":0,
			"byteLength":71136,
			"byteOffset":1089792,
			"target":34962
		},
		{
			"buffer":0,
			"byteLength":17784,
			"byteOffset":1160928,
			"target":34963
		},
		{
			"buffer":0,
			"byteLength":481536,
			"byteOffset":1178712,
			"target":34962
		},
		{
			"buffer":0,
			"byteLength":481536,
			"byteOffset":1660248,
			"target":34962
		},
		{
			"buffer":0,
			"byteLength":120384,
			"byteOffset":2141784,
			"target":34963
		},
		{
			"buffer":0,
			"byteLength":768096,
			"byteOffset":2262168,
			"target":34962
		},
		{
			"buffer":0,
			"byteLength":768096,
			"byteOffset":3030264,
			"target":34962
		},
		{
			"buffer":0,
			"byteLength":192024,
			"byteOffset":3798360,
			"target":34963
		}
	],
	"buffers":[
		{
			"byteLength":3990384,
			"uri":"Market_Stall_2x_L.bin"
		}
	]
}
