{
	"asset":{
		"generator":"Khronos glTF Blender I/O v5.0.21",
		"version":"2.0"
	},
	"extensionsUsed":[
		"KHR_materials_specular"
	],
	"scene":0,
	"scenes":[
		{
			"name":"Scene",
			"nodes":[
				0
			]
		}
	],
	"nodes":[
		{
			"mesh":0,
			"name":"Market_Stall",
			"rotation":[
				0.7071068286895752,
				0,
				0,
				0.7071068286895752
			]
		}
	],
	"materials":[
		{
			"doubleSided":true,
			"extensions":{
				"KHR_materials_specular":{
					"specularFactor":0
				}
			},
			"name":"mat_77_41_26",
			"pbrMetallicRoughness":{
				"baseColorFactor":[
					0.3019999861717224,
					0.16099999845027924,
					0.10199999809265137,
					1
				],
				"metallicFactor":0
			}
		},
		{
			"doubleSided":true,
			"extensions":{
				"KHR_materials_specular":{
					"specularFactor":0
				}
			},
			"name":"mat_98_53_34",
			"pbrMetallicRoughness":{
				"baseColorFactor":[
					0.3840000033378601,
					0.20800000429153442,
					0.13300000131130219,
					1
				],
				"metallicFactor":0
			}
		},
		{
			"doubleSided":true,
			"extensions":{
				"KHR_materials_specular":{
					"specularFactor":0
				}
			},
			"name":"mat_61_138_156",
			"pbrMetallicRoughness":{
				"baseColorFactor":[
					0.23899999260902405,
					0.5410000085830688,
					0.6119999885559082,
					1
				],
				"metallicFactor":0
			}
		},
		{
			"doubleSided":true,
			"extensions":{
				"KHR_materials_specular":{
					"specularFactor":0
				}
			},
			"name":"mat_199_243_248",
			"pbrMetallicRoughness":{
				"baseColorFactor":[
					0.7799999713897705,
					0.953000009059906,
					0.9729999899864197,
					1
				],
				"metallicFactor":0
			}
		}
	],
	"meshes":[
		{
			"name":"Market_Stall",
			"primitives":[
				{
					"attributes":{
						"POSITION":0,
						"NORMAL":1
					},
					"indices":2,
					"material":0
				},
				{
					"attributes":{
						"POSITION":3,
						"NORMAL":4
					},
					"indices":5,
					"material":1
				},
				{
					"attributes":{
						"POSITION":6,
						"NORMAL":7
					},
					"indices":8,
					"material":2
				},
				{
					"attributes":{
						"POSITION":9,
						"NORMAL":10
					},
					"indices":11,
					"material":3
				}
			]
		}
	],
	"accessors":[
		{
			"bufferView":0,
			"componentType":5126,
			"count":56544,
			"max":[
				27,
				23,
				-6
			],
			"min":[
				5,
				0,
				-24
			],
			"type":"VEC3"
		},
		{
			"bufferView":1,
			"componentType":5126,
			"count":56544,
			"type":"VEC3"
		},
		{
			"bufferView":2,
			"componentType":5123,
			"count":84816,
			"type":"SCALAR"
		},
		{
			"bufferView":3,
			"componentType":5126,
			"count":11784,
			"max":[
				27,
				22,
				-6
			],
			"min":[
				5,
				0,
				-24
			],
			"type":"VEC3"
		},
		{
			"bufferView":4,
			"componentType":5126,
			"count":11784,
			"type":"VEC3"
		},
		{
			"bufferView":5,
			"componentType":5123,
			"count":17676,
			"type":"SCALAR"
		},
		{
			"bufferView":6,
			"componentType":5126,
			"count":40176,
			"max":[
				29,
				24,
				-3
			],
			"min":[
				3,
				13,
				-28
			],
			"type":"VEC3"
		},
		{
			"bufferView":7,
			"componentType":5126,
			"count":40176,
			"type":"VEC3"
		},
		{
			"bufferView":8,
			"componentType":5123,
			"count":60264,
			"type":"SCALAR"
		},
		{
			"bufferView":9,
			"componentType":5126,
			"count":64320,
			"max":[
				29,
				24,
				-3
			],
			"min":[
				3,
				13,
				-28
			],
			"type":"VEC3"
		},
		{
			"bufferView":10,
			"componentType":5126,
			"count":64320,
			"type":"VEC3"
		},
		{
			"bufferView":11,
			"componentType":5123,
			"count":96480,
			"type":"SCALAR"
		}
	],
	"bufferViews":[
		{
			"buffer":0,
			"byteLength":678528,
			"byteOffset":0,
			"target":34962
		},
		{
			"buffer":0,
			"byteLength":678528,
			"byteOffset":678528,
			"target":34962
		},
		{
			"buffer":0,
			"byteLength":169632,
			"byteOffset":1357056,
			"target":34963
		},
		{
			"buffer":0,
			"byteLength":141408,
			"byteOffset":1526688,
			"target":34962
		},
		{
			"buffer":0,
			"byteLength":141408,
			"byteOffset":1668096,
			"target":34962
		},
		{
			"buffer":0,
			"byteLength":35352,
			"byteOffset":1809504,
			"target":34963
		},
		{
			"buffer":0,
			"byteLength":482112,
			"byteOffset":1844856,
			"target":34962
		},
		{
			"buffer":0,
			"byteLength":482112,
			"byteOffset":2326968,
			"target":34962
		},
		{
			"buffer":0,
			"byteLength":120528,
			"byteOffset":2809080,
			"target":34963
		},
		{
			"buffer":0,
			"byteLength":771840,
			"byteOffset":2929608,
			"target":34962
		},
		{
			"buffer":0,
			"byteLength":771840,
			"byteOffset":3701448,
			"target":34962
		},
		{
			"buffer":0,
			"byteLength":192960,
			"byteOffset":4473288,
			"target":34963
		}
	],
	"buffers":[
		{
			"byteLength":4666248,
			"uri":"Market_Stall.bin"
		}
	]
}
