{
	"asset":{
		"generator":"Khronos glTF Blender I/O v5.0.21",
		"version":"2.0"
	},
	"extensionsUsed":[
		"KHR_materials_specular"
	],
	"scene":0,
	"scenes":[
		{
			"name":"Scene",
			"nodes":[
				0
			]
		}
	],
	"nodes":[
		{
			"mesh":0,
			"name":"Market_Stall_2x_R",
			"rotation":[
				0.7071068286895752,
				0,
				0,
				0.7071068286895752
			]
		}
	],
	"materials":[
		{
			"doubleSided":true,
			"extensions":{
				"KHR_materials_specular":{
					"specularFactor":0
				}
			},
			"name":"mat_77_41_26",
			"pbrMetallicRoughness":{
				"baseColorFactor":[
					0.3019999861717224,
					0.16099999845027924,
					0.10199999809265137,
					1
				],
				"metallicFactor":0
			}
		},
		{
			"doubleSided":true,
			"extensions":{
				"KHR_materials_specular":{
					"specularFactor":0
				}
			},
			"name":"mat_98_53_34",
			"pbrMetallicRoughness":{
				"baseColorFactor":[
					0.3840000033378601,
					0.20800000429153442,
					0.13300000131130219,
					1
				],
				"metallicFactor":0
			}
		},
		{
			"doubleSided":true,
			"extensions":{
				"KHR_materials_specular":{
					"specularFactor":0
				}
			},
			"name":"mat_230_44_47",
			"pbrMetallicRoughness":{
				"baseColorFactor":[
					0.9020000100135803,
					0.17299999296665192,
					0.18400000035762787,
					1
				],
				"metallicFactor":0
			}
		},
		{
			"doubleSided":true,
			"extensions":{
				"KHR_materials_specular":{
					"specularFactor":0
				}
			},
			"name":"mat_199_243_248",
			"pbrMetallicRoughness":{
				"baseColorFactor":[
					0.7799999713897705,
					0.953000009059906,
					0.9729999899864197,
					1
				],
				"metallicFactor":0
			}
		}
	],
	"meshes":[
		{
			"name":"Market_Stall_2x_R",
			"primitives":[
				{
					"attributes":{
						"POSITION":0,
						"NORMAL":1
					},
					"indices":2,
					"material":0
				},
				{
					"attributes":{
						"POSITION":3,
						"NORMAL":4
					},
					"indices":5,
					"material":1
				},
				{
					"attributes":{
						"POSITION":6,
						"NORMAL":7
					},
					"indices":8,
					"material":2
				},
				{
					"attributes":{
						"POSITION":9,
						"NORMAL":10
					},
					"indices":11,
					"material":3
				}
			]
		}
	],
	"accessors":[
		{
			"bufferView":0,
			"componentType":5126,
			"count":37632,
			"max":[
				27,
				23,
				-6
			],
			"min":[
				6,
				0,
				-24
			],
			"type":"VEC3"
		},
		{
			"bufferView":1,
			"componentType":5126,
			"count":37632,
			"type":"VEC3"
		},
		{
			"bufferView":2,
			"componentType":5123,
			"count":56448,
			"type":"SCALAR"
		},
		{
			"bufferView":3,
			"componentType":5126,
			"count":5928,
			"max":[
				27,
				22,
				-6
			],
			"min":[
				6,
				0,
				-24
			],
			"type":"VEC3"
		},
		{
			"bufferView":4,
			"componentType":5126,
			"count":5928,
			"type":"VEC3"
		},
		{
			"bufferView":5,
			"componentType":5123,
			"count":8892,
			"type":"SCALAR"
		},
		{
			"bufferView":6,
			"componentType":5126,
			"count":40176,
			"max":[
				29,
				24,
				-3
			],
			"min":[
				3,
				13,
				-28
			],
			"type":"VEC3"
		},
		{
			"bufferView":7,
			"componentType":5126,
			"count":40176,
			"type":"VEC3"
		},
		{
			"bufferView":8,
			"componentType":5123,
			"count":60264,
			"type":"SCALAR"
		},
		{
			"bufferView":9,
			"componentType":5126,
			"count":64680,
			"max":[
				29,
				24,
				-3
			],
			"min":[
				3,
				13,
				-28
			],
			"type":"VEC3"
		},
		{
			"bufferView":10,
			"componentType":5126,
			"count":64680,
			"type":"VEC3"
		},
		{
			"bufferView":11,
			"componentType":5123,
			"count":97020,
			"type":"SCALAR"
		}
	],
	"bufferViews":[
		{
			"buffer":0,
			"byteLength":451584,
			"byteOffset":0,
			"target":34962
		},
		{
			"buffer":0,
			"byteLength":451584,
			"byteOffset":451584,
			"target":34962
		},
		{
			"buffer":0,
			"byteLength":112896,
			"byteOffset":903168,
			"target":34963
		},
		{
			"buffer":0,
			"byteLength":71136,
			"byteOffset":1016064,
			"target":34962
		},
		{
			"buffer":0,
			"byteLength":71136,
			"byteOffset":1087200,
			"target":34962
		},
		{
			"buffer":0,
			"byteLength":17784,
			"byteOffset":1158336,
			"target":34963
		},
		{
			"buffer":0,
			"byteLength":482112,
			"byteOffset":1176120,
			"target":34962
		},
		{
			"buffer":0,
			"byteLength":482112,
			"byteOffset":1658232,
			"target":34962
		},
		{
			"buffer":0,
			"byteLength":120528,
			"byteOffset":2140344,
			"target":34963
		},
		{
			"buffer":0,
			"byteLength":776160,
			"byteOffset":2260872,
			"target":34962
		},
		{
			"buffer":0,
			"byteLength":776160,
			"byteOffset":3037032,
			"target":34962
		},
		{
			"buffer":0,
			"byteLength":194040,
			"byteOffset":3813192,
			"target":34963
		}
	],
	"buffers":[
		{
			"byteLength":4007232,
			"uri":"Market_Stall_2x_R.bin"
		}
	]
}
