{
	"asset":{
		"generator":"Khronos glTF Blender I/O v5.0.21",
		"version":"2.0"
	},
	"extensionsUsed":[
		"KHR_materials_specular"
	],
	"scene":0,
	"scenes":[
		{
			"name":"Scene",
			"nodes":[
				0
			]
		}
	],
	"nodes":[
		{
			"mesh":0,
			"name":"rope_tied_wood_pole_thing",
			"rotation":[
				0.7071068286895752,
				0,
				0,
				0.7071068286895752
			]
		}
	],
	"materials":[
		{
			"doubleSided":true,
			"extensions":{
				"KHR_materials_specular":{
					"specularFactor":0
				}
			},
			"name":"mat_114_70_49",
			"pbrMetallicRoughness":{
				"baseColorFactor":[
					0.44699999690055847,
					0.2750000059604645,
					0.19200000166893005,
					1
				],
				"metallicFactor":0
			}
		},
		{
			"doubleSided":true,
			"extensions":{
				"KHR_materials_specular":{
					"specularFactor":0
				}
			},
			"name":"mat_123_72_51",
			"pbrMetallicRoughness":{
				"baseColorFactor":[
					0.4819999933242798,
					0.28200000524520874,
					0.20000000298023224,
					1
				],
				"metallicFactor":0
			}
		},
		{
			"doubleSided":true,
			"extensions":{
				"KHR_materials_specular":{
					"specularFactor":0
				}
			},
			"name":"mat_137_74_48",
			"pbrMetallicRoughness":{
				"baseColorFactor":[
					0.5370000004768372,
					0.28999999165534973,
					0.18799999356269836,
					1
				],
				"metallicFactor":0
			}
		},
		{
			"doubleSided":true,
			"extensions":{
				"KHR_materials_specular":{
					"specularFactor":0
				}
			},
			"name":"mat_129_78_57",
			"pbrMetallicRoughness":{
				"baseColorFactor":[
					0.5059999823570251,
					0.3059999942779541,
					0.2240000069141388,
					1
				],
				"metallicFactor":0
			}
		},
		{
			"doubleSided":true,
			"extensions":{
				"KHR_materials_specular":{
					"specularFactor":0
				}
			},
			"name":"mat_140_92_72",
			"pbrMetallicRoughness":{
				"baseColorFactor":[
					0.5490000247955322,
					0.3610000014305115,
					0.28200000524520874,
					1
				],
				"metallicFactor":0
			}
		},
		{
			"doubleSided":true,
			"extensions":{
				"KHR_materials_specular":{
					"specularFactor":0
				}
			},
			"name":"mat_104_74_62",
			"pbrMetallicRoughness":{
				"baseColorFactor":[
					0.40799999237060547,
					0.28999999165534973,
					0.24300000071525574,
					1
				],
				"metallicFactor":0
			}
		},
		{
			"doubleSided":true,
			"extensions":{
				"KHR_materials_specular":{
					"specularFactor":0
				}
			},
			"name":"mat_140_95_77",
			"pbrMetallicRoughness":{
				"baseColorFactor":[
					0.5490000247955322,
					0.37299999594688416,
					0.3019999861717224,
					1
				],
				"metallicFactor":0
			}
		}
	],
	"meshes":[
		{
			"name":"rope_tied_wood_pole_thing",
			"primitives":[
				{
					"attributes":{
						"POSITION":0,
						"NORMAL":1
					},
					"indices":2,
					"material":0
				},
				{
					"attributes":{
						"POSITION":3,
						"NORMAL":4
					},
					"indices":5,
					"material":1
				},
				{
					"attributes":{
						"POSITION":6,
						"NORMAL":7
					},
					"indices":8,
					"material":2
				},
				{
					"attributes":{
						"POSITION":9,
						"NORMAL":10
					},
					"indices":11,
					"material":3
				},
				{
					"attributes":{
						"POSITION":12,
						"NORMAL":13
					},
					"indices":14,
					"material":4
				},
				{
					"attributes":{
						"POSITION":15,
						"NORMAL":16
					},
					"indices":17,
					"material":5
				},
				{
					"attributes":{
						"POSITION":18,
						"NORMAL":19
					},
					"indices":5,
					"material":6
				}
			]
		}
	],
	"accessors":[
		{
			"bufferView":0,
			"componentType":5126,
			"count":3744,
			"max":[
				32,
				32,
				-14
			],
			"min":[
				0,
				0,
				-18
			],
			"type":"VEC3"
		},
		{
			"bufferView":1,
			"componentType":5126,
			"count":3744,
			"type":"VEC3"
		},
		{
			"bufferView":2,
			"componentType":5123,
			"count":5616,
			"type":"SCALAR"
		},
		{
			"bufferView":3,
			"componentType":5126,
			"count":1416,
			"max":[
				32,
				30,
				-14
			],
			"min":[
				0,
				1,
				-18
			],
			"type":"VEC3"
		},
		{
			"bufferView":4,
			"componentType":5126,
			"count":1416,
			"type":"VEC3"
		},
		{
			"bufferView":5,
			"componentType":5123,
			"count":2124,
			"type":"SCALAR"
		},
		{
			"bufferView":6,
			"componentType":5126,
			"count":1560,
			"max":[
				32,
				32,
				-14
			],
			"min":[
				0,
				0,
				-18
			],
			"type":"VEC3"
		},
		{
			"bufferView":7,
			"componentType":5126,
			"count":1560,
			"type":"VEC3"
		},
		{
			"bufferView":8,
			"componentType":5123,
			"count":2340,
			"type":"SCALAR"
		},
		{
			"bufferView":9,
			"componentType":5126,
			"count":1056,
			"max":[
				30,
				30,
				-14
			],
			"min":[
				2,
				4,
				-18
			],
			"type":"VEC3"
		},
		{
			"bufferView":10,
			"componentType":5126,
			"count":1056,
			"type":"VEC3"
		},
		{
			"bufferView":11,
			"componentType":5123,
			"count":1584,
			"type":"SCALAR"
		},
		{
			"bufferView":12,
			"componentType":5126,
			"count":840,
			"max":[
				31,
				24,
				-14
			],
			"min":[
				1,
				2,
				-18
			],
			"type":"VEC3"
		},
		{
			"bufferView":13,
			"componentType":5126,
			"count":840,
			"type":"VEC3"
		},
		{
			"bufferView":14,
			"componentType":5123,
			"count":1260,
			"type":"SCALAR"
		},
		{
			"bufferView":15,
			"componentType":5126,
			"count":1296,
			"max":[
				19,
				19,
				-11
			],
			"min":[
				13,
				10,
				-19
			],
			"type":"VEC3"
		},
		{
			"bufferView":16,
			"componentType":5126,
			"count":1296,
			"type":"VEC3"
		},
		{
			"bufferView":17,
			"componentType":5123,
			"count":1944,
			"type":"SCALAR"
		},
		{
			"bufferView":18,
			"componentType":5126,
			"count":1416,
			"max":[
				19,
				19,
				-11
			],
			"min":[
				13,
				10,
				-19
			],
			"type":"VEC3"
		},
		{
			"bufferView":19,
			"componentType":5126,
			"count":1416,
			"type":"VEC3"
		}
	],
	"bufferViews":[
		{
			"buffer":0,
			"byteLength":44928,
			"byteOffset":0,
			"target":34962
		},
		{
			"buffer":0,
			"byteLength":44928,
			"byteOffset":44928,
			"target":34962
		},
		{
			"buffer":0,
			"byteLength":11232,
			"byteOffset":89856,
			"target":34963
		},
		{
			"buffer":0,
			"byteLength":16992,
			"byteOffset":101088,
			"target":34962
		},
		{
			"buffer":0,
			"byteLength":16992,
			"byteOffset":118080,
			"target":34962
		},
		{
			"buffer":0,
			"byteLength":4248,
			"byteOffset":135072,
			"target":34963
		},
		{
			"buffer":0,
			"byteLength":18720,
			"byteOffset":139320,
			"target":34962
		},
		{
			"buffer":0,
			"byteLength":18720,
			"byteOffset":158040,
			"target":34962
		},
		{
			"buffer":0,
			"byteLength":4680,
			"byteOffset":176760,
			"target":34963
		},
		{
			"buffer":0,
			"byteLength":12672,
			"byteOffset":181440,
			"target":34962
		},
		{
			"buffer":0,
			"byteLength":12672,
			"byteOffset":194112,
			"target":34962
		},
		{
			"buffer":0,
			"byteLength":3168,
			"byteOffset":206784,
			"target":34963
		},
		{
			"buffer":0,
			"byteLength":10080,
			"byteOffset":209952,
			"target":34962
		},
		{
			"buffer":0,
			"byteLength":10080,
			"byteOffset":220032,
			"target":34962
		},
		{
			"buffer":0,
			"byteLength":2520,
			"byteOffset":230112,
			"target":34963
		},
		{
			"buffer":0,
			"byteLength":15552,
			"byteOffset":232632,
			"target":34962
		},
		{
			"buffer":0,
			"byteLength":15552,
			"byteOffset":248184,
			"target":34962
		},
		{
			"buffer":0,
			"byteLength":3888,
			"byteOffset":263736,
			"target":34963
		},
		{
			"buffer":0,
			"byteLength":16992,
			"byteOffset":267624,
			"target":34962
		},
		{
			"buffer":0,
			"byteLength":16992,
			"byteOffset":284616,
			"target":34962
		}
	],
	"buffers":[
		{
			"byteLength":301608,
			"uri":"rope_tied_wood_pole_thing.bin"
		}
	]
}
