{
	"asset":{
		"generator":"Khronos glTF Blender I/O v5.0.21",
		"version":"2.0"
	},
	"extensionsUsed":[
		"KHR_materials_specular"
	],
	"scene":0,
	"scenes":[
		{
			"name":"Scene",
			"nodes":[
				0
			]
		}
	],
	"nodes":[
		{
			"mesh":0,
			"name":"Sword_Rusty",
			"rotation":[
				0.7071068286895752,
				0,
				0,
				0.7071068286895752
			]
		}
	],
	"materials":[
		{
			"doubleSided":true,
			"extensions":{
				"KHR_materials_specular":{
					"specularFactor":0
				}
			},
			"name":"mat_127_129_137",
			"pbrMetallicRoughness":{
				"baseColorFactor":[
					0.49799999594688416,
					0.5059999823570251,
					0.5370000004768372,
					1
				],
				"metallicFactor":0
			}
		},
		{
			"doubleSided":true,
			"extensions":{
				"KHR_materials_specular":{
					"specularFactor":0
				}
			},
			"name":"mat_79_79_79",
			"pbrMetallicRoughness":{
				"baseColorFactor":[
					0.3100000023841858,
					0.3100000023841858,
					0.3100000023841858,
					1
				],
				"metallicFactor":0
			}
		},
		{
			"doubleSided":true,
			"extensions":{
				"KHR_materials_specular":{
					"specularFactor":0
				}
			},
			"name":"mat_161_165_179",
			"pbrMetallicRoughness":{
				"baseColorFactor":[
					0.6309999823570251,
					0.6470000147819519,
					0.7020000219345093,
					1
				],
				"metallicFactor":0
			}
		},
		{
			"doubleSided":true,
			"extensions":{
				"KHR_materials_specular":{
					"specularFactor":0
				}
			},
			"name":"mat_32_32_32",
			"pbrMetallicRoughness":{
				"baseColorFactor":[
					0.125,
					0.125,
					0.125,
					1
				],
				"metallicFactor":0
			}
		},
		{
			"doubleSided":true,
			"extensions":{
				"KHR_materials_specular":{
					"specularFactor":0
				}
			},
			"name":"mat_168_126_66",
			"pbrMetallicRoughness":{
				"baseColorFactor":[
					0.6589999794960022,
					0.49399998784065247,
					0.2590000033378601,
					1
				],
				"metallicFactor":0
			}
		},
		{
			"doubleSided":true,
			"extensions":{
				"KHR_materials_specular":{
					"specularFactor":0
				}
			},
			"name":"mat_186_151_60",
			"pbrMetallicRoughness":{
				"baseColorFactor":[
					0.7289999723434448,
					0.5920000076293945,
					0.23499999940395355,
					1
				],
				"metallicFactor":0
			}
		},
		{
			"doubleSided":true,
			"extensions":{
				"KHR_materials_specular":{
					"specularFactor":0
				}
			},
			"name":"mat_140_95_77",
			"pbrMetallicRoughness":{
				"baseColorFactor":[
					0.5490000247955322,
					0.37299999594688416,
					0.3019999861717224,
					1
				],
				"metallicFactor":0
			}
		},
		{
			"doubleSided":true,
			"extensions":{
				"KHR_materials_specular":{
					"specularFactor":0
				}
			},
			"name":"mat_181_142_134",
			"pbrMetallicRoughness":{
				"baseColorFactor":[
					0.7099999785423279,
					0.5569999814033508,
					0.5249999761581421,
					1
				],
				"metallicFactor":0
			}
		},
		{
			"doubleSided":true,
			"extensions":{
				"KHR_materials_specular":{
					"specularFactor":0
				}
			},
			"name":"mat_77_41_26",
			"pbrMetallicRoughness":{
				"baseColorFactor":[
					0.3019999861717224,
					0.16099999845027924,
					0.10199999809265137,
					1
				],
				"metallicFactor":0
			}
		}
	],
	"meshes":[
		{
			"name":"Sword_Rusty",
			"primitives":[
				{
					"attributes":{
						"POSITION":0,
						"NORMAL":1
					},
					"indices":2,
					"material":0
				},
				{
					"attributes":{
						"POSITION":3,
						"NORMAL":4
					},
					"indices":5,
					"material":1
				},
				{
					"attributes":{
						"POSITION":6,
						"NORMAL":7
					},
					"indices":8,
					"material":2
				},
				{
					"attributes":{
						"POSITION":9,
						"NORMAL":10
					},
					"indices":11,
					"material":3
				},
				{
					"attributes":{
						"POSITION":12,
						"NORMAL":13
					},
					"indices":14,
					"material":4
				},
				{
					"attributes":{
						"POSITION":15,
						"NORMAL":16
					},
					"indices":17,
					"material":5
				},
				{
					"attributes":{
						"POSITION":18,
						"NORMAL":19
					},
					"indices":17,
					"material":6
				},
				{
					"attributes":{
						"POSITION":20,
						"NORMAL":21
					},
					"indices":22,
					"material":7
				},
				{
					"attributes":{
						"POSITION":23,
						"NORMAL":24
					},
					"indices":22,
					"material":8
				}
			]
		}
	],
	"accessors":[
		{
			"bufferView":0,
			"componentType":5126,
			"count":264,
			"max":[
				16,
				18,
				-6
			],
			"min":[
				6,
				6,
				-7
			],
			"type":"VEC3"
		},
		{
			"bufferView":1,
			"componentType":5126,
			"count":264,
			"type":"VEC3"
		},
		{
			"bufferView":2,
			"componentType":5123,
			"count":396,
			"type":"SCALAR"
		},
		{
			"bufferView":3,
			"componentType":5126,
			"count":240,
			"max":[
				17,
				17,
				-6
			],
			"min":[
				7,
				7,
				-7
			],
			"type":"VEC3"
		},
		{
			"bufferView":4,
			"componentType":5126,
			"count":240,
			"type":"VEC3"
		},
		{
			"bufferView":5,
			"componentType":5123,
			"count":360,
			"type":"SCALAR"
		},
		{
			"bufferView":6,
			"componentType":5126,
			"count":360,
			"max":[
				18,
				17,
				-6
			],
			"min":[
				1,
				1,
				-7
			],
			"type":"VEC3"
		},
		{
			"bufferView":7,
			"componentType":5126,
			"count":360,
			"type":"VEC3"
		},
		{
			"bufferView":8,
			"componentType":5123,
			"count":540,
			"type":"SCALAR"
		},
		{
			"bufferView":9,
			"componentType":5126,
			"count":1296,
			"max":[
				19,
				19,
				-6
			],
			"min":[
				0,
				0,
				-7
			],
			"type":"VEC3"
		},
		{
			"bufferView":10,
			"componentType":5126,
			"count":1296,
			"type":"VEC3"
		},
		{
			"bufferView":11,
			"componentType":5123,
			"count":1944,
			"type":"SCALAR"
		},
		{
			"bufferView":12,
			"componentType":5126,
			"count":312,
			"max":[
				18,
				18,
				-6
			],
			"min":[
				6,
				6,
				-7
			],
			"type":"VEC3"
		},
		{
			"bufferView":13,
			"componentType":5126,
			"count":312,
			"type":"VEC3"
		},
		{
			"bufferView":14,
			"componentType":5123,
			"count":468,
			"type":"SCALAR"
		},
		{
			"bufferView":15,
			"componentType":5126,
			"count":144,
			"max":[
				17,
				18,
				-6
			],
			"min":[
				6,
				8,
				-7
			],
			"type":"VEC3"
		},
		{
			"bufferView":16,
			"componentType":5126,
			"count":144,
			"type":"VEC3"
		},
		{
			"bufferView":17,
			"componentType":5123,
			"count":216,
			"type":"SCALAR"
		},
		{
			"bufferView":18,
			"componentType":5126,
			"count":144,
			"max":[
				6,
				6,
				-6
			],
			"min":[
				2,
				2,
				-7
			],
			"type":"VEC3"
		},
		{
			"bufferView":19,
			"componentType":5126,
			"count":144,
			"type":"VEC3"
		},
		{
			"bufferView":20,
			"componentType":5126,
			"count":48,
			"max":[
				6,
				6,
				-6
			],
			"min":[
				3,
				3,
				-7
			],
			"type":"VEC3"
		},
		{
			"bufferView":21,
			"componentType":5126,
			"count":48,
			"type":"VEC3"
		},
		{
			"bufferView":22,
			"componentType":5123,
			"count":72,
			"type":"SCALAR"
		},
		{
			"bufferView":23,
			"componentType":5126,
			"count":48,
			"max":[
				5,
				5,
				-6
			],
			"min":[
				2,
				2,
				-7
			],
			"type":"VEC3"
		},
		{
			"bufferView":24,
			"componentType":5126,
			"count":48,
			"type":"VEC3"
		}
	],
	"bufferViews":[
		{
			"buffer":0,
			"byteLength":3168,
			"byteOffset":0,
			"target":34962
		},
		{
			"buffer":0,
			"byteLength":3168,
			"byteOffset":3168,
			"target":34962
		},
		{
			"buffer":0,
			"byteLength":792,
			"byteOffset":6336,
			"target":34963
		},
		{
			"buffer":0,
			"byteLength":2880,
			"byteOffset":7128,
			"target":34962
		},
		{
			"buffer":0,
			"byteLength":2880,
			"byteOffset":10008,
			"target":34962
		},
		{
			"buffer":0,
			"byteLength":720,
			"byteOffset":12888,
			"target":34963
		},
		{
			"buffer":0,
			"byteLength":4320,
			"byteOffset":13608,
			"target":34962
		},
		{
			"buffer":0,
			"byteLength":4320,
			"byteOffset":17928,
			"target":34962
		},
		{
			"buffer":0,
			"byteLength":1080,
			"byteOffset":22248,
			"target":34963
		},
		{
			"buffer":0,
			"byteLength":15552,
			"byteOffset":23328,
			"target":34962
		},
		{
			"buffer":0,
			"byteLength":15552,
			"byteOffset":38880,
			"target":34962
		},
		{
			"buffer":0,
			"byteLength":3888,
			"byteOffset":54432,
			"target":34963
		},
		{
			"buffer":0,
			"byteLength":3744,
			"byteOffset":58320,
			"target":34962
		},
		{
			"buffer":0,
			"byteLength":3744,
			"byteOffset":62064,
			"target":34962
		},
		{
			"buffer":0,
			"byteLength":936,
			"byteOffset":65808,
			"target":34963
		},
		{
			"buffer":0,
			"byteLength":1728,
			"byteOffset":66744,
			"target":34962
		},
		{
			"buffer":0,
			"byteLength":1728,
			"byteOffset":68472,
			"target":34962
		},
		{
			"buffer":0,
			"byteLength":432,
			"byteOffset":70200,
			"target":34963
		},
		{
			"buffer":0,
			"byteLength":1728,
			"byteOffset":70632,
			"target":34962
		},
		{
			"buffer":0,
			"byteLength":1728,
			"byteOffset":72360,
			"target":34962
		},
		{
			"buffer":0,
			"byteLength":576,
			"byteOffset":74088,
			"target":34962
		},
		{
			"buffer":0,
			"byteLength":576,
			"byteOffset":74664,
			"target":34962
		},
		{
			"buffer":0,
			"byteLength":144,
			"byteOffset":75240,
			"target":34963
		},
		{
			"buffer":0,
			"byteLength":576,
			"byteOffset":75384,
			"target":34962
		},
		{
			"buffer":0,
			"byteLength":576,
			"byteOffset":75960,
			"target":34962
		}
	],
	"buffers":[
		{
			"byteLength":76536,
			"uri":"Sword_Rusty.bin"
		}
	]
}
