{
	"asset":{
		"generator":"Khronos glTF Blender I/O v5.0.21",
		"version":"2.0"
	},
	"extensionsUsed":[
		"KHR_materials_specular"
	],
	"scene":0,
	"scenes":[
		{
			"name":"Scene",
			"nodes":[
				0
			]
		}
	],
	"nodes":[
		{
			"mesh":0,
			"name":"Torch_Long_Blue",
			"rotation":[
				0.7071068286895752,
				0,
				0,
				0.7071068286895752
			]
		}
	],
	"materials":[
		{
			"doubleSided":true,
			"extensions":{
				"KHR_materials_specular":{
					"specularFactor":0
				}
			},
			"name":"mat_79_79_79",
			"pbrMetallicRoughness":{
				"baseColorFactor":[
					0.3100000023841858,
					0.3100000023841858,
					0.3100000023841858,
					1
				],
				"metallicFactor":0
			}
		},
		{
			"doubleSided":true,
			"extensions":{
				"KHR_materials_specular":{
					"specularFactor":0
				}
			},
			"name":"mat_88_88_88",
			"pbrMetallicRoughness":{
				"baseColorFactor":[
					0.3449999988079071,
					0.3449999988079071,
					0.3449999988079071,
					1
				],
				"metallicFactor":0
			}
		},
		{
			"doubleSided":true,
			"extensions":{
				"KHR_materials_specular":{
					"specularFactor":0
				}
			},
			"name":"mat_75_75_75",
			"pbrMetallicRoughness":{
				"baseColorFactor":[
					0.2939999997615814,
					0.2939999997615814,
					0.2939999997615814,
					1
				],
				"metallicFactor":0
			}
		},
		{
			"doubleSided":true,
			"extensions":{
				"KHR_materials_specular":{
					"specularFactor":0
				}
			},
			"name":"mat_92_92_92",
			"pbrMetallicRoughness":{
				"baseColorFactor":[
					0.3610000014305115,
					0.3610000014305115,
					0.3610000014305115,
					1
				],
				"metallicFactor":0
			}
		},
		{
			"doubleSided":true,
			"extensions":{
				"KHR_materials_specular":{
					"specularFactor":0
				}
			},
			"name":"mat_55_154_234",
			"pbrMetallicRoughness":{
				"baseColorFactor":[
					0.2160000056028366,
					0.6039999723434448,
					0.9179999828338623,
					1
				],
				"metallicFactor":0
			}
		},
		{
			"doubleSided":true,
			"extensions":{
				"KHR_materials_specular":{
					"specularFactor":0
				}
			},
			"name":"mat_121_228_232",
			"pbrMetallicRoughness":{
				"baseColorFactor":[
					0.4749999940395355,
					0.8939999938011169,
					0.9100000262260437,
					1
				],
				"metallicFactor":0
			}
		},
		{
			"doubleSided":true,
			"extensions":{
				"KHR_materials_specular":{
					"specularFactor":0
				}
			},
			"name":"mat_77_41_26",
			"pbrMetallicRoughness":{
				"baseColorFactor":[
					0.3019999861717224,
					0.16099999845027924,
					0.10199999809265137,
					1
				],
				"metallicFactor":0
			}
		},
		{
			"doubleSided":true,
			"extensions":{
				"KHR_materials_specular":{
					"specularFactor":0
				}
			},
			"name":"mat_60_60_60",
			"pbrMetallicRoughness":{
				"baseColorFactor":[
					0.23499999940395355,
					0.23499999940395355,
					0.23499999940395355,
					1
				],
				"metallicFactor":0
			}
		},
		{
			"doubleSided":true,
			"extensions":{
				"KHR_materials_specular":{
					"specularFactor":0
				}
			},
			"name":"mat_31_92_255",
			"pbrMetallicRoughness":{
				"baseColorFactor":[
					0.12200000137090683,
					0.3610000014305115,
					1,
					1
				],
				"metallicFactor":0
			}
		},
		{
			"doubleSided":true,
			"extensions":{
				"KHR_materials_specular":{
					"specularFactor":0
				}
			},
			"name":"mat_230_62_65",
			"pbrMetallicRoughness":{
				"baseColorFactor":[
					0.9020000100135803,
					0.24300000071525574,
					0.2549999952316284,
					1
				],
				"metallicFactor":0
			}
		}
	],
	"meshes":[
		{
			"name":"Torch_Long_Blue",
			"primitives":[
				{
					"attributes":{
						"POSITION":0,
						"NORMAL":1
					},
					"indices":2,
					"material":0
				},
				{
					"attributes":{
						"POSITION":3,
						"NORMAL":4
					},
					"indices":5,
					"material":1
				},
				{
					"attributes":{
						"POSITION":6,
						"NORMAL":7
					},
					"indices":8,
					"material":2
				},
				{
					"attributes":{
						"POSITION":9,
						"NORMAL":10
					},
					"indices":11,
					"material":3
				},
				{
					"attributes":{
						"POSITION":12,
						"NORMAL":13
					},
					"indices":14,
					"material":4
				},
				{
					"attributes":{
						"POSITION":15,
						"NORMAL":16
					},
					"indices":17,
					"material":5
				},
				{
					"attributes":{
						"POSITION":18,
						"NORMAL":19
					},
					"indices":20,
					"material":6
				},
				{
					"attributes":{
						"POSITION":21,
						"NORMAL":22
					},
					"indices":23,
					"material":7
				},
				{
					"attributes":{
						"POSITION":24,
						"NORMAL":25
					},
					"indices":26,
					"material":8
				},
				{
					"attributes":{
						"POSITION":27,
						"NORMAL":28
					},
					"indices":29,
					"material":9
				}
			]
		}
	],
	"accessors":[
		{
			"bufferView":0,
			"componentType":5126,
			"count":6912,
			"max":[
				13,
				18,
				-9
			],
			"min":[
				9,
				2,
				-13
			],
			"type":"VEC3"
		},
		{
			"bufferView":1,
			"componentType":5126,
			"count":6912,
			"type":"VEC3"
		},
		{
			"bufferView":2,
			"componentType":5123,
			"count":10368,
			"type":"SCALAR"
		},
		{
			"bufferView":3,
			"componentType":5126,
			"count":1920,
			"max":[
				13,
				24,
				-9
			],
			"min":[
				9,
				19,
				-13
			],
			"type":"VEC3"
		},
		{
			"bufferView":4,
			"componentType":5126,
			"count":1920,
			"type":"VEC3"
		},
		{
			"bufferView":5,
			"componentType":5123,
			"count":2880,
			"type":"SCALAR"
		},
		{
			"bufferView":6,
			"componentType":5126,
			"count":1632,
			"max":[
				13,
				24,
				-9
			],
			"min":[
				9,
				19,
				-13
			],
			"type":"VEC3"
		},
		{
			"bufferView":7,
			"componentType":5126,
			"count":1632,
			"type":"VEC3"
		},
		{
			"bufferView":8,
			"componentType":5123,
			"count":2448,
			"type":"SCALAR"
		},
		{
			"bufferView":9,
			"componentType":5126,
			"count":2208,
			"max":[
				13,
				24,
				-9
			],
			"min":[
				9,
				19,
				-13
			],
			"type":"VEC3"
		},
		{
			"bufferView":10,
			"componentType":5126,
			"count":2208,
			"type":"VEC3"
		},
		{
			"bufferView":11,
			"componentType":5123,
			"count":3312,
			"type":"SCALAR"
		},
		{
			"bufferView":12,
			"componentType":5126,
			"count":1248,
			"max":[
				14,
				29,
				-7
			],
			"min":[
				8,
				23,
				-15
			],
			"type":"VEC3"
		},
		{
			"bufferView":13,
			"componentType":5126,
			"count":1248,
			"type":"VEC3"
		},
		{
			"bufferView":14,
			"componentType":5123,
			"count":1872,
			"type":"SCALAR"
		},
		{
			"bufferView":15,
			"componentType":5126,
			"count":1536,
			"max":[
				13,
				27,
				-8
			],
			"min":[
				9,
				23,
				-14
			],
			"type":"VEC3"
		},
		{
			"bufferView":16,
			"componentType":5126,
			"count":1536,
			"type":"VEC3"
		},
		{
			"bufferView":17,
			"componentType":5123,
			"count":2304,
			"type":"SCALAR"
		},
		{
			"bufferView":18,
			"componentType":5126,
			"count":4608,
			"max":[
				12,
				17,
				-10
			],
			"min":[
				10,
				0,
				-12
			],
			"type":"VEC3"
		},
		{
			"bufferView":19,
			"componentType":5126,
			"count":4608,
			"type":"VEC3"
		},
		{
			"bufferView":20,
			"componentType":5123,
			"count":6912,
			"type":"SCALAR"
		},
		{
			"bufferView":21,
			"componentType":5126,
			"count":384,
			"max":[
				12,
				19,
				-10
			],
			"min":[
				10,
				18,
				-12
			],
			"type":"VEC3"
		},
		{
			"bufferView":22,
			"componentType":5126,
			"count":384,
			"type":"VEC3"
		},
		{
			"bufferView":23,
			"componentType":5123,
			"count":576,
			"type":"SCALAR"
		},
		{
			"bufferView":24,
			"componentType":5126,
			"count":1776,
			"max":[
				13,
				33,
				-8
			],
			"min":[
				9,
				27,
				-14
			],
			"type":"VEC3"
		},
		{
			"bufferView":25,
			"componentType":5126,
			"count":1776,
			"type":"VEC3"
		},
		{
			"bufferView":26,
			"componentType":5123,
			"count":2664,
			"type":"SCALAR"
		},
		{
			"bufferView":27,
			"componentType":5126,
			"count":192,
			"max":[
				13,
				37,
				-8
			],
			"min":[
				9,
				31,
				-14
			],
			"type":"VEC3"
		},
		{
			"bufferView":28,
			"componentType":5126,
			"count":192,
			"type":"VEC3"
		},
		{
			"bufferView":29,
			"componentType":5123,
			"count":288,
			"type":"SCALAR"
		}
	],
	"bufferViews":[
		{
			"buffer":0,
			"byteLength":82944,
			"byteOffset":0,
			"target":34962
		},
		{
			"buffer":0,
			"byteLength":82944,
			"byteOffset":82944,
			"target":34962
		},
		{
			"buffer":0,
			"byteLength":20736,
			"byteOffset":165888,
			"target":34963
		},
		{
			"buffer":0,
			"byteLength":23040,
			"byteOffset":186624,
			"target":34962
		},
		{
			"buffer":0,
			"byteLength":23040,
			"byteOffset":209664,
			"target":34962
		},
		{
			"buffer":0,
			"byteLength":5760,
			"byteOffset":232704,
			"target":34963
		},
		{
			"buffer":0,
			"byteLength":19584,
			"byteOffset":238464,
			"target":34962
		},
		{
			"buffer":0,
			"byteLength":19584,
			"byteOffset":258048,
			"target":34962
		},
		{
			"buffer":0,
			"byteLength":4896,
			"byteOffset":277632,
			"target":34963
		},
		{
			"buffer":0,
			"byteLength":26496,
			"byteOffset":282528,
			"target":34962
		},
		{
			"buffer":0,
			"byteLength":26496,
			"byteOffset":309024,
			"target":34962
		},
		{
			"buffer":0,
			"byteLength":6624,
			"byteOffset":335520,
			"target":34963
		},
		{
			"buffer":0,
			"byteLength":14976,
			"byteOffset":342144,
			"target":34962
		},
		{
			"buffer":0,
			"byteLength":14976,
			"byteOffset":357120,
			"target":34962
		},
		{
			"buffer":0,
			"byteLength":3744,
			"byteOffset":372096,
			"target":34963
		},
		{
			"buffer":0,
			"byteLength":18432,
			"byteOffset":375840,
			"target":34962
		},
		{
			"buffer":0,
			"byteLength":18432,
			"byteOffset":394272,
			"target":34962
		},
		{
			"buffer":0,
			"byteLength":4608,
			"byteOffset":412704,
			"target":34963
		},
		{
			"buffer":0,
			"byteLength":55296,
			"byteOffset":417312,
			"target":34962
		},
		{
			"buffer":0,
			"byteLength":55296,
			"byteOffset":472608,
			"target":34962
		},
		{
			"buffer":0,
			"byteLength":13824,
			"byteOffset":527904,
			"target":34963
		},
		{
			"buffer":0,
			"byteLength":4608,
			"byteOffset":541728,
			"target":34962
		},
		{
			"buffer":0,
			"byteLength":4608,
			"byteOffset":546336,
			"target":34962
		},
		{
			"buffer":0,
			"byteLength":1152,
			"byteOffset":550944,
			"target":34963
		},
		{
			"buffer":0,
			"byteLength":21312,
			"byteOffset":552096,
			"target":34962
		},
		{
			"buffer":0,
			"byteLength":21312,
			"byteOffset":573408,
			"target":34962
		},
		{
			"buffer":0,
			"byteLength":5328,
			"byteOffset":594720,
			"target":34963
		},
		{
			"buffer":0,
			"byteLength":2304,
			"byteOffset":600048,
			"target":34962
		},
		{
			"buffer":0,
			"byteLength":2304,
			"byteOffset":602352,
			"target":34962
		},
		{
			"buffer":0,
			"byteLength":576,
			"byteOffset":604656,
			"target":34963
		}
	],
	"buffers":[
		{
			"byteLength":605232,
			"uri":"Torch_Long_Blue.bin"
		}
	]
}
