{
	"asset":{
		"generator":"Khronos glTF Blender I/O v5.0.21",
		"version":"2.0"
	},
	"extensionsUsed":[
		"KHR_materials_specular"
	],
	"scene":0,
	"scenes":[
		{
			"name":"Scene",
			"nodes":[
				0
			]
		}
	],
	"nodes":[
		{
			"mesh":0,
			"name":"Tree_Birch",
			"rotation":[
				0.7071068286895752,
				0,
				0,
				0.7071068286895752
			]
		}
	],
	"materials":[
		{
			"doubleSided":true,
			"extensions":{
				"KHR_materials_specular":{
					"specularFactor":0
				}
			},
			"name":"mat_255_255_255",
			"pbrMetallicRoughness":{
				"metallicFactor":0
			}
		},
		{
			"doubleSided":true,
			"extensions":{
				"KHR_materials_specular":{
					"specularFactor":0
				}
			},
			"name":"mat_58_57_77",
			"pbrMetallicRoughness":{
				"baseColorFactor":[
					0.22699999809265137,
					0.2240000069141388,
					0.3019999861717224,
					1
				],
				"metallicFactor":0
			}
		},
		{
			"doubleSided":true,
			"extensions":{
				"KHR_materials_specular":{
					"specularFactor":0
				}
			},
			"name":"mat_199_171_99",
			"pbrMetallicRoughness":{
				"baseColorFactor":[
					0.7799999713897705,
					0.6710000038146973,
					0.3880000114440918,
					1
				],
				"metallicFactor":0
			}
		},
		{
			"doubleSided":true,
			"extensions":{
				"KHR_materials_specular":{
					"specularFactor":0
				}
			},
			"name":"mat_161_168_102",
			"pbrMetallicRoughness":{
				"baseColorFactor":[
					0.6309999823570251,
					0.6589999794960022,
					0.4000000059604645,
					1
				],
				"metallicFactor":0
			}
		},
		{
			"doubleSided":true,
			"extensions":{
				"KHR_materials_specular":{
					"specularFactor":0
				}
			},
			"name":"mat_184_159_92",
			"pbrMetallicRoughness":{
				"baseColorFactor":[
					0.722000002861023,
					0.6240000128746033,
					0.3610000014305115,
					1
				],
				"metallicFactor":0
			}
		}
	],
	"meshes":[
		{
			"name":"Tree_Birch",
			"primitives":[
				{
					"attributes":{
						"POSITION":0,
						"NORMAL":1
					},
					"indices":2,
					"material":0
				},
				{
					"attributes":{
						"POSITION":3,
						"NORMAL":4
					},
					"indices":5,
					"material":1
				},
				{
					"attributes":{
						"POSITION":6,
						"NORMAL":7
					},
					"indices":8,
					"material":2
				},
				{
					"attributes":{
						"POSITION":9,
						"NORMAL":10
					},
					"indices":11,
					"material":3
				},
				{
					"attributes":{
						"POSITION":12,
						"NORMAL":13
					},
					"indices":14,
					"material":4
				}
			]
		}
	],
	"accessors":[
		{
			"bufferView":0,
			"componentType":5126,
			"count":69720,
			"max":[
				23,
				32,
				-8
			],
			"min":[
				7,
				0,
				-26
			],
			"type":"VEC3"
		},
		{
			"bufferView":1,
			"componentType":5126,
			"count":69720,
			"type":"VEC3"
		},
		{
			"bufferView":2,
			"componentType":5125,
			"count":104580,
			"type":"SCALAR"
		},
		{
			"bufferView":3,
			"componentType":5126,
			"count":19680,
			"max":[
				23,
				31,
				-8
			],
			"min":[
				7,
				0,
				-25
			],
			"type":"VEC3"
		},
		{
			"bufferView":4,
			"componentType":5126,
			"count":19680,
			"type":"VEC3"
		},
		{
			"bufferView":5,
			"componentType":5123,
			"count":29520,
			"type":"SCALAR"
		},
		{
			"bufferView":6,
			"componentType":5126,
			"count":184872,
			"max":[
				27,
				35,
				-4
			],
			"min":[
				5,
				18,
				-29
			],
			"type":"VEC3"
		},
		{
			"bufferView":7,
			"componentType":5126,
			"count":184872,
			"type":"VEC3"
		},
		{
			"bufferView":8,
			"componentType":5125,
			"count":277308,
			"type":"SCALAR"
		},
		{
			"bufferView":9,
			"componentType":5126,
			"count":24792,
			"max":[
				27,
				35,
				-3
			],
			"min":[
				5,
				18,
				-28
			],
			"type":"VEC3"
		},
		{
			"bufferView":10,
			"componentType":5126,
			"count":24792,
			"type":"VEC3"
		},
		{
			"bufferView":11,
			"componentType":5123,
			"count":37188,
			"type":"SCALAR"
		},
		{
			"bufferView":12,
			"componentType":5126,
			"count":27408,
			"max":[
				26,
				35,
				-4
			],
			"min":[
				5,
				18,
				-27
			],
			"type":"VEC3"
		},
		{
			"bufferView":13,
			"componentType":5126,
			"count":27408,
			"type":"VEC3"
		},
		{
			"bufferView":14,
			"componentType":5123,
			"count":41112,
			"type":"SCALAR"
		}
	],
	"bufferViews":[
		{
			"buffer":0,
			"byteLength":836640,
			"byteOffset":0,
			"target":34962
		},
		{
			"buffer":0,
			"byteLength":836640,
			"byteOffset":836640,
			"target":34962
		},
		{
			"buffer":0,
			"byteLength":418320,
			"byteOffset":1673280,
			"target":34963
		},
		{
			"buffer":0,
			"byteLength":236160,
			"byteOffset":2091600,
			"target":34962
		},
		{
			"buffer":0,
			"byteLength":236160,
			"byteOffset":2327760,
			"target":34962
		},
		{
			"buffer":0,
			"byteLength":59040,
			"byteOffset":2563920,
			"target":34963
		},
		{
			"buffer":0,
			"byteLength":2218464,
			"byteOffset":2622960,
			"target":34962
		},
		{
			"buffer":0,
			"byteLength":2218464,
			"byteOffset":4841424,
			"target":34962
		},
		{
			"buffer":0,
			"byteLength":1109232,
			"byteOffset":7059888,
			"target":34963
		},
		{
			"buffer":0,
			"byteLength":297504,
			"byteOffset":8169120,
			"target":34962
		},
		{
			"buffer":0,
			"byteLength":297504,
			"byteOffset":8466624,
			"target":34962
		},
		{
			"buffer":0,
			"byteLength":74376,
			"byteOffset":8764128,
			"target":34963
		},
		{
			"buffer":0,
			"byteLength":328896,
			"byteOffset":8838504,
			"target":34962
		},
		{
			"buffer":0,
			"byteLength":328896,
			"byteOffset":9167400,
			"target":34962
		},
		{
			"buffer":0,
			"byteLength":82224,
			"byteOffset":9496296,
			"target":34963
		}
	],
	"buffers":[
		{
			"byteLength":9578520,
			"uri":"Tree_Birch.bin"
		}
	]
}
