{
	"asset":{
		"generator":"Khronos glTF Blender I/O v5.0.21",
		"version":"2.0"
	},
	"extensionsUsed":[
		"KHR_materials_specular"
	],
	"scene":0,
	"scenes":[
		{
			"name":"Scene",
			"nodes":[
				0
			]
		}
	],
	"nodes":[
		{
			"mesh":0,
			"name":"Tree",
			"rotation":[
				0.7071068286895752,
				0,
				0,
				0.7071068286895752
			]
		}
	],
	"materials":[
		{
			"doubleSided":true,
			"extensions":{
				"KHR_materials_specular":{
					"specularFactor":0
				}
			},
			"name":"mat_99_123_52",
			"pbrMetallicRoughness":{
				"baseColorFactor":[
					0.3880000114440918,
					0.4819999933242798,
					0.20399999618530273,
					1
				],
				"metallicFactor":0
			}
		},
		{
			"doubleSided":true,
			"extensions":{
				"KHR_materials_specular":{
					"specularFactor":0
				}
			},
			"name":"mat_90_115_46",
			"pbrMetallicRoughness":{
				"baseColorFactor":[
					0.3529999852180481,
					0.45100000500679016,
					0.18000000715255737,
					1
				],
				"metallicFactor":0
			}
		},
		{
			"doubleSided":true,
			"extensions":{
				"KHR_materials_specular":{
					"specularFactor":0
				}
			},
			"name":"mat_79_101_41",
			"pbrMetallicRoughness":{
				"baseColorFactor":[
					0.3100000023841858,
					0.3959999978542328,
					0.16099999845027924,
					1
				],
				"metallicFactor":0
			}
		},
		{
			"doubleSided":true,
			"extensions":{
				"KHR_materials_specular":{
					"specularFactor":0
				}
			},
			"name":"mat_89_45_26",
			"pbrMetallicRoughness":{
				"baseColorFactor":[
					0.3490000069141388,
					0.17599999904632568,
					0.10199999809265137,
					1
				],
				"metallicFactor":0
			}
		},
		{
			"doubleSided":true,
			"extensions":{
				"KHR_materials_specular":{
					"specularFactor":0
				}
			},
			"name":"mat_106_52_29",
			"pbrMetallicRoughness":{
				"baseColorFactor":[
					0.41600000858306885,
					0.20399999618530273,
					0.11400000005960464,
					1
				],
				"metallicFactor":0
			}
		},
		{
			"doubleSided":true,
			"extensions":{
				"KHR_materials_specular":{
					"specularFactor":0
				}
			},
			"name":"mat_68_37_25",
			"pbrMetallicRoughness":{
				"baseColorFactor":[
					0.2669999897480011,
					0.14499999582767487,
					0.09799999743700027,
					1
				],
				"metallicFactor":0
			}
		}
	],
	"meshes":[
		{
			"name":"Tree",
			"primitives":[
				{
					"attributes":{
						"POSITION":0,
						"NORMAL":1
					},
					"indices":2,
					"material":0
				},
				{
					"attributes":{
						"POSITION":3,
						"NORMAL":4
					},
					"indices":5,
					"material":1
				},
				{
					"attributes":{
						"POSITION":6,
						"NORMAL":7
					},
					"indices":8,
					"material":2
				},
				{
					"attributes":{
						"POSITION":9,
						"NORMAL":10
					},
					"indices":11,
					"material":3
				},
				{
					"attributes":{
						"POSITION":12,
						"NORMAL":13
					},
					"indices":14,
					"material":4
				},
				{
					"attributes":{
						"POSITION":15,
						"NORMAL":16
					},
					"indices":17,
					"material":5
				}
			]
		}
	],
	"accessors":[
		{
			"bufferView":0,
			"componentType":5126,
			"count":58800,
			"max":[
				29,
				40,
				-6
			],
			"min":[
				3,
				15,
				-26
			],
			"type":"VEC3"
		},
		{
			"bufferView":1,
			"componentType":5126,
			"count":58800,
			"type":"VEC3"
		},
		{
			"bufferView":2,
			"componentType":5123,
			"count":88200,
			"type":"SCALAR"
		},
		{
			"bufferView":3,
			"componentType":5126,
			"count":822792,
			"max":[
				29,
				40,
				-6
			],
			"min":[
				4,
				15,
				-26
			],
			"type":"VEC3"
		},
		{
			"bufferView":4,
			"componentType":5126,
			"count":822792,
			"type":"VEC3"
		},
		{
			"bufferView":5,
			"componentType":5125,
			"count":1234188,
			"type":"SCALAR"
		},
		{
			"bufferView":6,
			"componentType":5126,
			"count":67728,
			"max":[
				28,
				40,
				-6
			],
			"min":[
				3,
				15,
				-26
			],
			"type":"VEC3"
		},
		{
			"bufferView":7,
			"componentType":5126,
			"count":67728,
			"type":"VEC3"
		},
		{
			"bufferView":8,
			"componentType":5125,
			"count":101592,
			"type":"SCALAR"
		},
		{
			"bufferView":9,
			"componentType":5126,
			"count":33624,
			"max":[
				19,
				28,
				-12
			],
			"min":[
				13,
				0,
				-19
			],
			"type":"VEC3"
		},
		{
			"bufferView":10,
			"componentType":5126,
			"count":33624,
			"type":"VEC3"
		},
		{
			"bufferView":11,
			"componentType":5123,
			"count":50436,
			"type":"SCALAR"
		},
		{
			"bufferView":12,
			"componentType":5126,
			"count":10344,
			"max":[
				19,
				28,
				-12
			],
			"min":[
				12,
				0,
				-19
			],
			"type":"VEC3"
		},
		{
			"bufferView":13,
			"componentType":5126,
			"count":10344,
			"type":"VEC3"
		},
		{
			"bufferView":14,
			"componentType":5123,
			"count":15516,
			"type":"SCALAR"
		},
		{
			"bufferView":15,
			"componentType":5126,
			"count":21288,
			"max":[
				20,
				28,
				-12
			],
			"min":[
				12,
				0,
				-19
			],
			"type":"VEC3"
		},
		{
			"bufferView":16,
			"componentType":5126,
			"count":21288,
			"type":"VEC3"
		},
		{
			"bufferView":17,
			"componentType":5123,
			"count":31932,
			"type":"SCALAR"
		}
	],
	"bufferViews":[
		{
			"buffer":0,
			"byteLength":705600,
			"byteOffset":0,
			"target":34962
		},
		{
			"buffer":0,
			"byteLength":705600,
			"byteOffset":705600,
			"target":34962
		},
		{
			"buffer":0,
			"byteLength":176400,
			"byteOffset":1411200,
			"target":34963
		},
		{
			"buffer":0,
			"byteLength":9873504,
			"byteOffset":1587600,
			"target":34962
		},
		{
			"buffer":0,
			"byteLength":9873504,
			"byteOffset":11461104,
			"target":34962
		},
		{
			"buffer":0,
			"byteLength":4936752,
			"byteOffset":21334608,
			"target":34963
		},
		{
			"buffer":0,
			"byteLength":812736,
			"byteOffset":26271360,
			"target":34962
		},
		{
			"buffer":0,
			"byteLength":812736,
			"byteOffset":27084096,
			"target":34962
		},
		{
			"buffer":0,
			"byteLength":406368,
			"byteOffset":27896832,
			"target":34963
		},
		{
			"buffer":0,
			"byteLength":403488,
			"byteOffset":28303200,
			"target":34962
		},
		{
			"buffer":0,
			"byteLength":403488,
			"byteOffset":28706688,
			"target":34962
		},
		{
			"buffer":0,
			"byteLength":100872,
			"byteOffset":29110176,
			"target":34963
		},
		{
			"buffer":0,
			"byteLength":124128,
			"byteOffset":29211048,
			"target":34962
		},
		{
			"buffer":0,
			"byteLength":124128,
			"byteOffset":29335176,
			"target":34962
		},
		{
			"buffer":0,
			"byteLength":31032,
			"byteOffset":29459304,
			"target":34963
		},
		{
			"buffer":0,
			"byteLength":255456,
			"byteOffset":29490336,
			"target":34962
		},
		{
			"buffer":0,
			"byteLength":255456,
			"byteOffset":29745792,
			"target":34962
		},
		{
			"buffer":0,
			"byteLength":63864,
			"byteOffset":30001248,
			"target":34963
		}
	],
	"buffers":[
		{
			"byteLength":30065112,
			"uri":"Tree.bin"
		}
	]
}
