{
	"asset":{
		"generator":"Khronos glTF Blender I/O v5.0.21",
		"version":"2.0"
	},
	"extensionsUsed":[
		"KHR_materials_specular"
	],
	"scene":0,
	"scenes":[
		{
			"name":"Scene",
			"nodes":[
				0
			]
		}
	],
	"nodes":[
		{
			"mesh":0,
			"name":"Tree_Pine",
			"rotation":[
				0.7071068286895752,
				0,
				0,
				0.7071068286895752
			]
		}
	],
	"materials":[
		{
			"doubleSided":true,
			"extensions":{
				"KHR_materials_specular":{
					"specularFactor":0
				}
			},
			"name":"mat_89_45_26",
			"pbrMetallicRoughness":{
				"baseColorFactor":[
					0.3490000069141388,
					0.17599999904632568,
					0.10199999809265137,
					1
				],
				"metallicFactor":0
			}
		},
		{
			"doubleSided":true,
			"extensions":{
				"KHR_materials_specular":{
					"specularFactor":0
				}
			},
			"name":"mat_106_52_29",
			"pbrMetallicRoughness":{
				"baseColorFactor":[
					0.41600000858306885,
					0.20399999618530273,
					0.11400000005960464,
					1
				],
				"metallicFactor":0
			}
		},
		{
			"doubleSided":true,
			"extensions":{
				"KHR_materials_specular":{
					"specularFactor":0
				}
			},
			"name":"mat_68_37_25",
			"pbrMetallicRoughness":{
				"baseColorFactor":[
					0.2669999897480011,
					0.14499999582767487,
					0.09799999743700027,
					1
				],
				"metallicFactor":0
			}
		},
		{
			"doubleSided":true,
			"extensions":{
				"KHR_materials_specular":{
					"specularFactor":0
				}
			},
			"name":"mat_90_119_40",
			"pbrMetallicRoughness":{
				"baseColorFactor":[
					0.3529999852180481,
					0.46700000762939453,
					0.15700000524520874,
					1
				],
				"metallicFactor":0
			}
		},
		{
			"doubleSided":true,
			"extensions":{
				"KHR_materials_specular":{
					"specularFactor":0
				}
			},
			"name":"mat_90_115_46",
			"pbrMetallicRoughness":{
				"baseColorFactor":[
					0.3529999852180481,
					0.45100000500679016,
					0.18000000715255737,
					1
				],
				"metallicFactor":0
			}
		},
		{
			"doubleSided":true,
			"extensions":{
				"KHR_materials_specular":{
					"specularFactor":0
				}
			},
			"name":"mat_83_106_43",
			"pbrMetallicRoughness":{
				"baseColorFactor":[
					0.32499998807907104,
					0.41600000858306885,
					0.16899999976158142,
					1
				],
				"metallicFactor":0
			}
		}
	],
	"meshes":[
		{
			"name":"Tree_Pine",
			"primitives":[
				{
					"attributes":{
						"POSITION":0,
						"NORMAL":1
					},
					"indices":2,
					"material":0
				},
				{
					"attributes":{
						"POSITION":3,
						"NORMAL":4
					},
					"indices":5,
					"material":1
				},
				{
					"attributes":{
						"POSITION":6,
						"NORMAL":7
					},
					"indices":8,
					"material":2
				},
				{
					"attributes":{
						"POSITION":9,
						"NORMAL":10
					},
					"indices":11,
					"material":3
				},
				{
					"attributes":{
						"POSITION":12,
						"NORMAL":13
					},
					"indices":14,
					"material":4
				},
				{
					"attributes":{
						"POSITION":15,
						"NORMAL":16
					},
					"indices":17,
					"material":5
				}
			]
		}
	],
	"accessors":[
		{
			"bufferView":0,
			"componentType":5126,
			"count":33216,
			"max":[
				19,
				28,
				-12
			],
			"min":[
				12,
				0,
				-19
			],
			"type":"VEC3"
		},
		{
			"bufferView":1,
			"componentType":5126,
			"count":33216,
			"type":"VEC3"
		},
		{
			"bufferView":2,
			"componentType":5123,
			"count":49824,
			"type":"SCALAR"
		},
		{
			"bufferView":3,
			"componentType":5126,
			"count":10272,
			"max":[
				20,
				28,
				-12
			],
			"min":[
				13,
				0,
				-19
			],
			"type":"VEC3"
		},
		{
			"bufferView":4,
			"componentType":5126,
			"count":10272,
			"type":"VEC3"
		},
		{
			"bufferView":5,
			"componentType":5123,
			"count":15408,
			"type":"SCALAR"
		},
		{
			"bufferView":6,
			"componentType":5126,
			"count":21024,
			"max":[
				20,
				28,
				-12
			],
			"min":[
				13,
				0,
				-19
			],
			"type":"VEC3"
		},
		{
			"bufferView":7,
			"componentType":5126,
			"count":21024,
			"type":"VEC3"
		},
		{
			"bufferView":8,
			"componentType":5123,
			"count":31536,
			"type":"SCALAR"
		},
		{
			"bufferView":9,
			"componentType":5126,
			"count":29280,
			"max":[
				24,
				35,
				-8
			],
			"min":[
				9,
				8,
				-23
			],
			"type":"VEC3"
		},
		{
			"bufferView":10,
			"componentType":5126,
			"count":29280,
			"type":"VEC3"
		},
		{
			"bufferView":11,
			"componentType":5123,
			"count":43920,
			"type":"SCALAR"
		},
		{
			"bufferView":12,
			"componentType":5126,
			"count":256128,
			"max":[
				24,
				37,
				-8
			],
			"min":[
				8,
				8,
				-23
			],
			"type":"VEC3"
		},
		{
			"bufferView":13,
			"componentType":5126,
			"count":256128,
			"type":"VEC3"
		},
		{
			"bufferView":14,
			"componentType":5125,
			"count":384192,
			"type":"SCALAR"
		},
		{
			"bufferView":15,
			"componentType":5126,
			"count":43152,
			"max":[
				24,
				37,
				-8
			],
			"min":[
				9,
				8,
				-23
			],
			"type":"VEC3"
		},
		{
			"bufferView":16,
			"componentType":5126,
			"count":43152,
			"type":"VEC3"
		},
		{
			"bufferView":17,
			"componentType":5123,
			"count":64728,
			"type":"SCALAR"
		}
	],
	"bufferViews":[
		{
			"buffer":0,
			"byteLength":398592,
			"byteOffset":0,
			"target":34962
		},
		{
			"buffer":0,
			"byteLength":398592,
			"byteOffset":398592,
			"target":34962
		},
		{
			"buffer":0,
			"byteLength":99648,
			"byteOffset":797184,
			"target":34963
		},
		{
			"buffer":0,
			"byteLength":123264,
			"byteOffset":896832,
			"target":34962
		},
		{
			"buffer":0,
			"byteLength":123264,
			"byteOffset":1020096,
			"target":34962
		},
		{
			"buffer":0,
			"byteLength":30816,
			"byteOffset":1143360,
			"target":34963
		},
		{
			"buffer":0,
			"byteLength":252288,
			"byteOffset":1174176,
			"target":34962
		},
		{
			"buffer":0,
			"byteLength":252288,
			"byteOffset":1426464,
			"target":34962
		},
		{
			"buffer":0,
			"byteLength":63072,
			"byteOffset":1678752,
			"target":34963
		},
		{
			"buffer":0,
			"byteLength":351360,
			"byteOffset":1741824,
			"target":34962
		},
		{
			"buffer":0,
			"byteLength":351360,
			"byteOffset":2093184,
			"target":34962
		},
		{
			"buffer":0,
			"byteLength":87840,
			"byteOffset":2444544,
			"target":34963
		},
		{
			"buffer":0,
			"byteLength":3073536,
			"byteOffset":2532384,
			"target":34962
		},
		{
			"buffer":0,
			"byteLength":3073536,
			"byteOffset":5605920,
			"target":34962
		},
		{
			"buffer":0,
			"byteLength":1536768,
			"byteOffset":8679456,
			"target":34963
		},
		{
			"buffer":0,
			"byteLength":517824,
			"byteOffset":10216224,
			"target":34962
		},
		{
			"buffer":0,
			"byteLength":517824,
			"byteOffset":10734048,
			"target":34962
		},
		{
			"buffer":0,
			"byteLength":129456,
			"byteOffset":11251872,
			"target":34963
		}
	],
	"buffers":[
		{
			"byteLength":11381328,
			"uri":"Tree_Pine.bin"
		}
	]
}
