{
	"asset":{
		"generator":"Khronos glTF Blender I/O v5.0.21",
		"version":"2.0"
	},
	"extensionsUsed":[
		"KHR_materials_specular"
	],
	"scene":0,
	"scenes":[
		{
			"name":"Scene",
			"nodes":[
				0
			]
		}
	],
	"nodes":[
		{
			"mesh":0,
			"name":"Tree_trunk",
			"rotation":[
				0.7071068286895752,
				0,
				0,
				0.7071068286895752
			]
		}
	],
	"materials":[
		{
			"doubleSided":true,
			"extensions":{
				"KHR_materials_specular":{
					"specularFactor":0
				}
			},
			"name":"mat_89_45_26",
			"pbrMetallicRoughness":{
				"baseColorFactor":[
					0.3490000069141388,
					0.17599999904632568,
					0.10199999809265137,
					1
				],
				"metallicFactor":0
			}
		},
		{
			"doubleSided":true,
			"extensions":{
				"KHR_materials_specular":{
					"specularFactor":0
				}
			},
			"name":"mat_106_52_29",
			"pbrMetallicRoughness":{
				"baseColorFactor":[
					0.41600000858306885,
					0.20399999618530273,
					0.11400000005960464,
					1
				],
				"metallicFactor":0
			}
		},
		{
			"doubleSided":true,
			"extensions":{
				"KHR_materials_specular":{
					"specularFactor":0
				}
			},
			"name":"mat_68_37_25",
			"pbrMetallicRoughness":{
				"baseColorFactor":[
					0.2669999897480011,
					0.14499999582767487,
					0.09799999743700027,
					1
				],
				"metallicFactor":0
			}
		}
	],
	"meshes":[
		{
			"name":"Tree_trunk",
			"primitives":[
				{
					"attributes":{
						"POSITION":0,
						"NORMAL":1
					},
					"indices":2,
					"material":0
				},
				{
					"attributes":{
						"POSITION":3,
						"NORMAL":4
					},
					"indices":5,
					"material":1
				},
				{
					"attributes":{
						"POSITION":6,
						"NORMAL":7
					},
					"indices":8,
					"material":2
				}
			]
		}
	],
	"accessors":[
		{
			"bufferView":0,
			"componentType":5126,
			"count":3768,
			"max":[
				18,
				28,
				-14
			],
			"min":[
				14,
				0,
				-18
			],
			"type":"VEC3"
		},
		{
			"bufferView":1,
			"componentType":5126,
			"count":3768,
			"type":"VEC3"
		},
		{
			"bufferView":2,
			"componentType":5123,
			"count":5652,
			"type":"SCALAR"
		},
		{
			"bufferView":3,
			"componentType":5126,
			"count":1152,
			"max":[
				18,
				28,
				-14
			],
			"min":[
				14,
				0,
				-18
			],
			"type":"VEC3"
		},
		{
			"bufferView":4,
			"componentType":5126,
			"count":1152,
			"type":"VEC3"
		},
		{
			"bufferView":5,
			"componentType":5123,
			"count":1728,
			"type":"SCALAR"
		},
		{
			"bufferView":6,
			"componentType":5126,
			"count":2424,
			"max":[
				18,
				28,
				-14
			],
			"min":[
				14,
				0,
				-18
			],
			"type":"VEC3"
		},
		{
			"bufferView":7,
			"componentType":5126,
			"count":2424,
			"type":"VEC3"
		},
		{
			"bufferView":8,
			"componentType":5123,
			"count":3636,
			"type":"SCALAR"
		}
	],
	"bufferViews":[
		{
			"buffer":0,
			"byteLength":45216,
			"byteOffset":0,
			"target":34962
		},
		{
			"buffer":0,
			"byteLength":45216,
			"byteOffset":45216,
			"target":34962
		},
		{
			"buffer":0,
			"byteLength":11304,
			"byteOffset":90432,
			"target":34963
		},
		{
			"buffer":0,
			"byteLength":13824,
			"byteOffset":101736,
			"target":34962
		},
		{
			"buffer":0,
			"byteLength":13824,
			"byteOffset":115560,
			"target":34962
		},
		{
			"buffer":0,
			"byteLength":3456,
			"byteOffset":129384,
			"target":34963
		},
		{
			"buffer":0,
			"byteLength":29088,
			"byteOffset":132840,
			"target":34962
		},
		{
			"buffer":0,
			"byteLength":29088,
			"byteOffset":161928,
			"target":34962
		},
		{
			"buffer":0,
			"byteLength":7272,
			"byteOffset":191016,
			"target":34963
		}
	],
	"buffers":[
		{
			"byteLength":198288,
			"uri":"Tree_trunk.bin"
		}
	]
}
